<svg width="138" height="50" viewBox="0 0 138 50" fill="none"
  xmlns="http://www.w3.org/2000/svg">
  <g clip-path="url(#clip0_315_16047)">
    <path d="M16.723 8.33398C9.75011 8.33398 7.71081 8.34116 7.3144 8.37399C5.88344 8.49272 4.99301 8.71761 4.02294 9.1997C3.27535 9.57024 2.68575 9.99977 2.10386 10.6019C1.04413 11.6999 0.401867 13.0508 0.169368 14.6566C0.0563301 15.4361 0.0234463 15.5951 0.0167668 19.577C0.0141978 20.9043 0.0167668 22.6511 0.0167668 24.9941C0.0167668 31.9485 0.0244739 33.982 0.0578716 34.377C0.173479 35.7668 0.391848 36.6413 0.854276 37.5977C1.73803 39.4287 3.42589 40.8031 5.41433 41.316C6.10284 41.4929 6.86328 41.5904 7.83952 41.6365C8.25313 41.6545 12.4689 41.6673 16.6873 41.6673C20.9057 41.6673 25.1241 41.6622 25.5274 41.6417C26.6578 41.5886 27.3142 41.5006 28.0399 41.3134C29.0259 41.0611 29.9448 40.5969 30.7324 39.9533C31.52 39.3098 32.1574 38.5024 32.6 37.5875C33.0534 36.6541 33.2834 35.7463 33.3874 34.429C33.41 34.1418 33.4195 29.5627 33.4195 24.9898C33.4195 20.416 33.4092 15.8454 33.3866 15.5582C33.2813 14.2196 33.0514 13.3195 32.5833 12.3682C32.1992 11.5894 31.7728 11.0078 31.1536 10.4131C30.0489 9.35971 28.6976 8.71863 27.0871 8.48682C26.3069 8.37424 26.1514 8.34091 22.1591 8.33398H16.723Z" fill="url(#paint0_radial_315_16047)"/>
    <path d="M16.723 8.33398C9.75011 8.33398 7.71081 8.34116 7.3144 8.37399C5.88344 8.49272 4.99301 8.71761 4.02294 9.1997C3.27535 9.57024 2.68575 9.99977 2.10386 10.6019C1.04413 11.6999 0.401867 13.0508 0.169368 14.6566C0.0563301 15.4361 0.0234463 15.5951 0.0167668 19.577C0.0141978 20.9043 0.0167668 22.6511 0.0167668 24.9941C0.0167668 31.9485 0.0244739 33.982 0.0578716 34.377C0.173479 35.7668 0.391848 36.6413 0.854276 37.5977C1.73803 39.4287 3.42589 40.8031 5.41433 41.316C6.10284 41.4929 6.86328 41.5904 7.83952 41.6365C8.25313 41.6545 12.4689 41.6673 16.6873 41.6673C20.9057 41.6673 25.1241 41.6622 25.5274 41.6417C26.6578 41.5886 27.3142 41.5006 28.0399 41.3134C29.0259 41.0611 29.9448 40.5969 30.7324 39.9533C31.52 39.3098 32.1574 38.5024 32.6 37.5875C33.0534 36.6541 33.2834 35.7463 33.3874 34.429C33.41 34.1418 33.4195 29.5627 33.4195 24.9898C33.4195 20.416 33.4092 15.8454 33.3866 15.5582C33.2813 14.2196 33.0514 13.3195 32.5833 12.3682C32.1992 11.5894 31.7728 11.0078 31.1536 10.4131C30.0489 9.35971 28.6976 8.71863 27.0871 8.48682C26.3069 8.37424 26.1514 8.34091 22.1591 8.33398H16.723Z" fill="url(#paint1_radial_315_16047)"/>
    <path d="M16.716 12.6914C13.367 12.6914 12.9467 12.706 11.6313 12.7658C10.3185 12.8258 9.42246 13.0332 8.63839 13.3376C7.82734 13.652 7.13935 14.0725 6.45393 14.757C5.76799 15.4411 5.34667 16.1279 5.03068 16.9372C4.72496 17.72 4.51687 18.6147 4.45778 19.9246C4.3992 21.2375 4.38379 21.6573 4.38379 25.0001C4.38379 28.343 4.39869 28.7612 4.45829 30.0742C4.51866 31.3845 4.7265 32.279 5.03119 33.0616C5.34641 33.8711 5.76773 34.5579 6.45341 35.242C7.13858 35.9267 7.82657 36.3483 8.6371 36.6627C9.42169 36.9671 10.318 37.1745 11.6306 37.2345C12.9459 37.2943 13.3659 37.3089 16.7147 37.3089C20.064 37.3089 20.483 37.2943 21.7983 37.2345C23.1111 37.1745 24.0082 36.9671 24.7928 36.6627C25.6036 36.3483 26.2906 35.9267 26.9757 35.242C27.6617 34.5579 28.083 33.8711 28.399 33.0618C28.7021 32.279 28.9102 31.3843 28.9719 30.0744C29.031 28.7615 29.0464 28.343 29.0464 25.0001C29.0464 21.6573 29.031 21.2378 28.9719 19.9248C28.9102 18.6145 28.7021 17.72 28.399 16.9374C28.083 16.1279 27.6617 15.4411 26.9757 14.757C26.2898 14.0723 25.6039 13.6517 24.792 13.3376C24.0059 13.0332 23.1093 12.8258 21.7965 12.7658C20.4812 12.706 20.0624 12.6914 16.7124 12.6914H16.716ZM15.6098 14.9095C15.9381 14.909 16.3044 14.9095 16.716 14.9095C20.0085 14.9095 20.3987 14.9213 21.6989 14.9803C22.9012 15.0352 23.5538 15.2357 23.9884 15.4042C24.5639 15.6273 24.9742 15.894 25.4055 16.3248C25.8371 16.7556 26.1043 17.1659 26.3283 17.7403C26.4971 18.1737 26.6983 18.825 26.753 20.0251C26.8121 21.3226 26.8249 21.7124 26.8249 24.9973C26.8249 28.2822 26.8121 28.672 26.753 29.9695C26.698 31.1696 26.4971 31.821 26.3283 32.2543C26.1048 32.8288 25.8371 33.2378 25.4055 33.6683C24.9739 34.0991 24.5642 34.3658 23.9884 34.5889C23.5543 34.7581 22.9012 34.9582 21.6989 35.013C20.399 35.072 20.0085 35.0848 16.716 35.0848C13.4232 35.0848 13.033 35.072 11.7331 35.013C10.5307 34.9576 9.87821 34.7571 9.44327 34.5886C8.8678 34.3655 8.45676 34.0989 8.02516 33.6681C7.59356 33.2372 7.32638 32.828 7.10236 32.2533C6.93357 31.82 6.73241 31.1686 6.67769 29.9685C6.6186 28.671 6.60679 28.2812 6.60679 24.9942C6.60679 21.7073 6.6186 21.3196 6.67769 20.022C6.73267 18.8219 6.93357 18.1706 7.10236 17.7367C7.32586 17.1623 7.59356 16.752 8.02516 16.3212C8.45676 15.8904 8.8678 15.6237 9.44327 15.4001C9.87795 15.2309 10.5307 15.0308 11.7331 14.9757C12.8706 14.9244 13.3115 14.909 15.6098 14.9065V14.9095ZM23.2984 16.9533C23.0057 16.9533 22.7196 17.0399 22.4762 17.2023C22.2329 17.3646 22.0432 17.5953 21.9312 17.8652C21.8192 18.1352 21.79 18.4322 21.8471 18.7187C21.9042 19.0052 22.0452 19.2684 22.2522 19.475C22.4592 19.6815 22.7229 19.8221 23.01 19.8791C23.2971 19.936 23.5947 19.9067 23.865 19.7948C24.1354 19.6829 24.3665 19.4936 24.529 19.2506C24.6916 19.0076 24.7783 18.722 24.7782 18.4298C24.7782 17.6144 24.1154 16.9528 23.2984 16.9528V16.9533ZM16.716 18.6791C13.2187 18.6791 10.3833 21.5093 10.3833 25.0001C10.3833 28.4909 13.2187 31.3199 16.716 31.3199C20.2132 31.3199 23.0479 28.4909 23.0479 25.0001C23.0479 21.5093 20.2132 18.6791 16.716 18.6791ZM16.716 20.8972C18.986 20.8972 20.8265 22.7341 20.8265 25.0001C20.8265 27.266 18.986 29.1031 16.716 29.1031C14.4457 29.1031 12.6055 27.266 12.6055 25.0001C12.6055 22.7341 14.4457 20.8972 16.716 20.8972Z" fill="white"/>
  </g>
  <g clip-path="url(#clip1_315_16047)">
    <path d="M46.3368 11.5077C44.3763 12.3282 42.2204 14.6435 41.5399 17.5557C40.6766 21.2422 44.2659 22.7991 44.5592 22.2912C44.9042 21.6887 43.9139 21.4865 43.7117 19.575C43.4516 17.103 44.5978 14.3412 46.0442 13.1294C46.3141 12.9079 46.301 13.2205 46.301 13.7967C46.301 14.836 46.243 24.1345 46.243 26.0757C46.243 28.7036 46.1353 29.5311 45.9366 30.3481C45.7413 31.179 45.4252 31.7394 45.6633 31.9575C45.9331 32.1983 47.0794 31.6248 47.744 30.6973C48.539 29.5862 48.8191 28.2509 48.8709 26.8017C48.9296 25.0564 48.9261 22.2815 48.9296 20.7019C48.9296 19.2492 48.9524 15.0023 48.9068 12.4455C48.8937 11.8203 47.1546 11.1654 46.3368 11.5077ZM136.728 25.3035C136.448 25.3035 136.315 25.5968 136.207 26.0888C135.836 27.8051 135.446 28.1923 134.94 28.1923C134.377 28.1923 133.872 27.3428 133.739 25.6423C133.638 24.307 133.654 21.8447 133.784 19.3955C133.811 18.8938 133.673 18.3962 132.325 17.9042C131.742 17.6958 130.898 17.3832 130.479 18.399C129.29 21.2623 128.827 23.5417 128.716 24.4636C128.714 24.5119 128.655 24.5189 128.645 24.4084C128.577 23.6686 128.42 22.3236 128.401 19.4963C128.394 18.9497 128.28 18.477 127.668 18.0926C127.274 17.8455 126.075 17.4025 125.642 17.927C125.271 18.3569 124.838 19.5101 124.385 20.8779C124.02 21.9917 123.766 22.7473 123.766 22.7473C123.766 22.7473 123.769 19.744 123.776 18.604C123.776 18.174 123.483 18.0312 123.395 18.005C122.994 17.8877 122.202 17.6958 121.871 17.6958C121.457 17.6958 121.359 17.927 121.359 18.2624C121.359 18.3045 121.291 22.2125 121.291 24.9453V25.3297C121.066 26.5871 120.324 28.2937 119.519 28.2937C118.715 28.2937 118.334 27.5801 118.334 24.3235C118.334 22.4244 118.392 21.5977 118.419 20.223C118.435 19.4314 118.467 18.8227 118.464 18.6827C118.457 18.2624 117.724 18.0471 117.386 17.9691C117.044 17.8877 116.747 17.8614 116.513 17.8711C116.188 17.8911 115.956 18.1057 115.956 18.4059V18.8614C115.536 18.1975 114.855 17.7345 114.4 17.6012C113.181 17.2397 111.908 17.5619 110.947 18.9035C110.185 19.9725 109.725 21.1801 109.547 22.9164C109.413 24.1869 109.456 25.4733 109.693 26.5609C109.407 27.7885 108.879 28.2937 108.302 28.2937C107.462 28.2937 106.857 26.9252 106.925 24.5575C106.974 23.0013 107.283 21.9103 107.625 20.3272C107.772 19.6529 107.651 19.3017 107.355 18.9594C107.084 18.653 106.505 18.4935 105.675 18.6854C105.085 18.8255 104.235 18.9753 103.463 19.0898C103.463 19.0898 103.508 18.9035 103.548 18.575C103.746 16.8518 101.873 16.9919 101.277 17.5426C100.919 17.8711 100.675 18.2589 100.584 18.9559C100.437 20.0636 101.339 20.5846 101.339 20.5846C101.043 21.9393 100.32 23.7107 99.5678 24.9909C99.1669 25.6782 98.8605 26.1834 98.4637 26.7237C98.4601 26.525 98.4601 26.3228 98.4601 26.1247C98.4532 23.2746 98.4891 21.0311 98.5056 20.223C98.5222 19.4314 98.5546 18.8386 98.5546 18.6985C98.5478 18.3921 98.369 18.272 97.9908 18.1285C97.6589 17.9987 97.2648 17.9042 96.8577 17.8711C96.3463 17.8324 96.0337 18.1057 96.0434 18.428V18.8614C95.6203 18.1975 94.9392 17.7345 94.49 17.6012C93.2685 17.2397 91.9952 17.5619 91.0346 18.9035C90.2755 19.9725 89.7738 21.4672 89.6302 22.8999C89.5005 24.2421 89.5233 25.3752 89.7055 26.3331C89.5101 27.2903 88.9532 28.2937 88.3218 28.2937C87.5172 28.2937 87.0576 27.5801 87.0576 24.3235C87.0576 22.4244 87.1162 21.5977 87.1459 20.223C87.1617 19.4314 87.1914 18.8227 87.188 18.6827C87.1845 18.2624 86.4523 18.0471 86.11 17.9691C85.7553 17.8849 85.4455 17.8587 85.2108 17.8711C84.8982 17.8973 84.6801 18.174 84.6801 18.3859V18.8614C84.2571 18.1975 83.576 17.7345 83.1233 17.6012C81.9052 17.2397 80.6417 17.5688 79.6741 18.9035C79.0427 19.7737 78.5313 20.7405 78.2677 22.884C78.1959 23.503 78.1601 24.082 78.1635 24.623C77.9123 26.1599 76.8019 27.9321 75.8965 27.9321C75.3624 27.9321 74.8545 26.9024 74.8545 24.7045C74.8545 21.7798 75.0366 17.6109 75.0691 17.2072C75.0691 17.2072 76.2154 17.1872 76.4403 17.1844C77.0104 17.181 77.5314 17.1941 78.2905 17.1548C78.6749 17.1354 79.0427 15.7642 78.6452 15.5917C78.4692 15.5164 77.2057 15.4481 76.704 15.4385C76.2809 15.4288 75.1112 15.3412 75.1112 15.3412C75.1112 15.3412 75.2161 12.5759 75.2389 12.2861C75.2582 12.0383 74.9456 11.9148 74.7634 11.8396C74.3231 11.6512 73.929 11.5629 73.4667 11.4683C72.8187 11.3352 72.5288 11.4656 72.4736 12.0087C72.3887 12.8333 72.3432 15.2501 72.3432 15.2501C71.8677 15.2501 70.2556 15.1549 69.7829 15.1549C69.344 15.1549 68.8679 17.0443 69.4772 17.0671C70.1776 17.0933 71.3922 17.1196 72.1997 17.1416C72.1997 17.1416 72.1638 21.3795 72.1638 22.6852V23.0889C71.7179 25.4042 70.1577 26.6554 70.1577 26.6554C70.493 25.1213 69.8091 23.9716 68.5718 23.0013C68.1156 22.6397 67.2171 21.9586 66.2103 21.2195C66.2103 21.2195 66.7934 20.6432 67.311 19.4901C67.676 18.6723 67.6926 17.7317 66.7934 17.526C65.3083 17.1844 64.0868 18.2755 63.719 19.4411C63.4388 20.3403 63.5858 21.011 64.142 21.7046L64.269 21.8613C63.9371 22.5058 63.4747 23.3753 63.0868 24.0496C62.0027 25.9225 61.185 27.4014 60.5694 27.4014C60.0745 27.4014 60.0808 25.8997 60.0808 24.4926C60.0808 23.2808 60.1719 21.4541 60.2436 19.5653C60.2664 18.9428 59.9538 18.5846 59.43 18.2624C59.1105 18.0671 58.4328 17.6827 58.0388 17.6827C57.4529 17.6827 55.7525 17.7607 54.1473 22.4016C53.9451 22.9882 53.5476 24.053 53.5476 24.053L53.5835 18.4708C53.5835 18.3403 53.5151 18.2168 53.3557 18.1285C53.0852 17.9822 52.3592 17.6827 51.7209 17.6827C51.411 17.6827 51.2578 17.8262 51.2578 18.1092L51.2061 26.8376C51.2061 27.5022 51.2219 28.2771 51.2875 28.616C51.3524 28.9548 51.46 29.2315 51.5904 29.3972C51.7209 29.5573 51.8734 29.6808 52.1212 29.736C52.3523 29.785 53.6255 29.9444 53.6911 29.4593C53.7725 28.8761 53.7753 28.2481 54.4433 25.8935C55.4854 22.2325 56.8407 20.4479 57.4791 19.8123C57.593 19.7019 57.7199 19.695 57.7131 19.8779C57.6841 20.6819 57.5895 22.6852 57.5247 24.3884C57.3521 28.9514 58.1789 29.7947 59.3679 29.7947C60.2733 29.7947 61.55 28.8927 62.9212 26.6133C63.7777 25.1896 64.6051 23.7991 65.2041 22.7929C65.6147 23.1766 66.0833 23.5906 66.5491 24.0337C67.634 25.0592 67.9887 26.0364 67.7512 26.9618C67.5718 27.6712 66.8914 28.4007 65.683 27.6912C65.3311 27.4856 65.1813 27.3262 64.8266 27.0915C64.6375 26.9646 64.3442 26.9287 64.1717 27.0591C63.7155 27.4014 63.4582 27.8341 63.3084 28.3717C63.1683 28.8962 63.6928 29.1694 64.2366 29.4103C64.7024 29.6222 65.7058 29.8078 66.3469 29.8305C68.8451 29.9154 70.845 28.6256 72.2355 25.3035C72.4868 28.1729 73.5447 29.7981 75.3852 29.7981C76.6191 29.7981 77.8537 28.2053 78.3947 26.6388C78.5472 27.2772 78.7784 27.8306 79.0751 28.3034C80.4954 30.5503 83.2503 30.0686 84.6312 28.1598C85.0611 27.567 85.1266 27.3552 85.1266 27.3552C85.3281 29.157 86.7808 29.7912 87.6117 29.7912C88.5461 29.7912 89.5039 29.3489 90.1775 27.8306C90.2589 27.997 90.3438 28.1536 90.4418 28.3034C91.8586 30.5503 94.6134 30.0686 95.9978 28.1598C96.0599 28.0653 96.1186 27.9873 96.1669 27.9121L96.2097 29.0976C96.2097 29.0976 95.4181 29.8209 94.933 30.2667C92.7999 32.2245 91.1775 33.7096 91.0574 35.4356C90.9077 37.6404 92.6923 38.4582 94.0469 38.5652C95.4802 38.6797 96.7114 37.8882 97.4664 36.7743C98.1309 35.7972 98.5678 33.6965 98.5353 31.6186C98.5222 30.7849 98.5022 29.7298 98.4829 28.5932C99.2351 27.7271 100.082 26.6257 100.858 25.3366C101.707 23.9357 102.612 22.0497 103.075 20.5811C103.075 20.5811 103.866 20.588 104.707 20.5356C104.977 20.519 105.055 20.5749 105.003 20.7702C104.944 21.0076 103.942 24.8804 104.857 27.46C105.485 29.2247 106.895 29.7947 107.736 29.7947C108.716 29.7947 109.654 29.0521 110.155 27.9514C110.217 28.0722 110.28 28.1923 110.351 28.3034C111.768 30.5503 114.513 30.0652 115.907 28.1598C116.223 27.7271 116.399 27.3552 116.399 27.3552C116.699 29.2219 118.151 29.7981 118.982 29.7981C119.851 29.7981 120.672 29.4434 121.34 27.8665C121.366 28.5608 121.408 29.1274 121.48 29.3061C121.522 29.4172 121.77 29.5538 121.946 29.6222C122.74 29.9154 123.548 29.7754 123.844 29.7133C124.053 29.6711 124.215 29.5083 124.235 29.0783C124.293 27.9514 124.258 26.0592 124.6 24.6493C125.176 22.2912 125.71 21.3761 125.964 20.9234C126.105 20.6688 126.267 20.6267 126.271 20.8938C126.28 21.4375 126.31 23.0337 126.534 25.1834C126.694 26.7596 126.912 27.694 127.081 27.9908C127.557 28.834 128.15 28.8734 128.629 28.8734C128.935 28.8734 129.573 28.7885 129.517 28.2509C129.488 27.9908 129.537 26.3718 130.101 24.0468C130.472 22.5258 131.087 21.1546 131.309 20.6529C131.394 20.4673 131.43 20.6108 131.43 20.6398C131.381 21.6853 131.277 25.1082 131.7 26.9777C132.28 29.5152 133.95 29.7981 134.533 29.7981C135.774 29.7981 136.794 28.8534 137.136 26.3656C137.22 25.7659 137.096 25.3035 136.728 25.3035ZM84.6539 23.7666C84.5856 25.082 84.3282 26.1834 83.9183 26.9811C83.1689 28.4303 81.6941 28.8865 81.0454 26.7989C80.5734 25.2911 80.7328 23.2325 80.9315 22.1214C81.2179 20.4735 81.9446 19.3079 83.0778 19.4148C84.2371 19.5294 84.8037 21.0242 84.6539 23.7666ZM96.0173 23.786C95.9524 25.0268 95.6301 26.2772 95.2782 26.9811C94.5522 28.44 93.034 28.8962 92.4053 26.7989C91.976 25.3621 92.0768 23.5092 92.2914 22.343C92.5688 20.8254 93.2362 19.4148 94.4383 19.4148C95.6073 19.4148 96.1836 20.6984 96.0173 23.786ZM96.314 32.2666C96.2974 34.5371 95.9427 36.5238 95.1802 37.1035C94.0926 37.9241 92.6303 37.3051 92.9332 35.6509C93.2003 34.1851 94.4673 32.6904 96.3175 30.8629C96.3175 30.8629 96.3238 31.2797 96.314 32.2666ZM115.934 23.7991C115.868 25.1641 115.565 26.2289 115.191 26.9811C114.464 28.44 112.96 28.8927 112.318 26.7989C111.97 25.6555 111.953 23.7466 112.204 22.1546C112.458 20.5321 113.172 19.3079 114.35 19.4148C115.516 19.526 116.061 21.0242 115.934 23.7991Z" fill="url(#paint2_linear_315_16047)"/>
  </g>
  <defs>
    <radialGradient id="paint0_radial_315_16047" cx="0" cy="0" r="1" gradientUnits="userSpaceOnUse" gradientTransform="translate(8.88858 44.2347) rotate(-90) scale(33.0358 30.7909)">
      <stop stop-color="#FFDD55"/>
      <stop offset="0.1" stop-color="#FFDD55"/>
      <stop offset="0.5" stop-color="#FF543E"/>
      <stop offset="1" stop-color="#C837AB"/>
    </radialGradient>
    <radialGradient id="paint1_radial_315_16047" cx="0" cy="0" r="1" gradientUnits="userSpaceOnUse" gradientTransform="translate(-5.5797 10.7353) rotate(78.6573) scale(14.7683 60.9946)">
      <stop stop-color="#3771C8"/>
      <stop offset="0.128" stop-color="#3771C8"/>
      <stop offset="1" stop-color="#6600FF" stop-opacity="0"/>
    </radialGradient>
    <linearGradient id="paint2_linear_315_16047" x1="37.8541" y1="28.8527" x2="49.3387" y2="17.1217" gradientUnits="userSpaceOnUse">
      <stop stop-color="#FFD521"/>
      <stop offset="0.05" stop-color="#FFD521"/>
      <stop offset="0.501119" stop-color="#F50000"/>
      <stop offset="0.95" stop-color="#B900B4"/>
      <stop offset="0.950079" stop-color="#B900B4"/>
      <stop offset="1" stop-color="#B900B4"/>
    </linearGradient>
    <clipPath id="clip0_315_16047">
      <rect width="33.4365" height="50" fill="white"/>
    </clipPath>
    <clipPath id="clip1_315_16047">
      <rect width="96" height="28" fill="white" transform="translate(41.4365 11)"/>
    </clipPath>
  </defs>
</svg>
