<svg width="200" height="37" viewBox="0 0 200 37" fill="none"
    xmlns="http://www.w3.org/2000/svg">
    <path d="M0 0H14.6625C17.4554 0 19.55 0.698216 21.1016 1.86191C22.8084 3.25834 23.7393 5.27541 23.7393 7.75795C23.7393 10.6284 22.5756 12.4127 20.2483 13.4988V13.654C23.3514 14.6625 25.1358 17.4554 25.1358 20.7913C25.1358 23.9721 23.8945 26.4546 21.8774 28.0062C20.1707 29.2475 17.9984 29.7905 15.0504 29.7905H0V0ZM13.1885 11.6369C14.7401 11.6369 15.9038 10.7836 15.9038 8.99922C15.9038 7.29248 14.7401 6.4391 13.1109 6.4391H8.06827V11.5593H13.1885V11.6369ZM13.8867 23.1963C15.6711 23.1963 16.9899 22.1102 16.9899 20.1707C16.9899 18.076 15.5935 17.1451 13.8867 17.1451H8.14585V23.2739H13.8867V23.1963Z" fill="black"/>
    <path d="M26.4551 0H34.1354V29.8681H26.4551V0Z" fill="black"/>
    <path d="M35.6865 19.2393C35.6865 12.4898 40.031 7.99023 46.7804 7.99023C53.5298 7.99023 57.7967 12.5674 57.7967 19.2393C57.7967 25.9887 53.5298 30.4883 46.7804 30.4883C40.031 30.4883 35.6865 25.9887 35.6865 19.2393ZM50.1163 19.2393C50.1163 15.5154 48.9526 13.1881 46.6252 13.1881C44.2979 13.1881 43.2117 15.5154 43.2117 19.2393C43.2117 22.9631 44.2979 25.368 46.6252 25.368C48.9526 25.2905 50.1163 22.9631 50.1163 19.2393Z" fill="black"/>
    <path d="M58.6504 19.2393C58.6504 12.4898 62.9948 7.99023 69.7443 7.99023C76.4937 7.99023 80.683 12.4898 80.683 19.2393C80.683 25.9887 76.4161 30.4883 69.6667 30.4883C62.9948 30.4883 58.6504 25.9887 58.6504 19.2393ZM73.0802 19.2393C73.0802 15.5154 71.9165 13.1881 69.5891 13.1881C67.2617 13.1881 66.1756 15.5154 66.1756 19.2393C66.1756 22.9631 67.2617 25.368 69.5891 25.368C71.9165 25.2905 73.0802 22.9631 73.0802 19.2393Z" fill="black"/>
    <path d="M82.2344 8.5347H89.3717V11.7155H89.5268C90.9233 9.23291 92.8628 7.91406 95.9659 7.91406C98.6812 7.91406 100.698 9.23291 101.707 11.5603H101.862C103.569 8.76744 105.819 7.91406 108.456 7.91406C113.421 7.91406 115.516 11.5603 115.516 16.4478V29.7915H108.068V17.7667C108.068 15.5944 107.37 14.198 105.508 14.198C103.646 14.198 102.715 15.9048 102.715 18.2321V29.7915H95.2677V17.7667C95.2677 15.5944 94.5695 14.198 92.7076 14.198C90.8457 14.198 89.9147 15.9048 89.9147 18.2321V29.7915H82.2344V8.5347Z" fill="black"/>
    <path d="M124.903 26.9977H124.826V29.7905H117.688V0H125.136V10.706H125.291C126.688 8.84407 128.627 7.83553 131.342 7.83553C136.695 7.83553 139.799 12.6455 139.799 19.0846C139.799 26.2995 136.463 30.4888 130.877 30.4888C128.55 30.4888 126.145 29.4026 124.903 26.9977ZM132.118 19.007C132.118 15.5935 130.877 13.3437 128.627 13.3437C126.3 13.3437 124.903 15.5935 124.903 19.007C124.903 22.4205 126.377 24.6703 128.627 24.6703C130.877 24.6703 132.118 22.4981 132.118 19.007Z" fill="black"/>
    <path d="M140.651 19.1631C140.651 12.4913 145.073 7.91406 151.435 7.91406C154.616 7.91406 157.021 8.9226 158.883 10.7069C161.365 13.1119 162.451 16.8357 162.374 21.1802H148.099C148.409 23.8179 149.651 25.2143 151.9 25.2143C153.219 25.2143 154.383 24.5937 154.848 23.1972H162.063C160.822 28.0847 157.021 30.4897 151.668 30.4897C145.073 30.4121 140.651 25.9125 140.651 19.1631ZM148.099 16.9133H154.926C154.771 14.3532 153.374 13.0343 151.59 13.0343C149.495 12.9567 148.332 14.4307 148.099 16.9133Z" fill="black"/>
    <path d="M170.83 12.1801H170.985C172.536 9.23205 174.554 8.06836 177.114 8.06836C177.734 8.06836 178.122 8.14594 178.355 8.3011V14.8178H178.2C173.778 14.042 171.218 16.1366 171.218 20.9466V29.8682H163.692V8.53384H170.83V12.1801Z" fill="black"/>
    <path d="M179.131 29.8685H186.346C186.656 30.7995 187.587 31.6529 189.372 31.6529C191.777 31.6529 192.63 30.1788 192.63 27.929V26.3774H192.475C191.311 27.7739 189.682 28.7824 187.354 28.7824C182.777 28.7824 178.743 25.3689 178.743 18.6971C178.743 12.5683 182.002 7.83594 186.967 7.83594C189.837 7.83594 191.544 8.99963 192.707 10.784H192.863V8.45657H200V26.9205C200 30.334 198.836 32.9717 197.052 34.5233C195.19 36.1525 192.552 36.8507 189.527 36.8507C183.786 36.9283 179.829 34.6009 179.131 29.8685ZM192.94 18.3868C192.94 15.749 191.699 13.5768 189.527 13.5768C187.432 13.5768 186.113 15.4387 186.113 18.3868C186.113 21.2572 187.432 23.2743 189.527 23.2743C191.621 23.2743 192.94 21.1796 192.94 18.3868Z" fill="black"/>
</svg>
