<svg width="20" height="21" viewBox="0 0 20 21" fill="none" xmlns="http://www.w3.org/2000/svg">
<path d="M9.30113 0.597656C8.36363 0.902344 7.73472 1.82422 7.7816 2.83594L7.79331 3.11719L7.36363 3.30469C5.49253 4.11719 4.09019 5.85156 3.67222 7.85938C3.54332 8.46875 3.51597 9.05078 3.51597 11.2109V13.2734L3.43003 13.3281C3.37925 13.3555 3.21519 13.3906 3.05894 13.4023C1.76988 13.5039 0.781596 14.7188 0.973003 15.9688C1.0941 16.7422 1.52769 17.3555 2.19566 17.6914C2.64878 17.918 2.67222 17.9219 4.98081 17.9219H7.09019L7.14097 18.1836C7.24644 18.7461 7.50425 19.2109 7.94956 19.6602C8.30503 20.0156 8.62925 20.2227 9.08238 20.3711C9.36753 20.4688 9.44566 20.4766 10.0003 20.4766C10.555 20.4766 10.6332 20.4688 10.9183 20.3711C11.3714 20.2227 11.6957 20.0156 12.0511 19.6602C12.4964 19.2109 12.7543 18.7461 12.8597 18.1836L12.9105 17.9219H15.0199C17.3285 17.9219 17.3519 17.918 17.805 17.6914C18.5082 17.3359 18.973 16.6328 19.0433 15.8125C19.1488 14.6211 18.1644 13.4961 16.9418 13.4023C16.7855 13.3906 16.6214 13.3555 16.5746 13.3281L16.4847 13.2734V11.25C16.4847 10.1406 16.4652 9.03125 16.4457 8.78906C16.3675 7.91797 16.1605 7.18359 15.7582 6.37891C15.2386 5.32812 14.4613 4.44922 13.473 3.78906C13.1644 3.58203 12.3324 3.15625 12.2425 3.15625C12.2035 3.15625 12.1957 3.08984 12.2113 2.85156C12.2855 1.84766 11.6488 0.898438 10.6957 0.597656C10.2699 0.460938 9.71519 0.460938 9.30113 0.597656ZM10.3441 1.89062C10.6332 2.00781 10.8402 2.29297 10.8871 2.63281L10.9105 2.8125L10.7191 2.78125C10.473 2.74219 9.61753 2.74219 9.32066 2.78125L9.09019 2.8125L9.11363 2.63281C9.1605 2.30078 9.36753 2.01172 9.64878 1.89062C9.82847 1.8125 10.1605 1.8125 10.3441 1.89062ZM10.9847 4.17578C12.8988 4.5625 14.4691 6.08984 14.9769 8.05859C15.1214 8.62109 15.1293 8.79297 15.1527 11.1836L15.1761 13.5664L15.2816 13.7891C15.3988 14.0391 15.6527 14.332 15.8753 14.4727C16.098 14.6172 16.305 14.6797 16.6839 14.7188C17.055 14.7539 17.2152 14.8203 17.4144 15.0078C17.8246 15.3906 17.8168 15.9922 17.3988 16.3594C17.1097 16.6094 17.6605 16.5938 9.99253 16.5938H2.99253L2.82457 16.5117C2.48472 16.3477 2.223 15.8789 2.2855 15.5469C2.34019 15.25 2.56285 14.9609 2.8441 14.8164C2.91832 14.7812 3.12925 14.7383 3.31675 14.7188C3.69566 14.6797 3.90269 14.6172 4.12535 14.4727C4.348 14.332 4.60191 14.0391 4.7191 13.7891L4.82457 13.5664L4.848 11.0859C4.87144 8.79688 4.87925 8.57812 4.95347 8.23438C5.17222 7.21094 5.60581 6.38672 6.32066 5.64844C7.20347 4.73438 8.27769 4.21875 9.59019 4.07812C9.88316 4.04688 10.6058 4.09766 10.9847 4.17578ZM11.5238 18.0391C11.4066 18.4453 11.0785 18.8242 10.6683 19.0273C10.43 19.1445 10.3871 19.1523 10.0003 19.1523C9.61753 19.1523 9.57066 19.1445 9.33628 19.0273C8.93003 18.8281 8.59019 18.4375 8.47691 18.0391L8.44175 17.9219H10.0003H11.5589L11.5238 18.0391Z" fill="black"/>
</svg>
