<svg width="634" height="517" viewBox="0 0 634 517" fill="none" xmlns="http://www.w3.org/2000/svg">
<path d="M398.029 269.861C447.71 220.18 447.71 139.632 398.029 89.9512C348.348 40.2704 267.8 40.2704 218.119 89.9512C168.438 139.632 168.438 220.181 218.119 269.861C267.8 319.542 348.348 319.542 398.029 269.861Z" fill="#EE9730"/>
<path d="M634 391.673L604.768 391.606L561.55 391.505L473.5 391.303C473.5 391.303 473.517 391.303 473.55 391.287L561.987 342.219L634 391.673Z" fill="#EDB188"/>
<path d="M634.002 391.675L604.77 391.607C596.13 375.117 570.865 365.804 563.821 361.198C555.03 355.466 561.989 342.203 561.989 342.203L634.002 391.675Z" fill="#EFBE97"/>
<path d="M561.534 391.525L473.484 391.323C473.484 391.323 473.501 391.323 473.535 391.306C474.678 390.785 496.514 381.086 513.307 384.666C528.184 387.843 553.735 385.709 561.534 391.525Z" fill="#E8A577"/>
<path d="M328.548 391.674L268.705 391.54L180.235 391.338L0 390.951C0 390.951 0.0336197 390.935 0.100859 390.901L181.126 290.445L328.548 391.674Z" fill="#EDB188"/>
<path d="M328.549 391.674L268.706 391.54C251.022 357.786 199.282 338.706 184.876 329.31C166.889 317.56 181.11 290.445 181.11 290.445L328.549 391.674Z" fill="#EFBE97"/>
<path d="M180.235 391.357L0 390.954C0 390.954 0.0336197 390.937 0.100859 390.903C2.45424 389.844 47.1516 369.975 81.5277 377.321C111.937 383.81 164.266 379.439 180.235 391.357Z" fill="#E8A577"/>
<path d="M554.675 391.675L513.037 391.591L451.48 391.457L326.078 391.171C326.078 391.171 326.112 391.154 326.145 391.138L452.102 321.242L554.675 391.675Z" fill="#EFBE97"/>
<path d="M554.674 391.675L513.036 391.591C500.731 368.108 464.741 354.828 454.705 348.289C442.199 340.12 452.083 321.242 452.083 321.242L554.674 391.675Z" fill="#F5CDA9"/>
<path d="M451.48 391.46L326.078 391.174C326.078 391.174 326.112 391.158 326.145 391.141C327.776 390.401 358.891 376.584 382.795 381.694C403.958 386.216 440.368 383.173 451.48 391.46Z" fill="#EDB188"/>
<path d="M539.913 288.349C531.256 288.568 524.465 295.914 524.465 304.571V391.932H556.219V304.218C556.202 295.309 548.873 288.114 539.913 288.349Z" fill="#D3573B"/>
<path d="M540.334 288.328C535.359 288.328 531.324 295.439 531.324 304.197V391.91H549.344V304.197C549.344 295.439 545.31 288.328 540.334 288.328Z" fill="#F46640"/>
<path d="M540.336 288.328C538.47 288.328 536.957 295.439 536.957 304.197V391.91H543.715V304.197C543.715 295.439 542.202 288.328 540.336 288.328Z" fill="#F46640"/>
<path d="M533.844 300.186L531.777 302.001L531.356 298.102L530.936 302.001L528.852 300.186L530.802 303.245L531.356 304.119V304.103V304.119L531.911 303.245L533.844 300.186Z" fill="#F9A42D"/>
<path d="M551.813 300.186L549.745 302.001L549.325 298.102H549.308L548.888 302.001L546.82 300.186L548.753 303.245H548.77L549.308 304.119V304.103L549.325 304.119L549.88 303.245L551.813 300.186Z" fill="#F9A42D"/>
<path d="M542.836 306.202L540.752 308.017L540.332 304.117L539.911 308.017L537.844 306.202L539.777 309.261L540.332 310.118L540.886 309.261V309.244L542.836 306.202Z" fill="#F9A42D"/>
<path d="M542.836 321.163L540.752 322.978L540.332 319.078L539.911 322.978L537.844 321.163L539.777 324.222L540.332 325.096V325.079V325.096L540.886 324.222L542.836 321.163Z" fill="#F9A42D"/>
<path d="M542.836 336.122L540.752 337.955L540.332 334.055L539.911 337.955L537.844 336.122L539.777 339.182V339.198L540.332 340.056L540.886 339.182L542.836 336.122Z" fill="#F9A42D"/>
<path d="M533.844 314.068L531.777 315.9L531.356 312L530.936 315.9L528.852 314.068L530.802 317.127L531.356 318.001L531.911 317.127L533.844 314.068Z" fill="#F9A42D"/>
<path d="M551.813 314.068L549.745 315.9L549.325 312H549.308L548.888 315.9L546.82 314.068L548.753 317.127H548.77L549.308 318.001H549.325L549.88 317.127L551.813 314.068Z" fill="#F9A42D"/>
<path d="M533.844 327.975L531.777 329.79L531.356 325.891L530.936 329.79L528.852 327.975L530.802 331.034L531.356 331.909V331.892V331.909L531.911 331.034V331.018L533.844 327.975Z" fill="#F9A42D"/>
<path d="M551.813 327.975L549.745 329.79L549.325 325.891H549.308L548.888 329.79L546.82 327.975L548.753 331.034H548.77L549.308 331.909V331.892L549.325 331.909L549.88 331.034V331.018L551.813 327.975Z" fill="#F9A42D"/>
<path d="M511.22 312.187V306.573C511.22 302.975 508.53 299.765 504.95 299.58C501.134 299.378 497.957 302.421 497.957 306.203V316.944V319.231C497.957 325.299 502.866 330.207 508.934 330.207H511.22H525.828V316.944H515.994C513.338 316.961 511.22 314.826 511.22 312.187Z" fill="#D3573B"/>
<path d="M508.932 325.602C505.419 325.602 502.578 322.761 502.578 319.248V306.22C502.578 305.111 503.486 304.203 504.595 304.203C505.738 304.254 506.612 305.346 506.612 306.59V316.693C506.612 319.382 508.798 321.568 511.487 321.568H524.465V325.585H508.932V325.602Z" fill="#F46640"/>
<path d="M511.504 323.655L509.437 325.47L509.016 321.57H509L508.579 325.47L506.512 323.655L508.445 326.714H508.462L509 327.571H509.016L509.571 326.714V326.697L511.504 323.655Z" fill="#F9A42D"/>
<path d="M505.067 314.068L502.999 315.9L502.579 312H502.562L502.142 315.9L500.074 314.068L502.024 317.127L502.562 318.001H502.579L503.134 317.127L505.067 314.068Z" fill="#F9A42D"/>
<path d="M509 305.561L506.933 307.376L506.513 303.477L506.092 307.376L504.008 305.561L505.958 308.62L506.513 309.478L507.067 308.62V308.604L509 305.561Z" fill="#F9A42D"/>
<path d="M521.157 323.655L519.089 325.47L518.669 321.57L518.248 325.47L516.164 323.655L518.114 326.714L518.669 327.571L519.223 326.714V326.697L521.157 323.655Z" fill="#F9A42D"/>
<path d="M570.811 339.718V334.104C570.811 330.507 573.5 327.296 577.081 327.111C580.897 326.909 584.074 329.952 584.074 333.734V344.476V346.762C584.074 352.83 579.165 357.739 573.097 357.739H570.811H556.203V344.476H566.037C568.676 344.476 570.811 342.358 570.811 339.718Z" fill="#D3573B"/>
<path d="M573.097 353.118C576.61 353.118 579.451 350.277 579.451 346.764V333.736C579.451 332.626 578.543 331.719 577.434 331.719C576.291 331.769 575.417 332.862 575.417 334.106V344.208C575.417 346.898 573.231 349.083 570.542 349.083H556.203V353.101H573.097V353.118Z" fill="#F46640"/>
<path d="M570.523 351.169L572.591 353.001L573.011 349.102L573.432 353.001L575.516 351.169L573.566 354.229L573.011 355.103L572.457 354.229L570.523 351.169Z" fill="#F9A42D"/>
<path d="M576.961 341.6L579.029 343.415L579.449 339.516L579.869 343.415L581.953 341.6L580.004 344.659L579.449 345.534V345.517V345.534L578.894 344.659L576.961 341.6Z" fill="#F9A42D"/>
<path d="M573.012 333.077L575.096 334.892L575.516 330.992L575.937 334.909L578.004 333.077L576.071 336.136L575.516 337.01L574.962 336.136L573.012 333.077Z" fill="#F9A42D"/>
<path d="M560.875 351.169L562.943 353.001L563.363 349.102L563.783 353.001L565.868 351.169L563.918 354.229L563.363 355.103L562.808 354.229L560.875 351.169Z" fill="#F9A42D"/>
<path d="M533.844 343.786L531.777 345.619L531.356 341.719L530.936 345.619L528.852 343.786L530.802 346.863L531.356 347.72L531.911 346.863V346.846L533.844 343.786Z" fill="#F9A42D"/>
<path d="M551.813 343.786L549.745 345.619L549.325 341.719H549.308L548.888 345.619L546.82 343.786L548.753 346.863H548.77L549.308 347.72H549.325L549.88 346.863V346.846L551.813 343.786Z" fill="#F9A42D"/>
<path d="M542.836 349.803L540.752 351.619L540.332 347.719L539.911 351.619L537.844 349.803L539.777 352.863L540.332 353.737V353.72V353.737L540.886 352.863L542.836 349.803Z" fill="#F9A42D"/>
<path d="M542.836 364.763L540.752 366.595L540.332 362.695L539.911 366.595L537.844 364.763L539.777 367.839L540.332 368.696L540.886 367.839V367.822L542.836 364.763Z" fill="#F9A42D"/>
<path d="M542.836 379.741L540.752 381.556L540.332 377.656L539.911 381.556L537.844 379.741L539.777 382.8L540.332 383.674V383.657V383.674L540.886 382.8L542.836 379.741Z" fill="#F9A42D"/>
<path d="M533.844 357.686L531.777 359.501L531.356 355.602L530.936 359.501L528.852 357.686L530.802 360.745L531.356 361.619V361.603V361.619L531.911 360.745L533.844 357.686Z" fill="#F9A42D"/>
<path d="M551.813 357.686L549.745 359.501L549.325 355.602H549.308L548.888 359.501L546.82 357.686L548.753 360.745H548.77L549.308 361.619V361.603L549.325 361.619L549.88 360.745L551.813 357.686Z" fill="#F9A42D"/>
<path d="M533.844 371.569L531.777 373.384L531.356 369.484L530.936 373.401L528.852 371.569L530.802 374.628L531.356 375.502L531.911 374.628L533.844 371.569Z" fill="#F9A42D"/>
<path d="M551.813 371.569L549.745 373.384L549.325 369.484H549.308L548.888 373.401L546.82 371.569L548.753 374.628H548.77L549.308 375.502H549.325L549.88 374.628L551.813 371.569Z" fill="#F9A42D"/>
<path d="M541.747 282.953C541.747 282.953 542.05 277.943 540.335 274.648C538.62 277.943 538.923 282.953 538.923 282.953H541.747Z" fill="#3F1715"/>
<path d="M542.25 281.343C541.83 282.032 541.376 282.385 540.939 282.385H540.334H539.728C539.275 282.385 538.838 282.032 538.417 281.343L536.266 277.812L537.594 283.847C538.316 287.142 539.308 288.991 540.334 288.991C541.359 288.991 542.334 287.142 543.074 283.847L544.402 277.812L542.25 281.343Z" fill="#21120D"/>
<path d="M543.258 282.462C542.619 283.05 541.93 283.353 541.241 283.353H540.333H539.425C538.736 283.353 538.064 283.05 537.408 282.462L534.113 279.453L536.147 284.597C537.257 287.404 538.77 288.984 540.333 288.984C541.896 288.984 543.409 287.404 544.519 284.597L546.553 279.453L543.258 282.462Z" fill="#3F1715"/>
<path d="M544.638 283.559C543.697 284.047 542.688 284.299 541.68 284.299H540.335H538.99C537.981 284.299 536.99 284.047 536.031 283.559L531.207 281.055L534.199 285.324C535.83 287.661 538.032 288.972 540.335 288.972C542.638 288.972 544.84 287.661 546.47 285.324L549.462 281.055L544.638 283.559Z" fill="#21120D"/>
<path d="M504.914 297.075C504.914 297.075 505.115 293.881 504.023 291.797C502.93 293.898 503.132 297.075 503.132 297.075H504.914Z" fill="#3F1715"/>
<path d="M505.234 296.049C504.965 296.486 504.679 296.722 504.393 296.722H504.007H503.62C503.334 296.722 503.049 296.503 502.78 296.049L501.418 293.797L502.258 297.63C502.712 299.731 503.351 300.907 503.99 300.907C504.645 300.907 505.267 299.731 505.721 297.63L506.562 293.797L505.234 296.049Z" fill="#21120D"/>
<path d="M505.872 296.776C505.469 297.146 505.032 297.347 504.595 297.347H504.006H503.418C502.981 297.347 502.544 297.162 502.14 296.776L500.039 294.859L501.333 298.12C502.039 299.902 502.998 300.911 503.989 300.911C504.981 300.911 505.939 299.902 506.645 298.12L507.94 294.859L505.872 296.776Z" fill="#3F1715"/>
<path d="M506.748 297.48C506.142 297.799 505.504 297.95 504.865 297.95H504.008H503.15C502.512 297.95 501.873 297.799 501.268 297.48L498.191 295.883L500.091 298.606C501.133 300.085 502.528 300.926 503.991 300.926C505.453 300.926 506.865 300.085 507.891 298.606L509.79 295.883L506.748 297.48Z" fill="#21120D"/>
<path d="M578.54 323.232C578.54 323.232 578.792 319.114 577.38 316.391C575.968 319.097 576.221 323.232 576.221 323.232H578.54Z" fill="#3F1715"/>
<path d="M578.962 321.908C578.609 322.48 578.256 322.765 577.886 322.765H577.399H576.911C576.541 322.765 576.172 322.48 575.835 321.908L574.07 319L575.163 323.976C575.768 326.682 576.575 328.212 577.415 328.212C578.256 328.212 579.063 326.682 579.668 323.976L580.761 319L578.962 321.908Z" fill="#21120D"/>
<path d="M579.802 322.846C579.264 323.334 578.709 323.586 578.137 323.586H577.381H576.624C576.053 323.586 575.498 323.334 574.96 322.846L572.254 320.375L573.935 324.611C574.843 326.914 576.087 328.225 577.381 328.225C578.675 328.225 579.919 326.931 580.827 324.611L582.508 320.375L579.802 322.846Z" fill="#3F1715"/>
<path d="M580.929 323.74C580.156 324.143 579.332 324.345 578.492 324.345H577.382H576.273C575.449 324.345 574.626 324.143 573.835 323.74L569.852 321.672L572.306 325.202C573.651 327.118 575.466 328.211 577.366 328.211C579.265 328.211 581.081 327.135 582.425 325.202L584.88 321.672L580.929 323.74Z" fill="#21120D"/>
<path d="M363.412 232.334L314.159 218.281L308.074 250.943L325.556 260.793L330.919 287.168L331.07 329.176L337.222 362.728L314.58 358.862L313.806 366.981L309.991 398.231L314.58 404.013L360.79 381.875L377.684 326.654L381.113 289.925L363.412 232.334Z" fill="#421819"/>
<path d="M286.003 287.167L291.315 329.174L295.854 360.289L311.336 367.635L317.051 399.826L274.472 376.124L253.073 326.67L252.871 289.94L268.37 235.039L309.89 221.07L313.723 249.479L303.721 261.01L286.003 287.167Z" fill="#612423"/>
<path d="M211.918 330.348L237.519 327.793L243.638 362.102L217.717 357.631L222.81 398.546L182.534 392.461L179.391 359.244L112.555 357.042L113.278 335.307L137.4 299.267L155.958 258.688L178.567 220.63L179.609 221.706L221.23 220.109L226.609 274.758L211.918 330.348ZM137.097 328.298L179.929 327.81L172.969 273.699L176.785 271.632L178.886 280.675L137.097 328.298Z" fill="#421819"/>
<path d="M239.689 324.905L234.865 352.826L174.888 358.356L110.17 363.5L108.539 333.73L130.644 294.949L150.849 255.278L180.754 219.188L177.056 272.777L143.504 328.166L192 334.167L239.689 324.905Z" fill="#612423"/>
<path d="M493.738 330.348L519.339 327.793L525.458 362.102L499.537 357.631L504.631 398.546L464.354 392.461L461.211 359.244L394.375 357.042L395.098 335.307L419.22 299.267L437.778 258.688L460.387 220.63L461.429 221.706L503.051 220.109L508.43 274.758L493.738 330.348ZM418.901 328.298L461.732 327.81L454.773 273.699L458.589 271.632L460.69 280.675L418.901 328.298Z" fill="#421819"/>
<path d="M521.493 324.905L516.668 352.826L456.691 358.356L391.973 363.5L390.359 333.73L412.464 294.949L432.67 255.278L462.558 219.188L458.876 272.777L425.324 328.166L473.803 334.167L521.493 324.905Z" fill="#612423"/>
<path d="M89.5797 222.772C78.8214 223.058 70.3828 232.169 70.3828 242.927V411.328H109.802V242.473C109.802 231.429 100.691 222.487 89.5797 222.772Z" fill="#D3573B"/>
<path d="M90.0977 222.773C83.9117 222.773 78.9023 231.599 78.9023 242.491V411.329H101.276V242.475C101.276 231.599 96.2669 222.773 90.0977 222.773Z" fill="#F46640"/>
<path d="M90.1009 222.773C87.7811 222.773 85.8984 231.599 85.8984 242.491V411.329H94.2866V242.475C94.2866 231.599 92.4207 222.773 90.1009 222.773Z" fill="#F46640"/>
<path d="M82.0466 237.487L79.4747 239.74L78.9536 234.898H78.9368L78.4157 239.74L75.8438 237.487L78.2476 241.286L78.9368 242.362V242.345V242.362L79.6428 241.286V241.269L82.0466 237.487Z" fill="#F9A42D"/>
<path d="M104.351 237.487L101.779 239.74L101.241 234.898L100.72 239.74L98.1484 237.487L100.552 241.286L101.241 242.362V242.345V242.362L101.931 241.286V241.269L104.351 237.487Z" fill="#F9A42D"/>
<path d="M93.1911 244.948L90.6192 247.201L90.0981 242.359L89.577 247.201L86.9883 244.948L89.4089 248.747L90.0981 249.823V249.806V249.823L90.7873 248.747V248.73L93.1911 244.948Z" fill="#F9A42D"/>
<path d="M93.1911 263.526L90.6192 265.779L90.0981 260.938L89.577 265.796L86.9883 263.526L89.4089 267.325L90.0981 268.401L90.7873 267.325L93.1911 263.526Z" fill="#F9A42D"/>
<path d="M93.1911 282.12L90.6192 284.372L90.0981 279.531L89.577 284.372L86.9883 282.12L89.4089 285.919L90.0981 286.995V286.978V286.995L90.7873 285.919V285.902L93.1911 282.12Z" fill="#F9A42D"/>
<path d="M82.0466 254.729L79.4747 256.982L78.9536 252.141H78.9368L78.4157 256.982L75.8438 254.729L78.2476 258.528L78.9368 259.604V259.587V259.604L79.6428 258.528V258.512L82.0466 254.729Z" fill="#F9A42D"/>
<path d="M104.351 254.729L101.779 256.982L101.241 252.141L100.72 256.982L98.1484 254.729L100.552 258.528L101.241 259.604V259.587V259.604L101.931 258.528V258.512L104.351 254.729Z" fill="#F9A42D"/>
<path d="M82.0466 271.979L79.4747 274.232L78.9536 269.391H78.9368L78.4157 274.232L75.8438 271.979L78.2476 275.778L78.9368 276.854V276.837V276.854L79.6428 275.778V275.762L82.0466 271.979Z" fill="#F9A42D"/>
<path d="M104.351 271.979L101.779 274.232L101.241 269.391L100.72 274.232L98.1484 271.979L100.552 275.778L101.241 276.854V276.837V276.854L101.931 275.778V275.762L104.351 271.979Z" fill="#F9A42D"/>
<path d="M53.9412 252.396V245.437C53.9412 240.982 50.5961 236.982 46.1583 236.746C41.4179 236.494 37.4844 240.276 37.4844 244.966V258.313V261.137C37.4844 268.668 43.5863 274.77 51.1172 274.77H53.958H72.0958V258.313H59.8751C56.5804 258.297 53.9412 255.657 53.9412 252.396Z" fill="#D3573B"/>
<path d="M51.1026 269.035C46.7488 269.035 43.2188 265.505 43.2188 261.151V244.98C43.2188 243.602 44.345 242.492 45.7234 242.492C47.1354 242.559 48.2113 243.921 48.2113 245.451V258.008C48.2113 261.353 50.9177 264.059 54.2628 264.059H70.3835V269.052H51.1026V269.035Z" fill="#F46640"/>
<path d="M54.2954 266.603L51.7235 268.872L51.2024 264.031L50.6813 268.872L48.1094 266.603L50.5132 270.402V270.419L51.2024 271.495V271.478V271.495L51.8916 270.402L54.2954 266.603Z" fill="#F9A42D"/>
<path d="M46.3083 254.729L43.7364 256.982L43.2153 252.141L42.6942 256.982L40.1055 254.729L42.5261 258.528L43.2153 259.604V259.587V259.604L43.9045 258.528V258.512L46.3083 254.729Z" fill="#F9A42D"/>
<path d="M51.1989 244.159L48.627 246.412L48.1059 241.57L47.5848 246.412L44.9961 244.159L47.4167 247.958L48.1059 249.034V249.017V249.034L48.7951 247.958V247.941L51.1989 244.159Z" fill="#F9A42D"/>
<path d="M66.2798 266.603L63.7079 268.872L63.1868 264.031L62.6657 268.872L60.0938 266.603L62.4976 270.402V270.419L63.1868 271.495V271.478V271.495L63.876 270.402L66.2798 266.603Z" fill="#F9A42D"/>
<path d="M127.935 344.427V337.468C127.935 333.014 131.28 329.013 135.718 328.778C140.458 328.525 144.392 332.308 144.392 336.998V350.345V353.185C144.392 360.716 138.29 366.818 130.759 366.818H127.918H109.797V350.361H122.018C125.279 350.345 127.935 347.689 127.935 344.427Z" fill="#D3573B"/>
<path d="M130.776 361.066C135.129 361.066 138.659 357.536 138.659 353.182V337.011C138.659 335.633 137.533 334.523 136.155 334.523C134.743 334.591 133.667 335.952 133.667 337.482V350.039C133.667 353.384 130.96 356.09 127.615 356.09H109.797V361.083H130.776V361.066Z" fill="#F46640"/>
<path d="M127.566 358.651L130.138 360.904L130.659 356.062H130.676L131.197 360.904L133.769 358.651L131.349 362.45L130.676 363.526H130.659L129.97 362.45V362.433L127.566 358.651Z" fill="#F9A42D"/>
<path d="M135.566 346.761L138.138 349.013L138.659 344.172L139.181 349.03L141.752 346.761L139.349 350.56L138.659 351.635L137.97 350.56L135.566 346.761Z" fill="#F9A42D"/>
<path d="M130.676 336.19L133.248 338.443L133.769 333.602L134.29 338.443L136.862 336.19L134.458 339.989L133.769 341.065L133.08 339.989V339.972L130.676 336.19Z" fill="#F9A42D"/>
<path d="M115.582 358.651L118.154 360.904L118.675 356.062H118.692L119.213 360.904L121.785 358.651L119.381 362.45L118.692 363.526L117.986 362.45L118.003 362.433L115.582 358.651Z" fill="#F9A42D"/>
<path d="M82.0466 291.628L79.4747 293.88L78.9536 289.039H78.9368L78.4157 293.88L75.8438 291.628L78.2476 295.427L78.9368 296.503L79.6428 295.427V295.41L82.0466 291.628Z" fill="#F9A42D"/>
<path d="M104.351 291.628L101.779 293.88L101.241 289.039L100.72 293.88L98.1484 291.628L100.552 295.427L101.241 296.503L101.931 295.427V295.41L104.351 291.628Z" fill="#F9A42D"/>
<path d="M93.1911 299.089L90.6192 301.341L90.0981 296.5L89.577 301.341L86.9883 299.089L89.4089 302.888L90.0981 303.964V303.947V303.964L90.7873 302.888V302.871L93.1911 299.089Z" fill="#F9A42D"/>
<path d="M93.1911 317.666L90.6192 319.935L90.0981 315.094L89.577 319.935L86.9883 317.666L89.4089 321.465L90.0981 322.54L90.7873 321.465L93.1911 317.666Z" fill="#F9A42D"/>
<path d="M93.1911 336.261L90.6192 338.513L90.0981 333.672L89.577 338.513L86.9883 336.261L89.4089 340.06L90.0981 341.135V341.119V341.135L90.7873 340.06V340.043L93.1911 336.261Z" fill="#F9A42D"/>
<path d="M82.0466 308.87L79.4747 311.122L78.9536 306.281H78.9368L78.4157 311.122L75.8438 308.87L78.2476 312.669L78.9368 313.745V313.728V313.745L79.6428 312.669V312.652L82.0466 308.87Z" fill="#F9A42D"/>
<path d="M104.351 308.87L101.779 311.122L101.241 306.281L100.72 311.122L98.1484 308.87L100.552 312.669L101.241 313.745V313.728V313.745L101.931 312.669V312.652L104.351 308.87Z" fill="#F9A42D"/>
<path d="M82.0466 326.12L79.4747 328.372L78.9536 323.531H78.9368L78.4157 328.372L75.8438 326.12L78.2476 329.919L78.9368 330.995V330.978V330.995L79.6428 329.919V329.902L82.0466 326.12Z" fill="#F9A42D"/>
<path d="M104.351 326.12L101.779 328.372L101.241 323.531L100.72 328.372L98.1484 326.12L100.552 329.919L101.241 330.995V330.978V330.995L101.931 329.919V329.902L104.351 326.12Z" fill="#F9A42D"/>
<path d="M82.0466 346.831L79.4747 349.083L78.9536 344.242H78.9368L78.4157 349.1L75.8438 346.831L78.2476 350.63L78.9368 351.706L79.6428 350.63L82.0466 346.831Z" fill="#F9A42D"/>
<path d="M104.351 346.831L101.779 349.083L101.241 344.242L100.72 349.1L98.1484 346.831L100.552 350.63L101.241 351.706L101.931 350.63L104.351 346.831Z" fill="#F9A42D"/>
<path d="M93.1911 354.292L90.6192 356.544L90.0981 351.703L89.577 356.561L86.9883 354.292L89.4089 358.091L90.0981 359.167L90.7873 358.091L93.1911 354.292Z" fill="#F9A42D"/>
<path d="M93.1911 372.869L90.6192 375.138L90.0981 370.297L89.577 375.138L86.9883 372.869L89.4089 376.668V376.685L90.0981 377.76V377.744V377.76L90.7873 376.668L93.1911 372.869Z" fill="#F9A42D"/>
<path d="M93.1911 391.464L90.6192 393.716L90.0981 388.875L89.577 393.733L86.9883 391.464L89.4089 395.263L90.0981 396.339L90.7873 395.263L93.1911 391.464Z" fill="#F9A42D"/>
<path d="M82.0466 364.073L79.4747 366.326L78.9536 361.484H78.9368L78.4157 366.342L75.8438 364.073L78.2476 367.872L78.9368 368.948L79.6428 367.872L82.0466 364.073Z" fill="#F9A42D"/>
<path d="M104.351 364.073L101.779 366.326L101.241 361.484L100.72 366.342L98.1484 364.073L100.552 367.872L101.241 368.948L101.931 367.872L104.351 364.073Z" fill="#F9A42D"/>
<path d="M82.0466 381.323L79.4747 383.576L78.9536 378.734H78.9368L78.4157 383.592L75.8438 381.323L78.2476 385.122L78.9368 386.198L79.6428 385.122L82.0466 381.323Z" fill="#F9A42D"/>
<path d="M104.351 381.323L101.779 383.576L101.241 378.734L100.72 383.592L98.1484 381.323L100.552 385.122L101.241 386.198L101.931 385.122L104.351 381.323Z" fill="#F9A42D"/>
<path d="M91.848 216.086C91.848 216.086 92.2346 209.866 90.0998 205.781C87.9649 209.866 88.3516 216.086 88.3516 216.086H91.848Z" fill="#3F1715"/>
<path d="M92.4717 214.083C91.9506 214.94 91.3959 215.377 90.8412 215.377H90.1015H89.3619C88.8072 215.377 88.2525 214.94 87.7314 214.083L85.0586 209.695L86.706 217.193C87.6137 221.277 88.824 223.58 90.1015 223.58C91.3791 223.58 92.5894 221.277 93.4971 217.193L95.1445 209.695L92.4717 214.083Z" fill="#21120D"/>
<path d="M93.7306 215.499C92.9238 216.238 92.0833 216.608 91.226 216.608H90.0997H88.9566C88.0993 216.608 87.2589 216.238 86.452 215.499L82.3672 211.75L84.8887 218.138C86.2671 221.617 88.133 223.567 90.0829 223.567C92.0328 223.567 93.8987 221.617 95.2771 218.138L97.7986 211.75L93.7306 215.499Z" fill="#3F1715"/>
<path d="M95.4281 216.844C94.2514 217.449 93.0075 217.769 91.7635 217.769H90.0994H88.4352C87.1913 217.769 85.9473 217.449 84.7706 216.844L78.7695 213.734L82.4677 219.046C84.4849 221.938 87.2249 223.568 90.0826 223.568C92.9402 223.568 95.6802 221.938 97.6974 219.046L101.396 213.734L95.4281 216.844Z" fill="#21120D"/>
<path d="M46.1045 233.618C46.1045 233.618 46.3567 229.668 44.9951 227.062C43.6335 229.668 43.8856 233.618 43.8856 233.618H46.1045Z" fill="#3F1715"/>
<path d="M46.5087 232.361C46.1725 232.915 45.8195 233.184 45.4665 233.184H44.9958H44.5252C44.1722 233.184 43.8191 232.899 43.483 232.361L41.7852 229.57L42.8274 234.344C43.3989 236.95 44.1722 238.412 44.979 238.412C45.7859 238.412 46.5592 236.95 47.1307 234.344L48.1729 229.57L46.5087 232.361Z" fill="#21120D"/>
<path d="M47.3142 233.245C46.8099 233.716 46.272 233.951 45.7172 233.951H44.9944H44.2716C43.7337 233.951 43.1958 233.716 42.6747 233.245L40.0859 230.875L41.6997 234.926C42.5738 237.145 43.7673 238.389 45.0112 238.389C46.2552 238.389 47.4486 237.145 48.3228 234.926L49.9197 230.875L47.3142 233.245Z" fill="#3F1715"/>
<path d="M48.3922 234.109C47.6525 234.495 46.8625 234.697 46.0556 234.697H44.9966H43.9376C43.1475 234.697 42.3574 234.495 41.601 234.109L37.7852 232.125L40.1385 235.504C41.4161 237.353 43.1643 238.378 44.9798 238.378C46.7952 238.378 48.5435 237.336 49.821 235.504L52.1744 232.125L48.3922 234.109Z" fill="#21120D"/>
<path d="M137.536 323.958C137.536 323.958 137.856 318.831 136.091 315.469C134.342 318.831 134.645 323.958 134.645 323.958H137.536Z" fill="#3F1715"/>
<path d="M138.039 322.309C137.602 323.015 137.149 323.385 136.695 323.385H136.09H135.484C135.031 323.385 134.577 323.015 134.14 322.309L131.938 318.695L133.299 324.865C134.039 328.226 135.047 330.126 136.09 330.126C137.132 330.126 138.14 328.226 138.88 324.865L140.242 318.695L138.039 322.309Z" fill="#21120D"/>
<path d="M139.082 323.467C138.426 324.072 137.72 324.375 137.014 324.375H136.073H135.148C134.442 324.375 133.753 324.072 133.081 323.467L129.719 320.391L131.803 325.652C132.946 328.527 134.476 330.124 136.09 330.124C137.703 330.124 139.233 328.51 140.376 325.652L142.461 320.391L139.082 323.467Z" fill="#3F1715"/>
<path d="M140.477 324.579C139.502 325.083 138.493 325.335 137.451 325.335H136.073H134.694C133.669 325.335 132.644 325.083 131.669 324.579L126.727 322.023L129.786 326.394C131.45 328.781 133.703 330.126 136.056 330.126C138.409 330.126 140.662 328.781 142.326 326.394L145.385 322.023L140.477 324.579Z" fill="#21120D"/>
<path d="M612.383 388.868C611.24 388.868 591.943 418.403 589.976 421.211C580.092 435.364 560.391 437.583 545.262 445.904C533.73 452.241 524.703 462.395 517.542 473.439C508.095 488.013 500.379 505.529 484.561 512.706C471.87 518.472 456.859 515.9 444.016 510.488C422.617 501.461 407.001 490.87 383.433 487.828C360.875 484.92 337.492 488.013 316.597 497.057C295.703 506.1 274.136 521.128 252.317 514.64C224.698 506.403 213.452 467.505 184.976 463.101C164.468 459.924 145.944 476.767 125.251 478.28C105.113 479.759 86.7061 466.395 73.8634 450.829C61.0206 435.247 51.6576 416.89 37.739 402.249C32.6961 396.954 27.3169 392.6 21.6016 388.852C21.6184 388.868 609.778 388.868 612.383 388.868Z" fill="#EE9730"/>
<path d="M612.383 388.867C611.24 388.867 591.926 418.385 589.959 421.226C580.092 435.38 560.374 437.599 545.245 445.92C533.73 452.257 524.686 462.41 517.542 473.454C508.095 488.028 500.379 505.544 484.561 512.722C471.87 518.471 456.859 515.916 444.016 510.503C422.6 501.493 407.001 490.886 383.433 487.86C360.891 484.952 337.492 488.045 316.597 497.089C295.703 506.116 274.136 521.177 252.333 514.672C224.715 506.435 213.452 467.537 184.993 463.133C164.485 459.956 145.978 476.799 125.268 478.312C105.13 479.792 86.7229 466.445 73.8634 450.862C61.0206 435.296 51.6576 416.94 37.739 402.298C32.6961 397.003 27.3169 392.666 21.6016 388.901C21.6016 388.901 37.4701 388.901 63.996 388.901C67.1394 393.423 70.3669 397.86 73.8634 402.097C86.7229 417.662 105.113 431.026 125.268 429.547C145.978 428.034 164.485 411.191 184.993 414.351C213.469 418.755 224.715 457.653 252.333 465.89C274.136 472.395 295.703 457.35 316.597 448.307C337.492 439.28 360.875 436.187 383.433 439.078C407.001 442.121 422.6 452.711 444.016 461.738C456.859 467.151 471.87 469.706 484.561 463.94C500.379 456.762 508.095 439.246 517.542 424.672C524.686 413.628 533.73 403.492 545.245 397.138C551.33 393.792 558.138 391.439 564.778 388.884H612.383V388.867Z" fill="#F9A42D"/>
<path d="M325.844 122.06H446.807C446.353 110.394 436.755 101.082 424.971 101.082C420.13 90.1551 409.204 82.5234 396.496 82.5234C381.215 82.5234 368.507 93.5339 365.868 108.058C365.313 107.99 364.759 107.957 364.187 107.957C359.262 107.957 354.891 110.344 352.151 114.008C351.21 113.773 350.235 113.655 349.226 113.655C345.663 113.655 342.469 115.185 340.25 117.639C338.771 116.866 337.073 116.429 335.291 116.429C331.206 116.429 327.659 118.715 325.844 122.06Z" fill="#FAFBED"/>
<path d="M473.096 123.756H310.78C310.175 123.756 309.688 123.268 309.688 122.663C309.688 122.058 310.175 121.57 310.78 121.57H473.096C473.701 121.57 474.189 122.058 474.189 122.663C474.172 123.285 473.684 123.756 473.096 123.756Z" fill="#FAFBED"/>
<path d="M353.392 129.873H293.886C293.28 129.873 292.793 129.385 292.793 128.78C292.793 128.175 293.28 127.688 293.886 127.688H353.392C353.998 127.688 354.485 128.175 354.485 128.78C354.468 129.385 353.981 129.873 353.392 129.873Z" fill="#FAFBED"/>
<path d="M423.021 129.873H390.343C389.738 129.873 389.25 129.385 389.25 128.78C389.25 128.175 389.738 127.688 390.343 127.688H423.021C423.626 127.688 424.114 128.175 424.114 128.78C424.097 129.385 423.626 129.873 423.021 129.873Z" fill="#FAFBED"/>
<path d="M267.41 184.067H165.492C165.879 174.233 173.964 166.383 183.899 166.383C187.967 157.171 197.179 150.75 207.887 150.75C220.763 150.75 231.454 160.029 233.69 172.267C234.16 172.216 234.631 172.183 235.102 172.183C239.254 172.183 242.935 174.2 245.238 177.293C246.028 177.091 246.852 176.99 247.692 176.99C250.701 176.99 253.391 178.285 255.257 180.335C256.501 179.68 257.93 179.31 259.442 179.31C262.888 179.31 265.881 181.226 267.41 184.067Z" fill="#FAFBED"/>
<path d="M143.337 185.495H280.085C280.59 185.495 280.993 185.092 280.993 184.587C280.993 184.083 280.59 183.68 280.085 183.68H143.337C142.833 183.68 142.43 184.083 142.43 184.587C142.43 185.092 142.833 185.495 143.337 185.495Z" fill="#FAFBED"/>
<path d="M244.197 190.644H294.341C294.845 190.644 295.248 190.24 295.248 189.736C295.248 189.232 294.845 188.828 294.341 188.828H244.197C243.693 188.828 243.289 189.232 243.289 189.736C243.289 190.24 243.693 190.644 244.197 190.644Z" fill="#FAFBED"/>
<path d="M185.529 190.644H213.063C213.568 190.644 213.971 190.24 213.971 189.736C213.971 189.232 213.568 188.828 213.063 188.828H185.529C185.025 188.828 184.621 189.232 184.621 189.736C184.621 190.24 185.025 190.644 185.529 190.644Z" fill="#FAFBED"/>
</svg>
