<svg width="65" height="81" viewBox="0 0 65 81" fill="none" xmlns="http://www.w3.org/2000/svg">
<path d="M2.10938 0.828133C0.734375 1.51563 0 2.70313 0 4.25001C0 6.37501 1.5625 8.00001 3.60938 8.00001H4.375V15.5469V23.0938L3.85938 23.2813C3.0625 23.5625 2.09375 24.4844 1.65625 25.375C1.07812 26.5313 1.07812 28.2188 1.65625 29.375C2.09375 30.2656 3.0625 31.1875 3.85938 31.4688L4.375 31.6563V33.625V35.5938L3.85938 35.7813C3.0625 36.0625 2.09375 36.9844 1.65625 37.875C1.07812 39.0313 1.07812 40.7188 1.65625 41.875C2.09375 42.7656 3.0625 43.6875 3.85938 43.9688L4.375 44.1563V46.125V48.0938L3.85938 48.2813C3.0625 48.5625 2.09375 49.4844 1.65625 50.375C1.07812 51.5313 1.07812 53.2188 1.65625 54.375C2.09375 55.2656 3.0625 56.1875 3.85938 56.4688L4.375 56.6563V64.8281V73H3.5625C2.125 73.0156 0.796875 73.9063 0.25 75.2188C-0.0625 75.9688 -0.0625 77.5313 0.25 78.2813C0.5625 79.0469 1.34375 79.8438 2.10938 80.2031C2.71875 80.4844 3.82812 80.5 32.5 80.5C61.1719 80.5 62.2812 80.4844 62.8906 80.2031C64.25 79.5781 65 78.3281 65 76.7188C64.9844 74.5625 63.4844 73 61.4062 73H60.625V64.8281V56.6563L61.1406 56.4688C61.9375 56.1875 62.9062 55.2656 63.3438 54.375C63.9219 53.2188 63.9219 51.5313 63.3438 50.375C62.9062 49.4844 61.9375 48.5625 61.1406 48.2813L60.625 48.0938V46.125V44.1563L61.1406 43.9688C61.9375 43.6875 62.9062 42.7656 63.3438 41.875C63.9219 40.7188 63.9219 39.0313 63.3438 37.875C62.9062 36.9844 61.9375 36.0625 61.1406 35.7813L60.625 35.5938V33.625V31.6563L61.1406 31.4688C61.9375 31.1875 62.9062 30.2656 63.3438 29.375C63.9219 28.2188 63.9219 26.5313 63.3438 25.375C62.9062 24.4844 61.9375 23.5625 61.1406 23.2813L60.625 23.0938V15.5469V8.00001H61.4062C63.4062 8.00001 65 6.32813 65 4.25001C65 3.10938 64.5781 2.10938 63.8125 1.43751C62.6562 0.421883 65.0781 0.500008 32.4375 0.500008C3.17188 0.515633 2.71875 0.515633 2.10938 0.828133ZM13.1875 9.12501C12.1562 10.4375 11.2031 12.3594 10.8594 13.7969C10.5625 15.0781 10.5625 17.8125 10.8594 19.2188C11.375 21.7188 12.6875 24.3594 15.0781 27.6719C17.1875 30.625 20.2812 34.5 23.125 37.7656C24.375 39.1875 25.4062 40.4219 25.4375 40.4688C25.4531 40.5313 24.9688 41.1563 24.3594 41.8281C21.0625 45.5156 17.375 50.0938 14.8594 53.6406C12.6406 56.75 11.3594 59.3438 10.8594 61.7813C10.5625 63.1875 10.5625 65.9219 10.8594 67.2031C11.2031 68.6406 12.1562 70.5625 13.1875 71.8594L14.0781 73H10.4844H6.875V64.8281V56.6563L7.39062 56.4688C8.1875 56.1875 9.15625 55.2656 9.59375 54.375C10.1719 53.2188 10.1719 51.5313 9.59375 50.375C9.15625 49.4844 8.1875 48.5625 7.39062 48.2813L6.875 48.0938V46.125V44.1563L7.39062 43.9688C8.1875 43.6875 9.15625 42.7656 9.59375 41.875C10.1719 40.7188 10.1719 39.0313 9.59375 37.875C9.15625 36.9844 8.1875 36.0625 7.39062 35.7813L6.875 35.5938V33.625V31.6563L7.39062 31.4688C8.1875 31.1875 9.15625 30.2656 9.59375 29.375C10.1719 28.2188 10.1719 26.5313 9.59375 25.375C9.15625 24.4844 8.1875 23.5625 7.39062 23.2813L6.875 23.0938V15.5469V8.00001H10.4844H14.0781L13.1875 9.12501ZM47.0781 8.45313C48.2031 9.21876 49.3594 10.3438 50.0625 11.3438C51.2656 13.0313 51.7188 14.4375 51.7188 16.5156C51.7188 19.9063 50.5 22.4688 46.1406 28.2344C43.7969 31.3281 41.5469 34.0938 39.2969 36.5938C36.9219 39.2344 36.7969 39.4219 36.7969 40.5C36.7969 41.5781 36.9219 41.7656 39.2969 44.4063C44.1719 49.8438 49.2656 56.6719 50.5625 59.5156C51.9531 62.5469 52.1094 65.5313 51.0156 68.0781C50.3906 69.5469 48.75 71.4063 47.0781 72.5469L46.4219 73H32.5H18.5781L17.8906 72.5313C16.0156 71.25 14.375 69.2344 13.7188 67.4531C13.2656 66.1875 13.1562 63.6563 13.5 62.2031C13.8594 60.6563 14.8125 58.5625 15.9531 56.8125C18.0938 53.5625 22.6562 47.7656 26.1562 43.8906C28.0469 41.7656 28.375 41.1875 28.2344 40.1563C28.125 39.375 27.8281 38.9531 25.7031 36.5938C22.3906 32.8906 18.0469 27.375 15.9531 24.1875C14.8125 22.4375 13.8594 20.3438 13.5 18.7969C13.1562 17.3438 13.2656 14.8125 13.7188 13.5469C14.3594 11.8125 15.75 10.0625 17.6562 8.64063L18.5156 8.00001H32.4688H46.4219L47.0781 8.45313ZM58.125 15.5469V23.0938L57.6094 23.2813C56.8125 23.5625 55.8438 24.4844 55.4062 25.375C54.8281 26.5313 54.8281 28.2188 55.4062 29.375C55.8438 30.2656 56.8125 31.1875 57.6094 31.4688L58.125 31.6563V33.625V35.5938L57.6094 35.7813C56.8125 36.0625 55.8438 36.9844 55.4062 37.875C55.0781 38.5313 55 38.9063 55 39.875C55 40.8438 55.0781 41.2188 55.4062 41.875C55.8438 42.7656 56.8125 43.6875 57.6094 43.9688L58.125 44.1563V46.125V48.0938L57.6094 48.2813C56.8125 48.5625 55.8438 49.4844 55.4062 50.375C54.8281 51.5313 54.8281 53.2188 55.4062 54.375C55.8438 55.2656 56.8125 56.1875 57.6094 56.4688L58.125 56.6563V64.8281V73H54.5156C51.6406 73 50.9375 72.9531 51.0469 72.8125C51.1406 72.7031 51.5312 72.2031 51.9219 71.7031C52.8125 70.5938 53.8125 68.5625 54.125 67.2188C54.4375 65.9219 54.4375 63.1875 54.1406 61.7813C53.625 59.2813 52.3125 56.6406 49.9219 53.3281C47.8125 50.375 44.7188 46.5 41.875 43.2344C40.625 41.8125 39.5938 40.5781 39.5625 40.5313C39.5469 40.4688 40.0312 39.8438 40.6406 39.1719C43.9375 35.4844 47.625 30.9063 50.1406 27.3594C52.3594 24.25 53.6406 21.6563 54.1406 19.2188C54.4375 17.8125 54.4375 15.0781 54.1406 13.7969C53.8125 12.3906 52.8438 10.4375 51.9531 9.32813C51.5469 8.81251 51.1406 8.29688 51.0469 8.18751C50.9375 8.04688 51.6406 8.00001 54.5156 8.00001H58.125V15.5469Z" fill="#FF7F24"/>
<path d="M37.8123 17.6094C33.1873 18.2812 28.0466 19.875 24.8904 21.6094C22.3904 22.9844 21.2498 24.2812 21.2498 25.75V26.5469L26.2498 32.1562L31.2341 37.7656L31.2498 46.6719V55.5937L30.6716 55.7969C29.781 56.1094 28.5623 56.8281 27.7966 57.5L27.1091 58.1094L25.9373 57.9687C24.5623 57.8125 22.4998 57.9219 20.5779 58.2656C18.7966 58.5781 17.906 59.1406 17.3123 60.3281C16.7341 61.4531 16.7029 62.875 17.2498 64.0156C17.6873 64.9531 20.1873 67.4062 21.8123 68.5C25.2185 70.7812 28.4216 71.75 32.4998 71.75C37.9841 71.75 42.5466 69.7656 46.4998 65.6406C47.8591 64.2187 48.1873 63.4687 48.0935 61.9375C48.031 60.5781 47.4373 59.5469 46.3904 58.9062C45.2341 58.1875 41.4216 57.7031 39.0623 57.9687L37.8904 58.1094L37.2029 57.5C36.4373 56.8281 35.2185 56.1094 34.3435 55.7969L33.7498 55.5937V46.6719V37.7656L37.2966 33.5469C39.2498 31.2187 41.9841 27.9531 43.406 26.2812C46.7498 22.2812 47.4998 21.1875 47.4998 20.2187C47.4998 18.8594 46.6716 18.0469 44.8279 17.6094C43.6091 17.3281 39.7498 17.3125 37.8123 17.6094Z" fill="#FF7F24"/>
</svg>
