<svg width="740" height="666" viewBox="0 0 740 666" fill="none" xmlns="http://www.w3.org/2000/svg">
<rect width="740" height="666" rx="50" fill="#F6F6F6"/>
<mask id="mask0_507_64716" style="mask-type:alpha" maskUnits="userSpaceOnUse" x="0" y="0" width="740" height="666">
<rect width="740" height="666" rx="50" fill="#F6F6F6"/>
</mask>
<g mask="url(#mask0_507_64716)">
<g opacity="0.3">
<path opacity="0.5" d="M399.595 332.573C405.61 336.639 412.152 339.619 418.955 341.491L421.45 358.781L433.388 359.243L445.326 359.706L449.156 342.662C456.082 341.323 462.836 338.858 469.15 335.274L483.143 345.735L491.912 337.623L500.68 329.512L491.333 314.75C495.399 308.734 498.379 302.193 500.251 295.39L517.541 292.895L518.003 280.957L518.466 269.019L501.422 265.188C500.083 258.263 497.621 251.509 494.034 245.198L504.499 231.205L496.387 222.437L488.275 213.669L473.514 223.015C467.498 218.95 460.957 215.97 454.154 214.098L451.659 196.808L439.721 196.345L427.782 195.883L423.952 212.927C417.026 214.266 410.272 216.727 403.962 220.315L389.969 209.854L381.201 217.965L372.433 226.077L381.779 240.838C377.714 246.854 374.734 253.396 372.861 260.198L355.571 262.693L355.109 274.632L354.646 286.57L371.69 290.4C373.029 297.326 375.495 304.08 379.079 310.394L368.617 324.387L376.729 333.155L384.841 341.923L399.595 332.573ZM406.11 244.9C424.277 228.091 452.632 229.191 469.441 247.358C486.25 265.524 485.15 293.88 466.983 310.689C448.817 327.498 420.461 326.397 403.652 308.231C386.843 290.064 387.944 261.709 406.11 244.9Z" fill="#FFC000"/>
</g>
<g opacity="0.5">
<path opacity="0.5" d="M304.803 477.022C298.824 473.688 292.439 471.417 285.901 470.209L282.164 454.168L270.916 454.694L259.668 455.22L257.445 471.54C251.049 473.356 244.903 476.213 239.264 480.092L225.278 471.391L217.696 479.719L210.11 488.047L220.079 501.16C216.745 507.138 214.474 513.523 213.265 520.061L197.225 523.798L197.75 535.046L198.276 546.295L214.597 548.517C216.413 554.914 219.27 561.06 223.149 566.699L214.448 580.685L222.776 588.267L231.104 595.849L244.217 585.88C250.195 589.214 256.58 591.485 263.118 592.694L266.855 608.734L278.103 608.208L289.351 607.683L291.574 591.362C297.97 589.546 304.116 586.689 309.755 582.81L323.741 591.511L331.323 583.183L338.905 574.855L328.936 561.742C332.271 555.764 334.542 549.379 335.75 542.841L351.791 539.104L351.265 527.856L350.739 516.608L334.419 514.385C332.603 507.989 329.746 501.842 325.867 496.203L334.564 482.218L326.236 474.636L317.908 467.053L304.803 477.022ZM305.75 559.896C290.041 577.149 263.323 578.402 246.07 562.693C228.817 546.985 227.564 520.266 243.273 503.014C258.982 485.761 285.7 484.508 302.953 500.216C320.206 515.925 321.459 542.643 305.75 559.896Z" fill="#FFC000"/>
</g>
<g opacity="0.5">
<path opacity="0.5" d="M446.566 583.595C444 580.171 440.931 577.251 437.503 574.898L439.446 564.787L432.89 562.228L426.333 559.67L420.914 568.423C416.801 567.834 412.564 567.901 408.357 568.684L402.584 560.158L396.135 562.985L389.687 565.812L392.044 575.837C388.62 578.403 385.7 581.473 383.347 584.9L373.236 582.957L370.678 589.514L368.119 596.07L376.872 601.489C376.283 605.603 376.35 609.839 377.13 614.046L368.604 619.82L371.431 626.268L374.258 632.716L384.283 630.359C386.849 633.783 389.918 636.703 393.346 639.057L391.403 649.167L397.959 651.726L404.516 654.284L409.935 645.531C414.048 646.12 418.285 646.053 422.492 645.27L428.265 653.796L434.714 650.969L441.162 648.142L438.805 638.117C442.228 635.551 445.149 632.481 447.502 629.054L457.613 630.997L460.171 624.44L462.73 617.884L453.976 612.465C454.566 608.351 454.499 604.115 453.715 599.908L462.241 594.134L459.414 587.686L456.587 581.238L446.566 583.595ZM426.031 631.161C412.672 637.02 397.094 630.937 391.238 617.578C385.379 604.219 391.462 588.641 404.821 582.785C418.181 576.926 433.759 583.009 439.614 596.368C445.469 609.728 439.39 625.302 426.031 631.161Z" fill="#FFC000"/>
</g>
<path opacity="0.3" d="M120.844 290.908C120.844 290.908 101.458 258.857 54.9512 267.17C54.9512 267.166 86.2605 313.598 120.844 290.908Z" fill="#FFC000"/>
<path d="M151.118 299.354C151.118 299.354 145.345 235.106 67.0957 212.818C67.092 212.818 80.4511 308.331 151.118 299.354Z" fill="#FFC000"/>
<path d="M244.753 290.714C244.753 290.714 266.881 285.299 273.284 293.62C279.688 301.94 263.919 324.881 251.94 326.659C239.961 328.442 244.753 290.714 244.753 290.714Z" fill="#FEB673"/>
<path d="M182.213 597.252C182.213 597.252 238.517 569.911 248.837 531.292C259.16 492.673 192.887 487.735 193.808 487.742C194.729 487.746 126.501 505.819 121.843 516.847C117.185 527.872 96.6986 573.808 104.986 573.849C113.273 573.887 182.213 597.252 182.213 597.252Z" fill="#EE9C4C"/>
<path d="M232.023 250.442C232.009 250.36 231.99 250.277 231.967 250.195C231.333 247.417 228.719 245.552 225.885 245.854C225.803 245.862 225.717 245.873 225.631 245.884C225.605 245.888 225.575 245.888 225.549 245.895L101.654 266.564C101.628 266.568 101.598 266.575 101.572 266.583C101.49 266.598 101.404 266.617 101.326 266.639C98.5476 267.273 96.6791 269.887 96.9812 272.718C96.9886 272.8 96.9998 272.886 97.011 272.968C97.0147 272.994 97.0148 273.024 97.0222 273.05L139.997 530.659C140.445 533.337 142.977 535.146 145.655 534.698L270.978 513.791C273.656 513.343 275.465 510.811 275.017 508.133L232.042 250.52C232.038 250.494 232.031 250.468 232.023 250.442Z" fill="#FFE188"/>
<path d="M94.6172 271.81L103.594 263.179L224.367 243.35L236.511 250.898C236.511 250.898 237.286 261.844 236.649 262.12C236.011 262.396 96.1575 287.403 95.8032 285.243C95.4489 283.088 94.6172 271.81 94.6172 271.81Z" fill="#FFC000"/>
<g opacity="0.5">
<path d="M108.519 275.375C108.646 276.132 108.303 276.86 107.702 277.259C107.49 277.404 107.24 277.505 106.964 277.55C106.695 277.594 106.427 277.579 106.173 277.512C105.476 277.333 104.913 276.755 104.79 275.998C104.618 274.969 105.315 273.995 106.341 273.824C107.374 273.649 108.348 274.346 108.519 275.375Z" fill="white"/>
<path d="M114.287 274.41C114.414 275.167 114.071 275.894 113.47 276.293C113.257 276.438 113.008 276.539 112.732 276.584C112.459 276.629 112.187 276.614 111.941 276.547C111.244 276.364 110.684 275.789 110.557 275.032C110.386 274.003 111.079 273.03 112.109 272.858C113.142 272.687 114.115 273.38 114.287 274.41Z" fill="white"/>
<path d="M120.054 273.451C120.181 274.208 119.838 274.935 119.238 275.334C119.025 275.479 118.775 275.58 118.499 275.625C118.227 275.67 117.955 275.655 117.709 275.588C117.011 275.405 116.452 274.831 116.325 274.073C116.153 273.044 116.847 272.071 117.876 271.899C118.909 271.728 119.883 272.421 120.054 273.451Z" fill="white"/>
</g>
<path d="M274.572 505.465C275.266 509.616 272.458 513.543 268.31 514.237L148.324 534.25C144.173 534.943 140.242 532.139 139.552 527.988L97.4909 275.872C96.7188 271.24 99.8479 266.858 104.48 266.086L222.728 246.357C227.36 245.585 231.742 248.71 232.514 253.346L274.572 505.465ZM222.042 240.729L103.298 260.54C95.6559 261.816 90.4943 269.043 91.7698 276.685L134.264 531.397C135.539 539.038 142.767 544.2 150.409 542.924L269.153 523.113C276.795 521.838 281.957 514.61 280.681 506.968L238.187 252.257C236.912 244.611 229.684 239.453 222.042 240.729Z" fill="#20111D"/>
<path d="M193.756 590.404L193.752 590.743V590.851L193.588 623.552L193.309 679.107C175.567 674.676 160.384 670.432 148.517 666.922C128.486 660.996 109.234 681.483 92.1228 669.5C92.0333 669.437 92.2124 639.838 92.1228 639.779L94.4165 569.653C94.4165 569.653 80.0131 504.203 81.0126 488.554C82.0158 472.905 92.3205 437.049 96.9899 423.261C98.3623 419.207 99.1866 413.956 99.6602 408.563C99.6975 408.161 99.7311 407.758 99.7609 407.351C99.7609 407.34 99.7646 407.336 99.7646 407.336C100.175 402.16 100.276 396.927 100.261 392.56C100.261 392.422 100.261 392.288 100.257 392.146C100.257 391.762 100.253 391.389 100.249 391.023C100.249 390.926 100.246 390.83 100.246 390.733C100.182 385.459 99.9586 381.841 99.9586 381.841C100.048 380.946 100.175 380.107 100.328 379.32C100.484 378.496 100.678 377.731 100.898 377.019C101.066 376.478 101.253 375.967 101.45 375.494C102.797 372.275 104.863 370.466 107.302 369.795C109.107 369.295 111.121 369.418 113.202 370.049C120.564 372.279 128.773 380.868 131.682 390.751C137.116 409.197 132.245 462.574 132.245 462.574C132.245 462.574 144.836 475.292 152.743 500.649C154.838 507.37 156.606 514.978 157.721 523.474C158.143 526.703 158.355 529.736 158.378 532.581C158.411 535.867 158.191 538.903 157.777 541.7C157.192 545.679 156.207 549.181 154.965 552.258C148.353 568.672 134.457 573.08 134.457 573.08L135.374 573.349L158.042 579.972L192.566 590.061L193.752 590.407L193.756 590.404Z" fill="#FEB673"/>
<path d="M265.845 415.117L267.389 424.549C267.389 424.549 254.086 437.972 258.427 455.019C262.769 472.067 274.233 474.122 274.233 474.122C274.233 474.122 292.142 450.119 291.859 441.783C291.575 433.448 291.504 418.828 265.845 415.117Z" fill="#FEB673"/>
<path d="M276.511 470.959C276.511 470.959 283.691 463.679 290.363 447.787C289.255 447.101 287.193 446.504 285.876 446.113C281.826 444.912 279.249 445.744 277.06 448.585L268.817 460.65C268.817 460.65 267.232 463.731 270.712 467.293C272.047 468.661 276.511 470.959 276.511 470.959Z" fill="#F6A455"/>
<path d="M274.466 474.762L274.09 474.669C268.339 473.244 264.777 468.81 264.628 468.619C264.255 468.179 255.177 457.349 256.986 444.747C258.791 432.201 269.309 421.986 269.756 421.557L270.543 422.377C270.435 422.478 259.858 432.76 258.109 444.911C256.371 457.002 265.411 467.795 265.504 467.903C265.549 467.959 268.839 472.043 273.989 473.472L284.208 459.05C294.9 443.613 289.97 431.533 289.922 431.41L290.966 430.966C291.022 431.097 292.323 434.203 292.26 439.324C292.2 444.02 290.914 451.363 285.14 459.702L274.466 474.762Z" fill="black"/>
<path d="M276.231 479.363L277.436 486.733C277.436 486.733 267.042 497.22 270.432 510.542C273.822 523.864 282.78 525.468 282.78 525.468C282.78 525.468 296.773 506.708 296.553 500.2C296.337 493.688 296.285 482.265 276.231 479.363Z" fill="#FEB673"/>
<path d="M284.571 522.999C284.571 522.999 290.184 517.312 295.394 504.893C294.528 504.356 292.917 503.893 291.888 503.587C288.722 502.647 286.711 503.296 285 505.519L278.559 514.947C278.559 514.947 277.32 517.353 280.039 520.135C281.08 521.206 284.571 522.999 284.571 522.999Z" fill="#F6A455"/>
<path d="M282.97 525.968L282.676 525.897C278.182 524.785 275.399 521.317 275.28 521.171C274.989 520.828 267.896 512.366 269.309 502.516C270.719 492.715 278.939 484.73 279.289 484.395L279.905 485.036C279.823 485.114 271.554 493.148 270.189 502.643C268.832 512.09 275.895 520.526 275.966 520.612C276.004 520.657 278.573 523.845 282.597 524.964L290.582 513.694C298.936 501.632 295.088 492.189 295.047 492.096L295.863 491.749C296.035 492.148 299.962 501.711 291.31 514.205L282.97 525.968Z" fill="black"/>
<path d="M155.507 550.734C155.507 550.734 146.533 573.939 158.024 579.962C169.515 585.985 130.347 589.192 130.355 588.059C130.362 586.925 103.293 553.311 110.111 551.644C116.928 549.977 138.246 542.137 143.043 547.269C147.839 552.397 155.507 550.734 155.507 550.734Z" fill="#F7AB61"/>
<path d="M256.777 359.283L258.321 368.715C258.321 368.715 245.018 382.138 249.359 399.185C253.7 416.233 265.165 418.288 265.165 418.288C265.165 418.288 283.074 394.285 282.79 385.949C282.507 377.614 282.44 362.994 256.777 359.283Z" fill="#FE9F73"/>
<path d="M267.447 415.123C267.447 415.123 274.626 407.843 281.298 391.951C280.191 391.265 278.128 390.668 276.812 390.277C272.761 389.076 270.184 389.908 267.995 392.75L259.753 404.815C259.753 404.815 258.168 407.895 261.647 411.457C262.983 412.826 267.447 415.123 267.447 415.123Z" fill="#F78A5E"/>
<path d="M193.195 590.399L193.029 623.547L194.163 623.553L194.329 590.405L193.195 590.399Z" fill="black"/>
<path d="M190.783 592.123L190.324 591.087C209.602 582.583 227.515 566.222 235.996 554.619C243.5 544.359 246.718 536.774 246.748 536.695L247.796 537.135C247.763 537.214 244.503 544.911 236.913 555.287C228.343 567.005 210.251 583.534 190.783 592.123Z" fill="black"/>
<path d="M112.659 378.754C111.529 375.554 103.358 375.129 100.956 375.558C99.4043 375.834 101.027 405.961 99.7661 407.333C99.7661 407.333 99.5386 407.71 103.503 407.848C107.874 408.001 110.906 406.158 110.906 406.158C110.906 406.158 113.789 381.954 112.659 378.754Z" fill="#F6A455"/>
<path d="M265.403 418.924L265.03 418.835C259.857 417.611 255.755 413.005 255.583 412.808C255.188 412.345 246.11 401.515 247.923 388.909C249.728 376.363 260.245 366.148 260.693 365.719L261.479 366.539C261.371 366.64 250.794 376.922 249.045 389.073C247.307 401.164 256.348 411.957 256.441 412.066C256.474 412.103 260.275 416.362 264.926 417.637L275.144 403.212C285.837 387.775 280.907 375.691 280.858 375.572L281.902 375.128C281.958 375.259 283.26 378.366 283.196 383.486C283.137 388.182 281.85 395.525 276.077 403.864L265.403 418.924Z" fill="black"/>
<path d="M257.762 368.807L239.83 265.507L240.949 265.324L258.881 368.621L257.762 368.807Z" fill="black"/>
<path d="M270.856 311.519L269.931 310.863C270.01 310.751 277.79 299.633 272.083 293.132C266.299 286.546 245.857 291.048 245.652 291.092L245.402 289.985C246.268 289.791 266.709 285.293 272.934 292.383C279.237 299.555 271.203 311.034 270.856 311.519Z" fill="black"/>
<path d="M117.161 560.766C116.993 560.885 116.773 560.915 116.572 560.829C109.821 557.861 103.511 547.959 103.242 547.537C103.067 547.258 103.149 546.892 103.429 546.713C103.709 546.538 104.078 546.62 104.253 546.9C104.317 547 110.638 556.917 117.053 559.737C117.355 559.871 117.493 560.221 117.359 560.524C117.314 560.624 117.243 560.706 117.161 560.766Z" fill="#000100"/>
<path d="M125.326 559.527C125.196 559.621 125.028 559.662 124.86 559.628C117.628 558.185 109.326 549.875 108.98 549.525C108.748 549.29 108.748 548.91 108.983 548.678C109.218 548.443 109.599 548.447 109.83 548.682C109.912 548.764 118.225 557.085 125.095 558.453C125.419 558.517 125.628 558.834 125.565 559.158C125.535 559.311 125.445 559.442 125.326 559.527Z" fill="#000100"/>
<path d="M134.628 573.613L134.285 572.532C134.356 572.509 141.401 570.204 147.7 563.051C153.515 556.45 159.877 544.236 157.158 523.544C154.425 502.715 147.689 487.357 142.516 478.137C136.915 468.15 131.891 463.022 131.842 462.969L131.656 462.783L131.678 462.518C131.727 461.985 136.478 409.037 131.137 390.908C127.941 380.047 117.734 370.108 109.726 370.052C109.719 370.052 109.715 370.052 109.708 370.052C105.751 370.033 102.89 372.499 101.439 377.187C101.014 378.559 100.708 380.129 100.529 381.856C100.582 382.759 101.331 396.151 100.227 408.615C99.6865 414.769 98.7764 419.755 97.527 423.444C93.253 436.065 82.5903 472.737 81.5759 488.595C80.5913 503.983 94.8231 568.877 94.9686 569.533L93.8609 569.775C93.2717 567.101 79.4501 504.072 80.4458 488.524C81.4677 472.562 92.164 435.748 96.4529 423.082C97.6725 419.479 98.5639 414.579 99.0972 408.518C100.227 395.76 99.403 382.016 99.3955 381.878L99.3918 381.834L99.3955 381.789C99.582 379.973 99.9065 378.313 100.354 376.855C102.394 370.272 106.564 368.903 109.711 368.922C109.719 368.922 109.726 368.922 109.734 368.922C113.765 368.952 118.547 371.32 122.847 375.426C127.251 379.63 130.582 385.015 132.223 390.591C137.489 408.466 133.23 457.871 132.831 462.369C133.797 463.398 138.414 468.519 143.478 477.544C148.707 486.853 155.517 502.368 158.277 523.399C159.501 532.726 159.027 541.166 156.871 548.487C155.137 554.365 152.325 559.534 148.506 563.853C142.002 571.215 134.927 573.52 134.628 573.613Z" fill="black"/>
<path d="M447.681 307.356C447.681 307.356 424.942 306.028 420.146 315.367C415.349 324.706 435 344.42 447.102 344.01C459.209 343.6 447.681 307.356 447.681 307.356Z" fill="#FEB673"/>
<path d="M564.546 597.563C564.546 597.563 504.232 580.84 487.106 544.715C469.98 508.595 534.269 491.771 533.363 491.943C532.457 492.114 602.829 497.571 609.4 507.573C615.976 517.576 644.421 559.055 636.275 560.596C628.134 562.132 564.546 597.563 564.546 597.563Z" fill="#EE9C4C"/>
<path d="M452.925 265.444C452.925 265.359 452.929 265.277 452.933 265.191C453.056 262.345 455.29 260.037 458.132 259.824C458.214 259.817 458.3 259.813 458.385 259.805C458.415 259.805 458.441 259.802 458.467 259.802L584.059 257.758C584.089 257.758 584.115 257.762 584.141 257.762C584.227 257.762 584.309 257.765 584.395 257.769C587.24 257.892 589.549 260.126 589.765 262.964C589.773 263.046 589.78 263.132 589.784 263.218C589.784 263.248 589.788 263.274 589.791 263.3L594.039 524.437C594.084 527.152 591.917 529.39 589.202 529.435L462.163 531.501C459.448 531.546 457.211 529.383 457.166 526.664L452.918 265.526C452.922 265.5 452.925 265.474 452.925 265.444Z" fill="#FFE188"/>
<path d="M591.933 261.651L581.546 254.785L459.18 257.094L448.6 266.708C448.6 266.708 449.815 277.614 450.49 277.77C451.166 277.927 593.238 277.267 593.197 275.081C593.156 272.896 591.933 261.651 591.933 261.651Z" fill="#FFC000"/>
<g opacity="0.5">
<path d="M578.907 267.665C578.918 268.433 579.388 269.086 580.048 269.37C580.283 269.474 580.548 269.53 580.827 269.522C581.1 269.519 581.361 269.455 581.596 269.343C582.248 269.041 582.696 268.37 582.685 267.602C582.666 266.557 581.804 265.726 580.764 265.744C579.72 265.759 578.888 266.621 578.907 267.665Z" fill="white"/>
<path d="M573.057 267.763C573.068 268.531 573.538 269.184 574.198 269.467C574.433 269.572 574.698 269.628 574.978 269.62C575.254 269.616 575.518 269.553 575.75 269.441C576.402 269.135 576.85 268.468 576.835 267.699C576.816 266.655 575.958 265.823 574.914 265.842C573.874 265.861 573.042 266.719 573.057 267.763Z" fill="white"/>
<path d="M567.213 267.853C567.224 268.621 567.694 269.274 568.354 269.557C568.589 269.661 568.854 269.717 569.134 269.71C569.41 269.706 569.675 269.643 569.906 269.531C570.558 269.225 571.006 268.558 570.991 267.789C570.972 266.745 570.115 265.913 569.07 265.932C568.03 265.947 567.198 266.808 567.213 267.853Z" fill="white"/>
</g>
<path d="M452.97 268.395C452.896 263.7 456.64 259.832 461.332 259.754L581.199 257.804C585.894 257.729 589.762 261.47 589.84 266.165L593.998 521.731C594.066 525.941 590.709 529.406 586.502 529.473L464.875 531.454C460.668 531.521 457.2 528.168 457.133 523.957L452.97 268.395ZM447.193 268.347L451.397 526.545C451.523 534.292 457.905 540.468 465.651 540.341L586.017 538.383C593.764 538.256 599.94 531.875 599.813 524.129L595.61 265.93C595.483 258.184 589.102 252.008 581.355 252.135L460.989 254.093C453.243 254.22 447.067 260.597 447.193 268.347Z" fill="#20111D"/>
<path d="M651 669C622.279 693.339 587.507 681.296 550.57 692.1L550.63 642.524L550.649 625.472L552.036 593.342V593.339L552.017 593.242L551.958 592.906L552.305 592.731L553.062 592.347L585.21 576.183C585.214 576.183 585.214 576.183 585.218 576.183L606.297 565.584L607.151 565.155C607.151 565.155 592.632 563.32 583.177 548.305C583.166 548.29 583.163 548.275 583.151 548.26C583.144 548.249 583.14 548.241 583.136 548.23C581.391 545.459 579.825 542.237 578.549 538.5C577.639 535.822 576.875 532.876 576.315 529.642L576.311 529.638C575.819 526.838 575.48 523.82 575.312 520.565C575.058 515.563 575.077 510.823 575.301 506.351C575.465 503.166 575.733 500.123 576.088 497.214V497.21C576.509 493.712 577.057 490.415 577.684 487.334C579.418 478.812 581.775 471.902 583.923 466.766C586.847 459.762 589.372 456.062 589.372 456.062C589.372 456.062 586.318 445.135 583.219 431.474C582.961 430.359 582.711 429.229 582.461 428.084C579.086 412.737 575.942 394.928 576.96 385.321C578.035 375.072 584.557 365.144 591.397 361.623C593.326 360.624 595.287 360.143 597.152 360.307C599.673 360.531 602.034 361.929 603.94 364.857C604.223 365.29 604.495 365.76 604.756 366.259C605.096 366.916 605.42 367.628 605.722 368.4C605.726 368.404 605.726 368.407 605.73 368.415C606.025 369.168 606.301 369.97 606.55 370.835C606.55 370.835 607.02 374.703 607.975 380.204C608.02 380.465 608.068 380.734 608.113 381.006C608.158 381.259 608.203 381.513 608.247 381.759C609.019 385.988 610.045 390.982 611.347 395.872V395.875C611.347 395.883 611.35 395.887 611.35 395.89C611.35 395.894 611.35 395.894 611.354 395.898C611.455 396.286 611.563 396.681 611.671 397.065C613.111 402.286 614.871 407.299 616.952 411.036C624.038 423.757 640.649 457.163 644.461 472.379C648.269 487.588 645.919 554.555 645.919 554.555V554.559L651 669Z" fill="#FEB673"/>
<path d="M449.403 433.523L449.59 443.078C449.59 443.078 465.097 453.879 463.908 471.427C462.718 488.978 451.813 493.069 451.813 493.069C451.813 493.069 429.864 472.691 428.637 464.445C427.403 456.203 424.833 441.81 449.403 433.523Z" fill="#FEB673"/>
<path d="M448.994 490.375C448.994 490.375 440.618 484.512 431.186 470.086C432.151 469.21 434.072 468.255 435.299 467.632C439.066 465.719 441.748 466.073 444.418 468.472L454.704 478.851C454.704 478.851 456.819 481.596 454.04 485.724C452.97 487.309 448.994 490.375 448.994 490.375Z" fill="#F6A455"/>
<path d="M451.69 493.745L438.476 480.86C431.285 473.699 428.697 466.706 427.787 462.1C426.799 457.077 427.519 453.784 427.549 453.646L428.656 453.896C428.626 454.022 425.96 466.796 439.27 480.051L451.921 492.388C456.728 490.053 459.227 485.444 459.253 485.395C459.335 485.257 466.276 473.006 462.382 461.429C458.47 449.793 446.207 441.592 446.084 441.51L446.711 440.562C447.229 440.902 459.421 449.055 463.46 461.067C467.518 473.136 460.547 485.429 460.245 485.947C460.145 486.141 457.441 491.146 452.04 493.585L451.69 493.745Z" fill="black"/>
<path d="M450.788 498.586L450.933 506.052C450.933 506.052 463.05 514.492 462.122 528.206C461.193 541.919 452.671 545.115 452.671 545.115C452.671 545.115 435.519 529.194 434.561 522.75C433.602 516.305 431.588 505.06 450.788 498.586Z" fill="#FEB673"/>
<path d="M450.468 543.012C450.468 543.012 443.922 538.429 436.553 527.158C437.31 526.472 438.809 525.726 439.768 525.238C442.71 523.742 444.806 524.018 446.895 525.894L454.932 534.002C454.932 534.002 456.584 536.146 454.413 539.372C453.574 540.614 450.468 543.012 450.468 543.012Z" fill="#F6A455"/>
<path d="M452.573 545.646L442.25 535.576C431.479 524.85 433.616 514.736 433.713 514.311L434.578 514.504C434.556 514.605 432.471 524.585 442.873 534.942L452.76 544.583C456.527 542.756 458.47 539.157 458.488 539.119C458.552 539.011 463.975 529.437 460.935 520.39C457.877 511.297 448.296 504.89 448.199 504.826L448.687 504.088C449.09 504.353 458.619 510.723 461.774 520.11C464.944 529.542 459.495 539.145 459.264 539.552C459.186 539.705 457.071 543.613 452.853 545.523L452.573 545.646Z" fill="black"/>
<path opacity="0.3" d="M582.412 546.986C582.412 546.986 595.428 568.189 585.213 576.188C574.998 584.184 614.098 580.269 613.889 579.153C613.68 578.038 634.23 540.09 627.226 539.68C620.218 539.27 597.837 535.414 594.048 541.325C590.255 547.236 582.412 546.986 582.412 546.986Z" fill="#E69136"/>
<path d="M448.236 376.969L448.422 386.524C448.422 386.524 463.929 397.325 462.74 414.872C461.55 432.423 450.645 436.514 450.645 436.514C450.645 436.514 428.697 416.136 427.47 407.89C426.235 399.644 423.665 385.252 448.236 376.969Z" fill="#FEB673"/>
<path d="M447.826 433.816C447.826 433.816 439.45 427.954 430.018 413.528C430.984 412.651 432.904 411.697 434.131 411.074C437.898 409.161 440.58 409.515 443.25 411.913L453.536 422.292C453.536 422.292 455.651 425.037 452.872 429.166C451.802 430.751 447.826 433.816 447.826 433.816Z" fill="#F6A455"/>
<path d="M551.387 592.954L550.066 642.566L551.2 642.597L552.52 592.984L551.387 592.954Z" fill="black"/>
<path d="M555.191 594.062C534.488 589.131 513.711 576.141 503.168 566.161C493.829 557.322 489.23 550.34 489.186 550.269L490.137 549.65C490.181 549.718 494.716 556.598 503.947 565.337C514.386 575.216 534.958 588.076 555.455 592.958L555.191 594.062Z" fill="black"/>
<path d="M593.501 370.095C594.034 366.745 601.993 364.847 604.432 364.836C606.006 364.828 609.851 394.75 611.339 395.877C611.339 395.877 611.63 396.205 607.755 397.059C603.485 397.999 600.166 396.735 600.166 396.735C600.166 396.735 592.968 373.444 593.501 370.095Z" fill="#F6A455"/>
<path d="M450.518 437.187L437.308 424.305C430.117 417.145 427.529 410.152 426.619 405.546C425.631 400.522 426.351 397.229 426.381 397.091L427.488 397.341C427.458 397.468 424.792 410.241 438.102 423.496L450.757 435.833C455.098 433.741 458.07 428.863 458.1 428.814C458.167 428.699 465.108 416.451 461.214 404.874C457.302 393.238 445.039 385.037 444.916 384.955L445.543 384.008C446.061 384.347 458.253 392.5 462.292 404.513C466.35 416.581 459.379 428.874 459.077 429.392C458.939 429.624 455.732 434.893 450.869 437.034L450.518 437.187Z" fill="black"/>
<path d="M448.244 386.534L446.961 281.761L447.703 281.738L448.986 386.512L448.244 386.534Z" fill="black"/>
<path d="M425.763 332.532C425.338 332.118 415.365 322.279 420.265 314.085C425.11 305.989 446.025 306.72 446.913 306.757L446.868 307.891C446.659 307.883 425.737 307.149 421.239 314.671C416.801 322.093 426.456 331.625 426.553 331.719L425.763 332.532Z" fill="black"/>
<path d="M621.939 549.94C622.126 550.026 622.35 550.019 622.532 549.896C628.634 545.76 633.057 534.877 633.24 534.414C633.363 534.109 633.214 533.762 632.908 533.635C632.602 533.512 632.252 533.661 632.129 533.967C632.084 534.075 627.657 544.973 621.857 548.904C621.585 549.09 621.514 549.459 621.697 549.735C621.76 549.829 621.846 549.896 621.939 549.94Z" fill="#000100"/>
<path d="M613.679 550.185C613.824 550.252 613.996 550.263 614.156 550.2C621.007 547.478 627.672 537.803 627.952 537.393C628.138 537.121 628.067 536.748 627.795 536.561C627.523 536.375 627.15 536.446 626.963 536.718C626.896 536.815 620.224 546.497 613.712 549.085C613.406 549.208 613.254 549.555 613.377 549.861C613.436 550.01 613.548 550.122 613.679 550.185Z" fill="#000100"/>
<path d="M607.081 565.717C606.772 565.676 599.398 564.687 591.663 558.619C587.128 555.058 583.425 550.482 580.661 545.018C577.215 538.208 575.227 529.992 574.746 520.597C573.665 499.413 577.562 482.925 581.023 472.822C584.376 463.032 587.99 457.161 588.758 455.975C587.55 451.627 574.441 403.799 576.391 385.268C576.999 379.487 579.3 373.59 582.877 368.66C586.368 363.845 590.638 360.649 594.599 359.892C597.694 359.299 602.058 359.881 605.258 366.001C605.962 367.355 606.582 368.928 607.092 370.681L607.111 370.771C607.126 370.909 608.801 384.574 612.213 396.919C613.832 402.785 615.592 407.443 617.446 410.766C623.95 422.447 641.121 456.725 645.007 472.24C648.792 487.352 646.581 551.843 646.484 554.58L645.35 554.539C645.372 553.872 647.655 487.471 643.907 472.516C640.047 457.106 622.939 422.962 616.454 411.318C614.559 407.917 612.765 403.173 611.12 397.221C607.786 385.159 606.1 371.856 605.992 370.954C605.504 369.29 604.918 367.802 604.254 366.527C601.976 362.171 598.712 360.265 594.815 361.007C586.949 362.506 578.707 374.127 577.525 385.387C575.544 404.184 589.78 455.405 589.926 455.92L589.996 456.173L589.847 456.393C589.806 456.453 585.793 462.401 582.086 473.239C578.666 483.238 574.813 499.562 575.884 520.541C576.951 541.423 585.435 552.29 592.368 557.732C599.857 563.609 607.156 564.587 607.227 564.598L607.081 565.717Z" fill="black"/>
<path d="M322.282 421.756L159.167 455.132C156.143 455.751 153.189 453.8 152.57 450.776L132.415 352.279C131.796 349.254 133.747 346.301 136.771 345.682L299.886 312.306C302.91 311.687 305.864 313.637 306.483 316.662L326.638 415.159C327.257 418.183 325.306 421.137 322.282 421.756Z" fill="#FFC000"/>
<g opacity="0.1">
<path d="M257.499 411.696C272.949 396.245 272.949 371.196 257.499 355.746C242.049 340.296 216.999 340.296 201.549 355.746C186.099 371.196 186.099 396.245 201.549 411.696C216.999 427.146 242.049 427.146 257.499 411.696Z" fill="white"/>
</g>
<path d="M163.493 416.912C163.448 417.479 163.314 417.963 163.094 418.363C162.874 418.762 162.575 419.082 162.199 419.325C161.822 419.567 161.374 419.742 160.856 419.847C160.338 419.951 159.857 419.97 159.413 419.895C158.965 419.821 158.562 419.642 158.204 419.362C157.843 419.082 157.533 418.687 157.268 418.184C157.003 417.68 156.795 417.05 156.642 416.296L156.265 414.458C156.112 413.704 156.056 413.044 156.101 412.477C156.146 411.91 156.28 411.426 156.5 411.027C156.72 410.627 157.022 410.303 157.403 410.061C157.783 409.818 158.234 409.643 158.749 409.535C159.267 409.43 159.745 409.415 160.188 409.49C160.629 409.565 161.031 409.744 161.389 410.023C161.751 410.303 162.061 410.698 162.325 411.202C162.59 411.705 162.799 412.336 162.952 413.089L163.329 414.928C163.485 415.685 163.538 416.345 163.493 416.912ZM161.714 413.346C161.598 412.776 161.445 412.295 161.266 411.91C161.084 411.526 160.875 411.228 160.643 411.008C160.409 410.792 160.151 410.65 159.871 410.583C159.588 410.519 159.29 410.516 158.973 410.583C158.656 410.646 158.38 410.765 158.145 410.937C157.91 411.109 157.731 411.34 157.6 411.631C157.47 411.922 157.399 412.28 157.38 412.705C157.361 413.13 157.414 413.626 157.529 414.2L157.906 416.039C158.022 416.61 158.171 417.091 158.354 417.475C158.536 417.859 158.745 418.161 158.976 418.377C159.208 418.594 159.469 418.735 159.748 418.803C160.032 418.87 160.33 418.87 160.647 418.803C160.964 418.739 161.24 418.62 161.475 418.448C161.71 418.277 161.889 418.046 162.02 417.755C162.15 417.464 162.221 417.106 162.24 416.681C162.258 416.255 162.206 415.759 162.091 415.185L161.714 413.346Z" fill="white"/>
<path d="M171.739 415.224C171.694 415.791 171.56 416.276 171.34 416.675C171.12 417.074 170.821 417.395 170.445 417.637C170.068 417.88 169.621 418.055 169.102 418.159C168.584 418.264 168.103 418.282 167.659 418.208C167.211 418.133 166.808 417.954 166.45 417.675C166.089 417.395 165.779 417 165.514 416.496C165.25 415.993 165.041 415.362 164.888 414.609L164.511 412.77C164.358 412.017 164.302 411.357 164.347 410.79C164.392 410.223 164.526 409.738 164.746 409.339C164.966 408.94 165.268 408.616 165.649 408.373C166.029 408.131 166.48 407.955 166.995 407.847C167.513 407.743 167.991 407.728 168.435 407.802C168.875 407.877 169.277 408.056 169.635 408.336C169.997 408.616 170.307 409.011 170.572 409.514C170.836 410.018 171.045 410.648 171.198 411.401L171.575 413.24C171.728 413.997 171.784 414.657 171.739 415.224ZM169.956 411.655C169.841 411.084 169.688 410.603 169.509 410.219C169.326 409.835 169.117 409.537 168.886 409.317C168.651 409.1 168.394 408.959 168.114 408.892C167.83 408.828 167.532 408.824 167.215 408.892C166.898 408.955 166.622 409.074 166.387 409.246C166.152 409.417 165.973 409.649 165.843 409.939C165.712 410.23 165.641 410.588 165.622 411.014C165.604 411.439 165.656 411.935 165.772 412.509L166.148 414.348C166.264 414.918 166.417 415.4 166.596 415.784C166.779 416.168 166.987 416.47 167.219 416.686C167.45 416.903 167.711 417.044 167.991 417.111C168.274 417.179 168.573 417.179 168.89 417.111C169.207 417.048 169.483 416.929 169.717 416.757C169.952 416.586 170.131 416.354 170.262 416.063C170.393 415.772 170.463 415.414 170.482 414.989C170.501 414.564 170.448 414.068 170.333 413.494L169.956 411.655Z" fill="white"/>
<path d="M178.772 407.979C178.88 408.516 178.839 409.008 178.649 409.46C178.455 409.911 178.086 410.414 177.534 410.974L176.404 412.126C176.072 412.458 175.807 412.76 175.606 413.032C175.404 413.305 175.259 413.57 175.162 413.827C175.069 414.084 175.017 414.338 175.005 414.591C174.994 414.845 175.02 415.121 175.084 415.419L175.143 415.707L179.734 414.767C179.805 414.752 179.876 414.759 179.936 414.789C179.999 414.819 180.036 414.871 180.051 414.942L180.174 415.542C180.189 415.617 180.174 415.68 180.13 415.736C180.085 415.792 180.025 415.83 179.954 415.845L174.554 416.948C174.483 416.963 174.416 416.952 174.349 416.911C174.286 416.874 174.245 416.818 174.23 416.743L174.006 415.639C173.86 414.931 173.89 414.252 174.092 413.596C174.293 412.939 174.718 412.287 175.363 411.634L176.553 410.426C176.796 410.176 176.993 409.963 177.146 409.78C177.299 409.598 177.415 409.426 177.489 409.266C177.564 409.105 177.609 408.941 177.616 408.777C177.627 408.613 177.609 408.434 177.568 408.233C177.467 407.744 177.239 407.42 176.878 407.259C176.52 407.103 175.971 407.099 175.237 407.248C174.882 407.319 174.491 407.423 174.066 407.554C173.637 407.684 173.238 407.815 172.868 407.949L172.812 407.96C172.667 407.99 172.577 407.923 172.544 407.759L172.443 407.274C172.428 407.2 172.443 407.14 172.484 407.091C172.525 407.043 172.581 407.006 172.652 406.972C172.976 406.808 173.353 406.662 173.775 406.528C174.196 406.394 174.614 406.286 175.02 406.2C176.128 405.972 176.986 406.002 177.594 406.286C178.209 406.573 178.597 407.136 178.772 407.979Z" fill="white"/>
<path d="M186.437 414.431C186.404 414.494 186.348 414.535 186.277 414.55L185.527 414.703C185.453 414.718 185.389 414.703 185.333 414.658C185.277 414.614 185.24 414.554 185.225 414.483L183.472 405.913L181.872 407.035C181.813 407.076 181.757 407.102 181.704 407.114C181.622 407.129 181.57 407.088 181.552 406.991L181.41 406.297C181.402 406.252 181.406 406.215 181.425 406.189C181.443 406.163 181.473 406.129 181.511 406.092L183.368 404.689C183.465 404.611 183.554 404.566 183.636 404.548L184.196 404.432C184.27 404.417 184.334 404.428 184.393 404.469C184.453 404.51 184.49 404.566 184.505 404.637L186.467 414.23C186.482 414.3 186.471 414.368 186.437 414.431Z" fill="white"/>
<path d="M203.86 408.652C203.815 409.219 203.681 409.704 203.461 410.103C203.241 410.502 202.943 410.823 202.566 411.065C202.189 411.307 201.742 411.483 201.223 411.587C200.705 411.692 200.224 411.71 199.78 411.636C199.332 411.561 198.93 411.382 198.572 411.102C198.21 410.823 197.9 410.427 197.635 409.924C197.371 409.42 197.162 408.79 197.009 408.037L196.632 406.198C196.479 405.445 196.423 404.784 196.468 404.218C196.513 403.651 196.647 403.166 196.867 402.767C197.087 402.368 197.389 402.043 197.77 401.801C198.15 401.558 198.601 401.383 199.116 401.275C199.634 401.171 200.112 401.156 200.556 401.23C200.996 401.305 201.399 401.484 201.757 401.764C202.118 402.043 202.428 402.439 202.693 402.942C202.957 403.446 203.166 404.076 203.319 404.829L203.696 406.668C203.853 407.425 203.905 408.085 203.86 408.652ZM202.081 405.087C201.965 404.516 201.812 404.035 201.633 403.651C201.451 403.267 201.242 402.968 201.011 402.748C200.776 402.532 200.518 402.39 200.239 402.323C199.955 402.26 199.657 402.256 199.34 402.323C199.023 402.386 198.747 402.506 198.512 402.677C198.277 402.849 198.098 403.08 197.967 403.371C197.837 403.662 197.766 404.02 197.747 404.445C197.729 404.87 197.781 405.366 197.896 405.941L198.273 407.779C198.389 408.35 198.542 408.831 198.721 409.215C198.903 409.599 199.112 409.901 199.344 410.118C199.575 410.334 199.836 410.476 200.116 410.543C200.399 410.61 200.697 410.61 201.014 410.543C201.331 410.479 201.607 410.36 201.842 410.189C202.077 410.017 202.256 409.786 202.387 409.495C202.517 409.204 202.588 408.846 202.607 408.421C202.626 407.996 202.573 407.5 202.458 406.925L202.081 405.087Z" fill="white"/>
<path d="M211.859 407.748C211.766 408.151 211.595 408.502 211.345 408.796C211.095 409.095 210.774 409.341 210.382 409.538C209.991 409.736 209.547 409.885 209.047 409.99C208.611 410.079 208.193 410.135 207.798 410.158C207.399 410.18 207.03 410.191 206.69 410.184C206.612 410.18 206.545 410.161 206.489 410.131C206.429 410.102 206.392 410.049 206.377 409.975L206.28 409.505C206.25 409.352 206.31 409.259 206.463 409.225L206.504 409.218C206.925 409.188 207.335 409.151 207.746 409.106C208.152 409.061 208.514 409.005 208.835 408.942C209.581 408.789 210.088 408.532 210.364 408.162C210.64 407.793 210.711 407.286 210.576 406.633L210.517 406.35C210.479 406.167 210.416 405.988 210.327 405.801C210.237 405.619 210.114 405.455 209.957 405.317C209.801 405.179 209.61 405.078 209.387 405.018C209.159 404.955 208.894 404.955 208.585 405.018L206.105 405.525C205.933 405.559 205.829 405.496 205.795 405.332L205.698 404.854C205.665 404.683 205.732 404.578 205.903 404.541L208.383 404.034C208.712 403.967 208.969 403.862 209.155 403.72C209.346 403.579 209.48 403.415 209.558 403.236C209.64 403.053 209.681 402.863 209.689 402.665C209.696 402.467 209.681 402.277 209.644 402.094L209.607 401.904C209.491 401.345 209.249 400.968 208.872 400.774C208.495 400.584 207.925 400.565 207.153 400.722C206.754 400.804 206.388 400.901 206.056 401.009C205.724 401.121 205.34 401.248 204.908 401.393L204.867 401.401C204.714 401.43 204.62 401.371 204.587 401.214L204.486 400.729C204.471 400.666 204.486 400.606 204.527 400.55C204.568 400.494 204.62 400.45 204.691 400.416C205.005 400.274 205.348 400.14 205.721 400.002C206.094 399.868 206.5 399.756 206.936 399.666C207.444 399.562 207.917 399.51 208.354 399.51C208.79 399.51 209.174 399.584 209.514 399.734C209.853 399.883 210.136 400.107 210.368 400.409C210.599 400.711 210.767 401.117 210.871 401.624L210.908 401.815C211.002 402.277 210.979 402.717 210.837 403.135C210.696 403.553 210.431 403.907 210.047 404.205C210.315 404.272 210.55 404.373 210.748 404.504C210.946 404.634 211.113 404.783 211.251 404.955C211.389 405.126 211.501 405.305 211.591 405.496C211.677 405.686 211.74 405.88 211.781 406.081L211.841 406.368C211.945 406.89 211.953 407.345 211.859 407.748Z" fill="white"/>
<path d="M220.102 406.061C220.008 406.464 219.837 406.814 219.587 407.109C219.337 407.407 219.016 407.653 218.625 407.851C218.233 408.049 217.789 408.198 217.29 408.302C216.853 408.392 216.435 408.448 216.04 408.47C215.641 408.492 215.272 408.504 214.932 408.496C214.854 408.492 214.787 408.474 214.731 408.444C214.671 408.414 214.634 408.362 214.619 408.287L214.522 407.817C214.492 407.664 214.552 407.571 214.705 407.538L214.746 407.53C215.167 407.5 215.578 407.463 215.988 407.418C216.394 407.374 216.756 407.318 217.077 407.254C217.823 407.101 218.33 406.844 218.606 406.475C218.882 406.106 218.953 405.598 218.819 404.946L218.759 404.662C218.722 404.479 218.658 404.3 218.569 404.114C218.479 403.931 218.356 403.767 218.2 403.629C218.043 403.491 217.853 403.39 217.629 403.331C217.405 403.267 217.137 403.267 216.827 403.331L214.347 403.838C214.175 403.872 214.071 403.808 214.037 403.644L213.94 403.167C213.907 402.995 213.974 402.891 214.146 402.853L216.626 402.346C216.954 402.279 217.211 402.175 217.398 402.033C217.588 401.891 217.722 401.727 217.8 401.548C217.883 401.365 217.924 401.175 217.931 400.977C217.938 400.78 217.924 400.59 217.886 400.407L217.849 400.217C217.733 399.657 217.491 399.281 217.114 399.087C216.738 398.896 216.167 398.878 215.395 399.034C214.996 399.116 214.63 399.213 214.298 399.322C213.967 399.433 213.582 399.56 213.15 399.706L213.109 399.713C212.956 399.743 212.863 399.683 212.829 399.527L212.728 399.042C212.713 398.978 212.728 398.919 212.769 398.863C212.81 398.807 212.863 398.762 212.933 398.729C213.247 398.587 213.59 398.453 213.963 398.315C214.336 398.18 214.742 398.068 215.179 397.979C215.686 397.874 216.159 397.822 216.596 397.822C217.032 397.822 217.416 397.897 217.756 398.046C218.095 398.195 218.379 398.419 218.61 398.721C218.841 399.023 219.009 399.43 219.113 399.937L219.151 400.127C219.244 400.59 219.221 401.03 219.08 401.447C218.938 401.865 218.673 402.219 218.289 402.518C218.558 402.585 218.793 402.686 218.99 402.816C219.188 402.947 219.356 403.096 219.494 403.267C219.632 403.439 219.744 403.618 219.833 403.808C219.919 403.998 219.982 404.196 220.023 404.394L220.083 404.681C220.187 405.203 220.195 405.658 220.102 406.061Z" fill="white"/>
<path d="M226.804 406.171C226.771 406.235 226.715 406.276 226.644 406.291L225.894 406.443C225.82 406.458 225.756 406.443 225.7 406.399C225.645 406.354 225.607 406.294 225.592 406.223L223.839 397.653L222.239 398.776C222.18 398.817 222.124 398.843 222.072 398.854C221.99 398.869 221.937 398.828 221.919 398.731L221.777 398.037C221.77 397.992 221.773 397.955 221.792 397.929C221.811 397.903 221.84 397.869 221.878 397.832L223.735 396.43C223.832 396.351 223.922 396.307 224.004 396.288L224.563 396.172C224.638 396.157 224.701 396.169 224.761 396.21C224.82 396.251 224.858 396.307 224.873 396.377L226.834 405.97C226.849 406.041 226.838 406.108 226.804 406.171Z" fill="white"/>
<path d="M244.359 399.853L243.173 400.096L243.669 402.52C243.684 402.594 243.677 402.661 243.647 402.725C243.617 402.788 243.565 402.826 243.49 402.84L242.692 403.005C242.618 403.019 242.554 403.005 242.502 402.96C242.45 402.915 242.416 402.855 242.401 402.781L241.905 400.357L237.978 401.158C237.769 401.199 237.616 401.192 237.519 401.132C237.422 401.073 237.351 400.942 237.31 400.741L237.206 400.222C237.169 400.032 237.187 399.853 237.266 399.685L240.13 393.207C240.156 393.144 240.19 393.088 240.234 393.028C240.279 392.972 240.361 392.931 240.477 392.909L241.29 392.741C241.529 392.692 241.67 392.767 241.711 392.968L242.953 399.047L244.139 398.805C244.214 398.79 244.277 398.801 244.337 398.835C244.397 398.872 244.434 398.924 244.449 398.999L244.561 399.551C244.602 399.719 244.535 399.82 244.359 399.853ZM240.757 394.658C240.745 394.602 240.723 394.58 240.686 394.587L240.671 394.591C240.633 394.598 240.604 394.632 240.577 394.695L238.355 399.793C238.336 399.834 238.329 399.875 238.336 399.909C238.347 399.965 238.388 399.984 238.463 399.969L241.708 399.305L240.757 394.658Z" fill="white"/>
<path d="M252.352 398.84C252.307 399.384 252.169 399.851 251.934 400.238C251.703 400.626 251.379 400.943 250.965 401.182C250.551 401.424 250.051 401.603 249.473 401.723C248.928 401.835 248.466 401.906 248.089 401.935C247.713 401.965 247.377 401.976 247.082 401.969C246.989 401.969 246.903 401.958 246.832 401.935C246.762 401.913 246.717 401.857 246.702 401.775L246.59 401.238C246.575 401.156 246.583 401.089 246.62 401.04C246.657 400.992 246.713 400.958 246.784 400.943C246.803 400.94 246.817 400.94 246.825 400.943C246.836 400.947 246.847 400.947 246.866 400.943C247.228 400.947 247.604 400.925 247.996 400.884C248.388 400.843 248.805 400.776 249.242 400.686C249.768 400.578 250.17 400.417 250.45 400.205C250.73 399.992 250.924 399.739 251.032 399.444C251.14 399.149 251.181 398.81 251.151 398.43C251.121 398.049 251.062 397.639 250.968 397.195L250.939 397.046C250.663 397.169 250.364 397.296 250.044 397.423C249.723 397.549 249.354 397.654 248.936 397.74C248.492 397.829 248.056 397.874 247.634 397.863C247.213 397.855 246.825 397.773 246.471 397.62C246.116 397.464 245.811 397.221 245.557 396.893C245.3 396.561 245.117 396.125 245.005 395.58L244.99 395.498C244.77 394.417 244.871 393.518 245.296 392.794C245.721 392.075 246.493 391.597 247.608 391.37C248.634 391.161 249.506 391.306 250.223 391.806C250.939 392.306 251.435 393.227 251.711 394.562L252.199 396.945C252.345 397.658 252.397 398.295 252.352 398.84ZM250.48 394.79C250.368 394.238 250.226 393.786 250.062 393.44C249.898 393.093 249.704 392.828 249.48 392.645C249.26 392.462 249.01 392.354 248.731 392.317C248.455 392.28 248.153 392.295 247.824 392.362C247.507 392.425 247.228 392.526 246.985 392.66C246.743 392.794 246.549 392.977 246.4 393.205C246.251 393.432 246.161 393.712 246.124 394.04C246.086 394.368 246.116 394.764 246.21 395.226L246.224 395.308C246.299 395.67 246.418 395.961 246.586 396.181C246.754 396.401 246.952 396.561 247.183 396.662C247.41 396.763 247.657 396.815 247.918 396.822C248.179 396.83 248.447 396.807 248.72 396.751C248.884 396.718 249.059 396.677 249.245 396.621C249.432 396.569 249.618 396.513 249.801 396.449C249.984 396.39 250.155 396.326 250.316 396.259C250.476 396.192 250.614 396.136 250.726 396.084L250.48 394.79Z" fill="white"/>
<path d="M259.509 391.461C259.617 391.998 259.576 392.491 259.386 392.942C259.192 393.393 258.822 393.897 258.27 394.456L257.14 395.609C256.808 395.941 256.544 396.243 256.342 396.515C256.141 396.787 255.995 397.052 255.898 397.309C255.805 397.567 255.753 397.82 255.742 398.074C255.731 398.327 255.757 398.603 255.82 398.902L255.88 399.189L260.471 398.249C260.542 398.234 260.613 398.242 260.672 398.272C260.736 398.301 260.773 398.354 260.788 398.424L260.911 399.025C260.926 399.099 260.911 399.163 260.866 399.219C260.821 399.275 260.762 399.312 260.691 399.327L255.291 400.431C255.22 400.446 255.153 400.435 255.085 400.394C255.022 400.356 254.981 400.3 254.966 400.226L254.742 399.122C254.597 398.413 254.627 397.734 254.828 397.078C255.03 396.422 255.455 395.769 256.1 395.116L257.29 393.908C257.532 393.658 257.73 393.445 257.883 393.263C258.036 393.08 258.151 392.908 258.226 392.748C258.3 392.588 258.345 392.424 258.353 392.26C258.364 392.095 258.345 391.916 258.304 391.715C258.203 391.226 257.976 390.902 257.614 390.742C257.256 390.585 256.708 390.581 255.973 390.73C255.619 390.801 255.227 390.906 254.802 391.036C254.373 391.167 253.974 391.297 253.605 391.432L253.549 391.443C253.403 391.473 253.314 391.405 253.28 391.241L253.183 390.757C253.168 390.682 253.183 390.622 253.224 390.574C253.265 390.525 253.321 390.488 253.392 390.454C253.717 390.29 254.093 390.145 254.515 390.011C254.936 389.876 255.354 389.768 255.76 389.682C256.868 389.455 257.726 389.485 258.334 389.768C258.945 390.052 259.333 390.615 259.509 391.461Z" fill="white"/>
<path d="M267.174 397.913C267.14 397.977 267.084 398.018 267.013 398.033L266.264 398.186C266.189 398.201 266.126 398.186 266.07 398.141C266.014 398.096 265.976 398.036 265.962 397.966L264.209 389.395L262.609 390.518C262.549 390.559 262.493 390.585 262.441 390.596C262.359 390.611 262.307 390.57 262.288 390.473L262.146 389.779C262.139 389.735 262.142 389.697 262.161 389.671C262.18 389.645 262.21 389.611 262.247 389.574L264.104 388.172C264.201 388.094 264.291 388.049 264.373 388.03L264.932 387.915C265.007 387.9 265.07 387.911 265.13 387.952C265.189 387.993 265.227 388.049 265.242 388.12L267.203 397.712C267.218 397.779 267.207 397.846 267.174 397.913Z" fill="white"/>
<path d="M283.389 386.571C283.497 387.108 283.456 387.6 283.266 388.051C283.072 388.502 282.703 389.006 282.151 389.565L281.021 390.718C280.689 391.05 280.424 391.352 280.223 391.624C280.022 391.896 279.876 392.161 279.779 392.418C279.686 392.676 279.634 392.929 279.623 393.183C279.611 393.437 279.637 393.713 279.701 394.011L279.761 394.298L284.352 393.358C284.422 393.343 284.493 393.351 284.553 393.381C284.616 393.411 284.654 393.463 284.669 393.534L284.792 394.134C284.807 394.209 284.792 394.272 284.747 394.328C284.702 394.384 284.642 394.421 284.572 394.436L279.171 395.54C279.1 395.555 279.033 395.544 278.966 395.503C278.903 395.466 278.862 395.41 278.847 395.335L278.623 394.231C278.478 393.522 278.507 392.844 278.709 392.187C278.91 391.531 279.335 390.878 279.981 390.226L281.17 389.017C281.413 388.767 281.61 388.555 281.763 388.372C281.916 388.189 282.032 388.018 282.106 387.857C282.181 387.697 282.226 387.533 282.233 387.369C282.244 387.205 282.226 387.026 282.185 386.824C282.084 386.336 281.856 386.011 281.495 385.851C281.137 385.694 280.588 385.69 279.854 385.84C279.499 385.91 279.108 386.015 278.683 386.142C278.254 386.272 277.855 386.403 277.485 386.537L277.43 386.548C277.284 386.578 277.195 386.511 277.161 386.347L277.06 385.862C277.045 385.787 277.06 385.728 277.101 385.679C277.142 385.631 277.198 385.593 277.269 385.56C277.594 385.396 277.97 385.25 278.392 385.116C278.813 384.982 279.231 384.874 279.637 384.788C280.745 384.56 281.603 384.59 282.211 384.874C282.826 385.165 283.218 385.728 283.389 386.571Z" fill="white"/>
<path d="M292.84 390.445C292.796 391.012 292.661 391.497 292.441 391.896C292.221 392.295 291.923 392.616 291.546 392.858C291.169 393.1 290.722 393.276 290.204 393.38C289.685 393.484 289.204 393.503 288.756 393.429C288.309 393.354 287.906 393.175 287.548 392.895C287.186 392.616 286.877 392.22 286.612 391.717C286.347 391.213 286.138 390.583 285.985 389.83L285.609 387.991C285.456 387.238 285.4 386.577 285.445 386.011C285.489 385.444 285.624 384.959 285.844 384.56C286.064 384.161 286.366 383.836 286.746 383.594C287.127 383.351 287.578 383.176 288.093 383.068C288.611 382.964 289.088 382.949 289.532 383.023C289.972 383.098 290.375 383.277 290.733 383.557C291.095 383.836 291.404 384.232 291.669 384.735C291.934 385.239 292.143 385.869 292.296 386.622L292.672 388.461C292.833 389.214 292.885 389.874 292.84 390.445ZM291.061 386.876C290.946 386.305 290.793 385.824 290.614 385.44C290.431 385.056 290.222 384.757 289.991 384.537C289.756 384.321 289.499 384.179 289.219 384.112C288.935 384.049 288.637 384.045 288.32 384.112C288.003 384.176 287.727 384.295 287.492 384.467C287.257 384.638 287.078 384.869 286.948 385.16C286.817 385.451 286.746 385.809 286.728 386.234C286.709 386.659 286.761 387.155 286.877 387.73L287.253 389.568C287.369 390.139 287.518 390.62 287.701 391.004C287.884 391.389 288.093 391.691 288.324 391.907C288.555 392.123 288.816 392.265 289.096 392.332C289.379 392.399 289.678 392.399 289.995 392.332C290.312 392.269 290.588 392.149 290.823 391.978C291.058 391.806 291.237 391.575 291.367 391.284C291.498 390.993 291.569 390.635 291.587 390.21C291.606 389.785 291.554 389.289 291.438 388.714L291.061 386.876Z" fill="white"/>
<path d="M299.874 383.2C299.982 383.737 299.941 384.229 299.751 384.68C299.557 385.132 299.187 385.635 298.636 386.194L297.505 387.347C297.174 387.679 296.909 387.981 296.707 388.253C296.506 388.525 296.361 388.79 296.264 389.048C296.17 389.305 296.118 389.559 296.107 389.812C296.096 390.066 296.122 390.342 296.185 390.64L296.245 390.927L300.836 389.987C300.907 389.972 300.978 389.98 301.037 390.01C301.101 390.04 301.138 390.092 301.153 390.163L301.276 390.763C301.291 390.838 301.276 390.901 301.231 390.957C301.187 391.013 301.127 391.05 301.056 391.065L295.656 392.169C295.585 392.184 295.518 392.173 295.45 392.132C295.387 392.095 295.346 392.039 295.331 391.964L295.107 390.86C294.962 390.152 294.992 389.473 295.193 388.816C295.395 388.16 295.82 387.507 296.465 386.855L297.655 385.646C297.897 385.396 298.095 385.184 298.248 385.001C298.401 384.818 298.516 384.647 298.591 384.486C298.665 384.326 298.71 384.162 298.718 383.998C298.729 383.834 298.71 383.655 298.669 383.453C298.568 382.965 298.341 382.64 297.979 382.48C297.621 382.323 297.073 382.32 296.338 382.469C295.984 382.54 295.592 382.644 295.167 382.775C294.738 382.905 294.339 383.036 293.97 383.17L293.914 383.181C293.768 383.211 293.679 383.144 293.645 382.98L293.545 382.495C293.53 382.42 293.545 382.361 293.586 382.312C293.627 382.264 293.683 382.226 293.754 382.193C294.078 382.029 294.455 381.883 294.876 381.749C295.298 381.615 295.715 381.506 296.122 381.421C297.229 381.193 298.087 381.223 298.695 381.506C299.314 381.79 299.702 382.353 299.874 383.2Z" fill="white"/>
<path d="M307.543 389.652C307.509 389.715 307.453 389.756 307.382 389.771L306.633 389.924C306.558 389.939 306.495 389.924 306.439 389.879C306.383 389.834 306.346 389.775 306.331 389.704L304.578 381.133L302.978 382.256C302.918 382.297 302.862 382.323 302.81 382.334C302.728 382.349 302.676 382.308 302.657 382.211L302.515 381.518C302.508 381.473 302.512 381.436 302.53 381.409C302.549 381.383 302.579 381.35 302.616 381.312L304.473 379.91C304.57 379.832 304.66 379.787 304.742 379.768L305.301 379.653C305.376 379.638 305.439 379.649 305.499 379.69C305.559 379.731 305.596 379.787 305.611 379.858L307.573 389.45C307.584 389.517 307.576 389.588 307.543 389.652Z" fill="white"/>
<path d="M187.326 421.88L159.514 427.572L161.145 435.541L188.957 429.849L187.326 421.88Z" fill="white"/>
<path d="M296.565 318.222L268.752 323.914L269.73 328.693L297.543 323.001L296.565 318.222Z" fill="white"/>
<path d="M298.315 326.761L248.674 336.92L249.652 341.699L299.293 331.54L298.315 326.761Z" fill="white"/>
<path d="M283.712 414.229L161.883 439.162L163.514 447.131L285.343 422.198L283.712 414.229Z" fill="white"/>
<path d="M304.556 414.125C305.007 416.325 303.586 418.473 301.385 418.925C299.185 419.376 297.037 417.955 296.586 415.755C296.134 413.554 297.555 411.406 299.756 410.955C301.956 410.503 304.104 411.924 304.556 414.125Z" fill="white"/>
<path d="M315.71 411.844C316.161 414.044 314.74 416.192 312.54 416.643C310.339 417.095 308.191 415.674 307.74 413.473C307.289 411.273 308.71 409.125 310.91 408.673C313.11 408.222 315.259 409.643 315.71 411.844Z" fill="white"/>
<path d="M168.114 350.434L170.949 364.293C171.094 364.998 170.639 365.688 169.934 365.833L146.226 370.685C145.517 370.831 144.827 370.372 144.682 369.671L141.847 355.812C141.702 355.103 142.161 354.413 142.865 354.268L166.574 349.416C167.279 349.27 167.969 349.725 168.114 350.434Z" fill="#CA9800"/>
<path d="M155.508 359.463L143.111 361.999L142.977 361.346L154.725 358.945L153.871 354.779L154.523 354.645L155.508 359.463Z" fill="#FFC000"/>
<path d="M159.453 367.973L158.801 368.107L157.48 361.663L169.889 359.123L170.023 359.776L158.267 362.181L159.453 367.973Z" fill="#FFC000"/>
<path d="M159.537 350.851L158.887 350.984L160.3 357.89L160.95 357.757L159.537 350.851Z" fill="#FFC000"/>
<path d="M168.585 352.679L159.943 354.447L160.076 355.098L168.718 353.329L168.585 352.679Z" fill="#FFC000"/>
<path d="M151.583 366.566L150.93 366.701L150.475 364.467L143.896 365.813L143.762 365.16L150.993 363.68L151.583 366.566Z" fill="#FFC000"/>
<path d="M322.972 422.126L158.675 455.744C155.714 456.352 152.808 454.431 152.201 451.47L131.804 351.791C131.196 348.829 133.117 345.924 136.078 345.316L300.374 311.698C303.336 311.09 306.241 313.011 306.849 315.972L327.246 415.651C327.853 418.612 325.937 421.518 322.972 422.126ZM136.283 346.297C133.859 346.793 132.292 349.169 132.788 351.593L153.185 451.272C153.681 453.696 156.057 455.262 158.481 454.766L322.778 421.149C325.202 420.653 326.768 418.277 326.272 415.853L305.875 316.174C305.379 313.75 303.004 312.183 300.579 312.679L136.283 346.297Z" fill="#1D1D1B"/>
<path d="M557.122 427.957C576.165 408.914 576.165 378.039 557.122 358.996C538.079 339.953 507.204 339.953 488.16 358.996C469.117 378.039 469.117 408.914 488.16 427.957C507.204 447 538.079 447 557.122 427.957Z" fill="white"/>
<path d="M514.308 414L500.383 394.488C499.725 393.563 499.931 392.277 500.849 391.614C501.766 390.951 503.043 391.162 503.701 392.084L514.457 407.154L541.347 372.785C542.048 371.891 543.333 371.738 544.219 372.443C545.106 373.149 545.258 374.443 544.558 375.337L514.308 414Z" fill="#00C735"/>
<path d="M539.281 433.52L559.391 453.391L550.582 421.832L539.281 433.52Z" fill="white"/>
<path d="M566.103 479.727H482.707V483.87H566.103V479.727Z" fill="white"/>
<path d="M566.103 496.877H482.707V501.02H566.103V496.877Z" fill="white"/>
<path d="M306.895 253.217C302.692 252.87 298.611 251.729 294.774 249.819L295.784 247.787C299.365 249.566 303.165 250.632 307.081 250.953L306.895 253.217ZM319.411 252.244L318.866 250.039C322.738 249.081 326.352 247.47 329.619 245.243L330.898 247.119C327.407 249.499 323.543 251.222 319.411 252.244ZM284.615 242.454C281.795 239.668 279.192 236.371 276.879 232.656L278.808 231.455C281.027 235.021 283.514 238.176 286.211 240.839L284.615 242.454ZM339.901 238.359L338.066 237.02C340.36 233.883 342.187 230.34 343.507 226.487L345.656 227.222C344.264 231.291 342.329 235.036 339.901 238.359ZM163.051 233.801L160.783 233.652C161.055 229.564 161.57 225.432 162.32 221.374L164.554 221.785C163.823 225.757 163.316 229.799 163.051 233.801ZM271.323 221.531C269.834 217.768 268.604 213.781 267.664 209.679L269.879 209.171C270.793 213.162 271.99 217.041 273.437 220.696L271.323 221.531ZM348.083 214.952L345.82 214.799C345.891 213.721 345.928 212.617 345.928 211.517C345.928 208.668 345.682 205.755 345.197 202.861L347.438 202.488C347.942 205.505 348.199 208.545 348.199 211.517C348.195 212.666 348.158 213.822 348.083 214.952ZM167.433 210.014L165.262 209.35C166.46 205.431 167.899 201.522 169.536 197.74L171.621 198.643C170.014 202.35 168.604 206.177 167.433 210.014ZM265.728 197.457C265.288 193.31 264.979 189.177 264.803 185.176L267.071 185.075C267.246 189.028 267.552 193.112 267.988 197.214L265.728 197.457ZM341.993 191.311C340.572 187.663 338.763 184.046 336.615 180.562L338.547 179.369C340.77 182.971 342.638 186.712 344.108 190.486L341.993 191.311ZM177.04 187.809L175.067 186.682C177.107 183.109 179.371 179.619 181.792 176.299L183.627 177.638C181.258 180.887 179.043 184.31 177.04 187.809ZM547.561 187.753L545.398 187.066C546.64 183.15 547.609 179.205 548.277 175.333L550.514 175.718C549.828 179.693 548.836 183.74 547.561 187.753ZM266.951 172.913L264.68 172.853C264.785 168.684 265.049 164.548 265.467 160.561L267.727 160.796C267.317 164.727 267.056 168.803 266.951 172.913ZM329.481 170.847C326.93 167.878 324.069 164.991 320.985 162.261L322.492 160.561C325.654 163.358 328.586 166.323 331.204 169.366L329.481 170.847ZM191.306 168.258L189.631 166.722C192.428 163.675 195.412 160.77 198.504 158.096L199.988 159.811C196.963 162.433 194.043 165.275 191.306 168.258ZM551.697 163.373L549.425 163.332C549.433 162.88 549.437 162.429 549.437 161.978C549.437 158.413 549.179 154.828 548.668 151.326L550.914 150.998C551.439 154.608 551.708 158.301 551.704 161.978C551.708 162.44 551.704 162.907 551.697 163.373ZM311.456 154.795C308.64 152.837 305.63 150.939 302.512 149.152C302.061 148.895 301.614 148.641 301.162 148.391L302.259 146.403C302.718 146.657 303.18 146.914 303.639 147.179C306.816 148.995 309.882 150.931 312.75 152.93L311.456 154.795ZM209.603 152.453L208.335 150.569C211.781 148.25 215.376 146.142 219.02 144.307L220.042 146.336C216.48 148.127 212.97 150.185 209.603 152.453ZM269.506 148.802L267.276 148.369C268.07 144.278 269.062 140.246 270.215 136.386L272.389 137.035C271.259 140.824 270.286 144.785 269.506 148.802ZM290.239 143.2C286.461 141.689 282.593 140.436 278.744 139.478L279.292 137.274C283.242 138.258 287.207 139.545 291.078 141.093L290.239 143.2ZM231.167 141.633L230.425 139.485C234.344 138.131 238.368 137.05 242.381 136.27L242.814 138.501C238.905 139.261 234.986 140.317 231.167 141.633ZM545.964 139.605C544.767 135.838 543.242 132.082 541.429 128.446L543.462 127.431C545.327 131.172 546.897 135.036 548.131 138.915L545.964 139.605ZM266.855 137.397C262.856 136.994 258.795 136.882 254.793 137.065L254.689 134.797C258.802 134.607 262.976 134.723 267.086 135.137L266.855 137.397ZM276.469 125.638L274.377 124.757C275.984 120.938 277.812 117.205 279.811 113.662L281.788 114.777C279.83 118.246 278.043 121.901 276.469 125.638ZM535.287 118.055C533.06 114.818 530.55 111.618 527.82 108.541L529.521 107.035C532.311 110.179 534.88 113.453 537.159 116.769L535.287 118.055ZM288.344 104.618L286.513 103.275C288.944 99.9672 291.604 96.771 294.423 93.7687L296.079 95.3239C293.323 98.2591 290.723 101.384 288.344 104.618ZM519.295 99.9374C516.374 97.2857 513.223 94.6899 509.926 92.2247L511.287 90.4084C514.64 92.9184 517.848 95.5589 520.82 98.2591L519.295 99.9374ZM304.873 87.0183L303.411 85.2803C306.522 82.666 309.852 80.1784 313.309 77.881L314.566 79.7718C311.18 82.0207 307.92 84.4561 304.873 87.0183ZM499.901 85.3661C496.533 83.2627 492.983 81.2264 489.35 79.3243L490.406 77.3141C494.087 79.246 497.69 81.3084 501.106 83.4417L499.901 85.3661ZM478.378 74.0545C474.716 72.4471 470.912 70.9254 467.078 69.5268L467.853 67.3936C471.736 68.807 475.585 70.3473 479.292 71.9734L478.378 74.0545ZM324.998 73.6032L323.942 71.593C327.523 69.7171 331.289 67.9716 335.146 66.4015L336.004 68.505C332.214 70.0453 328.511 71.7608 324.998 73.6032ZM455.509 65.7227C451.645 64.5815 447.68 63.5372 443.723 62.6198L444.234 60.4082C448.236 61.3368 452.245 62.3923 456.15 63.5484L455.509 65.7227ZM347.438 64.4286L346.771 62.258C350.627 61.0683 354.64 60.0091 358.698 59.1103L359.19 61.3256C355.192 62.2133 351.239 63.2575 347.438 64.4286ZM431.778 60.2142C427.783 59.5317 423.722 58.9611 419.713 58.5136L419.963 56.2572C424.017 56.7085 428.119 57.2866 432.158 57.9765L431.778 60.2142ZM371.151 59.1364L370.822 56.8875C374.824 56.3057 378.945 55.8507 383.07 55.5374L383.242 57.8012C379.169 58.1145 375.1 58.562 371.151 59.1364ZM407.573 57.529C403.508 57.3201 399.428 57.2381 395.404 57.2828L395.381 55.0115C399.443 54.9668 403.579 55.0526 407.689 55.2614L407.573 57.529Z" fill="#FFC000"/>
<path d="M540.287 205.113L538.273 204.065C539.213 202.257 540.108 200.422 540.936 198.605L543.002 199.545C542.16 201.395 541.246 203.267 540.287 205.113Z" fill="#6095AB"/>
<path d="M520.6 216.737L507.986 238.476C507.986 238.476 526.239 223.86 526.679 223.51C527.115 223.163 543.346 199.544 543.346 199.544L550.563 197.478L539.109 194.408L520.6 216.737Z" fill="#E5AC00"/>
<path d="M539.109 194.422L530.971 186.668L507.986 238.49L539.109 194.422Z" fill="#FFC000"/>
<path d="M554.121 209.775L543.35 199.545L507.986 238.477L554.121 209.775Z" fill="#FFC000"/>
</g>
</svg>
