<svg width="150" height="40" viewBox="0 0 150 40" fill="none"
  xmlns="http://www.w3.org/2000/svg">
  <path fill-rule="evenodd" clip-rule="evenodd" d="M114.677 1.10742C113.173 1.10742 111.898 2.29819 111.898 3.76355V35.3488C111.898 36.8159 112.734 38.0049 114.238 38.0049H145.682C147.188 38.0049 148.795 36.8159 148.795 35.3488V3.76355C148.795 2.29819 147.627 1.10742 146.122 1.10742H114.677ZM119.804 5.71961C121.624 5.71961 123.099 7.19375 123.099 9.01402C123.099 10.8343 121.624 12.3084 119.804 12.3084C117.984 12.3084 116.51 10.8343 116.51 9.01402C116.51 7.19375 117.984 5.71961 119.804 5.71961ZM23.1713 5.84998C21.4266 5.84998 20.0038 7.26751 20.0038 9.01399C20.0038 10.7605 21.4266 12.178 23.1713 12.178C24.9178 12.178 26.3319 10.7605 26.3319 9.01399C26.3319 7.26751 24.9178 5.84998 23.1713 5.84998ZM1.20508 6.37849V32.7338H17.0183V27.4628H6.47615V6.37849H1.20508ZM50.4017 6.37849V32.7338H55.6728V23.9487L62.1724 32.7338H68.394L60.9438 23.1285L67.9719 15.1636H61.8224L55.6728 22.1917V6.37849H50.4017ZM101.355 6.37849V17.2569H101.304C100.23 15.9603 98.4556 14.944 95.6004 14.944C90.9883 14.944 87.2614 18.5577 87.2614 23.9693C87.2614 29.6498 91.0432 32.9535 95.4357 32.9535C98.6581 32.9535 100.559 31.9091 101.654 30.6405H101.705V32.7338H106.626V6.37849H101.355ZM40.0998 14.944C37.3342 14.944 35.0953 16.331 34.338 17.6962H34.2832V15.1636H29.3174V32.7338H34.5885V24.2953C34.5885 21.6545 35.851 19.5562 38.5006 19.5562C40.6828 19.5562 41.6166 21.3555 41.6166 23.9418V32.7338H46.8877V22.981C46.8877 18.3108 45.4078 14.944 40.0998 14.944ZM77.1586 14.944C71.1548 14.944 67.9719 18.4569 67.9719 23.5575C67.9719 29.2994 71.4853 32.9535 77.0041 32.9535C81.1402 32.9535 83.7011 31.5139 84.9451 29.9027L81.6644 27.2431C80.9545 28.2077 79.3811 29.4394 77.0899 29.4394C74.4649 29.4394 73.3215 27.5875 72.9753 26.0729L72.9479 25.5307H85.4461C85.4461 25.5307 85.5422 24.9391 85.5422 24.3399C85.5422 18.3502 82.3435 14.944 77.1586 14.944ZM136.736 14.944C142.044 14.944 143.524 17.7609 143.524 22.981V32.7338H138.253V23.9418C138.253 21.605 137.319 19.5562 135.137 19.5562C132.487 19.5562 131.225 21.3506 131.225 24.2953V32.7338H125.954V15.1636H130.919V17.6962H130.974C131.731 16.331 133.97 14.944 136.736 14.944ZM20.5323 15.1636V32.7338H25.8034V15.1636H20.5323ZM117.169 15.1636H122.44V32.7338H117.169V15.1636ZM77.0007 18.458C79.1443 18.458 80.5053 20.338 80.4701 22.1917H72.9479C73.0902 20.4505 74.4495 18.458 77.0007 18.458ZM96.9251 18.8973C99.9419 18.8973 101.705 20.9066 101.705 23.9041C101.705 26.8208 99.9419 29.0002 96.9251 29.0002C93.9118 29.0002 92.2202 26.7628 92.2202 23.9041C92.2202 21.0472 93.9118 18.8973 96.9251 18.8973Z" fill="#0A66C2"/>
</svg>
