<svg width="150" height="34" viewBox="0 0 150 34" fill="none"
  xmlns="http://www.w3.org/2000/svg">
  <path d="M46.8355 5.22933C46.2843 3.16989 44.6657 1.55147 42.6063 1.00019C38.8774 2.99393e-07 23.9178 0 23.9178 0C23.9178 0 8.95835 2.99393e-07 5.22931 1.00019C3.16989 1.55147 1.55147 3.16989 1.00019 5.22933C2.99393e-07 8.95835 0 16.7433 0 16.7433C0 16.7433 2.99393e-07 24.5282 1.00019 28.2573C1.55147 30.3167 3.16989 31.9351 5.22931 32.4863C8.95835 33.4865 23.9178 33.4865 23.9178 33.4865C23.9178 33.4865 38.8774 33.4865 42.6063 32.4863C44.6657 31.9351 46.2843 30.3167 46.8355 28.2573C47.8357 24.5282 47.8357 16.7433 47.8357 16.7433C47.8357 16.7433 47.8317 8.95835 46.8355 5.22933Z" fill="#FF0000"/>
  <path d="M19.1299 23.9175L31.5574 16.743L19.1299 9.56836V23.9175Z" fill="white"/>
  <path d="M57.9355 21.7704L52.5645 2.37305H57.2504L59.1327 11.166C59.613 13.3318 59.9635 15.1786 60.1919 16.7064H60.3296C60.4872 15.6117 60.8417 13.7767 61.389 11.1975L63.3381 2.37305H68.024L62.586 21.7704V31.0753H57.9317V21.7704H57.9355Z" fill="#282828"/>
  <path d="M69.4339 30.461C68.4889 29.8231 67.8155 28.8307 67.4138 27.484C67.0162 26.1374 66.8154 24.3497 66.8154 22.1129V19.069C66.8154 16.8127 67.0438 14.9975 67.5006 13.6311C67.9573 12.2647 68.6701 11.2645 69.6387 10.6384C70.6074 10.0123 71.8793 9.69727 73.4545 9.69727C75.0059 9.69727 76.2462 10.0162 77.1834 10.6541C78.1166 11.292 78.8018 12.2922 79.2349 13.6468C79.6681 15.0053 79.8847 16.8127 79.8847 19.069V22.1129C79.8847 24.3497 79.6721 26.1452 79.2508 27.4998C78.8294 28.8583 78.1443 29.8507 77.1991 30.4767C76.2541 31.1029 74.9704 31.4178 73.352 31.4178C71.6824 31.4217 70.3791 31.0989 69.4339 30.461ZM74.7342 27.1769C74.994 26.4918 75.128 25.3774 75.128 23.8259V17.2932C75.128 15.789 74.998 14.6864 74.7342 13.9933C74.4703 13.2964 74.0097 12.9498 73.348 12.9498C72.7102 12.9498 72.2573 13.2964 71.9975 13.9933C71.7336 14.6903 71.6037 15.789 71.6037 17.2932V23.8259C71.6037 25.3774 71.7296 26.4957 71.9817 27.1769C72.2337 27.8621 72.6865 28.2046 73.348 28.2046C74.0097 28.2046 74.4703 27.8621 74.7342 27.1769Z" fill="#282828"/>
  <path d="M95.1277 31.0799H91.4341L91.0246 28.5125H90.9223C89.918 30.4498 88.4138 31.4184 86.4056 31.4184C85.0156 31.4184 83.9879 30.9617 83.3264 30.0522C82.6648 29.1385 82.334 27.7132 82.334 25.7758V10.1075H87.0554V25.5C87.0554 26.4373 87.1577 27.1027 87.3625 27.5005C87.5673 27.8982 87.9098 28.0989 88.3902 28.0989C88.7997 28.0989 89.1935 27.973 89.5716 27.721C89.9497 27.4689 90.2253 27.1499 90.4103 26.7641V10.1035H95.1277V31.0799Z" fill="#282828"/>
  <path d="M107.953 6.17294H103.267V31.0791H98.6479V6.17294H93.9619V2.37695H107.953V6.17294Z" fill="#282828"/>
  <path d="M119.341 31.0799H115.647L115.237 28.5125H115.135C114.131 30.4498 112.627 31.4184 110.618 31.4184C109.228 31.4184 108.201 30.9617 107.539 30.0522C106.878 29.1385 106.547 27.7132 106.547 25.7758V10.1075H111.268V25.5C111.268 26.4373 111.371 27.1027 111.575 27.5005C111.78 27.8982 112.123 28.0989 112.603 28.0989C113.013 28.0989 113.406 27.973 113.784 27.721C114.163 27.4689 114.438 27.1499 114.623 26.7641V10.1035H119.341V31.0799Z" fill="#282828"/>
  <path d="M134.965 13.4584C134.678 12.1354 134.217 11.1785 133.579 10.5839C132.942 9.9893 132.063 9.69397 130.945 9.69397C130.079 9.69397 129.268 9.9381 128.515 10.4303C127.763 10.9225 127.181 11.5644 126.771 12.3638H126.736V1.31445H122.188V31.0759H126.086L126.566 29.0913H126.669C127.035 29.8 127.582 30.3553 128.311 30.7688C129.039 31.1784 129.85 31.3831 130.74 31.3831C132.335 31.3831 133.512 30.6468 134.265 29.1779C135.017 27.7051 135.395 25.4095 135.395 22.283V18.9635C135.395 16.6204 135.249 14.7815 134.965 13.4584ZM130.638 22.0151C130.638 23.5429 130.575 24.7401 130.449 25.6064C130.323 26.4727 130.114 27.091 129.815 27.4531C129.52 27.8193 129.118 28.0005 128.618 28.0005C128.228 28.0005 127.87 27.9099 127.539 27.7249C127.208 27.5437 126.94 27.2681 126.736 26.9058V15.002C126.893 14.4311 127.169 13.9664 127.559 13.6002C127.945 13.234 128.37 13.0529 128.823 13.0529C129.303 13.0529 129.673 13.2419 129.933 13.616C130.197 13.994 130.378 14.624 130.48 15.5139C130.583 16.4039 130.634 17.6679 130.634 19.3099V22.0151H130.638Z" fill="#282828"/>
  <path d="M142.092 23.2233C142.092 24.57 142.132 25.5781 142.211 26.2515C142.289 26.9248 142.455 27.4132 142.707 27.7243C142.959 28.0313 143.345 28.1849 143.868 28.1849C144.573 28.1849 145.062 27.9093 145.321 27.3619C145.585 26.8146 145.727 25.9011 145.751 24.6252L149.822 24.8653C149.846 25.0465 149.858 25.2985 149.858 25.6175C149.858 27.5548 149.326 29.004 148.267 29.9608C147.208 30.9177 145.707 31.3981 143.77 31.3981C141.443 31.3981 139.813 30.6696 138.879 29.2087C137.942 27.7479 137.478 25.4915 137.478 22.4357V18.7736C137.478 15.6274 137.962 13.3278 138.931 11.8787C139.899 10.4296 141.557 9.70508 143.908 9.70508C145.526 9.70508 146.771 10.0004 147.637 10.595C148.503 11.1896 149.113 12.111 149.468 13.3672C149.822 14.6233 150 16.3559 150 18.5689V22.1601H142.092V23.2233ZM142.691 13.3396C142.451 13.6349 142.293 14.1193 142.211 14.7926C142.132 15.466 142.092 16.4859 142.092 17.8563V19.3605H145.546V17.8563C145.546 16.5095 145.499 15.4896 145.408 14.7926C145.318 14.0957 145.152 13.6074 144.912 13.3199C144.672 13.0364 144.302 12.8907 143.801 12.8907C143.298 12.8947 142.927 13.0443 142.691 13.3396Z" fill="#282828"/>
</svg>
