<svg version="1.2" xmlns="http://www.w3.org/2000/svg" viewBox="0 0 170 60" width="170" height="60">
	<title>walletConnect</title>
	<defs>
		<clipPath clipPathUnits="userSpaceOnUse" id="cp1">
			<path d="m0 16h170v28.17h-170z"/>
		</clipPath>
	</defs>
	<style>
		.s0 { fill: #3999fb } 
		.s1 { fill: #3b99fc } 
	</style>
	<g id="Clip-Path" clip-path="url(#cp1)">
		<g>
			<path fill-rule="evenodd" class="s0" d="m59.6 27.8l-2.4 8.5h-2.5l-3.3-12.5h2.7l2 9.1h0.1l2.3-9.1h2.2l2.3 9.1h0.1l2-9.1h2.7l-3.3 12.5h-2.5l-2.3-8.5zm11 8.7c-1.8 0-3.1-1.1-3.1-2.8 0-1.7 1.3-2.7 3.6-2.8l2.3-0.2v-0.6c0-0.9-0.6-1.4-1.5-1.4-1 0-1.6 0.5-1.7 1.2h-2.3c0.1-1.8 1.6-3 4.1-3 2.4 0 3.9 1.2 3.9 3.1v6.3h-2.4v-1.4h-0.1c-0.5 1-1.7 1.6-2.8 1.6zm0.8-1.8c1.1 0 2-0.8 2-1.8v-0.6l-1.9 0.1c-1 0-1.5 0.5-1.5 1.1 0 0.7 0.5 1.2 1.4 1.2zm6.2-10.9h2.5v12.5h-2.5zm4.3 0h2.5v12.6h-2.5zm10.4 9.6h2.3c-0.3 1.8-2 3.1-4.2 3.1-2.9 0-4.6-1.9-4.6-4.8 0-3 1.7-4.9 4.5-4.9 2.7 0 4.4 1.8 4.4 4.6v0.8h-6.4v0.2c0 1.3 0.8 2.2 2.1 2.2 0.9 0 1.6-0.5 1.9-1.2zm-2-4.8c-1.1 0-1.9 0.9-2 2h3.9c0-1.1-0.8-2-1.9-2zm8.9-3.8v2.2h1.7v1.9h-1.7v4.4c0 0.7 0.3 1.1 1.1 1.1 0.2 0 0.4 0 0.6-0.1v1.9c-0.3 0-0.7 0.1-1.2 0.1-2.2 0-3.1-0.7-3.1-2.5v-4.9h-1.3v-1.9h1.3v-2.2zm8.9 11.7c-3.6 0-5.9-2.5-5.9-6.5 0-4 2.3-6.5 5.9-6.5 3 0 5.3 1.9 5.5 4.7h-2.6c-0.2-1.5-1.4-2.5-2.9-2.5-2 0-3.3 1.7-3.3 4.3 0 2.7 1.3 4.3 3.3 4.3 1.6 0 2.7-0.9 2.9-2.4h2.6c-0.3 2.8-2.4 4.6-5.5 4.6zm11.1 0c-2.8 0-4.6-1.8-4.6-4.9 0-3 1.9-4.8 4.6-4.8 2.8 0 4.6 1.8 4.6 4.8 0 3.1-1.7 4.9-4.6 4.9zm0-2c1.3 0 2.1-1 2.1-2.9 0-1.8-0.8-2.9-2.1-2.9-1.2 0-2 1.1-2 2.9 0 1.9 0.8 2.9 2 2.9zm6-7.5h2.4v1.6c0.5-1.1 1.5-1.8 2.9-1.8 2.1 0 3.3 1.3 3.3 3.5v6h-2.6v-5.5c0-1.2-0.5-1.9-1.7-1.9-1.1 0-1.8 0.8-1.8 2v5.4h-2.5zm10.2 0h2.4v1.6h0.1c0.5-1.1 1.4-1.8 2.9-1.8 2 0 3.2 1.3 3.2 3.5v6h-2.5v-5.5c0-1.2-0.6-1.9-1.7-1.9-1.2 0-1.9 0.8-1.9 2v5.4h-2.5zm16.3 6.4h2.4c-0.3 1.8-2 3.1-4.3 3.1-2.8 0-4.5-1.9-4.5-4.8 0-3 1.7-4.9 4.4-4.9 2.7 0 4.5 1.8 4.5 4.6v0.8h-6.4v0.1c0 1.4 0.8 2.3 2.1 2.3 0.9 0 1.6-0.5 1.8-1.2zm-1.9-4.8c-1.1 0-1.9 0.9-2 2h3.9c0-1.1-0.8-2-1.9-2zm14.1 1.8h-2.4c-0.1-1-0.8-1.7-1.8-1.7-1.2 0-2 1.1-2 2.9 0 1.8 0.8 2.9 2 2.9 1 0 1.7-0.6 1.8-1.7h2.4c-0.1 2.2-1.8 3.6-4.2 3.6-2.8 0-4.6-1.8-4.6-4.8 0-3 1.8-4.8 4.6-4.8 2.5 0 4.1 1.5 4.2 3.6zm4.4-5.6v2.2h1.7v1.9h-1.7v4.4c0 0.7 0.4 1.1 1.1 1.1 0.2 0 0.5 0 0.6-0.1v1.9c-0.2 0-0.7 0.1-1.2 0.1-2.2 0-3-0.7-3-2.6v-4.8h-1.3v-1.9h1.3v-2.2z"/>
			<path class="s1" d="m9.4 21.5c7.5-7.3 19.7-7.3 27.2 0l0.9 0.9c0.3 0.3 0.3 0.9 0 1.3l-3.1 3c-0.2 0.2-0.5 0.2-0.7 0l-1.2-1.2c-5.3-5.1-13.8-5.1-19 0l-1.3 1.3c-0.2 0.2-0.5 0.2-0.7 0l-3.1-3c-0.4-0.4-0.4-1 0-1.3zm33.5 6.2l2.8 2.7c0.4 0.4 0.4 1 0 1.3l-12.4 12.2c-0.4 0.3-1 0.3-1.4 0l-8.7-8.6c-0.1-0.1-0.3-0.1-0.4 0l-8.8 8.6c-0.3 0.3-1 0.3-1.3 0l-12.4-12.2c-0.4-0.3-0.4-0.9 0-1.3l2.7-2.7c0.4-0.3 1-0.3 1.4 0l8.8 8.6c0.1 0.1 0.2 0.1 0.3 0l8.8-8.6c0.4-0.3 1-0.3 1.4 0l8.7 8.6c0.1 0.1 0.3 0.1 0.4 0l8.8-8.6c0.4-0.3 1-0.3 1.3 0z"/>
		</g>
	</g>
</svg>