<svg width="21" height="20" viewBox="0 0 21 20" fill="none"
    xmlns="http://www.w3.org/2000/svg">
    <path d="M10.0116 19.9067C9.90218 19.8559 9.74203 19.7348 9.65609 19.6372C9.34749 19.2856 9.36703 19.7075 9.36703 13.6802V8.30125L8.05062 9.61766C6.63656 11.0278 6.57406 11.0786 6.14828 11.1216C5.70296 11.1684 5.23031 10.895 5.02718 10.4809C4.9139 10.2427 4.90609 9.78953 5.00765 9.55125C5.10921 9.32469 9.74203 4.68406 10.0116 4.53953C10.1717 4.4575 10.2577 4.43797 10.4998 4.44187C10.6873 4.44187 10.8475 4.46531 10.9491 4.50828C11.1756 4.60594 15.8553 9.28562 15.9764 9.53172C16.0975 9.78172 16.0936 10.2231 15.9725 10.4809C15.8436 10.7427 15.5428 11.0005 15.2733 11.0786C15.0077 11.1567 14.6717 11.1294 14.4334 11.0122C14.328 10.9614 13.7967 10.4575 12.953 9.61766L11.6327 8.30125V13.6802C11.6327 19.7075 11.6522 19.2856 11.3436 19.6372C11.1209 19.8911 10.867 20.0005 10.4998 20.0005C10.2733 20.0005 10.16 19.977 10.0116 19.9067Z" fill="white"/>
    <path d="M1.1875 6.60243C0.941406 6.50477 0.710938 6.28602 0.59375 6.03602C0.503906 5.84852 0.5 5.80946 0.5 4.87977C0.5 3.84461 0.535156 3.53602 0.710938 3.01649C1.19922 1.5829 2.32031 0.543833 3.85156 0.106333L4.15234 0.0203959L10.3047 0.00867719C14.75 0.000864686 16.543 0.00867718 16.7695 0.0399272C18.2539 0.254771 19.6211 1.3368 20.1875 2.74696C20.4492 3.3993 20.4727 3.55165 20.4922 4.72352C20.5117 5.95008 20.5 6.01258 20.1953 6.3368C19.7891 6.7704 19.0977 6.79774 18.6445 6.3993C18.3164 6.11024 18.3008 6.04774 18.2695 5.00086C18.25 4.30555 18.2266 4.03211 18.1758 3.86805C17.9414 3.11024 17.3789 2.55555 16.6094 2.31727C16.3906 2.25086 16.0938 2.24696 10.5 2.24696C4.90625 2.24696 4.60938 2.25086 4.39062 2.31727C3.62109 2.55555 3.05859 3.11024 2.82422 3.86805C2.77344 4.03211 2.75 4.30555 2.73047 5.00086C2.69922 6.04774 2.68359 6.11024 2.35547 6.3993C2.03906 6.67665 1.58203 6.75477 1.1875 6.60243Z" fill="white"/>
</svg>
