<svg width="24" height="20" viewBox="0 0 24 20" fill="none" xmlns="http://www.w3.org/2000/svg">
<path fill-rule="evenodd" clip-rule="evenodd" d="M7.548 19.6001C16.6044 19.6001 21.558 12.2124 21.558 5.80659C21.558 5.59629 21.558 5.38757 21.5436 5.17964C22.5072 4.49439 23.3388 3.64358 24 2.67007C23.1024 3.06231 22.1484 3.31955 21.1728 3.43296C22.2 2.82687 22.9692 1.87468 23.3376 0.751121C22.3704 1.31585 21.3132 1.71442 20.2104 1.92827C18.3456 -0.0234945 15.2268 -0.118058 13.2432 1.71792C11.9652 2.90173 11.4216 4.66678 11.8188 6.35034C7.86 6.15422 4.1712 4.31355 1.6704 1.2855C0.3636 3.50071 1.032 6.33354 3.1956 7.756C2.412 7.73355 1.6452 7.52584 0.96 7.15015V7.21167C0.9612 9.51905 2.6136 11.5058 4.9104 11.963C4.1856 12.158 3.4248 12.1862 2.688 12.0457C3.3324 14.021 5.1816 15.374 7.2876 15.413C5.544 16.7623 3.39 17.4949 1.1724 17.4925C0.7812 17.4913 0.39 17.4689 0 17.4228C2.2524 18.8453 4.872 19.6002 7.548 19.5966" fill="white"/>
</svg>
