<svg width="17" height="17" viewBox="0 0 17 17" fill="none" xmlns="http://www.w3.org/2000/svg">
<path d="M15.7936 0.420136C15.5625 0.540579 12.0241 2.38954 7.93229 4.52495C3.84049 6.66037 0.458333 8.43771 0.419271 8.47678C0.298828 8.5842 0.25 8.70464 0.25 8.89019C0.25 9.09201 0.337891 9.25477 0.48763 9.3329C0.572266 9.37521 6.24935 11.3283 6.29167 11.3283C6.29818 11.3283 6.30469 12.3212 6.30469 13.5354V15.7424L6.37956 15.8856C6.4707 16.0679 6.58464 16.1493 6.77018 16.1688C6.95898 16.1916 7.11523 16.1363 7.23893 16.0061C7.29427 15.9507 7.88997 15.1467 8.56706 14.2255C9.24414 13.3043 9.79753 12.5458 9.80078 12.5425C9.80404 12.536 10.8164 12.8811 12.0534 13.3043C14.0163 13.9813 14.3223 14.0757 14.498 14.079C14.7259 14.079 14.8366 14.0171 14.944 13.8348C14.9928 13.7535 15.2142 12.3212 15.9596 7.31467C16.487 3.78277 16.9167 0.814016 16.9167 0.71636C16.9167 0.39084 16.7214 0.195527 16.3958 0.195527C16.2396 0.195527 16.168 0.221569 15.7936 0.420136ZM15.5918 2.44813C15.5853 2.49045 15.237 4.8342 14.8171 7.66297C14.3971 10.4885 14.0488 12.8095 14.0391 12.816C14.0195 12.8355 7.89974 10.7522 7.86068 10.7164C7.84115 10.6968 15.5658 2.37652 15.5983 2.37652C15.6016 2.37652 15.5983 2.40907 15.5918 2.44813ZM13.6745 2.83876C13.554 2.96245 7.12174 9.87001 6.74089 10.2834C6.70508 10.3225 6.36328 10.2151 4.41992 9.55099L2.14128 8.773L2.31055 8.68511C2.40495 8.63628 5.02865 7.26584 8.14388 5.63498C11.2591 4.00737 13.8145 2.67274 13.8242 2.67274C13.8307 2.66949 13.7624 2.74761 13.6745 2.83876ZM8.06901 11.9371C8.45312 12.0705 8.70703 12.1714 8.70052 12.1942C8.69075 12.2203 7.4668 13.9032 7.38867 13.9944C7.38542 14.0009 7.37891 13.4931 7.37891 12.8648C7.37891 12.2333 7.38867 11.719 7.40169 11.719C7.41471 11.719 7.71419 11.8166 8.06901 11.9371Z" fill="white"/>
</svg>
