<svg version="1.2" xmlns="http://www.w3.org/2000/svg" viewBox="0 0 160 60" width="160" height="60">
	<title>coinbase</title>
	<defs>
		<clipPath clipPathUnits="userSpaceOnUse" id="cp1">
			<path d="m160 16h-160v28.6h160z"/>
		</clipPath>
	</defs>
	<style>
		.s0 { fill: #0052ff } 
	</style>
	<g id="Clip-Path" clip-path="url(#cp1)">
		<g>
			<path class="s0" d="m32.3 24c-5.9 0-10.4 4.4-10.4 10.3 0 5.9 4.5 10.3 10.4 10.3 5.9 0 10.4-4.5 10.4-10.3 0-5.8-4.4-10.3-10.4-10.3zm0.1 16.3c-3.4 0-5.7-2.6-5.7-6.1 0-3.4 2.3-6 5.7-6 3.3 0 5.7 2.6 5.7 6 0 3.5-2.5 6.1-5.7 6.1zm11.6-11.8h2.8v15.7h4.7v-19.8h-7.5zm-33.7-0.3c2.4 0 4.4 1.5 5.1 3.7h4.9c-1-4.7-4.8-8-10-8-5.8 0.1-10.3 4.5-10.3 10.4 0 5.9 4.5 10.3 10.4 10.3 5 0 8.9-3.2 9.9-8h-4.9c-0.7 2.2-2.7 3.8-5 3.8-3.4 0-5.7-2.6-5.7-6.1 0-3.5 2.3-6.1 5.6-6.1zm121.4 4.1l-3.4-0.4c-1.6-0.2-2.8-0.8-2.8-2.1 0-1.3 1.6-2 3.6-2 2.2 0 3.7 0.9 4 2.5h4.4c-0.5-4-3.5-6.4-8.3-6.4-4.8 0-8.1 2.5-8.1 6.1 0 3.3 2.1 5.3 6.4 5.9l3.4 0.5c1.7 0.2 2.6 0.9 2.6 2.1 0 1.6-1.6 2.2-3.8 2.2-2.8 0-4.3-1.1-4.6-2.8h-4.5c0.4 3.9 3.5 6.6 9 6.6 5 0 8.4-2.3 8.4-6.2 0-3.5-2.4-5.3-6.3-6zm-82.5-16.1c-1.7 0-3 1.3-3 2.9 0 1.7 1.3 2.9 3 2.9 1.7 0 3-1.2 3-2.9 0-1.6-1.3-2.9-3-2.9zm67.8 15c0-4.3-2.7-7.2-8.2-7.2-5.2 0-8.1 2.6-8.7 6.7h4.6c0.2-1.6 1.4-2.9 4.1-2.9 2.3 0 3.5 1.1 3.5 2.3 0 1.7-2.1 2.1-4.8 2.4-3.5 0.4-7.9 1.6-7.9 6.2 0 3.5 2.6 5.8 6.9 5.8 3.3 0 5.3-1.4 6.4-3.5 0.1 1.9 1.6 3.2 3.7 3.2h2.7v-4.1h-2.3zm-4.6 4.9c0 2.7-2.3 4.6-5.2 4.6-1.7 0-3.2-0.7-3.2-2.3 0-1.9 2.4-2.5 4.6-2.7 2.1-0.2 3.2-0.6 3.8-1.5zm-24.5-12.1c-2.6 0-4.7 1-6.3 2.8v-10.8h-4.6v28.1h4.6v-2.5c1.5 1.8 3.7 3 6.3 3 5.6 0 9.7-4.4 9.7-10.3 0-6-4.2-10.3-9.7-10.3zm-0.7 16.2c-3.3 0-5.7-2.5-5.7-6 0-3.5 2.4-6.1 5.8-6.1 3.3 0 5.7 2.6 5.7 6.1 0 3.5-2.5 6-5.8 6zm-21.2-16.2c-3 0-5 1.2-6.1 2.9v-2.6h-4.6v19.8h4.6v-10.7c0-3.1 1.9-5.2 4.8-5.2 2.6 0 4.3 1.9 4.3 4.6v11.3h4.6v-11.7c0-5-2.6-8.4-7.6-8.4zm94 9.6c0-5.7-4.2-9.6-9.7-9.6-6 0-10.3 4.4-10.3 10.3 0 6.2 4.6 10.3 10.3 10.3 4.8 0 8.6-2.9 9.6-6.9h-4.8c-0.7 1.7-2.4 2.8-4.7 2.8-3 0-5.2-1.9-5.7-5.1h15.3zm-15-1.6c0.7-2.7 2.8-4.1 5.2-4.1 2.6 0 4.6 1.5 5.1 4.1z"/>
		</g>
	</g>
</svg>