<svg version="1.2" xmlns="http://www.w3.org/2000/svg" viewBox="0 0 150 60" width="150" height="60">
	<title>orangeMoney</title>
	<style>
		.s0 { fill: #000000 } 
		.s1 { fill: #ff7900 } 
	</style>
	<path fill-rule="evenodd" class="s0" d="m31.3 14h-22.8c-2.6 0-4.7 2.1-4.7 4.7 0 2.6 2.1 4.6 4.7 4.6h11.6l-18.7 18.9c-1.9 1.8-1.9 4.7 0 6.5 1.8 1.9 4.7 1.9 6.5 0l18.8-18.8v11.7c0 2.6 2.1 4.7 4.6 4.7 2.6 0 4.7-2.1 4.7-4.7v-22.9c0-2.6-2.1-4.7-4.7-4.7z"/>
	<path fill-rule="evenodd" class="s1" d="m44.7 46.1h22.9c2.5 0 4.6-2.1 4.6-4.7 0-2.6-2.1-4.6-4.6-4.6h-11.7l18.8-18.9c1.8-1.8 1.8-4.7 0-6.5-1.8-1.9-4.8-1.9-6.6 0l-18.8 18.8v-11.7c0-2.6-2-4.7-4.6-4.7-2.6 0-4.6 2.1-4.6 4.7v22.9c0 2.6 2 4.7 4.6 4.7z"/>
	<path fill-rule="evenodd" class="s0" d="m92.6 14c4.1 0 6.5 3.1 6.5 7 0 3.9-2.4 7-6.5 7-4.1 0-6.5-3.1-6.5-7 0-3.9 2.4-7 6.5-7zm0 11.5c2.6 0 3.6-2.2 3.6-4.5 0-2.3-1-4.6-3.6-4.6-2.6 0-3.6 2.3-3.6 4.6 0 2.3 1 4.5 3.6 4.5zm7.5-7.3h2.5v1.9c0.5-1.3 1.7-2.1 3-2.1 0.2 0 0.4 0 0.5 0.1v2.5c-0.2-0.1-0.6-0.1-0.9-0.1-1.9 0-2.5 1.4-2.5 3.1v4.4h-2.6zm7.4 2.9c0.1-2.4 2.5-3.1 4.8-3.1 2 0 4.5 0.4 4.5 2.7v4.9c0 0.9 0.1 1.7 0.3 2.1h-2.8q-0.2-0.4-0.2-0.9c-0.9 0.9-2.2 1.2-3.5 1.2-1.9 0-3.5-0.9-3.5-2.9 0-2.1 1.8-2.6 3.5-2.9 1.8-0.2 3.4-0.1 3.4-1.2 0-1.1-0.9-1.3-1.9-1.3-1 0-1.7 0.4-1.8 1.4zm6.5 2c-0.5 0.4-1.5 0.4-2.4 0.5-0.8 0.2-1.6 0.5-1.6 1.4 0 1 0.8 1.2 1.7 1.2 2.2 0 2.3-1.6 2.3-2.2zm4.2-4.8h2.5v1.4c0.7-1.1 1.9-1.7 3-1.7 2.8 0 3.5 1.6 3.5 4.1v6h-2.7v-5.6c0-1.6-0.4-2.4-1.6-2.4-1.5 0-2.1 0.9-2.1 2.8v5.2h-2.6zm20 9.3c0 1.7-0.6 4.5-5.2 4.5-2 0-4.4-1-4.5-3.3h2.8c0.2 1.1 1.1 1.4 2 1.4 1.6 0 2.3-1 2.3-2.5v-1.3h-0.1c-0.6 1.1-1.8 1.6-3 1.6-3 0-4.3-2.3-4.3-5.1 0-2.5 1.5-4.9 4.3-4.9 1.3 0 2.4 0.4 3 1.6h0.1v-1.3h2.6zm-2.6-4.5c0-1.6-0.6-3.1-2.4-3.1-1.6 0-2.2 1.4-2.2 2.9 0 1.4 0.5 2.9 2.2 2.9 1.6 0 2.4-1.3 2.4-2.7zm6.4 0.5c0 1.7 0.9 2.4 2.4 2.4 1.1 0 2-0.6 2.2-1.2h2.4c-0.8 2.2-2.4 3.2-4.7 3.2-3.1 0-5.1-2.1-5.1-5 0-2.9 2.1-5.1 5.1-5.1 3.4 0 5.1 2.8 4.9 5.7zm4.5-1.7c-0.3-1.3-0.9-2-2.2-2-1.8 0-2.3 1.3-2.3 2zm-53.7 19.8l3.1-9.7h4.3v14h-2.9v-9.9l-3.4 9.9h-2.4l-3.4-9.8v9.8h-2.9v-14h4.3zm14.4-5.7c3.1 0 5.1 2 5.1 5.1 0 3-2 5-5.1 5-3 0-5-2-5-5 0-3.1 2-5.1 5-5.1zm0 8.1c1.9 0 2.4-1.5 2.4-3 0-1.6-0.5-3.1-2.4-3.1-1.8 0-2.3 1.5-2.3 3.1 0 1.5 0.5 3 2.3 3zm6.1-7.8h2.5v1.4c0.7-1.1 1.8-1.7 3-1.7 2.8 0 3.5 1.7 3.5 4.1v6h-2.7v-5.5c0-1.6-0.4-2.4-1.7-2.4-1.4 0-2 0.8-2 2.8v5.1h-2.6zm12.7 5.4c0.1 1.6 1 2.4 2.5 2.4 1.1 0 2-0.7 2.2-1.2h2.4c-0.8 2.2-2.4 3.2-4.7 3.2-3.2 0-5.1-2.1-5.1-5.1 0-2.8 2-5 5.1-5 3.4 0 5.1 2.7 4.9 5.7zm4.4-1.7c-0.2-1.3-0.8-2-2.1-2-1.8 0-2.3 1.3-2.3 2zm8.7 6.9c-0.6 1.5-1.5 2.2-3.4 2.2q-0.8 0-1.6-0.1v-2.2c0.5 0 1 0.1 1.5 0.1 1-0.1 1.3-1.1 1-1.8l-3.5-9.1h2.9l2.2 6.6 2.2-6.6h2.7z"/>
</svg>