<svg width="23" height="24" viewBox="0 0 23 24" fill="none" xmlns="http://www.w3.org/2000/svg">
<path d="M2.90104 0.0749931C2.76041 0.112492 2.48385 0.220304 2.29166 0.314054C1.80416 0.548429 1.21354 1.14374 0.969786 1.64062C0.627599 2.32968 0.651036 1.5703 0.651036 12C0.651036 22.4297 0.627599 21.6703 0.969786 22.3594C1.21354 22.8562 1.80416 23.4516 2.29166 23.6859C2.97135 24.0187 2.61041 24 8.66666 24C14.7229 24 14.362 24.0187 15.0417 23.6859C15.3135 23.5547 15.4823 23.4281 15.7917 23.1141C16.4292 22.4719 16.6776 21.8531 16.6823 20.9156V20.4844H16.2885C15.9088 20.4844 15.0557 20.4141 14.8026 20.3625L14.6807 20.3391L14.6526 20.7844C14.6385 21.0516 14.5963 21.2906 14.5495 21.3937C14.4417 21.6187 14.151 21.8719 13.9307 21.9328C13.6823 22.0031 3.65104 22.0031 3.4026 21.9328C3.18229 21.8719 2.89166 21.6187 2.77916 21.3844C2.69479 21.2156 2.6901 20.8734 2.6901 12C2.6901 3.12655 2.69479 2.78437 2.77916 2.61562C2.89635 2.37187 3.18697 2.12343 3.42604 2.0578C3.53854 2.02968 3.80572 2.01562 4.03072 2.02499C4.35885 2.03905 4.47135 2.06718 4.64947 2.17031C4.9401 2.34374 5.09479 2.61093 5.14635 3.04687C5.19791 3.45937 5.35729 3.71718 5.66666 3.89062L5.8776 4.0078H8.66666H11.4557L11.6667 3.89062C11.976 3.71718 12.1354 3.45937 12.187 3.04687C12.2385 2.61093 12.3932 2.34374 12.6838 2.17031C12.862 2.06718 12.9745 2.03905 13.3026 2.02499C13.7995 2.00155 14.0573 2.06718 14.2917 2.27812C14.5495 2.51249 14.6245 2.70468 14.6526 3.2203L14.6807 3.66562L14.826 3.63749C15.1401 3.58124 15.8807 3.51562 16.2745 3.51562H16.6823V3.07968C16.6776 2.14687 16.4292 1.52812 15.7917 0.885929C15.3604 0.449993 14.9526 0.21093 14.4088 0.0703049C14.001 -0.0328197 3.29947 -0.0281334 2.90104 0.0749931Z" fill="#2475FF"/>
<path d="M15.3932 5.51719C15.037 5.56406 14.4698 5.69531 14.0995 5.8125C12.5245 6.32812 11.1042 7.55625 10.3542 9.04687C10.0682 9.61406 9.92294 10.0312 9.78231 10.6453C9.68856 11.0578 9.6745 11.2641 9.6745 12C9.6745 12.7359 9.68856 12.9422 9.78231 13.3547C10.0776 14.6672 10.6776 15.7453 11.6339 16.6734C12.5526 17.5641 13.6073 18.1219 14.9011 18.4031C15.5245 18.5391 16.8698 18.5297 17.5214 18.3844C18.8339 18.0891 19.912 17.4891 20.8401 16.5328C21.7307 15.6141 22.2886 14.5641 22.5698 13.2656C22.7057 12.6422 22.6964 11.2969 22.5511 10.6453C22.2557 9.32812 21.6511 8.25 20.6995 7.32656C20.1229 6.76875 19.6636 6.45 18.9698 6.11719C18.0417 5.67188 17.1604 5.47969 16.1198 5.49375C15.7964 5.49375 15.4729 5.50781 15.3932 5.51719ZM16.387 8.06719C16.6354 8.16094 16.8182 8.38594 16.8745 8.67656L16.9261 8.94375L17.2917 8.9625C17.5729 8.97187 17.6901 9 17.7932 9.075C18.2479 9.4125 18.2479 9.94687 17.7932 10.2844C17.6714 10.3734 17.587 10.3828 16.7526 10.3969L15.8432 10.4109L15.7448 10.5328C15.6323 10.6781 15.6229 10.9172 15.7214 11.1094C15.787 11.2359 15.8151 11.25 16.0401 11.25C16.9729 11.25 17.6104 11.6203 17.962 12.3656C18.0979 12.6562 18.112 12.7172 18.112 13.1484C18.1073 13.5234 18.0886 13.6687 18.0042 13.8844C17.8682 14.2172 17.5026 14.6344 17.1745 14.8172C16.9401 14.9484 16.9354 14.9531 16.8839 15.2625C16.8417 15.5109 16.7995 15.6094 16.6776 15.7312C16.3776 16.0406 16.012 16.0547 15.6979 15.7687C15.5479 15.6328 15.5057 15.5531 15.4589 15.3281L15.4073 15.0562L15.0417 15.0375C14.7604 15.0281 14.6432 15 14.5401 14.925C14.0854 14.5875 14.0854 14.0531 14.5401 13.7156C14.662 13.6266 14.7464 13.6172 15.5807 13.6031L16.4901 13.5891L16.5886 13.4672C16.7011 13.3219 16.7104 13.0828 16.612 12.8906C16.5464 12.7641 16.5182 12.75 16.2932 12.75C15.3604 12.75 14.7229 12.3797 14.3714 11.6344C14.2354 11.3437 14.2214 11.2828 14.2214 10.8516C14.2261 10.4766 14.2448 10.3312 14.3292 10.1156C14.4651 9.78281 14.8307 9.36562 15.1589 9.18281C15.3932 9.05156 15.3979 9.04688 15.4495 8.7375C15.4917 8.50781 15.5386 8.39062 15.637 8.2875C15.862 8.04375 16.1245 7.96875 16.387 8.06719Z" fill="#2475FF"/>
</svg>
