<svg width="28" height="33" viewBox="0 0 28 33" fill="none" xmlns="http://www.w3.org/2000/svg">
<g clip-path="url(#clip0_233_29153)">
<path d="M13.8095 8.24218C15.5768 8.24218 17.1272 7.55206 18.4606 6.17178C19.794 4.7915 20.4608 3.18648 20.4608 1.35672C20.4608 1.15576 20.4449 0.870189 20.4131 0.5C20.1803 0.531731 20.0057 0.558173 19.8893 0.579326C18.2595 0.812017 16.8256 1.61057 15.5874 2.97495C14.3492 4.33936 13.7301 5.79896 13.7301 7.35376C13.7301 7.53353 13.7566 7.82972 13.8095 8.24218ZM20.1433 32.5C21.4026 32.5 22.7943 31.638 24.3182 29.914C25.8421 28.19 27.0062 26.1645 27.8105 23.8376C24.8156 22.2934 23.3181 20.0776 23.3181 17.1901C23.3181 14.7786 24.5298 12.7162 26.9533 11.0027C25.2706 8.89794 23.0483 7.84555 20.2862 7.84555C19.122 7.84555 18.0585 8.02007 17.0955 8.3691L16.4922 8.59122L15.6826 8.90852C15.1535 9.10948 14.672 9.21 14.2381 9.21C13.8994 9.21 13.4549 9.09362 12.9047 8.86093L12.2856 8.60708L11.6982 8.3691C10.841 8.00949 9.92032 7.82968 8.93613 7.82968C6.30101 7.82968 4.18447 8.71814 2.58646 10.495C0.988443 12.2719 0.189453 14.6147 0.189453 17.5233C0.189453 21.6165 1.46996 25.3977 4.031 28.8669C5.80892 31.289 7.43338 32.5 8.90437 32.5C9.52877 32.5 10.1479 32.3784 10.7616 32.1351L11.5395 31.8178L12.1586 31.5957C13.0264 31.2889 13.8254 31.1356 14.5556 31.1356C15.3281 31.1356 16.2171 31.3313 17.2224 31.7226L17.7145 31.913C18.741 32.3043 19.5507 32.5 20.1433 32.5Z" fill="white"/>
</g>
<defs>
<clipPath id="clip0_233_29153">
<rect width="27.6224" height="32" fill="white" transform="translate(0.189453 0.5)"/>
</clipPath>
</defs>
</svg>
