<svg width="48" height="56" viewBox="0 0 48 56" fill="none"
    xmlns="http://www.w3.org/2000/svg">
    <path d="M21.6592 0.174999C19.1763 0.667187 17.2513 1.70625 15.4029 3.54375C13.9263 5.03125 13.0951 6.35469 12.4607 8.19219C11.9248 9.78906 11.8592 10.4453 11.8592 14.6453C11.8592 18.4953 11.8592 18.55 12.1217 19.0859C12.417 19.7203 13.1826 20.475 13.7513 20.6719C14.1123 20.8141 14.1451 20.8578 14.2107 21.4047C14.3092 22.2359 14.6592 23.4172 15.0201 24.2047C15.5888 25.4406 17.1857 27.0813 18.6732 27.9563C19.0998 28.2078 19.2529 28.3609 19.2748 28.5797C19.3076 28.875 19.3076 28.875 18.6185 28.875C15.5013 28.875 11.8373 30.1438 9.46385 32.0578C8.85135 32.55 8.81853 32.5609 7.91072 32.6156C6.63103 32.7031 5.84353 33.1078 5.35135 33.95C4.93572 34.6719 4.84822 35.3391 5.04509 36.3344L5.20916 37.1766L4.77166 38.1938C4.00603 40.0094 0.702908 50.1047 0.637283 50.8703C0.56072 51.6578 0.77947 52.7844 1.15135 53.4953C1.65447 54.4906 2.72635 55.3984 3.85291 55.7703C4.5201 56 4.6076 56 23.9998 56C43.392 56 43.4795 56 44.1467 55.7703C46.3342 55.0375 47.7013 52.7734 47.3076 50.5203C47.1654 49.6672 43.6107 38.9922 43.1295 37.9422L42.7795 37.1984L42.9545 36.3453C43.1513 35.3391 43.0748 34.6719 42.6482 33.95C42.156 33.1078 41.3685 32.7031 40.0888 32.6156C39.181 32.5609 39.1482 32.55 38.5357 32.0578C36.1623 30.1438 32.4982 28.875 29.381 28.875C28.692 28.875 28.692 28.875 28.7248 28.5797C28.7467 28.3609 28.8998 28.2078 29.3263 27.9563C30.8138 27.0813 32.4107 25.4406 32.9795 24.2047C33.3404 23.4172 33.6904 22.2359 33.7888 21.4047C33.8545 20.8578 33.8873 20.8141 34.2482 20.6719C34.817 20.475 35.5826 19.7203 35.8779 19.0859C36.1404 18.55 36.1404 18.4953 36.1404 14.6453C36.1404 11.6156 36.1076 10.5438 35.9763 9.87656C35.506 7.38281 34.292 5.15156 32.4545 3.39062C30.6388 1.64062 28.7029 0.634377 26.2638 0.164062C25.192 -0.0437508 22.6982 -0.0328102 21.6592 0.174999ZM26.6248 2.275C29.556 3.16094 31.8201 5.03125 33.0998 7.60156C33.942 9.28594 34.1717 10.4234 34.1717 12.8734C34.1717 14.2953 34.1388 14.6562 34.0295 14.6562C33.942 14.6562 33.8217 14.4484 33.7451 14.1859C33.4498 13.1797 32.6185 12.1953 31.667 11.7141C31.4263 11.5828 30.5951 11.3531 29.8295 11.2C28.1779 10.8719 27.1388 10.4781 25.7826 9.66875C24.2295 8.72813 23.792 8.70625 22.556 9.49375C21.0029 10.4672 19.8873 10.8937 17.9623 11.2547C17.3279 11.375 16.5951 11.5719 16.3435 11.7031C15.381 12.1953 14.5498 13.1797 14.2545 14.1859C14.1779 14.4484 14.0576 14.6562 13.9701 14.6562C13.8607 14.6562 13.8279 14.2953 13.8279 12.8734C13.8279 10.4234 14.0576 9.28594 14.8998 7.60156C16.2779 4.8125 18.8154 2.85469 21.9763 2.12188C22.9498 1.90313 25.6842 1.99063 26.6248 2.275ZM24.6232 11.3422C25.9685 12.1953 27.7404 12.8734 29.4467 13.1688C29.9935 13.2563 30.5951 13.4094 30.7592 13.4969C31.4482 13.8578 31.9842 14.7438 31.9842 15.5531C31.9842 16.0125 32.3998 16.3953 33.0232 16.5047C33.7451 16.6359 34.1717 17.0953 34.1717 17.7297C34.1717 18.3312 33.6467 18.8781 32.9576 18.9875C32.2576 19.1078 32.0279 19.3922 31.9295 20.3C31.8201 21.3937 31.3826 22.9906 31.0435 23.6359C30.4748 24.6641 28.8013 26.0312 26.8873 27.0156C24.656 28.1641 23.4748 28.175 21.2326 27.0594C19.2748 26.0969 17.5467 24.7078 16.956 23.6359C16.617 22.9906 16.1685 21.3172 16.0592 20.2672C15.9607 19.3922 15.731 19.0969 15.042 18.9875C14.3529 18.8781 13.8279 18.3312 13.8279 17.7297C13.8279 17.0953 14.2545 16.6359 14.9763 16.5047C15.6873 16.3734 15.9607 16.0672 16.0482 15.3016C16.1795 14.1859 16.9342 13.4531 18.1701 13.2453C20.0951 12.9172 21.867 12.2719 23.2342 11.3969C23.6279 11.1453 23.956 10.9375 23.967 10.9375C23.9888 10.9375 24.2732 11.1125 24.6232 11.3422ZM22.4138 29.6625C23.6607 30.0016 25.3779 29.8813 26.5592 29.3672C26.756 29.2797 26.767 29.3234 26.7123 30.0125C26.4935 32.6922 23.0701 33.5453 21.6701 31.2594C21.4295 30.8766 21.331 30.5594 21.2873 30.0125C21.2326 29.3234 21.2435 29.2797 21.4404 29.3672C21.5498 29.4109 21.9982 29.5531 22.4138 29.6625ZM19.5045 31.3031C19.581 31.5656 19.7342 31.9266 19.8545 32.1125C19.9638 32.2984 20.0623 32.4844 20.0623 32.5281C20.0623 32.5609 18.3342 32.5938 16.2232 32.5938C14.0685 32.5938 12.417 32.55 12.4498 32.4953C12.5482 32.3313 14.2982 31.6313 15.3154 31.3359C16.3982 31.0297 17.4373 30.8766 18.5967 30.8547L19.3732 30.8438L19.5045 31.3031ZM30.8357 30.9641C31.3826 31.0297 32.2357 31.2047 32.7498 31.3578C33.7342 31.6422 35.4513 32.3422 35.5498 32.4953C35.5826 32.55 33.9092 32.5938 31.7326 32.5938H27.8607L28.2326 31.8719C28.4295 31.4672 28.5935 31.0734 28.5935 30.9969C28.5935 30.8 29.4357 30.7891 30.8357 30.9641ZM40.6138 34.7266C40.9529 34.9016 41.0623 35.0875 41.0623 35.5141C41.0623 35.7328 37.9998 47.5563 37.3873 49.7328L37.2232 50.3125H23.9998H10.7763L10.6123 49.7328C9.93416 47.3266 6.93728 35.7109 6.93728 35.4703C6.93728 35.1203 7.09041 34.8687 7.42947 34.6938C7.5826 34.6063 12.3732 34.5734 23.9779 34.5625C38.0982 34.5625 40.3513 34.5844 40.6138 34.7266ZM7.36385 45.2266C8.0201 47.7531 8.59978 49.9516 8.6326 50.1047C8.69822 50.3453 8.66541 50.4 8.43572 50.4656C8.03103 50.5641 7.47322 51.0672 7.30916 51.4828C7.21072 51.7016 7.15603 52.2594 7.15603 52.9375V54.0312H6.05134C4.58572 54.0312 4.17009 53.9 3.4701 53.2C2.82478 52.5547 2.48572 51.6906 2.61697 50.9906C2.6826 50.6188 5.90916 40.7531 6.04041 40.5234C6.08416 40.4578 6.11697 40.4578 6.12791 40.5234C6.14978 40.5891 6.7076 42.7 7.36385 45.2266ZM43.6982 45.6641C45.5467 51.2203 45.5904 51.4391 45.1201 52.4234C44.8138 53.0469 44.0701 53.725 43.4904 53.9C43.2498 53.9766 42.5607 54.0312 41.9482 54.0312H40.8435V52.9375C40.8435 52.2594 40.7888 51.7016 40.6904 51.4828C40.5263 51.0672 39.9685 50.5641 39.5638 50.4656C39.356 50.4109 39.3123 50.3453 39.356 50.1594C39.9904 47.5563 41.9045 40.5016 41.9482 40.5563C41.992 40.6 42.7685 42.8969 43.6982 45.6641ZM38.8748 53.1562V54.0312H23.9998H9.12478V53.1562V52.2812H23.9998H38.8748V53.1562Z" fill="white"/>
    <path d="M23.2346 40.1508C21.8346 40.3039 20.5659 41.0148 19.8768 42.043C19.4174 42.7211 19.2643 43.3117 19.3299 44.143C19.483 46.1445 21.4627 47.6211 24.0002 47.6211C25.9471 47.6211 27.533 46.7898 28.3205 45.3789C28.6159 44.8539 28.6487 44.6898 28.6487 43.8586C28.6487 43.1148 28.594 42.8414 28.408 42.4805C27.5002 40.7742 25.5533 39.8992 23.2346 40.1508ZM25.2362 42.2945C25.8487 42.4805 26.5705 43.1258 26.6799 43.5633C26.8549 44.2414 26.3299 44.9852 25.4002 45.3898C23.858 46.057 21.6158 45.368 21.3096 44.132C21.0908 43.257 22.0643 42.3273 23.4205 42.1195C24.044 42.0211 24.5143 42.0648 25.2362 42.2945Z" fill="white"/>
</svg>
