<svg width="36" height="36" viewBox="0 0 36 36" fill="none" xmlns="http://www.w3.org/2000/svg">
<g clip-path="url(#clip0_507_65038)">
<path d="M16.0664 0.12656C15.7852 0.309372 15.6375 0.485153 15.5039 0.794529C15.4125 1.01953 15.3984 2.01093 15.3984 9.05625C15.3984 14.4633 15.4195 17.1984 15.4758 17.4797C15.7359 18.907 17.0297 20.2219 18.4781 20.5242C18.7383 20.5805 21.3398 20.6016 26.9367 20.6016C33.5672 20.6016 35.0578 20.5875 35.2477 20.5031C35.5219 20.3906 35.9086 19.9687 35.9719 19.7156C36.0492 19.4273 35.9508 17.1914 35.8313 16.4531C35.5922 14.9484 35.2477 13.6547 34.7555 12.375C32.5758 6.7289 27.893 2.41172 22.1203 0.738279C20.4539 0.260155 19.2867 0.0703106 17.5781 0.0281219C16.3758 -0.0070343 16.2633 -1.90735e-06 16.0664 0.12656ZM19.5469 2.86172C22.3242 3.31875 25.193 4.66172 27.457 6.56015C30.6984 9.28125 32.857 13.3312 33.293 17.5219L33.3422 18H26.3813C21.5578 18 19.3008 17.9789 19.0477 17.9227C18.5555 17.8172 18.1828 17.4445 18.0773 16.9523C18.0211 16.6992 18 14.4422 18 9.61875V2.65078L18.443 2.7C18.682 2.72812 19.1813 2.79844 19.5469 2.86172Z" fill="white"/>
<path d="M10.3357 3.8039C4.81615 6.02578 0.955999 11.0039 0.105218 16.9805C-0.0143134 17.8172 -0.0354072 20.3695 0.0700616 21.2344C0.498968 24.7008 1.97553 27.907 4.33803 30.5297C6.93256 33.4055 10.5466 35.325 14.4208 35.8945C15.4193 36.0352 17.7818 36.0352 18.8927 35.8945C24.5318 35.1562 29.3201 31.7039 31.7529 26.6133C32.5474 24.9469 32.674 24.4195 32.4208 23.8711C32.1888 23.3648 31.8162 23.1328 31.2466 23.1328C30.5435 23.1328 30.2201 23.4352 29.8122 24.4687C29.1021 26.2828 28.1669 27.7242 26.7958 29.1375C25.1927 30.7758 23.3294 31.957 21.206 32.6602C18.2388 33.6516 15.3068 33.6445 12.3044 32.6461C5.32944 30.3328 1.23022 22.9289 3.02319 15.8555C3.77553 12.8742 5.48412 10.2164 7.88178 8.29687C9.00678 7.39687 10.2302 6.69374 11.6013 6.15937C12.5646 5.77968 12.8669 5.44218 12.8669 4.75312C12.8669 4.35937 12.7685 4.09921 12.5294 3.83906C12.0513 3.32578 11.531 3.31874 10.3357 3.8039Z" fill="white"/>
</g>
<defs>
<clipPath id="clip0_507_65038">
<rect width="36" height="36" fill="white"/>
</clipPath>
</defs>
</svg>
