<svg width="28" height="33" viewBox="0 0 28 33" fill="none" xmlns="http://www.w3.org/2000/svg">
<g clip-path="url(#clip0_233_29157)">
<path d="M17.9466 10.2673L1.071 0.622201C0.858945 0.499072 0.592164 0.505912 0.386948 0.629042C0.174892 0.752171 0.0449219 0.971068 0.0449219 1.21733C0.0449219 1.21733 0.0517624 2.1066 0.0586029 3.57047L12.351 15.8629L17.9466 10.2673Z" fill="url(#paint0_linear_233_29157)"/>
<path d="M0.0585938 3.57227C0.0791153 8.85315 0.14068 21.6723 0.168042 28.0545L12.3579 15.8647L0.0585938 3.57227Z" fill="url(#paint1_linear_233_29157)"/>
<path d="M27.605 15.7879L17.9461 10.2676L12.3438 15.8631L18.6644 22.1838L27.6118 16.9713C27.8239 16.8482 27.9538 16.6224 27.9538 16.383C27.9538 16.1368 27.817 15.911 27.605 15.7879Z" fill="url(#paint2_linear_233_29157)"/>
<path d="M0.160156 28.0541C0.173837 30.332 0.180678 31.789 0.180678 31.789C0.180678 32.0353 0.310648 32.261 0.522704 32.3773C0.734761 32.5004 0.994701 32.5004 1.20676 32.3773L18.6706 22.1917L12.35 15.8711L0.160156 28.0541Z" fill="url(#paint3_linear_233_29157)"/>
</g>
<defs>
<linearGradient id="paint0_linear_233_29157" x1="0.0449219" y1="8.2011" x2="17.9497" y2="8.2011" gradientUnits="userSpaceOnUse">
<stop stop-color="#63BE6B"/>
<stop offset="0.506" stop-color="#5BBC6A"/>
<stop offset="1" stop-color="#4AB96A"/>
</linearGradient>
<linearGradient id="paint1_linear_233_29157" x1="0.0553103" y1="15.8163" x2="12.3508" y2="15.8163" gradientUnits="userSpaceOnUse">
<stop stop-color="#3EC6F2"/>
<stop offset="1" stop-color="#45AFE3"/>
</linearGradient>
<linearGradient id="paint2_linear_233_29157" x1="12.3503" y1="16.2301" x2="27.9522" y2="16.2301" gradientUnits="userSpaceOnUse">
<stop stop-color="#FAA51A"/>
<stop offset="0.387" stop-color="#FAB716"/>
<stop offset="0.741" stop-color="#FAC412"/>
<stop offset="1" stop-color="#FAC80F"/>
</linearGradient>
<linearGradient id="paint3_linear_233_29157" x1="0.163166" y1="24.1701" x2="18.6704" y2="24.1701" gradientUnits="userSpaceOnUse">
<stop stop-color="#EC3B50"/>
<stop offset="1" stop-color="#E7515B"/>
</linearGradient>
<clipPath id="clip0_233_29157">
<rect width="27.968" height="32" fill="white" transform="translate(0.015625 0.5)"/>
</clipPath>
</defs>
</svg>
