<svg width="34" height="31" viewBox="0 0 34 31" fill="none" xmlns="http://www.w3.org/2000/svg">
<path d="M31.4169 1L18.916 10.2498L21.2407 4.79859L31.4169 1Z" fill="#E17726" stroke="#E17726" stroke-width="0.25" stroke-linecap="round" stroke-linejoin="round"/>
<path d="M2.58398 1L14.9736 10.3361L12.7603 4.79858L2.58398 1Z" fill="#E27625" stroke="#E27625" stroke-width="0.25" stroke-linecap="round" stroke-linejoin="round"/>
<path d="M26.9179 22.4473L23.5918 27.5285L30.714 29.4895L32.7542 22.5583L26.9179 22.4473Z" fill="#E27625" stroke="#E27625" stroke-width="0.25" stroke-linecap="round" stroke-linejoin="round"/>
<path d="M1.25977 22.5583L3.28759 29.4895L10.3974 27.5285L7.08361 22.4473L1.25977 22.5583Z" fill="#E27625" stroke="#E27625" stroke-width="0.25" stroke-linecap="round" stroke-linejoin="round"/>
<path d="M10.0115 13.8655L8.0332 16.8501L15.0812 17.1708L14.8463 9.58594L10.0115 13.8655Z" fill="#E27625" stroke="#E27625" stroke-width="0.25" stroke-linecap="round" stroke-linejoin="round"/>
<path d="M23.9855 13.8639L19.0768 9.49805L18.916 17.1692L25.9639 16.8486L23.9855 13.8639Z" fill="#E27625" stroke="#E27625" stroke-width="0.25" stroke-linecap="round" stroke-linejoin="round"/>
<path d="M10.3965 27.5283L14.6623 25.4687L10.99 22.6074L10.3965 27.5283Z" fill="#E27625" stroke="#E27625" stroke-width="0.25" stroke-linecap="round" stroke-linejoin="round"/>
<path d="M19.3359 25.4687L23.5894 27.5283L23.0082 22.6074L19.3359 25.4687Z" fill="#E27625" stroke="#E27625" stroke-width="0.25" stroke-linecap="round" stroke-linejoin="round"/>
<path d="M23.5894 27.5283L19.3359 25.4688L19.6821 28.2313L19.645 29.403L23.5894 27.5283Z" fill="#D5BFB2" stroke="#D5BFB2" stroke-width="0.25" stroke-linecap="round" stroke-linejoin="round"/>
<path d="M10.3965 27.5283L14.3533 29.403L14.3285 28.2313L14.6623 25.4688L10.3965 27.5283Z" fill="#D5BFB2" stroke="#D5BFB2" stroke-width="0.25" stroke-linecap="round" stroke-linejoin="round"/>
<path d="M14.427 20.7825L10.8906 19.7466L13.3883 18.5996L14.427 20.7825Z" fill="#233447" stroke="#233447" stroke-width="0.25" stroke-linecap="round" stroke-linejoin="round"/>
<path d="M19.5703 20.7825L20.609 18.5996L23.1191 19.7466L19.5703 20.7825Z" fill="#233447" stroke="#233447" stroke-width="0.25" stroke-linecap="round" stroke-linejoin="round"/>
<path d="M10.3977 27.5285L11.016 22.4473L7.08398 22.5583L10.3977 27.5285Z" fill="#CC6228" stroke="#CC6228" stroke-width="0.25" stroke-linecap="round" stroke-linejoin="round"/>
<path d="M22.9844 22.4473L23.5903 27.5285L26.9164 22.5583L22.9844 22.4473Z" fill="#CC6228" stroke="#CC6228" stroke-width="0.25" stroke-linecap="round" stroke-linejoin="round"/>
<path d="M25.9639 16.8496L18.916 17.1703L19.5713 20.7839L20.61 18.6009L23.1201 19.7479L25.9639 16.8496Z" fill="#CC6228" stroke="#CC6228" stroke-width="0.25" stroke-linecap="round" stroke-linejoin="round"/>
<path d="M10.8895 19.7479L13.3872 18.6009L14.4259 20.7839L15.0812 17.1703L8.0332 16.8496L10.8895 19.7479Z" fill="#CC6228" stroke="#CC6228" stroke-width="0.25" stroke-linecap="round" stroke-linejoin="round"/>
<path d="M8.03711 16.8496L10.9923 22.6092L10.8933 19.7479L8.03711 16.8496Z" fill="#E27525" stroke="#E27525" stroke-width="0.25" stroke-linecap="round" stroke-linejoin="round"/>
<path d="M23.121 19.7479L23.0098 22.6092L25.965 16.8496L23.121 19.7479Z" fill="#E27525" stroke="#E27525" stroke-width="0.25" stroke-linecap="round" stroke-linejoin="round"/>
<path d="M15.0851 17.1699L14.4297 20.7836L15.2581 25.0508L15.4436 19.4269L15.0851 17.1699Z" fill="#E27525" stroke="#E27525" stroke-width="0.25" stroke-linecap="round" stroke-linejoin="round"/>
<path d="M18.9166 17.1699L18.5703 19.4146L18.7434 25.0508L19.5719 20.7836L18.9166 17.1699Z" fill="#E27525" stroke="#E27525" stroke-width="0.25" stroke-linecap="round" stroke-linejoin="round"/>
<path d="M19.5726 20.7802L18.7441 25.0473L19.3377 25.4667L23.0101 22.6054L23.1213 19.7441L19.5726 20.7802Z" fill="#F5841F" stroke="#F5841F" stroke-width="0.25" stroke-linecap="round" stroke-linejoin="round"/>
<path d="M10.8906 19.7441L10.9896 22.6054L14.6619 25.4667L15.2554 25.0473L14.427 20.7802L10.8906 19.7441Z" fill="#F5841F" stroke="#F5841F" stroke-width="0.25" stroke-linecap="round" stroke-linejoin="round"/>
<path d="M19.6454 29.4039L19.6824 28.2323L19.361 27.9609H14.6377L14.3285 28.2323L14.3533 29.4039L10.3965 27.5293L11.7813 28.6639L14.5882 30.6002H19.398L22.2173 28.6639L23.5897 27.5293L19.6454 29.4039Z" fill="#C0AC9D" stroke="#C0AC9D" stroke-width="0.25" stroke-linecap="round" stroke-linejoin="round"/>
<path d="M19.3359 25.4681L18.7423 25.0488H15.2555L14.662 25.4681L14.3281 28.2308L14.6373 27.9594H19.3606L19.6821 28.2308L19.3359 25.4681Z" fill="#161616" stroke="#161616" stroke-width="0.25" stroke-linecap="round" stroke-linejoin="round"/>
<path d="M31.948 10.8541L32.9991 5.74823L31.4164 1L19.3359 9.9415L23.9851 13.8634L30.5508 15.775L31.9975 14.0854L31.367 13.629L32.3684 12.7165L31.6019 12.1244L32.6034 11.3598L31.948 10.8541Z" fill="#763E1A" stroke="#763E1A" stroke-width="0.25" stroke-linecap="round" stroke-linejoin="round"/>
<path d="M1 5.74823L2.06338 10.8541L1.38331 11.3598L2.39723 12.1244L1.63061 12.7165L2.63216 13.629L2.00155 14.0854L3.44824 15.775L10.014 13.8634L14.6631 9.9415L2.5827 1L1 5.74823Z" fill="#763E1A" stroke="#763E1A" stroke-width="0.25" stroke-linecap="round" stroke-linejoin="round"/>
<path d="M30.5523 15.7768L23.9866 13.8652L25.965 16.8499L23.0098 22.6093L26.9171 22.56H32.7533L30.5523 15.7768Z" fill="#F5841F" stroke="#F5841F" stroke-width="0.25" stroke-linecap="round" stroke-linejoin="round"/>
<path d="M10.014 13.8652L3.44834 15.7768L1.25977 22.56H7.08361L10.9909 22.6093L8.03571 16.8499L10.014 13.8652Z" fill="#F5841F" stroke="#F5841F" stroke-width="0.25" stroke-linecap="round" stroke-linejoin="round"/>
<path d="M18.9175 17.1669L19.3379 9.93972L21.242 4.79688H12.7598L14.6639 9.93972L15.0843 17.1669L15.2451 19.4362L15.2575 25.0478H18.7443L18.7567 19.4362L18.9175 17.1669Z" fill="#F5841F" stroke="#F5841F" stroke-width="0.25" stroke-linecap="round" stroke-linejoin="round"/>
</svg>
