<svg width="22" height="22" viewBox="0 0 22 22" fill="none"
    xmlns="http://www.w3.org/2000/svg">
    <path d="M10.6642 0.110756C10.5988 0.167468 10.2891 0.577532 9.97497 1.0225L9.40786 1.82954L8.53975 2.06511C8.06425 2.19162 7.61492 2.33121 7.54512 2.37484C7.37935 2.47517 7.27466 2.71946 7.31392 2.9245C7.33573 3.051 7.47533 3.21241 8.02935 3.77952L8.71861 4.47751L8.61827 5.39361C8.47868 6.6587 8.48304 6.68924 8.65753 6.88118C8.75787 6.9946 8.84512 7.04259 8.97599 7.06004C9.13303 7.08185 9.25518 7.03386 10.0579 6.66306C10.5552 6.43185 10.9827 6.24427 11.0001 6.24427C11.0219 6.24427 11.4451 6.43185 11.9424 6.66306C12.7451 7.03386 12.8672 7.08185 13.0243 7.06004C13.1552 7.04259 13.2424 6.9946 13.3427 6.88118C13.5172 6.68924 13.5172 6.66306 13.382 5.39361L13.286 4.47751L13.9709 3.77952C14.5249 3.21241 14.6645 3.051 14.6864 2.9245C14.7256 2.71946 14.6209 2.47517 14.4551 2.37484C14.3853 2.33121 13.936 2.19162 13.4605 2.06074L12.5924 1.82954L12.0253 1.0225C11.7156 0.577532 11.4015 0.167468 11.336 0.110756C11.1615 -0.0375648 10.8387 -0.0375648 10.6642 0.110756ZM11.4276 2.08692C11.6414 2.39665 11.8595 2.6802 11.9075 2.72383C11.9599 2.77181 12.2085 2.86342 12.4703 2.93322C12.7276 3.00302 12.9676 3.06845 13.0025 3.08154C13.0461 3.09899 12.937 3.23859 12.6404 3.53523C12.1344 4.04127 12.1431 4.01945 12.2391 4.93556C12.274 5.28018 12.2958 5.57246 12.287 5.58555C12.274 5.59428 12.0253 5.48958 11.733 5.35435C11.4364 5.21475 11.1354 5.0926 11.0568 5.07951C10.9478 5.06207 10.7864 5.11878 10.324 5.32817C10.0011 5.48085 9.72632 5.59428 9.71323 5.58555C9.70451 5.57246 9.72632 5.28018 9.76122 4.93556C9.85719 4.01945 9.86591 4.04127 9.35988 3.53523C9.06324 3.23859 8.95418 3.09899 8.9978 3.08154C9.0327 3.06845 9.27263 3.00302 9.53001 2.93322C9.79175 2.86342 10.0404 2.77181 10.0928 2.72383C10.1407 2.6802 10.3589 2.39665 10.5726 2.08692C10.7907 1.78155 10.9827 1.53289 11.0001 1.53289C11.0176 1.53289 11.2095 1.78155 11.4276 2.08692Z" fill="#6E757D"/>
    <path d="M8.40007 9.16241C8.14269 9.28019 7.92457 9.48959 7.79806 9.74261L7.68464 9.96945V12.3164V14.6634H5.33767H2.99071L2.76386 14.7768C2.51085 14.9033 2.30145 15.1214 2.18367 15.3788C2.10951 15.5446 2.10078 15.7278 2.10078 18.2493V20.9452H1.20213H0.303478L0.155157 21.0935C0.0242855 21.2244 0.00683594 21.268 0.00683594 21.4687C0.00683594 21.6694 0.0242855 21.713 0.155157 21.8439L0.303478 21.9922H11H21.6966L21.8449 21.8439C21.9758 21.713 21.9933 21.6694 21.9933 21.4687C21.9933 21.268 21.9758 21.2244 21.8449 21.0935L21.6966 20.9452H20.798H19.8993V16.8533C19.8993 12.9751 19.895 12.757 19.8164 12.5869C19.6986 12.3295 19.4893 12.1114 19.2362 11.9849L19.0094 11.8715H16.6624H14.3155V10.9205C14.3155 9.9869 14.3155 9.96509 14.202 9.74261C14.0755 9.48959 13.8574 9.28019 13.6 9.16241C13.4343 9.08825 13.2598 9.07952 11 9.07952C8.74033 9.07952 8.56584 9.08825 8.40007 9.16241ZM13.1812 10.2137C13.2685 10.301 13.2685 10.3577 13.2685 15.6231V20.9452H11H8.73161V15.6231C8.73161 10.3577 8.73161 10.301 8.81886 10.2137C8.90174 10.1309 8.96281 10.1265 11 10.1265C13.0373 10.1265 13.0984 10.1309 13.1812 10.2137ZM18.7651 13.0057C18.8523 13.0929 18.8523 13.1496 18.8523 17.0191V20.9452H16.5839H14.3155V16.9318V12.9184H16.4967C18.6211 12.9184 18.6822 12.9228 18.7651 13.0057ZM7.68464 18.3278V20.9452H5.41619H3.14775V18.415C3.14775 15.9416 3.14775 15.8848 3.235 15.7976C3.31789 15.7147 3.37896 15.7104 5.50344 15.7104H7.68464V18.3278Z" fill="#6E757D"/>
</svg>
