<svg width="24" height="24" viewBox="0 0 24 24" fill="none"
    xmlns="http://www.w3.org/2000/svg">
    <path d="M2.70017 13.5355C2.30759 13.6563 1.98145 14.0791 1.98145 14.4656C1.98145 14.9428 1.99352 14.9548 5.90122 18.3612C7.94868 20.149 9.73643 21.7012 9.88138 21.816C10.1109 21.9971 10.1894 22.0273 10.4854 22.0273C10.89 22.0273 11.192 21.8703 11.3732 21.5623C11.5181 21.3147 11.5242 20.8315 11.3913 20.5778C11.337 20.4751 10.0324 19.2974 8.48621 17.9505L5.68379 15.5045L13.5414 15.4743C19.714 15.4501 21.4293 15.4259 21.532 15.3655C21.7615 15.2387 21.9729 14.9065 22.0091 14.6106C22.0635 14.2482 21.8702 13.8435 21.5622 13.6503L21.3387 13.5114L12.098 13.4993C7.01856 13.4932 2.78473 13.5114 2.70017 13.5355Z" fill="#6E757D"/>
    <path d="M13.173 2.0183C12.6113 2.18741 12.3516 2.88801 12.6415 3.46179C12.6838 3.54634 13.9823 4.71201 15.5285 6.05886L18.337 8.50494L10.4672 8.53514C2.63977 8.56534 2.59146 8.56534 2.42234 8.69217C2.21699 8.84317 1.98145 9.28407 1.98145 9.52565C1.98145 9.80952 2.20491 10.2081 2.45254 10.3591L2.67601 10.498H12.0074H21.3387L21.5622 10.3591C21.8702 10.1719 22.0635 9.7612 22.0091 9.40486C21.991 9.25991 21.9427 9.08475 21.9004 9.01228C21.834 8.89752 14.8098 2.73702 14.1515 2.20553C13.8797 1.99414 13.4992 1.91562 13.173 2.0183Z" fill="#6E757D"/>
</svg>
