<svg width="18" height="21" viewBox="0 0 18 21" fill="none" xmlns="http://www.w3.org/2000/svg">
<path d="M4.61328 2.91406C1.66797 4.61328 0.414062 5.35938 0.355469 5.44141L0.269531 5.55859V10.5V15.4414L0.351562 15.5586C0.414062 15.6445 1.61719 16.3555 4.61719 18.0859C8.70703 20.4492 8.79688 20.5 9 20.5C9.20312 20.5 9.29688 20.4492 13.3867 18.0898C16.3906 16.3516 17.5859 15.6445 17.6484 15.5586L17.7305 15.4414V10.5V5.55859L17.6484 5.44141C17.5859 5.35547 16.3945 4.64844 13.3867 2.91016C9.25391 0.527344 9.20703 0.5 8.99609 0.5C8.78906 0.503906 8.71484 0.542969 4.61328 2.91406ZM12.7852 3.97656L16.5391 6.14453V10.5V14.8555L12.7695 17.0312L9 19.2109L5.75 17.332C3.96094 16.2969 2.26172 15.3203 1.97656 15.1562L1.46094 14.8555V10.5V6.14453L5.22266 3.96875C7.28906 2.77344 8.99219 1.79688 9.00781 1.80078C9.02344 1.80469 10.7227 2.78516 12.7852 3.97656Z" fill="black"/>
<path d="M3.19455 8.04235C3.03439 8.08923 2.83908 8.31188 2.80783 8.47594C2.79611 8.54626 2.7883 9.50329 2.79611 10.6049C2.80783 12.5541 2.81174 12.6049 2.88986 12.7103C3.0383 12.9095 3.15549 12.972 3.39377 12.972C3.63205 12.972 3.74924 12.9095 3.89768 12.7103C3.9758 12.6088 3.97971 12.5384 3.99924 11.3978L4.01877 10.1947L4.54611 11.4642C5.10861 12.8197 5.13986 12.8744 5.44064 12.9642C5.53049 12.9916 5.75705 13.0033 5.99533 12.9916C6.43283 12.9759 6.56564 12.9291 6.71408 12.7338C6.7883 12.6322 6.79221 12.5658 6.79221 10.4994C6.79221 8.43297 6.7883 8.36657 6.71408 8.26501C6.45236 7.92126 5.94064 7.93688 5.69455 8.30016C5.62814 8.39782 5.62033 8.51891 5.6008 9.59313L5.58127 10.7767L5.07346 9.55407C4.76096 8.80407 4.52268 8.28454 4.45627 8.20641C4.39377 8.1361 4.28049 8.06188 4.20236 8.03844C4.02658 7.99157 3.36252 7.99157 3.19455 8.04235Z" fill="black"/>
<path d="M8.15234 8.07812C8.05469 8.12109 7.95313 8.20703 7.90625 8.28125C7.83203 8.40625 7.82812 8.47266 7.82812 10.5C7.82812 12.5039 7.83203 12.5938 7.90625 12.7148C8.00391 12.8789 8.1875 12.9688 8.41406 12.9688C8.64063 12.9688 8.82422 12.8789 8.92188 12.7148C8.99219 12.6055 9 12.5156 9 11.9922V11.3984H9.73438C10.3906 11.3984 10.4766 11.3906 10.5898 11.3203C10.7539 11.2227 10.8438 11.0391 10.8438 10.8125C10.8438 10.5859 10.7539 10.4023 10.5898 10.3047C10.4766 10.2344 10.3906 10.2266 9.73438 10.2266H9V9.71875V9.21094H10.0195C10.8711 9.21094 11.0625 9.19922 11.168 9.14844C11.6211 8.93359 11.5586 8.19141 11.0781 8.04688C10.9727 8.01562 10.5078 8 9.62109 8C8.41797 8 8.30469 8.00781 8.15234 8.07812Z" fill="black"/>
<path d="M12.2581 8.04297C12.1878 8.0625 12.0784 8.14062 12.0159 8.21484C11.7503 8.51562 11.8245 8.97656 12.1644 9.15234C12.2425 9.19531 12.4026 9.21094 12.6878 9.21094H13.098L13.1097 10.9062C13.1214 12.5508 13.1253 12.6055 13.2034 12.7109C13.3519 12.9102 13.469 12.9727 13.7073 12.9727C13.9456 12.9727 14.0628 12.9102 14.2112 12.7109C14.2894 12.6055 14.2933 12.5508 14.305 10.9062L14.3167 9.21094H14.7386C15.1136 9.21094 15.1761 9.19922 15.2933 9.12109C15.5511 8.94922 15.6292 8.63281 15.4847 8.33203C15.3323 8.01953 15.3362 8.01953 13.7659 8.01172C12.9964 8.00781 12.3245 8.01953 12.2581 8.04297Z" fill="black"/>
</svg>
