<svg width="28" height="28" viewBox="0 0 28 28" fill="none"
    xmlns="http://www.w3.org/2000/svg">
    <path d="M18.7835 15.5861L19.3149 15.0579C20.0494 14.3274 21.1944 14.1774 22.1343 14.6883L24.3632 15.9C25.7946 16.678 26.11 18.5851 24.9913 19.6975L23.334 21.3453C22.9126 21.7643 22.3897 22.0706 21.7884 22.1266M4.66939 6.70386C4.62827 5.9805 4.96728 5.32844 5.47317 4.82542L7.30437 3.00462C8.32463 1.99015 10.0447 2.14722 10.9348 3.33624L12.4059 5.30137C13.1252 6.26204 13.0475 7.57796 12.2231 8.39759L11.8885 8.73031" stroke="#2475FF" stroke-width="1.75"/>
    <path d="M21.7889 22.1259C19.8879 22.3031 15.2391 22.1073 10.2845 17.1809C5.61239 12.5354 4.7751 8.5537 4.66992 6.70312" stroke="#2475FF" stroke-width="1.75"/>
    <path d="M18.784 15.5864C18.784 15.5864 17.5209 16.8422 14.0734 13.4143C10.6259 9.98632 11.889 8.73047 11.889 8.73047" stroke="#2475FF" stroke-width="1.75" stroke-linecap="round"/>
</svg>
