<svg width="21" height="20" viewBox="0 0 21 20" fill="none" xmlns="http://www.w3.org/2000/svg">
<path d="M10.0116 0.0932827C9.90218 0.144064 9.74203 0.265158 9.65609 0.362814C9.34749 0.714376 9.36703 0.292501 9.36703 6.31985V11.6988L8.05062 10.3823C6.63656 8.97219 6.57406 8.92141 6.14828 8.87844C5.70296 8.83156 5.23031 9.105 5.02718 9.51906C4.9139 9.75734 4.90609 10.2105 5.00765 10.4488C5.10921 10.6753 9.74203 15.3159 10.0116 15.4605C10.1717 15.5425 10.2577 15.562 10.4998 15.5581C10.6873 15.5581 10.8475 15.5347 10.9491 15.4917C11.1756 15.3941 15.8553 10.7144 15.9764 10.4683C16.0975 10.2183 16.0936 9.77688 15.9725 9.51906C15.8436 9.25734 15.5428 8.99953 15.2733 8.92141C15.0077 8.84328 14.6717 8.87063 14.4334 8.98781C14.328 9.03859 13.7967 9.5425 12.953 10.3823L11.6327 11.6988V6.31985C11.6327 0.292501 11.6522 0.714376 11.3436 0.362814C11.1209 0.108908 10.867 -0.0004673 10.4998 -0.0004673C10.2733 -0.0004673 10.16 0.0229702 10.0116 0.0932827Z" fill="white"/>
<path d="M1.1875 13.3976C0.941406 13.4952 0.710938 13.714 0.59375 13.964C0.503906 14.1515 0.5 14.1905 0.5 15.1202C0.5 16.1554 0.535156 16.464 0.710938 16.9835C1.19922 18.4171 2.32031 19.4562 3.85156 19.8937L4.15234 19.9796L10.3047 19.9913C14.75 19.9991 16.543 19.9913 16.7695 19.9601C18.2539 19.7452 19.6211 18.6632 20.1875 17.253C20.4492 16.6007 20.4727 16.4484 20.4922 15.2765C20.5117 14.0499 20.5 13.9874 20.1953 13.6632C19.7891 13.2296 19.0977 13.2023 18.6445 13.6007C18.3164 13.8898 18.3008 13.9523 18.2695 14.9991C18.25 15.6944 18.2266 15.9679 18.1758 16.1319C17.9414 16.8898 17.3789 17.4444 16.6094 17.6827C16.3906 17.7491 16.0938 17.753 10.5 17.753C4.90625 17.753 4.60938 17.7491 4.39062 17.6827C3.62109 17.4444 3.05859 16.8898 2.82422 16.1319C2.77344 15.9679 2.75 15.6944 2.73047 14.9991C2.69922 13.9523 2.68359 13.8898 2.35547 13.6007C2.03906 13.3234 1.58203 13.2452 1.1875 13.3976Z" fill="white"/>
</svg>
