<svg width="49" height="48" viewBox="0 0 49 48" fill="none" xmlns="http://www.w3.org/2000/svg">
<path d="M39.8563 2.77591C38.4969 3.10404 38.7875 2.84154 30.3781 11.2322C26.1031 15.4978 22.5594 19.0884 22.4844 19.2197C22.3438 19.5009 21.0312 25.5853 21.0312 25.9884C21.0312 26.6634 21.65 27.3478 22.325 27.4415C22.7188 27.4978 28.8688 26.2322 29.2812 26.0165C29.7125 25.7822 44.9938 10.3978 45.2656 9.91029C45.8938 8.81342 46.0719 7.21029 45.6875 5.98216C44.9469 3.58216 42.3594 2.16654 39.8563 2.77591ZM41.8438 5.89779C42.4062 6.19779 42.7156 6.67591 42.7625 7.30404C42.8188 8.05404 42.6688 8.31654 41.6094 9.37592L40.7188 10.2665L39.4813 9.01966L38.2344 7.78216L39.125 6.89154C39.6125 6.40404 40.1375 5.94466 40.2969 5.86029C40.6906 5.66341 41.45 5.68216 41.8438 5.89779ZM37.2969 11.2509L38.5156 12.4697L33.125 17.8603L27.7344 23.2415L26.1969 23.5697C25.3438 23.7572 24.6406 23.8978 24.6313 23.879C24.6125 23.8697 24.7531 23.1572 24.9313 22.3134L25.25 20.7665L30.6219 15.3947C33.5656 12.4509 36.0031 10.0322 36.0313 10.0322C36.0594 10.0322 36.6313 10.5853 37.2969 11.2509Z" fill="#2475FF"/>
<path d="M9.35813 3.83512C7.29563 4.34137 5.5425 5.74762 4.62375 7.64137C3.76125 9.42262 3.83625 8.03512 3.79875 23.2039C3.78 31.8101 3.80813 36.9851 3.86438 37.6695C4.0425 39.6476 4.74563 41.1101 6.16125 42.4507C6.77063 43.0226 7.155 43.2945 7.83 43.6226C9.53625 44.457 8.15813 44.3914 24.2175 44.3914C40.2394 44.3914 38.9269 44.4476 40.5769 43.6414C42.0581 42.9195 43.1363 41.8414 43.8581 40.3601C44.655 38.7382 44.6081 39.5445 44.6081 27.8257V17.4476L44.4113 17.1851C44.055 16.707 43.6519 16.5007 43.0613 16.5007C42.4331 16.5007 42.0019 16.7445 41.7394 17.2507C41.5706 17.5601 41.5613 18.0195 41.5613 27.432C41.5613 34.0789 41.5238 37.4632 41.4581 37.8382C41.2425 39.0289 40.38 40.2382 39.3394 40.8101C38.3175 41.3632 38.9081 41.3445 24.2456 41.3445C14.73 41.3445 10.68 41.3164 10.3238 41.2414C8.56125 40.8664 7.20188 39.3851 6.9675 37.5945C6.84563 36.6476 6.84563 11.3445 6.9675 10.407C7.155 9.00074 8.055 7.75387 9.35813 7.11637L10.0144 6.79762L20.4675 6.75074C30.7988 6.70387 30.9206 6.70387 31.2488 6.50699C31.7644 6.20699 31.9988 5.78512 31.9988 5.16637C31.9988 4.54762 31.7831 4.12574 31.3238 3.84449C31.0238 3.65699 30.8363 3.65699 20.5144 3.66637C10.8863 3.66637 9.95813 3.68512 9.35813 3.83512Z" fill="#2475FF"/>
</svg>
