<svg width="49" height="56" viewBox="0 0 49 56" fill="none" xmlns="http://www.w3.org/2000/svg">
<path d="M22.3125 0.557812C16.4281 2.58125 9.82187 4.1125 3.28125 4.9875C0.984375 5.29375 0.65625 5.40313 0.251563 6.01562L0 6.37656V16.5375C0 26.6438 0.0328125 27.6281 0.39375 29.8047C1.70625 37.625 6.16875 45.0406 12.4688 49.8313C14.7984 51.6031 16.5812 52.6094 21.0875 54.6766C23.5266 55.8031 24.0406 56 24.5 56C24.9594 56 25.4734 55.8031 27.9125 54.6766C29.4984 53.9547 31.3578 53.0578 32.0469 52.6969C38.2812 49.4375 43.4 43.9469 46.2984 37.4062C47.3047 35.1094 47.8625 33.3703 48.3984 30.8547C48.9781 28.0656 49 27.5844 49 16.5594V6.37656L48.7484 6.01562C48.3547 5.41406 47.9937 5.28281 46.1016 5.03125C39.4516 4.16719 32.9 2.65781 26.7969 0.601562C24.5437 -0.153126 24.4016 -0.153126 22.3125 0.557812ZM26.4578 4.30938C32.1562 6.17969 38.5328 7.65625 44.4609 8.45469L45.4453 8.58594L45.4781 15.9141C45.5109 24.1719 45.4234 26.8625 45.0187 29.2031C43.5859 37.5703 38.3906 44.9531 30.9531 49.1641C29.8156 49.8094 24.7516 52.1719 24.5 52.1719C24.2484 52.1719 19.1625 49.7984 18.0469 49.1641C10.5547 44.8766 5.41406 37.5922 3.98125 29.2031C3.57656 26.8625 3.48906 24.1719 3.52187 15.9141L3.55469 8.58594L4.26562 8.49844C9.3625 7.89688 17.1062 6.125 22.4766 4.32031C23.4391 4.00312 24.325 3.72969 24.4344 3.72969C24.5547 3.71875 25.4625 3.98125 26.4578 4.30938Z" fill="white"/>
<path d="M22.5859 12.4569C20.7703 12.9819 19.1406 14.2944 18.2984 15.9132C17.6531 17.16 17.5 17.871 17.5 19.5663V20.9991H17.1172C16.0016 20.9991 14.6562 21.9835 14.2297 23.1319C14.0109 23.7225 14 23.9194 14 30.6241C14 37.3069 14.0109 37.5257 14.2297 38.1054C14.5031 38.8382 15.1703 39.56 15.9141 39.921L16.4609 40.1944L24.3578 40.2272C32.1453 40.2491 32.2547 40.2491 32.8672 40.0194C33.6766 39.7132 34.4641 38.9366 34.7703 38.1163C34.9891 37.5257 35 37.3288 35 30.6241C35 23.9194 34.9891 23.7225 34.7703 23.1319C34.3438 21.9835 32.9984 20.9991 31.8828 20.9991H31.5V19.5663C31.5 17.871 31.3469 17.16 30.7016 15.9132C29.8484 14.2616 28.1203 12.8944 26.2937 12.4241C25.375 12.1835 23.4609 12.2054 22.5859 12.4569ZM26.0094 16.1757C26.6 16.471 27.2672 17.1382 27.5516 17.696C27.8141 18.221 28 19.26 28 20.2554V20.9991H24.4891H20.9672L21.0328 19.8179C21.0656 19.1725 21.1531 18.4616 21.2188 18.2429C21.4922 17.3022 22.5094 16.2632 23.45 15.9679C24.0406 15.7819 25.4844 15.9022 26.0094 16.1757ZM31.5 30.6241V36.7491H24.5H17.5V30.6241V24.4991H24.5H31.5V30.6241Z" fill="white"/>
</svg>
