<svg width="46" height="52" viewBox="0 0 46 52" fill="none"
    xmlns="http://www.w3.org/2000/svg">
    <path d="M21.1197 0.814049C16.2515 3.61906 10.4383 6.15983 4.96035 7.88755C4.066 8.17212 2.85659 8.55832 2.2773 8.74125C0.630878 9.25957 0.793487 8.39571 0.793487 16.5262C0.793487 23.6708 0.834139 24.6566 1.25083 27.0653C2.60252 34.9823 6.67791 41.8221 13.1416 47.0256C15.0116 48.5399 16.9731 49.7899 19.0362 50.7859C20.8961 51.6904 21.8209 51.9648 22.9998 51.9648C24.1787 51.9648 25.1036 51.6904 26.9634 50.7859C31.3945 48.6415 35.6935 45.0641 38.7424 40.9887C42.3808 36.1409 44.4541 30.785 45.074 24.6363C45.1655 23.7928 45.2062 21.2317 45.2062 16.5262C45.2062 9.73724 45.2062 9.64577 44.9927 9.3612C44.7793 9.06647 44.6269 9.00549 41.395 8.00951C36.2118 6.40374 30.0733 3.74102 25.0629 0.91568C22.9287 -0.293728 23.0303 -0.283566 21.1197 0.814049ZM24.26 3.12107C29.2095 5.92608 36.1204 8.86321 41.6288 10.4995L42.9195 10.8857V16.9734C42.9195 21.7195 42.889 23.3863 42.767 24.5347C42.1471 30.4394 39.9925 35.7344 36.3541 40.3281C34.7788 42.3201 31.7604 45.0844 29.3517 46.741C27.6444 47.9199 25.1646 49.1903 23.7925 49.5867L22.9998 49.8204L22.2173 49.5867C20.8351 49.1903 18.3553 47.9199 16.6479 46.741C14.2392 45.0844 11.2208 42.3201 9.64553 40.3281C6.00715 35.7344 3.85257 30.4394 3.23263 24.5347C3.11067 23.3863 3.08018 21.7195 3.08018 16.9734V10.8857L4.38106 10.4995C10.1029 8.79207 16.841 5.93624 21.7803 3.10074C22.4205 2.72471 22.9693 2.42998 22.9897 2.41982C22.9998 2.41982 23.5791 2.73487 24.26 3.12107Z" fill="white"/>
    <path d="M14.6044 9.0667C13.8524 9.81877 14.3402 10.957 15.4073 10.957C16.0476 10.957 16.4846 10.4997 16.4948 9.81877C16.4948 9.42241 16.444 9.29029 16.1797 9.03621C15.9256 8.77197 15.7834 8.72115 15.4073 8.72115C15.0211 8.72115 14.8992 8.77197 14.6044 9.0667Z" fill="white"/>
    <path d="M11.9729 10.0428C11.8103 10.0834 10.9363 10.3883 10.0419 10.7237C9.14755 11.0591 7.76537 11.5571 6.96249 11.8213C4.99085 12.4718 5.11281 12.238 5.11281 15.3581C5.11281 17.9497 5.15346 18.2037 5.64129 18.4578C6.14944 18.7221 6.64743 18.6509 7.03363 18.2647L7.34868 17.9497V16.039V14.1284L7.88733 13.9556C8.78168 13.6609 12.5623 12.2685 12.8469 12.1161C12.9994 12.0449 13.1925 11.8112 13.2941 11.6079C13.7006 10.744 12.9282 9.82937 11.9729 10.0428Z" fill="white"/>
    <path d="M32.0853 15.7735C31.8008 15.8447 31.3638 16.0174 31.1198 16.1699C30.8759 16.3122 28.1624 18.9444 25.083 22.0238L19.5034 27.6237L17.3082 25.4488C15.8244 23.9751 14.9707 23.2129 14.6556 23.0706C12.2063 21.9019 9.48264 23.5686 9.45215 26.2517C9.45215 27.0952 9.59443 27.5932 10.0518 28.2843C10.5396 29.0262 17.2574 35.683 17.7859 35.9472C18.0196 36.059 18.5278 36.2115 18.914 36.2826C19.8083 36.4351 20.723 36.2318 21.5056 35.7135C21.8003 35.5204 25.1541 32.2377 28.9551 28.4164C34.3314 23.03 35.9473 21.3632 36.1404 20.9567C37.3295 18.5887 35.8558 15.8955 33.2643 15.6922C32.8781 15.6617 32.3902 15.6922 32.0853 15.7735ZM33.8944 18.3651C34.0468 18.5379 34.1993 18.792 34.2399 18.9342C34.4127 19.6355 34.5346 19.4932 27.0851 26.9427L20.0014 34.0264H19.5339C19.1782 34.0264 18.975 33.9553 18.6701 33.7317C17.9891 33.2337 11.9421 27.085 11.8303 26.7801C11.6677 26.3533 11.6982 25.9874 11.9218 25.6215C12.2775 25.0219 13.121 24.7983 13.6495 25.1439C13.7918 25.2354 15.052 26.4549 16.4443 27.8371L18.9953 30.3677H19.4933H19.9913L26.0993 24.28C29.4531 20.9364 32.2886 18.1415 32.4004 18.0805C32.5122 18.0196 32.8272 17.9789 33.1016 17.9992C33.5082 18.0399 33.6606 18.1009 33.8944 18.3651Z" fill="white"/>
    <path d="M34.9107 35.1646C34.7887 35.2255 34.3517 35.7337 33.9554 36.3028C32.5833 38.2237 30.8048 40.1343 28.9958 41.6181C27.9388 42.482 27.888 42.5531 27.8067 43.0105C27.6847 43.7625 28.1726 44.291 28.9754 44.291C29.3108 44.291 29.5039 44.1691 30.5304 43.3458C32.0752 42.0755 34.1383 39.9311 35.2969 38.3761C36.4555 36.8313 36.6282 36.5061 36.5469 36.0284C36.4351 35.3272 35.5408 34.8495 34.9107 35.1646Z" fill="white"/>
    <path d="M25.5199 44.0885C24.6256 44.7796 25.0931 46.1211 26.2212 46.1211C26.6074 46.1211 26.7293 46.0703 27.0241 45.7755C27.2883 45.5113 27.3696 45.3487 27.3696 45.0641C27.3696 44.617 27.146 44.1393 26.8716 43.9868C26.5362 43.8141 25.7943 43.8649 25.5199 44.0885Z" fill="white"/>
</svg>
