<svg width="17" height="18" viewBox="0 0 17 18" fill="none"
    xmlns="http://www.w3.org/2000/svg">
    <path d="M16.863 4.21387C16.7614 3.99512 13.4567 0.702149 13.2575 0.620117C13.07 0.545899 12.6794 0.545899 12.4919 0.620117C12.2927 0.702149 8.988 3.99512 8.88643 4.21387C8.79659 4.40918 8.78878 4.80371 8.87471 5.00684C8.95284 5.19824 9.14815 5.39746 9.33956 5.4873C9.53487 5.57715 9.9294 5.58496 10.1325 5.50293C10.2263 5.46387 10.5739 5.14746 11.1091 4.6123L11.9372 3.78418L11.9372 9.01074C11.9372 14.7764 11.9216 14.3818 12.1833 14.6592C12.3669 14.8506 12.5739 14.9365 12.8747 14.9365C13.1755 14.9365 13.3825 14.8506 13.5661 14.6592C13.8278 14.3818 13.8122 14.7764 13.8122 9.01074L13.8122 3.78418L14.6442 4.6123C15.1755 5.14746 15.5232 5.46387 15.6169 5.50293C15.82 5.58496 16.2146 5.57715 16.4099 5.48731C16.6013 5.39746 16.7966 5.19824 16.8747 5.00684C16.9607 4.80371 16.9528 4.40918 16.863 4.21387Z" fill="white"/>
    <path d="M8.113 12.9648C8.02315 12.7734 7.82393 12.5781 7.63253 12.5C7.44503 12.4219 7.0544 12.4219 6.8669 12.4961C6.77315 12.5352 6.4255 12.8516 5.89425 13.3867L5.06221 14.2148L5.06221 8.98047C5.06221 3.96484 5.05831 3.73828 4.988 3.58984C4.83175 3.25391 4.51925 3.0625 4.12471 3.0625C3.73018 3.0625 3.41768 3.25391 3.26143 3.58984C3.19112 3.73828 3.18721 3.96484 3.18721 8.98047L3.18721 14.2148L2.35909 13.3867C1.82393 12.8516 1.47628 12.5352 1.38253 12.4961C1.1794 12.4141 0.784871 12.4219 0.589558 12.5117C0.398152 12.6016 0.202839 12.8008 0.124714 12.9922C0.038777 13.1953 0.0465895 13.5898 0.136433 13.7852C0.237996 14.0039 3.54268 17.2969 3.7419 17.3789C3.9294 17.4531 4.32003 17.4531 4.50753 17.3789C4.70675 17.2969 8.01143 14.0039 8.113 13.7852C8.21065 13.5742 8.21065 13.1758 8.113 12.9648Z" fill="white"/>
</svg>
