<svg width="51" height="42" viewBox="0 0 51 42" fill="none" xmlns="http://www.w3.org/2000/svg">
<path d="M27.4589 0.711151C23.6526 1.23615 20.0323 2.80021 17.1667 5.18459C16.0401 6.12521 15.7667 6.86896 16.2261 7.76584C16.5761 8.44396 17.0683 8.75021 17.812 8.75021C18.523 8.75021 18.5995 8.7174 19.7042 7.82053C22.0448 5.92834 25.1183 4.64865 28.2026 4.2549C29.6026 4.0799 32.1292 4.18927 33.5073 4.48459C37.937 5.42521 41.7433 8.00646 44.2261 11.758C47.9448 17.369 47.9339 24.708 44.2151 30.2533C42.8808 32.244 41.4042 33.7315 39.4464 35.0221C37.6089 36.2471 35.662 37.0674 33.5073 37.5268C32.1511 37.8112 29.5261 37.9205 28.1808 37.7455C25.2167 37.3518 22.3292 36.1924 20.098 34.4752C18.4573 33.2065 18.5339 33.2502 17.8448 33.2502C17.0683 33.2502 16.5761 33.5455 16.2261 34.2346C15.7667 35.1315 16.0401 35.8752 17.1667 36.8158C19.4417 38.6971 22.3401 40.1627 25.1948 40.8518C34.6995 43.1596 44.3355 38.6533 48.5901 29.9143C51.3136 24.3033 51.3136 17.6643 48.5901 12.0862C45.473 5.70959 39.4792 1.46584 32.4464 0.656464C31.1339 0.514275 28.7605 0.536148 27.4589 0.711151Z" fill="white"/>
<path d="M28.3674 9.15469C28.1705 9.25313 27.8971 9.48281 27.7658 9.66875C27.5252 10.0078 27.5252 10.0406 27.4924 15.2031C27.4814 18.0578 27.4924 20.5188 27.5252 20.6719C27.6018 20.9781 35.433 28.8969 35.9143 29.1594C36.0783 29.2469 36.4502 29.3125 36.7455 29.3125C37.6205 29.3125 38.3643 28.6672 38.4846 27.8141C38.6049 26.8844 38.5283 26.775 34.6783 22.9141L31.0908 19.3047L31.058 14.7656C31.0252 10.4125 31.0143 10.2156 30.7955 9.84375C30.3143 9.02344 29.2424 8.71719 28.3674 9.15469Z" fill="white"/>
<path d="M1.38378 11.2C0.968155 11.3859 0.72753 11.6484 0.50878 12.1734C0.279092 12.7203 0.300967 13.1141 0.59628 13.6719C0.77128 14 1.00097 14.2297 1.32909 14.4047L1.79941 14.6562H9.13847H16.4885L16.9697 14.4047C17.6369 14.0656 17.8775 13.6938 17.9322 12.9391C17.965 12.4031 17.9322 12.2391 17.7135 11.9219C17.5713 11.7141 17.2869 11.4297 17.09 11.2984L16.7182 11.0469H9.21503C3.23222 11.0578 1.64628 11.0797 1.38378 11.2Z" fill="white"/>
<path d="M3.5375 19.4688C3.0125 19.7969 2.75 20.2891 2.75 21C2.75 21.7109 3.0125 22.2031 3.5375 22.5312C3.8875 22.7391 4.10625 22.75 11.5 22.75C18.8937 22.75 19.1125 22.7391 19.4625 22.5312C19.9875 22.2031 20.25 21.7109 20.25 21C20.25 20.2891 19.9875 19.7969 19.4625 19.4688C19.1125 19.2609 18.8937 19.25 11.5 19.25C4.10625 19.25 3.8875 19.2609 3.5375 19.4688Z" fill="white"/>
<path d="M6.03197 27.5844C5.36478 27.9344 5.12416 28.3063 5.06947 29.0609C5.03666 29.5969 5.06947 29.7609 5.28822 30.0781C5.43041 30.2859 5.71478 30.5703 5.92259 30.7016L6.29447 30.9531L13.9179 30.9313C21.421 30.8984 21.5523 30.8984 21.8585 30.6688C22.2413 30.3953 22.657 29.5969 22.657 29.1375C22.657 28.5797 22.2195 27.8797 21.6726 27.5953L21.2023 27.3438H13.8632H6.51322L6.03197 27.5844Z" fill="white"/>
</svg>
