<svg width="48" height="48" viewBox="0 0 48 48" fill="none" xmlns="http://www.w3.org/2000/svg">
<path d="M37.6875 3.3747C36.8063 3.64658 0.815625 18.0559 0.534375 18.2528C0.3375 18.3934 0.140625 18.5716 0.084375 18.6653C0.0375 18.7684 0 23.7653 0 31.4809V44.1278L0.234375 44.3622C0.365625 44.4934 0.6 44.6247 0.759375 44.6622C1.29375 44.7653 40.425 44.7278 40.8094 44.6153C41.0531 44.5497 41.2219 44.4184 41.3438 44.2216C41.5219 43.9309 41.5312 43.6872 41.5312 37.1247V30.3278L44.5125 29.1559C47.7938 27.8716 48 27.7497 48 27.1122C48 26.8309 46.8 23.7091 43.4906 15.4028C41.0063 9.17783 38.925 3.96533 38.85 3.8247C38.6438 3.43095 38.1375 3.23408 37.6875 3.3747ZM41.5781 15.9934C43.8469 21.6934 45.7125 26.3903 45.7313 26.4372C45.75 26.4747 44.8031 26.8872 43.6406 27.3559L41.5312 28.1997V23.5872V18.9653L41.3156 18.6466C41.1938 18.4684 40.9781 18.2997 40.8188 18.2528C40.5375 18.1684 40.4813 18.0653 39.6094 15.8528C38.5031 13.0497 38.2969 12.6185 38.0344 12.4872C37.9219 12.431 37.3875 12.3653 36.8438 12.3372C35.475 12.2716 34.6125 11.9809 33.6 11.2216C33.2812 10.9872 32.8875 10.631 32.7188 10.4153C32.3344 9.9372 31.9125 9.7872 31.4344 9.94658C31.2375 10.0028 28.3781 11.1278 25.0781 12.4403C21.7781 13.7528 17.4375 15.4872 15.4219 16.2841C13.1531 17.1841 11.6719 17.8216 11.5219 17.9622L11.2875 18.1872L8.625 18.1684L5.9625 18.1403L11.9062 15.7684C15.1781 14.4653 22.2469 11.6528 27.6094 9.51532C32.9719 7.37782 37.3781 5.63408 37.4062 5.63408C37.4344 5.6247 39.3094 10.2934 41.5781 15.9934ZM31.7438 12.2903C32.0156 12.5997 32.9813 13.2559 33.6188 13.5747C34.3406 13.9403 35.1 14.1559 36.0938 14.2872L36.8906 14.3997L37.6125 16.2184C38.0063 17.2216 38.3344 18.0747 38.3438 18.1122C38.3438 18.1591 33.3375 18.1872 27.2156 18.1872H16.0781L23.6719 15.1403C27.8531 13.4716 31.3313 12.1028 31.4156 12.1028C31.5 12.0934 31.6406 12.1872 31.7438 12.2903ZM39.5625 31.4528V42.7497H20.7656H1.96875V31.4528V20.1559H20.7656H39.5625V31.4528Z" fill="#2475FF"/>
<path d="M9.01795 22.0219C8.52108 22.1062 8.35233 22.2937 8.0617 23.0156C7.75233 23.8031 7.10545 24.7687 6.53358 25.2656C6.0367 25.6969 5.08983 26.2406 4.48045 26.4375C4.28358 26.4937 4.03983 26.6531 3.9367 26.7844C3.75858 27.0187 3.7492 27.15 3.7492 31.4437C3.7492 36.5344 3.6742 36.1125 4.73358 36.5437C6.3742 37.2187 7.4242 38.2594 8.0617 39.8344C8.23045 40.2562 8.45545 40.6594 8.55858 40.7344C8.7367 40.8562 10.3492 40.875 20.7273 40.875C32.5773 40.875 32.6992 40.875 32.9336 40.6875C33.0648 40.5844 33.2242 40.3406 33.2805 40.1437C33.4773 39.5344 34.0211 38.5875 34.4523 38.0906C34.968 37.5 35.9242 36.8531 36.7398 36.5531C37.7992 36.15 37.7336 36.4969 37.7336 31.4531C37.7336 26.3719 37.8273 26.7937 36.5992 26.2781C35.1086 25.65 34.0023 24.5344 33.393 23.025C32.9242 21.8625 34.3773 21.9844 21.018 21.975C14.643 21.9656 9.24295 21.9844 9.01795 22.0219ZM31.8648 24.4875C32.2867 25.3312 33.0273 26.2875 33.6648 26.8125C34.2273 27.2812 35.1555 27.8625 35.5211 27.9844C35.718 28.0406 35.718 28.0594 35.718 31.4156V34.7812L35.2305 35.025C33.7492 35.7656 32.2117 37.35 31.7617 38.5875L31.6492 38.9062H20.7461H9.84295L9.5992 38.4187C8.8492 36.9281 7.69608 35.775 6.21483 35.025L5.71795 34.7812L5.72733 31.425V28.0781L6.38358 27.7594C7.63983 27.1406 8.85858 25.9219 9.54295 24.5906L9.88983 23.9062H20.7273H31.5648L31.8648 24.4875Z" fill="#2475FF"/>
<path d="M19.266 25.922C18.4879 26.1376 17.466 26.7001 16.8848 27.2438C16.1535 27.9188 15.6848 28.6407 15.3379 29.6251C15.0941 30.3095 15.0566 30.5532 15.0566 31.4063C15.0566 32.5313 15.216 33.1782 15.7129 34.1251C16.3691 35.3813 17.5879 36.4032 18.9473 36.8532C19.8566 37.1532 21.6004 37.172 22.4066 36.9001C23.3535 36.5813 24.0285 36.1595 24.7504 35.4376C26.5129 33.6845 26.9254 31.1438 25.8191 28.8751C25.5566 28.3407 25.2848 27.9845 24.7129 27.422C23.8879 26.6063 23.1754 26.1938 22.1629 25.9313C21.4598 25.7532 19.9223 25.7438 19.266 25.922ZM22.2379 28.0688C23.3723 28.6126 24.1598 29.6345 24.3848 30.8626C24.6754 32.4376 23.7848 34.0782 22.2379 34.8095C21.666 35.0813 21.5254 35.1095 20.7191 35.1095C19.8941 35.1095 19.7723 35.0813 19.191 34.8001C16.1723 33.3095 16.3785 29.0907 19.5285 27.9282C20.2691 27.6563 21.5254 27.722 22.2379 28.0688Z" fill="#2475FF"/>
<path d="M9.67588 30.1589C8.65401 30.6558 8.67276 32.2214 9.70401 32.7183C10.2009 32.962 10.529 32.9527 11.0353 32.7089C12.0571 32.212 12.0759 30.6839 11.054 30.1683C10.6603 29.962 10.079 29.9527 9.67588 30.1589ZM10.6884 31.1714C10.754 31.2464 10.7821 31.4058 10.7446 31.537C10.6696 31.8464 10.3509 31.9402 10.1165 31.7245C9.90088 31.5277 9.89151 31.3777 10.0884 31.1808C10.2759 30.9933 10.5384 30.9933 10.6884 31.1714Z" fill="#2475FF"/>
<path d="M30.3748 30.1772C29.9154 30.4209 29.5967 31.0491 29.6529 31.5834C29.7654 32.6241 30.9279 33.2241 31.8185 32.6991C32.756 32.1459 32.7748 30.7491 31.856 30.1866C31.4623 29.9522 30.806 29.9428 30.3748 30.1772ZM31.406 31.1709C31.4717 31.2459 31.4998 31.4053 31.4623 31.5366C31.3873 31.8459 31.0685 31.9397 30.8342 31.7241C30.6185 31.5272 30.6092 31.3772 30.806 31.1803C30.9935 30.9928 31.256 30.9928 31.406 31.1709Z" fill="#2475FF"/>
</svg>
