<svg width="24" height="24" viewBox="0 0 24 24" fill="none"
    xmlns="http://www.w3.org/2000/svg">
    <path d="M11.2969 0.726562C11.2969 1.125 11.2781 1.45312 11.2594 1.45312C11.2406 1.45312 10.9828 1.48594 10.6875 1.52344C8.78438 1.7625 7.05469 2.475 5.53125 3.65156C5.02031 4.04531 4.04531 5.02031 3.65156 5.53125C2.475 7.05469 1.7625 8.78437 1.52344 10.6875C1.48594 10.9828 1.45312 11.2406 1.45312 11.2594C1.45312 11.2781 1.125 11.2969 0.726562 11.2969H0V12V12.7031H0.726562C1.125 12.7031 1.45312 12.7219 1.45312 12.7406C1.45312 12.7594 1.48594 13.0172 1.52344 13.3125C1.7625 15.2156 2.475 16.9453 3.65156 18.4688C4.04531 18.9797 5.02031 19.9547 5.53125 20.3484C7.05469 21.525 8.78438 22.2375 10.6875 22.4766C10.9828 22.5141 11.2406 22.5469 11.2594 22.5469C11.2781 22.5469 11.2969 22.875 11.2969 23.2734V24H12H12.7031V23.2734C12.7031 22.875 12.7219 22.5469 12.7406 22.5469C12.7594 22.5469 13.0172 22.5141 13.3125 22.4766C15.2156 22.2375 16.9453 21.525 18.4688 20.3484C18.9797 19.9547 19.9547 18.9797 20.3484 18.4688C21.525 16.9453 22.2375 15.2156 22.4766 13.3125C22.5141 13.0172 22.5469 12.7594 22.5469 12.7406C22.5469 12.7219 22.875 12.7031 23.2734 12.7031H24V12V11.2969H23.2734C22.875 11.2969 22.5469 11.2781 22.5469 11.2594C22.5469 11.2406 22.5141 10.9828 22.4766 10.6875C22.2375 8.78437 21.525 7.05469 20.3484 5.53125C19.9547 5.02031 18.9797 4.04531 18.4688 3.65156C16.9453 2.475 15.2156 1.7625 13.3125 1.52344C13.0172 1.48594 12.7594 1.45312 12.7406 1.45312C12.7219 1.45312 12.7031 1.125 12.7031 0.726562V0H12H11.2969V0.726562ZM11.2969 4.28906C11.2969 5.35781 11.2828 5.67656 11.2406 5.69062C11.2078 5.7 10.9781 5.74219 10.7344 5.78906C8.27344 6.25312 6.25313 8.27344 5.78906 10.7344C5.74219 10.9781 5.7 11.2078 5.69063 11.2359C5.67656 11.2828 5.35781 11.2969 4.28906 11.2969H2.89688L2.925 11.1656C2.93906 11.0953 2.9625 10.9125 2.97656 10.7578C3.02344 10.3406 3.26719 9.36562 3.45469 8.85937C4.38281 6.37031 6.375 4.37812 8.85938 3.45469C9.54375 3.20156 10.5 2.98125 11.2406 2.91094C11.2828 2.90625 11.2969 3.21094 11.2969 4.28906ZM13.2422 2.97656C13.6594 3.02344 14.6344 3.26719 15.1406 3.45469C17.6297 4.38281 19.6172 6.37031 20.5453 8.85937C20.7328 9.36562 20.9766 10.3406 21.0234 10.7578C21.0375 10.9125 21.0609 11.0953 21.075 11.1656L21.1031 11.2969H19.7109C18.6422 11.2969 18.3234 11.2828 18.3094 11.2359C18.3 11.2078 18.2578 10.9781 18.2109 10.7344C17.7469 8.27344 15.7266 6.25312 13.2656 5.78906C13.0219 5.74219 12.7922 5.7 12.7641 5.69062C12.7172 5.67656 12.7031 5.35781 12.7031 4.28906V2.89687L12.8344 2.925C12.9047 2.93906 13.0875 2.9625 13.2422 2.97656ZM11.2969 7.82812V8.48437H12H12.7031V7.82812C12.7031 7.08281 12.6703 7.125 13.1438 7.24687C14.9438 7.70156 16.2984 9.05625 16.7531 10.8562C16.875 11.3297 16.9172 11.2969 16.1719 11.2969H15.5156V12V12.7031H16.1719C16.9172 12.7031 16.875 12.6703 16.7531 13.1437C16.2984 14.9437 14.9438 16.2984 13.1438 16.7531C12.6703 16.875 12.7031 16.9172 12.7031 16.1719V15.5156H12H11.2969V16.1719C11.2969 16.9172 11.3297 16.875 10.8563 16.7531C9.05625 16.2984 7.70156 14.9437 7.24688 13.1437C7.125 12.6703 7.08281 12.7031 7.82813 12.7031H8.48438V12V11.2969H7.82813C7.08281 11.2969 7.125 11.3297 7.24688 10.8562C7.69688 9.07969 8.99531 7.75781 10.7812 7.26562C11.3344 7.11094 11.2969 7.06875 11.2969 7.82812ZM5.69063 12.7594C5.7 12.7922 5.74219 13.0219 5.78906 13.2656C6.25313 15.7266 8.27344 17.7469 10.7344 18.2109C10.9781 18.2578 11.2078 18.3 11.2406 18.3094C11.2828 18.3234 11.2969 18.6422 11.2969 19.7109V21.1031L11.1703 21.075C11.0953 21.0609 10.9125 21.0375 10.7578 21.0234C10.3406 20.9766 9.36563 20.7328 8.85938 20.5453C6.37031 19.6172 4.38281 17.6297 3.45469 15.1406C3.26719 14.6344 3.02344 13.6594 2.97656 13.2422C2.9625 13.0875 2.93906 12.9047 2.925 12.8297L2.89688 12.7031H4.28906C5.35781 12.7031 5.67656 12.7172 5.69063 12.7594ZM21.075 12.8297C21.0609 12.9047 21.0375 13.0875 21.0234 13.2422C20.9766 13.6594 20.7328 14.6344 20.5453 15.1406C19.6172 17.6297 17.6297 19.6172 15.1406 20.5453C14.6344 20.7328 13.6594 20.9766 13.2422 21.0234C13.0875 21.0375 12.9047 21.0609 12.8344 21.075L12.7031 21.1031V19.7109C12.7031 18.6422 12.7172 18.3234 12.7641 18.3094C12.7922 18.3 13.0219 18.2578 13.2656 18.2109C15.7266 17.7469 17.7469 15.7266 18.2109 13.2656C18.2578 13.0219 18.3 12.7922 18.3094 12.7594C18.3234 12.7172 18.6422 12.7031 19.7109 12.7031H21.1031L21.075 12.8297Z" fill="#6E757D"/>
    <path d="M11.3109 9.98438C10.4297 10.2984 9.89062 11.0672 9.89062 12C9.89062 13.2141 10.7859 14.1094 12 14.1094C13.2141 14.1094 14.1094 13.2141 14.1094 12C14.1094 11.0578 13.5609 10.2891 12.6703 9.97969C12.3188 9.8625 11.6578 9.8625 11.3109 9.98438Z" fill="#6E757D"/>
</svg>
