<svg width="20" height="21" viewBox="0 0 20 21" fill="currentColor" xmlns="http://www.w3.org/2000/svg">
<g clip-path="url(#clip0_263_22105)">
<path d="M12.6562 0.589733C12.5 0.644421 10.6719 1.68739 7.89453 3.30458L3.38672 5.92958H2.58203C2.14062 5.92958 1.66406 5.94911 1.52344 5.97255C0.855469 6.07802 0.300781 6.54677 0.078125 7.19911C0 7.42177 0 7.52333 0 13.2147C0 18.2499 0.0078125 19.0272 0.0585938 19.1991C0.234375 19.785 0.714844 20.2655 1.30078 20.4413C1.47266 20.4921 2.5 20.4999 9.54688 20.4999C18.2578 20.4999 17.7148 20.5116 18.1523 20.2929C18.3945 20.1679 18.7383 19.828 18.875 19.5741C19.0898 19.1874 19.1016 19.0546 19.1016 17.4061V15.8905L19.2891 15.7968C19.5039 15.6874 19.7578 15.4257 19.8906 15.1796L19.9805 15.0116V13.2343V11.4569L19.8867 11.2655C19.7656 11.0272 19.4805 10.7382 19.2656 10.6405L19.1016 10.5663V9.03505C19.1016 7.74208 19.0938 7.47255 19.0391 7.29286C18.8398 6.61708 18.3047 6.11708 17.6562 5.99598L17.4375 5.95302L16.1094 3.6327C14.7031 1.17176 14.5625 0.964733 14.168 0.738171C13.7148 0.484264 13.1328 0.425671 12.6562 0.589733ZM13.625 1.53895C13.7383 1.59364 13.8633 1.68739 13.9062 1.74989L13.9805 1.85536L10.4844 3.89442L6.98438 5.92958L6.15234 5.92177L5.32031 5.91005L9.00781 3.76161C11.0391 2.57801 12.7812 1.57411 12.8828 1.52723C13.1328 1.40614 13.3711 1.41005 13.625 1.53895ZM14.6758 3.05067C14.7852 3.24598 14.8672 3.42176 14.8516 3.43739C14.8359 3.45301 13.8711 4.01942 12.7031 4.69911L10.5859 5.92958L9.75391 5.92177L8.92188 5.91005L11.6797 4.30067C13.1953 3.41786 14.4414 2.6913 14.4531 2.6913C14.4648 2.6913 14.5625 2.85145 14.6758 3.05067ZM15.8398 5.09364C16.0898 5.53505 16.2891 5.90223 16.2812 5.91395C16.2695 5.92177 15.4219 5.92567 14.3945 5.92177L12.5273 5.91005L13.9102 5.10145C14.6719 4.65614 15.3125 4.29286 15.3359 4.28895C15.3594 4.28895 15.5859 4.65223 15.8398 5.09364ZM17.6406 6.97255C17.8477 7.08192 18.0586 7.32802 18.1172 7.52723C18.1484 7.6288 18.1641 8.1288 18.1641 9.08973V10.4999H16.6094C15.1875 10.4999 15.0234 10.5077 14.75 10.578C13.8125 10.8163 13.0742 11.5507 12.8086 12.5116C12.6992 12.9022 12.6914 13.5194 12.7891 13.8983C13.0273 14.8124 13.7266 15.5507 14.6641 15.8632C14.8867 15.9374 15.0156 15.9452 16.5352 15.9569L18.1641 15.9725V17.4061C18.1641 18.8319 18.1641 18.8397 18.0703 19.039C17.9648 19.2616 17.7422 19.4686 17.5391 19.5233C17.4531 19.5468 14.5117 19.5624 9.51172 19.5624C1.90625 19.5624 1.61719 19.5585 1.46484 19.4882C1.37891 19.4491 1.25391 19.3554 1.18359 19.285C0.917969 19.0038 0.9375 19.4491 0.9375 13.2225V7.58583L1.03906 7.3827C1.15625 7.14442 1.39844 6.95692 1.65234 6.90614C1.74219 6.89052 5.33984 6.8788 9.64844 6.8827L17.4805 6.88661L17.6406 6.97255ZM18.8281 11.496C19.0586 11.6171 19.0625 11.6444 19.0625 13.2343C19.0625 14.8397 19.0625 14.8515 18.8125 14.9686C18.6953 15.0233 18.4766 15.0311 17.043 15.0311C16.1445 15.0311 15.3047 15.0116 15.1758 14.9921C15.0469 14.9725 14.8203 14.8944 14.668 14.8202C13.5625 14.2733 13.3281 12.8397 14.1992 11.9647C14.4336 11.7304 14.6914 11.5819 15.0117 11.496C15.3242 11.414 18.668 11.414 18.8281 11.496Z" fill="currentColor"/>
<path d="M15.1436 12.3522C14.671 12.528 14.4327 13.0162 14.5733 13.5201C14.6202 13.6881 14.8389 13.9537 15.003 14.0358C15.4718 14.278 16.0421 14.11 16.2647 13.6569C16.4991 13.1881 16.3311 12.6373 15.8858 12.4069C15.6827 12.3053 15.3389 12.278 15.1436 12.3522Z" fill="currentColor"/>
</g>
<defs>
<clipPath id="clip0_263_22105">
<rect width="20" height="20" fill="white" transform="translate(0 0.5)"/>
</clipPath>
</defs>
</svg>