<svg width="49" height="48" viewBox="0 0 49 48" fill="none" xmlns="http://www.w3.org/2000/svg">
<g clip-path="url(#clip0_256_28585)">
<path d="M21.6406 0.112499C17.4313 0.581249 12.9875 2.4375 9.55625 5.1375C8.6 5.8875 6.59375 7.875 5.79688 8.86875C3.60313 11.5781 1.98125 14.85 1.15625 18.2062C0.621875 20.3812 0.546875 21.1031 0.546875 23.9531C0.546875 26.7094 0.603125 27.3 1.03438 29.25C2.7125 36.8719 8.2625 43.4344 15.4719 46.3031C18.4906 47.5031 21.1438 48 24.5 48C28.4563 48 31.8594 47.2125 35.225 45.525C37.775 44.2406 39.725 42.8062 41.75 40.725C45.4344 36.9281 47.7125 32.1937 48.3594 27C48.5469 25.4719 48.5469 22.5281 48.3594 21C47.825 16.7156 46.0625 12.4969 43.3719 9.06562C42.5844 8.0625 40.0438 5.57812 39.0219 4.80937C35.6281 2.26875 31.6438 0.65625 27.5 0.140625C26.2156 -0.0187531 22.9156 -0.0375023 21.6406 0.112499ZM27.2188 3.24375C34.7656 4.19062 41.4406 9.49687 44.1219 16.6875C45.575 20.5781 45.8188 25.1062 44.7969 29.1187C42.9219 36.45 37.2594 42.2062 29.9563 44.2125C26.4875 45.1594 22.5125 45.1594 19.0438 44.2125C11.8156 42.225 6.18125 36.5531 4.25 29.325C3.35938 25.9781 3.35938 22.0219 4.25 18.675C5.23438 15 7.2125 11.625 9.93125 9C14.5906 4.49062 20.7781 2.4375 27.2188 3.24375Z" fill="#2475FF"/>
<path d="M19.9254 10.6871C19.3723 11.0246 19.2504 11.3527 19.2504 12.4871V13.4996H17.4973C15.5285 13.4996 15.3129 13.5559 14.9379 14.1746C14.6848 14.5965 14.6848 15.4027 14.9379 15.8246C15.2754 16.3777 15.6035 16.4996 16.7473 16.4996H17.7504V23.9996V31.4996H16.7473C15.6035 31.4996 15.2754 31.6215 14.9379 32.1746C14.6848 32.5965 14.6848 33.4027 14.9379 33.8246C15.3129 34.4434 15.5285 34.4996 17.4973 34.4996H19.2504V35.5027C19.2504 36.6465 19.3723 36.9746 19.9254 37.3121C20.3473 37.5652 21.1535 37.5652 21.5754 37.3121C22.1285 36.9746 22.2504 36.6465 22.2504 35.5027V34.4996H23.7504H25.2504V35.5027C25.2504 36.6465 25.3723 36.9746 25.9254 37.3121C26.3473 37.5652 27.1535 37.5652 27.5754 37.3121C28.1473 36.9652 28.2504 36.6652 28.2504 35.3246V34.134L28.9254 33.7777C30.2941 33.0652 31.5035 31.4996 31.8598 29.9902C32.0473 29.1934 32.0379 27.6934 31.8504 26.9621C31.6535 26.1934 31.0723 25.0965 30.5379 24.4871L30.1066 23.9996L30.5379 23.5027C31.0723 22.9027 31.6535 21.8059 31.8504 21.0371C32.0379 20.3059 32.0473 18.8059 31.8598 18.009C31.5035 16.4996 30.2941 14.934 28.9254 14.2215L28.2504 13.8652V12.6746C28.2504 11.6527 28.2223 11.4371 28.0629 11.1746C27.7816 10.7246 27.3598 10.4996 26.7504 10.4996C26.141 10.4996 25.7191 10.7246 25.4379 11.1746C25.2785 11.4371 25.2504 11.6527 25.2504 12.4871V13.4996H23.7504H22.2504V12.4871C22.2504 11.6527 22.2223 11.4371 22.0629 11.1746C21.7816 10.7246 21.3598 10.4996 20.7504 10.4996C20.4035 10.4996 20.1316 10.5559 19.9254 10.6871ZM26.366 16.5934C27.0973 16.7152 27.5848 16.959 28.0629 17.4371C28.7004 18.0746 28.8598 18.4777 28.8598 19.4996C28.8598 20.5215 28.7004 20.9246 28.0629 21.5621C27.2379 22.3871 26.666 22.4996 23.2629 22.4996H20.7504V19.4996V16.4996H23.2629C24.641 16.4996 26.0379 16.5465 26.366 16.5934ZM26.366 25.5934C27.0973 25.7152 27.5848 25.959 28.0629 26.4371C28.7004 27.0746 28.8598 27.4777 28.8598 28.4996C28.8598 29.5215 28.7004 29.9246 28.0629 30.5621C27.2379 31.3871 26.666 31.4996 23.2629 31.4996H20.7504V28.4996V25.4996H23.2629C24.641 25.4996 26.0379 25.5465 26.366 25.5934Z" fill="#2475FF"/>
</g>
<defs>
<clipPath id="clip0_256_28585">
<rect width="48" height="48" fill="white" transform="translate(0.5)"/>
</clipPath>
</defs>
</svg>
