<svg width="21" height="21" viewBox="0 0 21 21" fill="none" xmlns="http://www.w3.org/2000/svg">
<path d="M9.77331 0.0553856C9.07442 0.170263 8.51869 0.354889 7.87875 0.674904C6.26206 1.49135 5.09585 2.98066 4.67063 4.76946C4.54432 5.30692 4.51485 6.41877 4.61589 7.03009C4.83061 8.3799 5.61791 9.78304 6.63255 10.62C6.902 10.8416 6.93568 10.9072 6.78411 10.9072C6.74201 10.9072 6.47256 10.9728 6.18627 11.0508C3.90438 11.6867 1.95088 12.8191 0.990969 14.0622C0.532064 14.6612 0.220514 15.3628 0.0689497 16.1218C-0.0236732 16.6059 -0.0236732 18.8091 0.0731598 19.1661C0.296297 20.0112 1.02044 20.7169 1.88352 20.9344C2.11507 20.9918 2.80975 21 8.19872 21H14.2487L14.4297 20.8974C14.9518 20.5979 14.9686 19.7856 14.4592 19.4738L14.2992 19.3794L8.32081 19.3589C2.5824 19.3384 2.33821 19.3343 2.19507 19.2604C1.98877 19.1538 1.90457 19.0758 1.79931 18.8871C1.71511 18.7312 1.7109 18.6696 1.7109 17.6973C1.71511 16.3516 1.80352 15.9536 2.26243 15.2479C2.89816 14.2756 4.64115 13.2499 6.57361 12.7124C7.7777 12.376 8.73761 12.2365 10.2575 12.1791C11.4026 12.1339 11.811 12.0929 12.3078 11.9698C14.6529 11.3954 16.4043 9.60252 16.9179 7.25574C17.0274 6.7593 17.0274 5.37257 16.9179 4.87613C16.5895 3.37042 15.7475 2.08215 14.5013 1.16724C13.7771 0.63798 12.7078 0.198984 11.7942 0.0553856C11.31 -0.0184631 10.2196 -0.0184631 9.77331 0.0553856ZM11.6216 1.74162C13.4067 2.05343 14.8802 3.4853 15.2212 5.24538C15.3054 5.67617 15.3054 6.4557 15.2212 6.88649C14.8802 8.64658 13.4319 10.0538 11.6216 10.3944C11.1669 10.4764 10.4006 10.4764 9.94592 10.3944C8.13556 10.0538 6.68728 8.64658 6.34626 6.88649C6.26206 6.4516 6.26206 5.67617 6.34626 5.24538C6.71675 3.32939 8.40922 1.83599 10.3838 1.68418C10.8469 1.64726 11.1627 1.66367 11.6216 1.74162Z" fill="white"/>
<path d="M16.572 13.104C16.476 13.16 16.356 13.28 16.3 13.376L16.2 13.548V14.872V16.2H14.872H13.548L13.376 16.3C13.124 16.448 13 16.68 13 17C13 17.32 13.124 17.552 13.376 17.7L13.548 17.8H14.872H16.2V19.128V20.452L16.3 20.624C16.448 20.876 16.68 21 17 21C17.32 21 17.552 20.876 17.7 20.624L17.8 20.452V19.128V17.8H19.128H20.452L20.624 17.7C20.876 17.552 21 17.32 21 17C21 16.68 20.876 16.448 20.624 16.3L20.452 16.2H19.128H17.8V14.872V13.548L17.7 13.376C17.552 13.124 17.32 13 16.996 13C16.792 13 16.704 13.02 16.572 13.104Z" fill="white"/>
</svg>
