<svg width="43" height="43" viewBox="0 0 43 43" fill="none" xmlns="http://www.w3.org/2000/svg">
<path d="M36.8563 0.775913C35.4969 1.10404 35.7875 0.841539 27.3781 9.23216C23.1031 13.4978 19.5594 17.0884 19.4844 17.2197C19.3438 17.5009 18.0312 23.5853 18.0312 23.9884C18.0312 24.6634 18.65 25.3478 19.325 25.4415C19.7188 25.4978 25.8688 24.2322 26.2812 24.0165C26.7125 23.7822 41.9938 8.39779 42.2656 7.91029C42.8938 6.81342 43.0719 5.21029 42.6875 3.98216C41.9469 1.58216 39.3594 0.166538 36.8563 0.775913ZM38.8438 3.89779C39.4062 4.19779 39.7156 4.67591 39.7625 5.30404C39.8188 6.05404 39.6688 6.31654 38.6094 7.37592L37.7188 8.26654L36.4813 7.01966L35.2344 5.78216L36.125 4.89154C36.6125 4.40404 37.1375 3.94466 37.2969 3.86029C37.6906 3.66341 38.45 3.68216 38.8438 3.89779ZM34.2969 9.25092L35.5156 10.4697L30.125 15.8603L24.7344 21.2415L23.1969 21.5697C22.3438 21.7572 21.6406 21.8978 21.6313 21.879C21.6125 21.8697 21.7531 21.1572 21.9313 20.3134L22.25 18.7665L27.6219 13.3947C30.5656 10.4509 33.0031 8.03217 33.0313 8.03217C33.0594 8.03217 33.6313 8.58529 34.2969 9.25092Z" fill="#2475FF"/>
<path d="M6.35813 1.83512C4.29563 2.34137 2.5425 3.74762 1.62375 5.64137C0.761254 7.42262 0.836254 6.03512 0.798754 21.2039C0.780004 29.8101 0.808129 34.9851 0.864379 35.6695C1.0425 37.6476 1.74563 39.1101 3.16125 40.4507C3.77063 41.0226 4.155 41.2945 4.83 41.6226C6.53625 42.457 5.15813 42.3914 21.2175 42.3914C37.2394 42.3914 35.9269 42.4476 37.5769 41.6414C39.0581 40.9195 40.1363 39.8414 40.8581 38.3601C41.655 36.7382 41.6081 37.5445 41.6081 25.8257V15.4476L41.4113 15.1851C41.055 14.707 40.6519 14.5007 40.0613 14.5007C39.4331 14.5007 39.0019 14.7445 38.7394 15.2507C38.5706 15.5601 38.5613 16.0195 38.5613 25.432C38.5613 32.0789 38.5238 35.4632 38.4581 35.8382C38.2425 37.0289 37.38 38.2382 36.3394 38.8101C35.3175 39.3632 35.9081 39.3445 21.2456 39.3445C11.73 39.3445 7.68 39.3164 7.32375 39.2414C5.56125 38.8664 4.20188 37.3851 3.9675 35.5945C3.84563 34.6476 3.84563 9.34449 3.9675 8.40699C4.155 7.00074 5.055 5.75387 6.35813 5.11637L7.01438 4.79762L17.4675 4.75074C27.7988 4.70387 27.9206 4.70387 28.2488 4.50699C28.7644 4.20699 28.9988 3.78512 28.9988 3.16637C28.9988 2.54762 28.7831 2.12574 28.3238 1.84449C28.0238 1.65699 27.8363 1.65699 17.5144 1.66637C7.88625 1.66637 6.95813 1.68512 6.35813 1.83512Z" fill="#2475FF"/>
</svg>
