<svg width="50" height="50" viewBox="0 0 50 50" fill="none" xmlns="http://www.w3.org/2000/svg">
<rect width="50" height="50" rx="25" fill="white"/>
<path d="M29.6619 13L29.3769 13.4166L24.8649 20.0334L20.9544 21.2029C20.436 21.3611 19.9966 21.7036 19.7037 22.1642L16.4582 27.243L18.5164 34.3084L22.2685 33.4753C22.3635 33.4553 22.4585 33.4212 22.5534 33.3952C23.4717 33.0828 24.2751 32.52 24.8807 31.745L25.3557 31.0561L27.5088 32.5781L27.9204 32.8665L28.2212 32.4339L37.3719 19.008L37.6727 18.5915L37.2452 18.3031L30.0893 13.2884L29.6619 13ZM29.931 14.4259L36.2637 18.8638L32.7016 24.0868C33.1349 22.6028 32.4423 20.8084 30.9126 19.745C30.0359 19.1362 29.0167 18.8518 28.0312 18.9439C27.4494 18.998 26.925 19.1802 26.4797 19.4726L29.931 14.4259ZM32.0366 17.486C31.7655 17.484 31.5043 17.6101 31.34 17.8545C31.0768 18.243 31.1758 18.7877 31.5617 19.0561C31.9476 19.3244 32.47 19.2203 32.7332 18.8318C32.9964 18.4433 32.8975 17.9146 32.5116 17.6462C32.3671 17.5461 32.1989 17.488 32.0366 17.486ZM25.1815 21.3792C25.0331 22.0921 25.1281 22.8752 25.4506 23.6061L25.8464 23.2537C26.3075 22.8732 26.8973 22.6769 27.4929 22.6769C28.1638 22.6769 28.7971 22.9272 29.2819 23.3979C30.0735 24.1649 30.2852 25.3204 29.8835 26.2977C30.5504 26.2397 31.15 26.0033 31.6408 25.6248L27.6671 31.4406L25.9414 30.239L28.7278 26.2817C29.2305 25.6348 29.1711 24.7036 28.5853 24.1348C28.0094 23.5761 27.113 23.5441 26.4955 24.0547L23.63 26.474L22.4426 25.753L25.1815 21.3792ZM15.4134 27.3071L12.3262 28.2684L14.8751 37L17.9781 36.0387L15.4134 27.3071Z" fill="#2475FF"/>
</svg>
