<svg width="50" height="50" viewBox="0 0 50 50" fill="none" xmlns="http://www.w3.org/2000/svg">
<rect width="50" height="50" rx="25" fill="#2475FF"/>
<g clip-path="url(#clip0_498_21308)">
<path d="M21.3439 13.7969C19.6236 13.9656 18.1236 15.1656 17.6032 16.7969C17.2751 17.8328 17.322 19.0094 17.7298 19.9141L17.8704 20.2188H20.2892H22.7126L22.6845 20.0875C22.5345 19.3094 22.6751 18.2594 23.0454 17.3734C23.3642 16.6234 24.0439 15.7469 24.6439 15.3203C24.7845 15.2172 24.897 15.1 24.8923 15.0625C24.8736 14.9547 24.3017 14.5188 23.8751 14.2938C23.3454 14.0172 22.8157 13.8578 22.2345 13.7969C21.972 13.7734 21.7423 13.7547 21.7236 13.7547C21.7095 13.7594 21.5361 13.7781 21.3439 13.7969Z" fill="white"/>
<path d="M27.3443 14.9688C25.4552 15.1516 23.8802 16.5672 23.4724 18.4562C23.3927 18.8219 23.3646 19.6469 23.4255 19.9937L23.4584 20.2188H27.7943C31.8771 20.2188 32.1302 20.2141 32.163 20.1344C32.1818 20.0922 32.1959 19.7359 32.1959 19.3516C32.1912 18.6297 32.149 18.3766 31.9334 17.7906C31.2584 15.9437 29.3552 14.7766 27.3443 14.9688Z" fill="white"/>
<path d="M14.9448 17.0359C14.4994 17.1672 14.0166 17.6219 13.8666 18.0578C13.7635 18.3578 13.7776 18.85 13.8901 19.1594C13.9979 19.4453 14.2885 19.7969 14.5463 19.9609C14.8885 20.1766 15.151 20.2188 16.1307 20.2188C16.9791 20.2188 17.0401 20.2141 17.0073 20.1344C16.6229 19.1875 16.5385 18.2641 16.7307 17.1578L16.7635 16.9844L15.9244 16.9891C15.4604 16.9891 15.0244 17.0125 14.9448 17.0359Z" fill="white"/>
<path d="M32.4062 17.0125C32.4062 17.0266 32.4719 17.1859 32.5516 17.3687C32.6313 17.5516 32.7484 17.9031 32.8188 18.1516C32.9266 18.55 32.9406 18.6953 32.9406 19.4125L32.9453 20.2188H33.9906H35.0312V18.7375V17.2562L34.8953 17.1203L34.7594 16.9844H33.5828C32.9359 16.9844 32.4062 16.9984 32.4062 17.0125Z" fill="white"/>
<path d="M13.7969 23.1062V25.8531L15.2406 25.8344C16.9422 25.8156 16.8203 25.8531 17.3734 25.1734L17.7297 24.7375L17.5891 24.4609C17.3969 24.0625 17.3688 23.7344 17.4953 23.3125C17.5844 23.0219 17.6406 22.9328 17.8891 22.6797C18.2406 22.3281 18.5594 22.1875 19.0234 22.1875C19.6703 22.1875 20.2703 22.6 20.4953 23.1953C20.6453 23.5844 20.6172 24.1187 20.4344 24.475C20.0828 25.1687 19.3375 25.5062 18.5969 25.3047L18.2875 25.2203L18.1422 25.4031C17.1719 26.5844 17.1578 26.5938 15.1469 26.5938H13.7969V27.4141V28.2344H17.2328H20.6641L20.7766 27.9719C20.9922 27.4797 21.5125 27.0953 22.0563 27.0344C22.6656 26.9641 23.3359 27.3531 23.6266 27.9437C23.7391 28.1687 23.7578 28.2719 23.7578 28.5859C23.7578 28.9187 23.7391 29.0031 23.6031 29.275C23.3031 29.8844 22.7969 30.1797 22.1172 30.1469C21.8125 30.1328 21.6906 30.1 21.4891 29.9922C21.1844 29.8234 20.8609 29.4766 20.7531 29.1953L20.6734 28.9844H17.2375H13.7969V29.8047V30.625H15.2172C16.7875 30.625 16.9234 30.6437 17.3078 30.9109C17.425 30.9906 17.6734 31.2344 17.8516 31.4547C18.3156 32.0125 18.2875 31.9937 18.5078 31.9141C18.7891 31.8156 19.2766 31.825 19.5813 31.9375C19.9234 32.0687 20.2703 32.4016 20.4391 32.7578C20.5469 32.9922 20.5703 33.1 20.5703 33.4141C20.5703 33.7469 20.5516 33.8312 20.4156 34.1031C20.1531 34.6422 19.7031 34.9375 19.0938 34.975C18.6344 34.9984 18.3016 34.8812 17.9547 34.5625C17.4297 34.0844 17.2891 33.3953 17.5844 32.7672L17.7297 32.4531L17.3688 32.0219C16.7969 31.3422 16.9891 31.3984 15.2688 31.3844L13.7969 31.3703V33.1516C13.7969 34.8625 13.8016 34.9469 13.9 35.2047C14.0359 35.575 14.425 35.9641 14.7953 36.1L15.0672 36.2031H25.1406H35.2141L35.3078 36.0812C35.4062 35.9594 35.4062 35.9125 35.4062 33.4844V31.0141L34.2016 30.9859C33.2875 30.9672 32.9359 30.9437 32.7672 30.8875C31.9703 30.6297 31.3516 30.0109 31.1172 29.2328C31.0141 28.9 31.0281 28.2625 31.1406 27.8922C31.3188 27.3156 31.75 26.8047 32.3031 26.5094C32.7672 26.2609 33.0484 26.2188 34.2953 26.2188H35.4062V23.7203C35.4062 21.2687 35.4062 21.2172 35.3125 21.1187C35.2563 21.0625 35.2094 21.0109 35.2047 21.0062C35.2 20.9969 30.6391 20.9828 25.0703 20.9687L14.9453 20.9453L14.6641 20.8328C14.5094 20.7719 14.2609 20.6406 14.1063 20.5422C13.9563 20.4391 13.825 20.3594 13.8156 20.3594C13.8063 20.3594 13.7969 21.5969 13.7969 23.1062Z" fill="white"/>
<path d="M18.6723 23.0361C18.377 23.1533 18.1895 23.4533 18.1895 23.8095C18.1895 24.1002 18.302 24.3205 18.527 24.4705C19.0848 24.8455 19.8113 24.4752 19.8113 23.8095C19.8113 23.4486 19.6191 23.1533 19.3145 23.0361C19.1504 22.9752 18.8316 22.9752 18.6723 23.0361Z" fill="white"/>
<path d="M33.0009 27.0203C32.5603 27.1234 32.1384 27.4656 31.9415 27.8828C31.7728 28.2344 31.7493 28.8203 31.8946 29.1953C32.0353 29.575 32.4196 29.9641 32.7946 30.1C33.0524 30.1984 33.1415 30.2031 34.5337 30.2031H36.0009L36.0993 30.0953C36.2024 29.9875 36.2024 29.9594 36.2024 28.6234C36.2024 27.8734 36.1884 27.2219 36.1743 27.1797C36.0993 26.9875 35.9446 26.9687 34.529 26.9734C33.7884 26.9781 33.0993 26.9969 33.0009 27.0203Z" fill="white"/>
<path d="M21.925 27.8174C21.7516 27.8643 21.4516 28.1784 21.4094 28.3518C21.3578 28.5487 21.4188 28.9377 21.5172 29.069C21.6813 29.2893 21.8453 29.3737 22.1359 29.3971C22.6047 29.4299 22.9375 29.1721 23.0125 28.7127C23.1063 28.1174 22.5297 27.6393 21.925 27.8174Z" fill="white"/>
<path d="M18.5784 32.697C18.119 33.011 18.0487 33.6063 18.419 33.9813C18.944 34.5016 19.8206 34.1266 19.8112 33.386C19.8065 33.072 19.6425 32.8048 19.3659 32.6595C19.1643 32.5563 18.7612 32.5751 18.5784 32.697Z" fill="white"/>
</g>
<defs>
<clipPath id="clip0_498_21308">
<rect width="24" height="24" fill="white" transform="translate(13 13)"/>
</clipPath>
</defs>
</svg>
