<svg width="24" height="24" viewBox="0 0 24 24" fill="none" xmlns="http://www.w3.org/2000/svg">
<g clip-path="url(#clip0_498_21215)">
<path d="M14.25 0.121875C14.0297 0.225 13.4578 0.773437 10.2094 4.02187C8.12344 6.10312 6.42188 7.81875 6.42188 7.8375C6.42188 7.86094 8.28281 7.875 10.5609 7.875H14.7047L16.7859 5.66719C17.9297 4.45312 18.8719 3.44531 18.8812 3.42656C18.8859 3.40781 18.1594 2.66719 17.2641 1.77656C15.4453 -0.0328126 15.4922 -4.76837e-07 14.8406 -4.76837e-07C14.5828 -4.76837e-07 14.4469 0.0281248 14.25 0.121875Z" fill="#2475FF"/>
<path d="M18.2115 6.10318C17.3349 7.03599 16.613 7.81412 16.6036 7.83755C16.5943 7.8563 17.0911 7.87505 17.7052 7.87037L18.8208 7.86568L19.2661 7.38755C19.5099 7.12505 20.0068 6.59537 20.363 6.21568L21.0193 5.52662L20.4568 4.96412C20.1521 4.65943 19.8802 4.4063 19.8521 4.4063C19.8286 4.41099 19.088 5.17037 18.2115 6.10318Z" fill="#2475FF"/>
<path d="M21.2906 7.18594L20.6719 7.85156L21.9 7.87969C22.6922 7.89375 23.1797 7.92188 23.2641 7.95937C23.3391 7.99219 23.4234 8.01562 23.4516 8.01562C23.4797 8.01562 23.1703 7.67812 22.7578 7.26562C22.3453 6.85312 21.9891 6.51562 21.9609 6.51562C21.9375 6.52031 21.6328 6.82031 21.2906 7.18594Z" fill="#2475FF"/>
<path d="M1.00313 9.28594C0.604688 9.39844 0.159375 9.85313 0.046875 10.2563C0.01875 10.3688 0 12.5531 0 16.6219C0 22.0031 0.009375 22.8422 0.0703125 23.0484C0.164062 23.3578 0.50625 23.7422 0.820313 23.8875L1.05469 24H12H22.9453L23.1797 23.8875C23.4984 23.7422 23.8406 23.3578 23.9297 23.0438C23.9906 22.8281 24 22.0031 23.9906 16.5188L23.9766 10.2422L23.8406 9.99375C23.6859 9.7125 23.4844 9.52031 23.1891 9.36563L22.9922 9.25781L12.0703 9.24844C5.59688 9.24375 1.0875 9.25781 1.00313 9.28594ZM6.39375 12.1125C6.68438 12.2016 6.90469 12.375 7.06406 12.6469L7.19531 12.8672V14.2266V15.5859L7.06875 15.8016C6.91406 16.0641 6.67031 16.2563 6.38438 16.3406C6.07031 16.4391 3.48281 16.4344 3.15938 16.3359C2.86875 16.2516 2.56875 15.9984 2.44219 15.7359C2.34844 15.5438 2.34375 15.4547 2.34375 14.2359C2.34375 12.8109 2.35313 12.7641 2.625 12.45C2.77969 12.2766 2.9625 12.1594 3.1875 12.0891C3.25313 12.0703 3.95156 12.0516 4.73906 12.0516C5.85 12.0469 6.22031 12.0609 6.39375 12.1125ZM5.67188 20.2734V20.9531H3.96094H2.25V20.2734V19.5938H3.96094H5.67188V20.2734ZM11.0156 20.2734V20.9531H9.30469H7.59375V20.2734V19.5938H9.30469H11.0156V20.2734ZM16.4062 20.2734V20.9531H14.6953H12.9844V20.2734V19.5938H14.6953H16.4062V20.2734ZM21.75 20.2734V20.9531H20.0391H18.3281V20.2734V19.5938H20.0391H21.75V20.2734Z" fill="#2475FF"/>
<path d="M3.70312 14.2266V15.0469H4.78125H5.85938V14.2266V13.4062H4.78125H3.70312V14.2266Z" fill="#2475FF"/>
</g>
<defs>
<clipPath id="clip0_498_21215">
<rect width="24" height="24" fill="white"/>
</clipPath>
</defs>
</svg>
