<svg width="24" height="24" viewBox="0 0 24 24" fill="none" xmlns="http://www.w3.org/2000/svg">
<g clip-path="url(#clip0_498_21200)">
<path d="M8.34387 0.796875C6.62356 0.965625 5.12356 2.16563 4.60324 3.79688C4.27512 4.83281 4.32199 6.00938 4.72981 6.91406L4.87043 7.21875H7.28918H9.71262L9.68449 7.0875C9.53449 6.30938 9.67512 5.25938 10.0454 4.37344C10.3642 3.62344 11.0439 2.74688 11.6439 2.32031C11.7845 2.21719 11.897 2.1 11.8923 2.0625C11.8736 1.95469 11.3017 1.51875 10.8751 1.29375C10.3454 1.01719 9.81574 0.857813 9.23449 0.796875C8.97199 0.773438 8.74231 0.754688 8.72356 0.754688C8.70949 0.759376 8.53606 0.778125 8.34387 0.796875Z" fill="#2475FF"/>
<path d="M14.3443 1.96875C12.4552 2.15156 10.8802 3.56719 10.4724 5.45625C10.3927 5.82187 10.3646 6.64687 10.4255 6.99375L10.4584 7.21875H14.7943C18.8771 7.21875 19.1302 7.21406 19.163 7.13437C19.1818 7.09219 19.1959 6.73594 19.1959 6.35156C19.1912 5.62969 19.149 5.37656 18.9334 4.79062C18.2584 2.94375 16.3552 1.77656 14.3443 1.96875Z" fill="#2475FF"/>
<path d="M1.94475 4.03594C1.49944 4.16719 1.01663 4.62187 0.866626 5.05781C0.763501 5.35781 0.777563 5.85 0.890063 6.15937C0.997875 6.44531 1.2885 6.79687 1.54631 6.96094C1.8885 7.17656 2.151 7.21875 3.13069 7.21875C3.97913 7.21875 4.04006 7.21406 4.00725 7.13437C3.62288 6.1875 3.5385 5.26406 3.73069 4.15781L3.7635 3.98437L2.92444 3.98906C2.46038 3.98906 2.02444 4.0125 1.94475 4.03594Z" fill="#2475FF"/>
<path d="M19.4062 4.0125C19.4062 4.02656 19.4719 4.18594 19.5516 4.36875C19.6313 4.55156 19.7484 4.90312 19.8188 5.15156C19.9266 5.55 19.9406 5.69531 19.9406 6.4125L19.9453 7.21875H20.9906H22.0312V5.7375V4.25625L21.8953 4.12031L21.7594 3.98437H20.5828C19.9359 3.98437 19.4062 3.99844 19.4062 4.0125Z" fill="#2475FF"/>
<path d="M0.796875 10.1062V12.8531L2.24063 12.8344C3.94219 12.8156 3.82031 12.8531 4.37344 12.1734L4.72969 11.7375L4.58906 11.4609C4.39688 11.0625 4.36875 10.7344 4.49531 10.3125C4.58438 10.0219 4.64063 9.93281 4.88906 9.67969C5.24063 9.32812 5.55938 9.1875 6.02344 9.1875C6.67031 9.1875 7.27031 9.6 7.49531 10.1953C7.64531 10.5844 7.61719 11.1187 7.43438 11.475C7.08281 12.1687 6.3375 12.5062 5.59688 12.3047L5.2875 12.2203L5.14219 12.4031C4.17188 13.5844 4.15781 13.5938 2.14688 13.5938H0.796875V14.4141V15.2344H4.23281H7.66406L7.77656 14.9719C7.99219 14.4797 8.5125 14.0953 9.05625 14.0344C9.66563 13.9641 10.3359 14.3531 10.6266 14.9437C10.7391 15.1687 10.7578 15.2719 10.7578 15.5859C10.7578 15.9187 10.7391 16.0031 10.6031 16.275C10.3031 16.8844 9.79688 17.1797 9.11719 17.1469C8.8125 17.1328 8.69063 17.1 8.48906 16.9922C8.18438 16.8234 7.86094 16.4766 7.75313 16.1953L7.67344 15.9844H4.2375H0.796875V16.8047V17.625H2.21719C3.7875 17.625 3.92344 17.6437 4.30781 17.9109C4.425 17.9906 4.67344 18.2344 4.85156 18.4547C5.31563 19.0125 5.2875 18.9937 5.50781 18.9141C5.78906 18.8156 6.27656 18.825 6.58125 18.9375C6.92344 19.0687 7.27031 19.4016 7.43906 19.7578C7.54688 19.9922 7.57031 20.1 7.57031 20.4141C7.57031 20.7469 7.55156 20.8312 7.41563 21.1031C7.15313 21.6422 6.70312 21.9375 6.09375 21.975C5.63438 21.9984 5.30156 21.8812 4.95469 21.5625C4.42969 21.0844 4.28906 20.3953 4.58438 19.7672L4.72969 19.4531L4.36875 19.0219C3.79688 18.3422 3.98906 18.3984 2.26875 18.3844L0.796875 18.3703V20.1516C0.796875 21.8625 0.801563 21.9469 0.9 22.2047C1.03594 22.575 1.425 22.9641 1.79531 23.1L2.06719 23.2031H12.1406H22.2141L22.3078 23.0812C22.4062 22.9594 22.4062 22.9125 22.4062 20.4844V18.0141L21.2016 17.9859C20.2875 17.9672 19.9359 17.9437 19.7672 17.8875C18.9703 17.6297 18.3516 17.0109 18.1172 16.2328C18.0141 15.9 18.0281 15.2625 18.1406 14.8922C18.3188 14.3156 18.75 13.8047 19.3031 13.5094C19.7672 13.2609 20.0484 13.2188 21.2953 13.2188H22.4062V10.7203C22.4062 8.26875 22.4062 8.21719 22.3125 8.11875C22.2563 8.0625 22.2094 8.01094 22.2047 8.00625C22.2 7.99687 17.6391 7.98281 12.0703 7.96875L1.94531 7.94531L1.66406 7.83281C1.50938 7.77187 1.26094 7.64062 1.10625 7.54219C0.95625 7.43906 0.825 7.35937 0.815625 7.35937C0.80625 7.35937 0.796875 8.59687 0.796875 10.1062Z" fill="#2475FF"/>
<path d="M5.67227 10.0361C5.37695 10.1533 5.18945 10.4533 5.18945 10.8095C5.18945 11.1002 5.30195 11.3205 5.52695 11.4705C6.08477 11.8455 6.81133 11.4752 6.81133 10.8095C6.81133 10.4486 6.61914 10.1533 6.31445 10.0361C6.15039 9.97516 5.83164 9.97516 5.67227 10.0361Z" fill="#2475FF"/>
<path d="M20.0009 14.0203C19.5603 14.1234 19.1384 14.4656 18.9415 14.8828C18.7728 15.2344 18.7493 15.8203 18.8946 16.1953C19.0353 16.575 19.4196 16.9641 19.7946 17.1C20.0524 17.1984 20.1415 17.2031 21.5337 17.2031H23.0009L23.0993 17.0953C23.2024 16.9875 23.2024 16.9594 23.2024 15.6234C23.2024 14.8734 23.1884 14.2219 23.1743 14.1797C23.0993 13.9875 22.9446 13.9687 21.529 13.9734C20.7884 13.9781 20.0993 13.9969 20.0009 14.0203Z" fill="#2475FF"/>
<path d="M8.925 14.8174C8.75156 14.8643 8.45156 15.1784 8.40938 15.3518C8.35781 15.5487 8.41875 15.9377 8.51719 16.069C8.68125 16.2893 8.84531 16.3737 9.13594 16.3971C9.60469 16.4299 9.9375 16.1721 10.0125 15.7127C10.1063 15.1174 9.52969 14.6393 8.925 14.8174Z" fill="#2475FF"/>
<path d="M5.57841 19.697C5.11903 20.011 5.04872 20.6063 5.41903 20.9813C5.94403 21.5016 6.82059 21.1266 6.81122 20.386C6.80653 20.072 6.64247 19.8048 6.36591 19.6595C6.16434 19.5563 5.76122 19.5751 5.57841 19.697Z" fill="#2475FF"/>
</g>
<defs>
<clipPath id="clip0_498_21200">
<rect width="24" height="24" fill="white"/>
</clipPath>
</defs>
</svg>
