<svg width="54" height="52" viewBox="0 0 54 52" fill="none"
    xmlns="http://www.w3.org/2000/svg">
    <path d="M25.4673 0.0908165C20.9942 0.386906 16.6798 1.96253 13.0949 4.63792C8.07197 8.38136 4.8044 13.859 3.90555 20.0875C3.81038 20.7114 3.73636 21.4834 3.73636 21.8112V22.4034L3.049 22.8264C1.82234 23.6089 0.976368 24.751 0.616829 26.1151C0.384186 26.9716 0.394761 34.2682 0.616829 35.1459C0.860046 36.0658 1.27246 36.7532 2.05498 37.5463C3.56716 39.0796 5.85129 39.6189 7.49037 38.847C8.146 38.5297 8.94967 37.7155 9.26691 37.0176C9.49955 36.5206 9.49955 36.4571 9.49955 30.5987V24.6769L9.20346 24.0847C8.73818 23.1225 7.72301 22.3188 6.76071 22.139L6.35888 22.0544L6.4329 21.2296C6.60209 19.2098 7.32117 16.6508 8.28347 14.6098C10.3138 10.306 13.6765 6.89033 17.9593 4.79654C25.6894 1.01081 34.847 2.39609 41.1813 8.31791C44.7238 11.6384 47.1454 16.5344 47.5789 21.2825L47.653 22.0544L47.2406 22.1284C46.2783 22.3188 45.2631 23.1225 44.7978 24.0847L44.5017 24.6769V30.5987C44.5017 36.4465 44.5017 36.5311 44.7344 37.0176C45.2102 38.0433 46.5849 39.1114 47.4415 39.1114H47.727V40.5601C47.727 42.2097 47.5684 43.024 47.1031 43.9546C46.4792 45.1812 45.3794 46.1012 44.047 46.5136C43.4548 46.6934 43.0636 46.7251 41.0755 46.7251H38.7808L38.6539 46.3867C38.4319 45.7734 37.6282 44.9697 36.8562 44.589L36.1477 44.2401H33.1868H30.2259L29.528 44.5785C28.6926 44.9909 28.0475 45.6571 27.6563 46.4925C27.413 47.0106 27.3708 47.2327 27.3708 48.0998C27.3813 48.9881 27.413 49.1784 27.6774 49.7283C28.0475 50.4897 28.7032 51.1665 29.4117 51.526C30.2259 51.9384 31.1988 52.0442 33.7156 51.9913C35.693 51.949 35.9997 51.9173 36.539 51.7058C37.2898 51.4097 38.2415 50.5743 38.5799 49.8869L38.8337 49.3899L41.5091 49.3476C43.9095 49.3053 44.2585 49.2736 44.8718 49.0727C46.9762 48.3642 48.6258 46.9472 49.5247 45.086C50.1803 43.7219 50.2755 43.2249 50.3389 40.8245L50.4024 38.6778L50.8359 38.4557C51.9146 37.9058 53.1306 36.2879 53.4267 34.9872C53.6065 34.2153 53.5748 26.813 53.3844 26.1151C53.0249 24.751 52.1789 23.6089 50.9523 22.8264L50.2649 22.4034V21.8218C50.2649 20.8912 49.9582 18.9666 49.567 17.4333C48.5624 13.5206 46.5215 9.91468 43.6769 7.03838C40.1873 3.50644 35.9574 1.2646 31.1776 0.408054C30.2153 0.228287 27.117 -0.0466576 26.7363 0.00621796C26.6834 0.00621796 26.1124 0.0485153 25.4673 0.0908165ZM6.38003 24.8038C6.54922 24.899 6.72899 25.0893 6.79244 25.2268C6.96163 25.5969 6.95106 35.6217 6.78186 35.9918C6.64439 36.2879 6.20026 36.5734 5.87244 36.5734C4.95244 36.5734 3.78923 35.7698 3.35567 34.8286C3.10188 34.3105 3.10188 34.2576 3.10188 30.5987C3.10188 26.9293 3.10188 26.8976 3.35567 26.3689C3.57774 25.893 3.94785 25.4806 4.50831 25.047C4.70923 24.899 5.5552 24.6452 5.88302 24.6346C5.99934 24.6241 6.22141 24.6981 6.38003 24.8038ZM49.1651 24.8884C49.6939 25.1105 50.3812 25.7978 50.6456 26.3689C50.8994 26.887 50.8994 26.9399 50.8994 30.5987C50.8994 34.2576 50.8994 34.3105 50.6456 34.8286C50.212 35.7698 49.0488 36.5734 48.1288 36.5734C47.801 36.5734 47.3569 36.2879 47.2194 35.9918C47.0291 35.5688 47.0502 25.5123 47.2406 25.1634C47.5366 24.6241 48.2769 24.5183 49.1651 24.8884ZM35.7565 47.0424C35.9468 47.1587 36.1795 47.4125 36.2746 47.624C36.5073 48.121 36.3381 48.7343 35.8516 49.0727C35.5344 49.3053 35.4075 49.3159 33.3983 49.3476C30.9556 49.3899 30.5855 49.3159 30.1942 48.7343C29.7712 48.121 30.0567 47.2221 30.7546 46.9366C30.871 46.8837 31.9707 46.8414 33.1868 46.8414C35.2277 46.8309 35.4392 46.852 35.7565 47.0424Z" fill="white"/>
    <path d="M17.4412 12.5252C16.0453 12.8636 14.6918 13.9105 14.0256 15.1689C13.3699 16.3955 13.3594 16.5436 13.3594 23.2056C13.3594 26.7799 13.4017 29.4764 13.4651 29.8148C13.6343 30.7031 14.2688 31.8874 14.9456 32.5642C15.8338 33.463 17.3566 34.1398 18.4564 34.1398H18.8582V35.8529C18.8582 37.3545 18.8899 37.64 19.0803 38.0525C19.5033 38.9936 20.2541 39.5118 21.3115 39.6069C22.4324 39.7127 22.6122 39.5858 25.552 36.7095L28.1851 34.1398H32.066C35.1643 34.1398 36.0632 34.1081 36.5496 33.9812C38.5165 33.4736 40.0181 31.9509 40.4834 30.0051C40.716 29.0005 40.716 17.4953 40.4834 16.4907C40.0287 14.5555 38.4425 12.9693 36.5073 12.5146C35.5345 12.2926 18.3929 12.2926 17.4412 12.5252ZM36.1478 15.1794C36.8351 15.4121 37.5859 16.1629 37.8186 16.8502C37.9772 17.305 37.9984 18.0346 37.9984 23.2479C37.9984 29.7196 37.9984 29.6879 37.3533 30.4704C37.1735 30.6819 36.8034 30.9886 36.5391 31.1578L36.042 31.4433L31.5478 31.5067C29.0733 31.5385 27.0324 31.5702 27.0007 31.5808C26.9796 31.5913 25.7317 32.8286 24.2301 34.3196L21.5019 37.0373V34.8483C21.5019 31.6548 21.4596 31.5913 19.2812 31.4962C18.0757 31.4433 17.8959 31.401 17.4623 31.1472C17.1874 30.9886 16.8279 30.6819 16.6481 30.4704C16.003 29.6879 16.003 29.7196 16.003 23.2479C16.003 16.533 15.9819 16.7022 16.849 15.8351C17.7161 14.9679 17.1663 15.0208 26.9584 15.0102C34.7942 14.9997 35.6825 15.0208 36.1478 15.1794Z" fill="white"/>
    <path d="M19.8953 21.7698C19.2291 22.1293 19.0176 22.5417 19.0176 23.4617C19.0176 24.1279 19.0599 24.3077 19.2608 24.6038C20.0856 25.7564 21.9785 25.5661 22.5707 24.2654C22.9514 23.43 22.7081 22.4783 21.9785 21.9178C21.4498 21.516 20.4875 21.4525 19.8953 21.7698Z" fill="white"/>
    <path d="M26.2069 21.7044C26.0377 21.789 25.7628 21.9794 25.6041 22.1486C24.4621 23.3752 25.3292 25.3633 26.9894 25.3633C28.6708 25.3633 29.5379 23.3752 28.3959 22.1486C27.8565 21.5775 26.9154 21.3872 26.2069 21.7044Z" fill="white"/>
    <path d="M32.3408 21.7046C31.7275 21.9795 31.2305 22.7726 31.2305 23.4811C31.241 23.9993 31.5794 24.6655 32.0341 25.0039C32.3831 25.2682 32.5206 25.3105 33.1339 25.3105C34.4134 25.3105 35.1008 24.5809 35.0162 23.3119C34.9739 22.5294 34.6884 22.0747 34.0856 21.768C33.6098 21.5248 32.8167 21.4931 32.3408 21.7046Z" fill="white"/>
</svg>
