<svg width="36" height="36" viewBox="0 0 36 36" fill="none" xmlns="http://www.w3.org/2000/svg">
<path d="M17.1413 3.10078C14.4975 3.44531 12.3249 5.53359 11.8116 8.22656C11.6991 8.79609 11.7202 10.0266 11.8467 10.6312C12.4444 13.5422 15.0038 15.6094 17.9991 15.6094C20.9944 15.6094 23.5538 13.5422 24.1514 10.6312C24.278 10.0266 24.2991 8.79609 24.1866 8.22656C23.9194 6.82734 23.3217 5.73047 22.2671 4.73203C21.3249 3.83906 20.0944 3.2625 18.7655 3.09375C18.1046 3.01641 17.8163 3.01641 17.1413 3.10078ZM19.2085 5.41406C20.896 5.93437 22.0842 7.54453 22.0842 9.30937C22.0772 10.4695 21.6905 11.4258 20.8749 12.2344C20.1085 13.0078 19.0819 13.4297 17.9991 13.4297C16.9163 13.4297 15.8897 13.0078 15.1233 12.2344C14.3147 11.4258 13.921 10.4695 13.9139 9.31641C13.9139 7.34062 15.3553 5.625 17.3171 5.27344C17.8163 5.18906 18.6811 5.25234 19.2085 5.41406Z" fill="white"/>
<path d="M6.07304 8.96439C3.09882 9.61126 1.46757 12.8667 2.76835 15.5738C3.75272 17.6409 5.99569 18.6956 8.19647 18.1402C11.1004 17.4019 12.584 14.1886 11.2551 11.4956C10.3058 9.5761 8.13319 8.51438 6.07304 8.96439ZM8.04882 11.2777C9.19491 11.798 9.82772 13.155 9.45507 14.287C8.70272 16.5511 5.73554 16.7409 4.73007 14.5894C4.56132 14.2308 4.53319 14.0761 4.53319 13.5699C4.53319 13.0355 4.56132 12.9159 4.76522 12.5011C4.99725 12.023 5.44022 11.5589 5.86913 11.3339C6.516 10.9964 7.38788 10.9753 8.04882 11.2777Z" fill="white"/>
<path d="M27.947 8.97187C24.9657 9.63984 23.3907 12.9516 24.7478 15.6937C25.5423 17.2969 27.1525 18.2812 28.9665 18.2812C31.5751 18.2812 33.6704 16.193 33.6775 13.5844C33.6845 11.5453 32.3064 9.68203 30.3376 9.07031C29.6837 8.8664 28.615 8.82422 27.947 8.97187ZM29.5642 11.1375C30.3236 11.3344 30.8861 11.7984 31.2306 12.5016C31.4345 12.9164 31.4626 13.0359 31.4626 13.5703C31.4626 14.0766 31.4345 14.2312 31.2657 14.5898C30.8368 15.5109 29.9439 16.1016 28.9665 16.1016C27.5251 16.1016 26.365 14.8711 26.4493 13.4437C26.5407 11.8687 28.0736 10.7367 29.5642 11.1375Z" fill="white"/>
<path d="M14.3776 16.1436C13.8292 16.2139 13.2808 16.3545 12.8589 16.5232C11.8886 16.917 10.8972 17.7467 10.3839 18.6186C10.18 18.949 10.1378 18.9842 9.98312 18.942C9.66671 18.8506 4.77999 18.8295 4.28781 18.9139C2.46671 19.2303 0.842495 20.6506 0.223745 22.4787L0.0339016 23.0271L0.0128078 26.6764C-0.00828592 30.2131 -0.00125467 30.3326 0.13937 30.7615C0.519058 31.9006 1.5175 32.7373 2.68468 32.9061C3.27531 32.9975 32.7222 32.9975 33.3128 32.9061C34.48 32.7373 35.4784 31.9006 35.8581 30.7615C35.9987 30.3326 36.0058 30.2131 35.9847 26.6764L35.9636 23.0271L35.7737 22.4787C35.155 20.6506 33.5308 19.2303 31.7097 18.9139C31.2175 18.8295 26.3308 18.8506 26.0144 18.942C25.8597 18.9842 25.8175 18.949 25.6136 18.6186C25.1073 17.7607 24.1089 16.917 23.1737 16.5373C22.2245 16.1506 22.2386 16.1506 18.28 16.1365C16.248 16.1225 14.4972 16.1295 14.3776 16.1436ZM21.5847 18.3514C22.7237 18.5342 23.7011 19.3709 24.1019 20.517C24.2003 20.8123 24.2144 21.424 24.2355 25.8186L24.2636 30.7967H17.9987H11.7339L11.762 25.8186C11.7831 21.424 11.7972 20.8123 11.8956 20.517C12.2894 19.399 13.2737 18.5342 14.3425 18.3584C14.8909 18.274 21.0222 18.267 21.5847 18.3514ZM9.40656 21.0654L9.56124 21.1076V25.9521V30.8037L6.20734 30.7826L2.8464 30.7615L2.61437 30.5998C2.12921 30.2553 2.14328 30.3396 2.14328 26.824C2.14328 23.6811 2.14328 23.66 2.31203 23.1818C2.62843 22.2537 3.42296 21.4592 4.32296 21.1709C4.70265 21.0443 4.96281 21.0303 6.99484 21.0303C8.23234 21.0232 9.31515 21.0443 9.40656 21.0654ZM31.6464 21.1639C32.5675 21.4521 33.362 22.2396 33.6855 23.1818C33.8542 23.66 33.8542 23.6811 33.8542 26.824C33.8542 30.3396 33.8683 30.2553 33.3831 30.5998L33.1511 30.7615L29.7972 30.7826L26.4362 30.8037V25.9521C26.4362 21.3959 26.4433 21.1006 26.5628 21.0725C26.6261 21.0514 27.7019 21.0373 28.9394 21.0303C31.0206 21.0232 31.2386 21.0373 31.6464 21.1639Z" fill="white"/>
</svg>
