<svg width="24" height="24" viewBox="0 0 24 24" fill="none" xmlns="http://www.w3.org/2000/svg">
<path d="M18.6523 4.10338C18.375 4.24791 14.1289 6.46666 9.21875 9.02916C4.30859 11.5917 0.25 13.7245 0.203125 13.7713C0.0585938 13.9003 0 14.0448 0 14.2674C0 14.5096 0.105469 14.7049 0.285156 14.7987C0.386719 14.8495 7.19922 17.1932 7.25 17.1932C7.25781 17.1932 7.26562 18.3846 7.26562 19.8417V22.4901L7.35547 22.662C7.46484 22.8807 7.60156 22.9784 7.82422 23.0018C8.05078 23.0292 8.23828 22.9628 8.38672 22.8065C8.45312 22.7401 9.16797 21.7753 9.98047 20.6698C10.793 19.5643 11.457 18.6542 11.4609 18.6503C11.4648 18.6424 12.6797 19.0565 14.1641 19.5643C16.5195 20.3768 16.8867 20.4901 17.0977 20.494C17.3711 20.494 17.5039 20.4198 17.6328 20.201C17.6914 20.1034 17.957 18.3846 18.8516 12.3768C19.4844 8.13854 20 4.57604 20 4.45885C20 4.06823 19.7656 3.83385 19.375 3.83385C19.1875 3.83385 19.1016 3.8651 18.6523 4.10338ZM18.4102 6.53698C18.4023 6.58776 17.9844 9.40026 17.4805 12.7948C16.9766 16.1854 16.5586 18.9706 16.5469 18.9784C16.5234 19.0018 9.17969 16.5018 9.13281 16.4588C9.10938 16.4354 18.3789 6.45104 18.418 6.45104C18.4219 6.45104 18.418 6.4901 18.4102 6.53698ZM16.1094 7.00573C15.9648 7.15416 8.24609 15.4432 7.78906 15.9393C7.74609 15.9862 7.33594 15.8573 5.00391 15.0604L2.26953 14.1268L2.47266 14.0213C2.58594 13.9628 5.73438 12.3182 9.47266 10.3612C13.2109 8.40807 16.2773 6.80651 16.2891 6.80651C16.2969 6.8026 16.2148 6.89635 16.1094 7.00573ZM9.38281 17.9237C9.84375 18.0838 10.1484 18.2049 10.1406 18.2323C10.1289 18.2635 8.66016 20.2831 8.56641 20.3924C8.5625 20.4003 8.55469 19.7909 8.55469 19.037C8.55469 18.2792 8.56641 17.662 8.58203 17.662C8.59766 17.662 8.95703 17.7792 9.38281 17.9237Z" fill="#181F30"/>
</svg>
