<svg width="81" height="80" viewBox="0 0 81 80" fill="none" xmlns="http://www.w3.org/2000/svg">
<g clip-path="url(#clip0_499_44713)">
<path d="M38.5469 0.207047C37.0938 0.691422 36.4531 1.20705 33.0781 4.53517C27.9219 9.6133 27.7344 9.69142 20.7344 9.69142C17.1562 9.69142 16 9.7383 15.2656 9.9258C12.7188 10.5977 10.8281 12.5977 10.3438 15.1602C10.2656 15.6133 10.1875 17.957 10.1875 20.3789C10.1875 27.2227 10.0938 27.457 5.01562 32.5977C2.03125 35.6133 1.53125 36.1914 1.09375 37.1289C0.609375 38.1445 0.578125 38.3008 0.578125 40.0039C0.578125 41.707 0.609375 41.8633 1.09375 42.8789C1.53125 43.8164 2.03125 44.3945 5 47.4102C10.0938 52.582 10.1875 52.7852 10.1875 59.7852C10.1875 64.707 10.2812 65.4414 11.0781 66.9102C11.5625 67.8008 12.8438 69.0664 13.75 69.5195C15.1406 70.2227 15.9219 70.3164 20.6562 70.3164C27.7188 70.3164 27.9375 70.4102 33.0938 75.5039C36.1094 78.4727 36.6875 78.9727 37.625 79.4102C38.6406 79.8945 38.7969 79.9258 40.5 79.9258C42.2031 79.9258 42.3594 79.8945 43.375 79.4102C44.3125 78.9727 44.8906 78.4727 47.9062 75.5039C53.0625 70.4102 53.2812 70.3164 60.3438 70.3164C65.0781 70.3164 65.8594 70.2227 67.25 69.5195C68.1562 69.0664 69.4375 67.8008 69.9219 66.9102C70.7188 65.4414 70.8125 64.707 70.8125 59.8477C70.8125 52.7852 70.9062 52.5664 76 47.4102C78.9688 44.3945 79.4688 43.8164 79.9062 42.8789C80.3906 41.8633 80.4219 41.707 80.4219 40.0039C80.4219 38.3008 80.3906 38.1445 79.9062 37.1289C79.4688 36.1914 78.9688 35.6133 76 32.5977C70.9062 27.4414 70.8125 27.2227 70.8125 20.1602C70.8125 15.3008 70.7188 14.5664 69.9219 13.0977C69.4375 12.207 68.1562 10.9414 67.25 10.4883C65.8594 9.78517 65.0781 9.69142 60.3438 9.69142C53.2812 9.69142 53.0625 9.59767 47.9062 4.50392C44.875 1.51955 44.3125 1.03517 43.375 0.597672C42.4219 0.144547 42.125 0.0820465 40.7344 0.0507965C39.75 0.0195465 38.9375 0.0820465 38.5469 0.207047ZM47.8125 42.3008L35.2656 54.8477L27.9688 47.5508L20.6562 40.2383L22.9219 37.9727L25.1875 35.707L30.1875 40.707L35.1875 45.707L45.4531 35.4414L55.7344 25.1602L58.0312 27.457L60.3438 29.7695L47.8125 42.3008Z" fill="#00C735"/>
</g>
<defs>
<clipPath id="clip0_499_44713">
<rect width="80" height="80" fill="white" transform="translate(0.5)"/>
</clipPath>
</defs>
</svg>
