<svg width="24" height="24" viewBox="0 0 24 24" fill="none" xmlns="http://www.w3.org/2000/svg">
<path d="M10.3436 15.866C9.7144 19.1637 8.94655 22.3251 6.67114 23.9765C5.9682 18.9923 7.70211 15.249 8.50737 11.2748C7.13426 8.96422 8.67228 4.31394 11.5676 5.45952C15.1302 6.86886 8.48281 14.0507 12.9448 14.9478C17.6044 15.8841 19.5068 6.863 16.6179 3.92966C12.443 -0.306529 4.46581 3.83319 5.44653 9.89816C5.68512 11.3806 7.21676 11.8303 6.05881 13.8771C3.38689 13.2841 2.58983 11.1771 2.69215 8.36774C2.85762 3.76892 6.82376 0.549596 10.8027 0.104002C15.8342 -0.459154 20.5565 1.95078 21.2085 6.68413C21.943 12.0268 18.9378 17.8128 13.5571 17.3964C12.0986 17.283 11.4863 16.5601 10.3436 15.866Z" fill="white"/>
</svg>
