<svg width="50" height="50" viewBox="0 0 50 50" fill="none" xmlns="http://www.w3.org/2000/svg">
<circle cx="25" cy="25" r="25" fill="#F4F5F7"/>
<path d="M30.183 26.2178C29.6788 26.2178 29.2684 25.8074 29.2684 25.3032V20.8404L24.9611 17.0715H21.0367C20.5324 17.0715 20.1221 16.6611 20.1221 16.1568C20.1221 15.6526 20.5324 15.2422 21.0367 15.2422H25.305C25.5263 15.2422 25.7404 15.3227 25.9074 15.4684L30.7855 19.7367C30.9837 19.9105 31.0977 20.1611 31.0977 20.4251V24.3885H34.4513C34.9556 24.3885 35.366 24.7989 35.366 25.3032C35.366 25.8074 34.9556 26.2178 34.4513 26.2178H30.183Z" fill="#181F30"/>
<path d="M25.3047 15.5473C25.4523 15.5473 25.5956 15.6009 25.7065 15.6979L30.5846 19.9662C30.7163 20.082 30.7925 20.2497 30.7925 20.4253V24.0838V24.6936H31.4023H34.4511C34.787 24.6936 35.0608 24.9674 35.0608 25.3034C35.0608 25.6393 34.787 25.9131 34.4511 25.9131H30.1828C29.8468 25.9131 29.573 25.6393 29.573 25.3034V20.979V20.7021L29.3645 20.5198L25.2474 16.9174L25.0754 16.7668H24.8462H21.0364C20.7004 16.7668 20.4267 16.493 20.4267 16.157C20.4267 15.821 20.7004 15.5473 21.0364 15.5473H25.3047ZM25.3047 14.9375H21.0364C20.3632 14.9375 19.8169 15.4838 19.8169 16.157C19.8169 16.8302 20.3632 17.3765 21.0364 17.3765H24.8462L28.9632 20.979V25.3034C28.9632 25.9765 29.5096 26.5229 30.1828 26.5229H34.4511C35.1242 26.5229 35.6706 25.9765 35.6706 25.3034C35.6706 24.6302 35.1242 24.0838 34.4511 24.0838H31.4023V20.4253C31.4023 20.0735 31.2504 19.7393 30.9858 19.5076L26.1078 15.2393C25.8852 15.0448 25.5998 14.9375 25.3047 14.9375ZM14.3291 22.2546H22.8657V22.8643H14.3291V22.2546Z" fill="#181F30"/>
<path d="M14.3291 19.8164H25.9145V20.4262H14.3291V19.8164ZM14.3291 24.6945H24.0852V25.3042H14.3291V24.6945Z" fill="#181F30"/>
<path d="M33.2318 13.4141C32.9515 13.4141 32.674 13.4693 32.4151 13.5765C32.1562 13.6838 31.9209 13.841 31.7227 14.0391C31.5246 14.2373 31.3674 14.4726 31.2601 14.7315C31.1529 14.9904 31.0977 15.2679 31.0977 15.5482C31.0977 15.8285 31.1529 16.106 31.2601 16.3649C31.3674 16.6238 31.5246 16.8591 31.7227 17.0573C31.9209 17.2555 32.1562 17.4127 32.4151 17.5199C32.674 17.6272 32.9515 17.6824 33.2318 17.6824C33.5121 17.6824 33.7896 17.6272 34.0485 17.5199C34.3074 17.4127 34.5427 17.2555 34.7409 17.0573C34.939 16.8591 35.0962 16.6238 35.2035 16.3649C35.3107 16.106 35.3659 15.8285 35.3659 15.5482C35.3659 15.2679 35.3107 14.9904 35.2035 14.7315C35.0962 14.4726 34.939 14.2373 34.7409 14.0391C34.5427 13.841 34.3074 13.6838 34.0485 13.5765C33.7896 13.4693 33.5121 13.4141 33.2318 13.4141Z" fill="#181F30"/>
<path d="M33.2315 13.7191C34.24 13.7191 35.0608 14.5399 35.0608 15.5484C35.0608 16.5569 34.24 17.3777 33.2315 17.3777C32.223 17.3777 31.4022 16.5569 31.4022 15.5484C31.4022 14.5399 32.223 13.7191 33.2315 13.7191ZM33.2315 13.1094C31.8846 13.1094 30.7925 14.2014 30.7925 15.5484C30.7925 16.8947 31.8846 17.9874 33.2315 17.9874C34.5785 17.9874 35.6705 16.8947 35.6705 15.5484C35.6705 14.2014 34.5785 13.1094 33.2315 13.1094Z" fill="#181F30"/>
<path d="M24.1098 25.331C23.5092 25.331 22.958 25.056 22.5982 24.5761C22.4001 24.3121 22.4062 23.9207 22.4464 23.6383C22.586 22.6566 23.2982 21.5335 23.8769 21.0999L28.4763 17.6719L30.7525 19.703C30.9751 19.8877 31.0976 20.1499 31.0976 20.4286V20.5591L25.2403 24.9542C24.911 25.2005 24.5208 25.331 24.1098 25.331Z" fill="#181F30"/>
<path d="M28.4593 18.0639L30.566 19.9426C30.7051 20.0584 30.7868 20.2267 30.7929 20.4066L25.0575 24.7097C24.7825 24.9164 24.4544 25.0255 24.1105 25.0255C23.6069 25.0255 23.1447 24.795 22.8429 24.3926C22.6581 24.1469 22.7026 23.578 22.9563 22.9426C23.2142 22.295 23.6685 21.6377 24.0599 21.3444L28.4593 18.0639ZM28.4935 17.2773L23.6941 20.8548C22.7252 21.581 21.6276 23.7914 22.3544 24.7578C22.7855 25.3316 23.4429 25.6347 24.1099 25.6347C24.5679 25.6347 25.0294 25.4926 25.4233 25.1969L31.4026 20.7109V20.428C31.4026 20.0597 31.2392 19.7103 30.9563 19.4743L28.4935 17.2773Z" fill="#181F30"/>
<path d="M22.8879 35.9762C22.6178 35.9762 22.3604 35.8598 22.1836 35.6567C22.0184 35.4683 21.9373 35.2268 21.9531 34.9775C21.9696 34.7281 22.083 34.5 22.2708 34.3354L27.1202 29.4878C27.2763 29.3518 27.4952 29.2695 27.7214 29.2695C27.9915 29.2695 28.2482 29.386 28.4257 29.5897C28.5909 29.7781 28.672 30.0195 28.6562 30.2689C28.6397 30.5183 28.5263 30.7464 28.3385 30.911L23.4891 35.7592C23.3342 35.8939 23.1147 35.9762 22.8879 35.9762Z" fill="#181F30"/>
<path d="M27.7217 29.5746C27.9034 29.5746 28.0766 29.6533 28.1973 29.7917C28.4266 30.0533 28.3997 30.4533 28.1376 30.6825L28.1223 30.6959L28.1083 30.71L23.2906 35.527C23.1772 35.6209 23.0351 35.6722 22.8876 35.6722C22.7052 35.6722 22.5321 35.5935 22.4119 35.4563C22.1827 35.1947 22.2095 34.7947 22.4717 34.5655L22.4869 34.552L22.501 34.538L27.3187 29.7209C27.4321 29.6264 27.5747 29.5746 27.7217 29.5746ZM27.7217 28.9648C27.4315 28.9648 27.14 29.0661 26.904 29.2728L22.0699 34.1063C21.554 34.5581 21.5016 35.3417 21.9534 35.8575C22.1985 36.1386 22.5424 36.2819 22.8876 36.2819C23.1778 36.2819 23.4693 36.1807 23.7046 35.9746L28.5388 31.1411C29.0546 30.6892 29.1071 29.9057 28.6552 29.3898C28.4107 29.1081 28.0674 28.9648 27.7217 28.9648Z" fill="#181F30"/>
<path d="M21.0367 31.0982C20.5324 31.0982 20.1221 30.6879 20.1221 30.1836C20.1221 29.6793 20.5324 29.269 21.0367 29.269H25.683L22.3867 24.694L22.3373 24.6446C22.0306 24.2397 21.9038 23.7427 21.9745 23.244C22.0459 22.7446 22.3074 22.3031 22.7105 22.0007L23.6062 21.3086L28.4837 29.6482C28.6026 29.8208 28.6587 29.9994 28.6587 30.1836C28.6587 30.6879 28.2483 31.0982 27.744 31.0982H21.0367Z" fill="#181F30"/>
<path d="M23.5181 21.7622L28.2199 29.8018L28.2315 29.8219L28.2449 29.8408C28.3157 29.9439 28.3535 30.0628 28.3535 30.1847C28.3535 30.5207 28.0797 30.7945 27.7437 30.7945H21.0364C20.7004 30.7945 20.4267 30.5207 20.4267 30.1847C20.4267 29.8488 20.7004 29.575 21.0364 29.575H25.087H26.2779L25.5821 28.6085L22.651 24.5396L22.637 24.5195L22.6212 24.5006C22.6023 24.478 22.5821 24.4573 22.5596 24.4353C22.3187 24.1024 22.2187 23.6957 22.2767 23.2872C22.3364 22.8683 22.5553 22.4982 22.901 22.2396L23.5181 21.7622ZM23.6937 20.8555L22.5273 21.7573C21.5584 22.4835 21.3626 23.8591 22.0888 24.8256C22.109 24.8524 22.1346 24.8707 22.1559 24.8957L25.087 28.9652H21.0364C20.3657 28.9652 19.8169 29.514 19.8169 30.1847C19.8169 30.8555 20.3657 31.4042 21.0364 31.4042H27.7437C28.4145 31.4042 28.9632 30.8555 28.9632 30.1847C28.9632 29.9286 28.8821 29.6914 28.7462 29.4945L23.6937 20.8555Z" fill="#181F30"/>
<path d="M23.0154 22.3963L23.4611 22.0519L27.0358 28.1592H25.4992L22.7915 24.4016L22.768 24.3689L22.7394 24.3404L22.7161 24.3171C22.5042 24.0241 22.4181 23.6715 22.4687 23.3144C22.5213 22.9464 22.7128 22.6235 23.0098 22.4006L23.0098 22.4006L23.0154 22.3963Z" fill="#181F30" stroke="#181F30"/>
<mask id="path-14-inside-1_500_51381" fill="white">
<path d="M23.5182 21.7622L27.3762 28.3555H25.4L22.6512 24.5396L22.6365 24.5195L22.6207 24.5006C22.6018 24.4786 22.5823 24.4579 22.5591 24.436C22.3182 24.103 22.2176 23.6963 22.2762 23.2878C22.3359 22.8689 22.5548 22.4988 22.9006 22.2402L23.5182 21.7622ZM23.6939 20.8555L22.5274 21.7573C21.5585 22.4835 21.3628 23.8591 22.089 24.8256C22.1091 24.8524 22.1347 24.8707 22.156 24.8957L25.0871 28.9652H28.439L23.6939 20.8555Z"/>
</mask>
<path d="M23.5182 21.7622L27.3762 28.3555H25.4L22.6512 24.5396L22.6365 24.5195L22.6207 24.5006C22.6018 24.4786 22.5823 24.4579 22.5591 24.436C22.3182 24.103 22.2176 23.6963 22.2762 23.2878C22.3359 22.8689 22.5548 22.4988 22.9006 22.2402L23.5182 21.7622ZM23.6939 20.8555L22.5274 21.7573C21.5585 22.4835 21.3628 23.8591 22.089 24.8256C22.1091 24.8524 22.1347 24.8707 22.156 24.8957L25.0871 28.9652H28.439L23.6939 20.8555Z" fill="#181F30"/>
<path d="M23.5182 21.7622L24.3813 21.2571L23.8064 20.2746L22.9062 20.9714L23.5182 21.7622ZM27.3762 28.3555V29.3555H29.1199L28.2393 27.8504L27.3762 28.3555ZM25.4 28.3555L24.5886 28.94L24.8879 29.3555H25.4V28.3555ZM22.6512 24.5396L23.4626 23.9551L23.4599 23.9515L22.6512 24.5396ZM22.6365 24.5195L23.4453 23.9313L23.4249 23.9034L23.4027 23.8769L22.6365 24.5195ZM22.6207 24.5006L23.3869 23.8579L23.3785 23.8481L22.6207 24.5006ZM22.5591 24.436L21.7489 25.0221L21.8036 25.0977L21.8714 25.1619L22.5591 24.436ZM22.2762 23.2878L23.2661 23.4296L23.2661 23.429L22.2762 23.2878ZM22.9006 22.2402L23.4994 23.0411L23.5061 23.0361L23.5126 23.031L22.9006 22.2402ZM23.6939 20.8555L24.557 20.3505L23.9824 19.3684L23.0822 20.0643L23.6939 20.8555ZM22.5274 21.7573L23.1271 22.5575L23.1331 22.553L23.139 22.5484L22.5274 21.7573ZM22.089 24.8256L22.889 24.2256L22.8884 24.2249L22.089 24.8256ZM22.156 24.8957L22.9675 24.3113L22.9434 24.2778L22.9166 24.2465L22.156 24.8957ZM25.0871 28.9652L24.2757 29.5497L24.575 29.9652H25.0871V28.9652ZM28.439 28.9652V29.9652H30.1827L29.3021 28.4602L28.439 28.9652ZM22.6551 22.2672L26.5131 28.8605L28.2393 27.8504L24.3813 21.2571L22.6551 22.2672ZM27.3762 27.3555H25.4V29.3555H27.3762V27.3555ZM26.2113 27.771L23.4626 23.9551L21.8398 25.1241L24.5886 28.94L26.2113 27.771ZM23.4599 23.9515L23.4453 23.9313L21.8278 25.1077L21.8424 25.1278L23.4599 23.9515ZM23.4027 23.8769L23.3869 23.858L21.8545 25.1432L21.8704 25.1621L23.4027 23.8769ZM23.3785 23.8481C23.3391 23.8024 23.2964 23.7569 23.2468 23.71L21.8714 25.1619C21.8704 25.161 21.8686 25.1593 21.8665 25.157C21.8655 25.156 21.8646 25.1551 21.864 25.1543C21.8636 25.1539 21.8634 25.1536 21.8632 25.1534C21.8631 25.1533 21.863 25.1533 21.863 25.1532C21.8629 25.1531 21.8629 25.1531 21.8629 25.1531L23.3785 23.8481ZM23.3693 23.8498C23.2806 23.7272 23.2443 23.5816 23.2661 23.4296L21.2863 23.146C21.191 23.8111 21.3559 24.4788 21.7489 25.0221L23.3693 23.8498ZM23.2661 23.429C23.2881 23.2752 23.3649 23.1417 23.4994 23.0411L22.3017 21.4394C21.7448 21.8559 21.3838 22.4625 21.2862 23.1466L23.2661 23.429ZM23.5126 23.031L24.1303 22.553L22.9062 20.9714L22.2885 21.4494L23.5126 23.031ZM23.0822 20.0643L21.9157 20.9662L23.139 22.5484L24.3055 21.6466L23.0822 20.0643ZM21.9276 20.9571C20.5166 22.0147 20.2311 24.0177 21.2895 25.4263L22.8884 24.2249C22.4944 23.7005 22.6003 22.9523 23.1271 22.5575L21.9276 20.9571ZM21.289 25.4256C21.3527 25.5106 21.4168 25.5706 21.4318 25.5849C21.4457 25.5982 21.4391 25.5919 21.4365 25.5892C21.4304 25.5832 21.4147 25.5675 21.3955 25.545L22.9166 24.2465C22.8867 24.2114 22.8598 24.184 22.8423 24.1667C22.8336 24.1581 22.8259 24.1508 22.8212 24.1462C22.8188 24.1439 22.8165 24.1418 22.8152 24.1405C22.8135 24.1389 22.8129 24.1383 22.8123 24.1378C22.8112 24.1367 22.8129 24.1384 22.8159 24.1413C22.819 24.1444 22.8244 24.1498 22.8312 24.1569C22.8448 24.1713 22.8657 24.1945 22.889 24.2256L21.289 25.4256ZM21.3446 25.4802L24.2757 29.5497L25.8986 28.3808L22.9675 24.3113L21.3446 25.4802ZM25.0871 29.9652H28.439V27.9652H25.0871V29.9652ZM29.3021 28.4602L24.557 20.3505L22.8307 21.3605L27.5759 29.4702L29.3021 28.4602Z" fill="#181F30" mask="url(#path-14-inside-1_500_51381)"/>
<path d="M14.6344 20.4262H14.0246C13.8569 20.4262 13.7197 20.289 13.7197 20.1213C13.7197 19.9536 13.8569 19.8164 14.0246 19.8164H14.6344C14.802 19.8164 14.9392 19.9536 14.9392 20.1213C14.9392 20.289 14.802 20.4262 14.6344 20.4262ZM15.2441 22.8652H14.0246C13.8569 22.8652 13.7197 22.728 13.7197 22.5603C13.7197 22.3926 13.8569 22.2554 14.0246 22.2554H15.2441C15.4118 22.2554 15.549 22.3926 15.549 22.5603C15.549 22.728 15.4118 22.8652 15.2441 22.8652ZM14.6344 25.3042H14.0246C13.8569 25.3042 13.7197 25.167 13.7197 24.9993C13.7197 24.8317 13.8569 24.6945 14.0246 24.6945H14.6344C14.802 24.6945 14.9392 24.8317 14.9392 24.9993C14.9392 25.167 14.802 25.3042 14.6344 25.3042Z" fill="#181F30"/>
</svg>
