<svg width="48" height="49" viewBox="0 0 48 49" fill="none" xmlns="http://www.w3.org/2000/svg">
<circle cx="24" cy="24.5" r="24" fill="#F4F5F7"/>
<g clip-path="url(#clip0_500_51457)">
<path d="M10.8674 23.1234L14.4832 12.5982C14.5683 12.351 14.7013 12.1231 14.8747 11.9275C15.048 11.7318 15.2582 11.5723 15.4933 11.458C15.7284 11.3437 15.9837 11.2768 16.2446 11.2613C16.5055 11.2458 16.767 11.2819 17.0139 11.3675L34.6167 17.4139C34.8642 17.4981 35.0928 17.6302 35.2892 17.8028C35.4856 17.9754 35.646 18.1851 35.7613 18.4198C35.8766 18.6544 35.9445 18.9095 35.9611 19.1705C35.9777 19.4314 35.9427 19.6931 35.8581 19.9405L32.2423 30.4657C32.1571 30.7129 32.024 30.9408 31.8506 31.1365C31.6771 31.3322 31.4669 31.4917 31.2317 31.606C30.9966 31.7203 30.7412 31.7871 30.4802 31.8026C30.2192 31.8181 29.9578 31.782 29.7107 31.6964L12.108 25.65C11.8605 25.5658 11.6321 25.4335 11.4357 25.2609C11.2394 25.0883 11.079 24.8786 10.9638 24.6439C10.8486 24.4093 10.7808 24.1542 10.7642 23.8933C10.7477 23.6324 10.7828 23.3707 10.8674 23.1234Z" fill="#F9AA4B"/>
<path d="M11.2964 21.875L12.2272 19.1653L33.6025 26.5083L32.6717 29.218L11.2964 21.875Z" fill="#3E4743"/>
<path d="M25.5786 19.918L25.8112 19.2409L32.4202 21.5114L32.1876 22.1885L25.5786 19.918Z" fill="white"/>
<path d="M26.1313 18.3086L26.3639 17.6316L32.9729 19.9021L32.7403 20.5791L26.1313 18.3086Z" fill="white"/>
<path d="M20.9388 15.7933L20.17 18.0319C20.1492 18.0943 20.1162 18.152 20.0731 18.2016C20.0299 18.2513 19.9774 18.292 19.9186 18.3213C19.8597 18.3507 19.7956 18.3681 19.73 18.3727C19.6643 18.3773 19.5985 18.3689 19.5361 18.348L16.5468 17.321C16.4847 17.2993 16.4275 17.2655 16.3785 17.2216C16.3294 17.1776 16.2896 17.1245 16.2612 17.0651C16.2328 17.0057 16.2165 16.9413 16.2131 16.8756C16.2097 16.8098 16.2193 16.7441 16.2415 16.6821L17.0103 14.4435C17.0314 14.3805 17.0649 14.3224 17.1087 14.2724C17.1525 14.2225 17.2057 14.1817 17.2654 14.1526C17.3251 14.1234 17.3899 14.1063 17.4563 14.1024C17.5226 14.0985 17.589 14.1078 17.6517 14.1298L20.626 15.1511C20.6889 15.1724 20.747 15.2059 20.7969 15.2499C20.8467 15.2938 20.8874 15.3471 20.9165 15.4069C20.9456 15.4666 20.9625 15.5315 20.9664 15.5978C20.9702 15.6641 20.9608 15.7306 20.9388 15.7933Z" fill="#E9F4EF"/>
<path d="M20.9389 15.7944L20.1701 18.033C20.1492 18.0954 20.1163 18.1531 20.0731 18.2028C20.03 18.2524 19.9775 18.2931 19.9186 18.3225C19.8597 18.3518 19.7957 18.3693 19.73 18.3739C19.6644 18.3785 19.5985 18.3701 19.5361 18.3492L16.5469 17.3221C16.4353 17.2829 16.3413 17.2053 16.2817 17.1031C16.2221 17.0009 16.2008 16.8808 16.2217 16.7643C18.308 17.3412 20.2619 16.8223 20.7055 15.5304C20.7378 15.4361 20.7626 15.3401 20.7709 15.2383C20.8546 15.3009 20.916 15.3887 20.9462 15.4888C20.9765 15.5888 20.9739 15.6959 20.9389 15.7944Z" fill="#DEE9E4"/>
<path d="M20.6907 16.5162L20.785 16.2423L19.4212 15.7739C19.4357 15.6513 19.415 15.5271 19.3613 15.416C19.3076 15.3049 19.2233 15.2114 19.1183 15.1466L19.2755 14.6873L19.0024 14.5938L18.8443 15.0522C18.7215 15.0386 18.5973 15.0605 18.4864 15.1152C18.3756 15.1699 18.2827 15.2552 18.2187 15.3609L16.8556 14.8925L16.7613 15.1664L18.0979 15.6257L17.8264 16.4177L16.489 15.9584L16.3955 16.2324L17.7585 16.7008C17.7439 16.8235 17.7648 16.9479 17.8188 17.0591C17.8728 17.1703 17.9576 17.2637 18.0631 17.3281L17.9059 17.7866L18.1798 17.8809L18.3379 17.4216C18.4603 17.4351 18.584 17.4133 18.6944 17.3587C18.8048 17.3042 18.8973 17.2192 18.961 17.1137L20.3249 17.5822L20.4192 17.3082L19.0827 16.8489L19.355 16.0569L20.6907 16.5162ZM18.7599 16.8961C18.7276 16.99 18.6593 17.0673 18.5702 17.111C18.481 17.1547 18.3781 17.1614 18.2841 17.1295H18.2832C18.1895 17.097 18.1125 17.0286 18.0691 16.9394C18.0256 16.8502 18.0193 16.7474 18.0515 16.6536L18.4206 15.5794C18.4342 15.5302 18.4578 15.4842 18.4898 15.4444C18.5218 15.4046 18.5616 15.3718 18.6068 15.3479C18.652 15.324 18.7015 15.3097 18.7525 15.3056C18.8034 15.3016 18.8546 15.3081 18.903 15.3246C18.9513 15.3411 18.9958 15.3673 19.0337 15.4016C19.0715 15.4359 19.102 15.4775 19.1231 15.524C19.1443 15.5705 19.1557 15.6209 19.1568 15.6719C19.1578 15.723 19.1483 15.7738 19.129 15.8211L18.7599 16.8961Z" fill="#BBD1C8"/>
<path opacity="0.2" d="M19.7961 15.1469C19.4841 16.0548 18.016 16.3817 16.5181 15.876L17.0105 14.4435C17.0316 14.3805 17.0651 14.3224 17.1089 14.2724C17.1526 14.2225 17.2059 14.1817 17.2656 14.1526C17.3253 14.1234 17.3901 14.1063 17.4564 14.1024C17.5228 14.0985 17.5892 14.1078 17.6519 14.1298L19.8516 14.8854C19.8451 14.9747 19.8265 15.0627 19.7961 15.1469Z" fill="white"/>
<path d="M37.2415 24.6268V35.7562C37.2415 36.8569 36.3477 37.7424 35.247 37.7424H16.6346C15.5339 37.7424 14.6401 36.8569 14.6401 35.7562V24.6268C14.6401 23.5261 15.5339 22.6406 16.6346 22.6406H35.247C36.3477 22.6406 37.2415 23.5261 37.2415 24.6268Z" fill="#65EFB5"/>
<path d="M34.5005 33.6466C34.5005 34.1477 34.3014 34.6283 33.9471 34.9826C33.5927 35.3369 33.1122 35.536 32.6111 35.536C32.11 35.536 31.6294 35.3369 31.2751 34.9826C30.9208 34.6283 30.7217 34.1477 30.7217 33.6466C30.7207 33.3978 30.769 33.1512 30.8638 32.9211C30.9585 32.6911 31.0979 32.482 31.2739 32.3061C31.4498 32.1301 31.6588 31.9908 31.8889 31.896C32.119 31.8012 32.3656 31.7529 32.6144 31.7539C32.8627 31.7536 33.1087 31.8024 33.3381 31.8975C33.5675 31.9925 33.7758 32.132 33.9511 32.3079C34.1264 32.4838 34.2652 32.6927 34.3595 32.9224C34.4537 33.1522 34.5017 33.3983 34.5005 33.6466Z" fill="#4BE2A3"/>
<path d="M32.2081 33.6466C32.1978 34.1408 31.9942 34.6112 31.6411 34.957C31.288 35.3028 30.8134 35.4965 30.3192 35.4965C29.8249 35.4965 29.3503 35.3028 28.9972 34.957C28.6441 34.6112 28.4405 34.1408 28.4302 33.6466C28.4291 33.3978 28.4773 33.1511 28.572 32.921C28.6668 32.6909 28.8061 32.4818 28.9821 32.3058C29.1581 32.1299 29.3672 31.9905 29.5973 31.8958C29.8274 31.801 30.074 31.7528 30.3229 31.7539C30.5712 31.7536 30.8171 31.8024 31.0464 31.8975C31.2758 31.9926 31.4841 32.1321 31.6593 32.308C31.8345 32.4839 31.9732 32.6928 32.0674 32.9225C32.1616 33.1522 32.2094 33.3983 32.2081 33.6466Z" fill="#3BFFAD"/>
<path d="M37.2414 24.6223V35.7533C37.2414 36.854 36.3476 37.7395 35.2469 37.7395H16.6345C16.0883 37.7395 15.5917 37.5161 15.2358 37.1685C25.4814 36.9202 34.8662 30.9947 36.9351 23.5547C37.1255 23.8609 37.2414 24.225 37.2414 24.6223Z" fill="#59E0A8"/>
<path d="M17.3813 32.1055H24.3695V33.02H17.3813V32.1055ZM17.3813 34.2754H24.3695V35.1899H17.3813V34.2754Z" fill="white"/>
<path d="M14.6401 25.9453H37.2415V28.8104H14.6401V25.9453Z" fill="#05AF68"/>
<path d="M35.9819 25.9453C35.46 26.9677 34.8258 27.9287 34.0908 28.8104H37.2414V25.9453H35.9819Z" fill="#3E4743"/>
<path d="M34.5005 33.6466C34.5005 34.1477 34.3014 34.6283 33.9471 34.9826C33.5927 35.3369 33.1122 35.536 32.6111 35.536C32.11 35.536 31.6294 35.3369 31.2751 34.9826C30.9208 34.6283 30.7217 34.1477 30.7217 33.6466C30.7207 33.3978 30.769 33.1512 30.8638 32.9211C30.9585 32.6911 31.0979 32.482 31.2739 32.3061C31.4498 32.1301 31.6588 31.9908 31.8889 31.896C32.119 31.8012 32.3656 31.7529 32.6144 31.7539C32.8627 31.7536 33.1087 31.8024 33.3381 31.8975C33.5675 31.9925 33.7758 32.132 33.9511 32.3079C34.1264 32.4838 34.2652 32.6927 34.3595 32.9224C34.4537 33.1522 34.5017 33.3983 34.5005 33.6466Z" fill="#3FD093"/>
<path d="M30.3229 35.5395C30.571 35.5393 30.8167 35.4901 31.0458 35.3949C31.2749 35.2996 31.483 35.16 31.6581 34.9842C31.8332 34.8084 31.9719 34.5998 32.0663 34.3703C32.1607 34.1408 32.2089 33.895 32.2081 33.6468C32.2089 33.2443 32.0804 32.8521 31.8413 32.5281C31.6023 32.2042 31.2656 31.9656 30.8807 31.8477C30.1039 32.4379 29.2913 32.9793 28.4476 33.4689C28.4418 33.5285 28.4302 33.5856 28.4302 33.6468C28.4297 33.8955 28.4784 34.1418 28.5734 34.3716C28.6683 34.6015 28.8077 34.8103 28.9836 34.9861C29.1594 35.162 29.3682 35.3014 29.5981 35.3963C29.8279 35.4913 30.0742 35.54 30.3229 35.5395Z" fill="#34F4A4"/>
</g>
<defs>
<clipPath id="clip0_500_51457">
<rect width="26.4828" height="26.4828" fill="white" transform="translate(10.7588 11.2578)"/>
</clipPath>
</defs>
</svg>
