<svg width="22" height="17" viewBox="0 0 22 17" fill="none"
    xmlns="http://www.w3.org/2000/svg">
    <path d="M7.99974 16C4.92426 16 2.69745 16 1.25176 14.0909C-0.193924 12.1818 4.92428 10.75 7.99976 10.75C11.0752 10.75 16.1942 12.1818 14.7481 14.0909C13.3021 15.9999 11.0752 16 7.99974 16Z" stroke="#6E757D" stroke-width="1.5"/>
    <path d="M14.812 13.9992L14.1844 13.5885L13.4253 14.7487L14.8117 14.7492L14.812 13.9992ZM20.7838 12.3446L20.1836 11.8949L20.1836 11.8949L20.7838 12.3446ZM9.58496 10.8537L9.13268 10.2555L7.65517 11.3724L9.49354 11.5982L9.58496 10.8537ZM14.9995 13.2492C14.9365 13.2492 14.8742 13.2492 14.8123 13.2492L14.8117 14.7492C14.874 14.7492 14.9366 14.7492 14.9995 14.7492V13.2492ZM20.1836 11.8949C19.6947 12.5474 19.0828 12.8817 18.2577 13.0591C17.3904 13.2457 16.3426 13.2492 14.9995 13.2492V14.7492C16.2924 14.7492 17.5171 14.7527 18.5731 14.5256C19.6712 14.2894 20.6334 13.7963 21.384 12.7943L20.1836 11.8949ZM14.9995 10.1992C16.2298 10.1992 17.8888 10.494 19.0625 10.9712C19.6654 11.2164 20.032 11.4671 20.1872 11.6618C20.2207 11.7038 20.2365 11.7338 20.2436 11.751C20.2471 11.7593 20.2486 11.7647 20.2491 11.7673C20.2494 11.7686 20.2496 11.7694 20.2496 11.7699C20.2497 11.7703 20.2497 11.7705 20.2497 11.7705C20.2497 11.7706 20.2497 11.7707 20.2497 11.771C20.2497 11.7713 20.2496 11.7721 20.2494 11.7733C20.2491 11.7755 20.248 11.7809 20.2449 11.7897C20.2386 11.8075 20.2227 11.8427 20.1836 11.8949L21.384 12.7943C21.6181 12.4819 21.7623 12.118 21.7488 11.7198C21.7355 11.3264 21.5714 10.9918 21.3601 10.7267C20.9588 10.2233 20.2961 9.8536 19.6275 9.58173C18.2582 9.02491 16.4052 8.69922 14.9995 8.69922V10.1992ZM10.0372 11.452C10.4804 11.117 11.2769 10.7955 12.2378 10.5591C13.1803 10.3273 14.1907 10.1992 14.9995 10.1992V8.69922C14.0542 8.69922 12.923 8.84586 11.8795 9.10252C10.8545 9.35465 9.8207 9.73535 9.13268 10.2555L10.0372 11.452ZM9.49354 11.5982C10.892 11.7699 12.3601 12.1494 13.3269 12.642C13.8219 12.8942 14.0922 13.1297 14.2004 13.3003C14.2465 13.3729 14.2497 13.4123 14.2497 13.4281C14.2497 13.443 14.2467 13.4933 14.1844 13.5885L15.4396 14.4099C15.6329 14.1145 15.7488 13.7846 15.7497 13.4319C15.7506 13.08 15.6369 12.7644 15.467 12.4966C15.1432 11.9864 14.5856 11.5999 14.0079 11.3055C12.8291 10.7049 11.1724 10.2931 9.67638 10.1093L9.49354 11.5982Z" fill="#6E757D"/>
    <ellipse cx="8.00022" cy="4.75" rx="3.88889" ry="3.75" stroke="#6E757D" stroke-width="1.5"/>
    <path d="M11.8465 5.30576L11.1052 5.19156L11.0766 5.37744L11.1391 5.55485L11.8465 5.30576ZM11.7217 3.65878L10.9847 3.51985L10.9498 3.70467L11.0063 3.88406L11.7217 3.65878ZM11.1389 4.75C11.1389 4.90045 11.1274 5.04785 11.1052 5.19156L12.5877 5.41996C12.6215 5.20099 12.6389 4.97723 12.6389 4.75H11.1389ZM11.0063 3.88406C11.0924 4.1575 11.1389 4.44795 11.1389 4.75H12.6389C12.6389 4.29295 12.5684 3.85064 12.437 3.4335L11.0063 3.88406ZM12.4587 3.79771C12.6758 2.64603 13.72 1.75 15 1.75V0.25C13.0122 0.25 11.3378 1.64625 10.9847 3.51985L12.4587 3.79771ZM15 1.75C16.4447 1.75 17.5833 2.88707 17.5833 4.25H19.0833C19.0833 2.02307 17.2371 0.25 15 0.25V1.75ZM17.5833 4.25C17.5833 5.61292 16.4447 6.75 15 6.75V8.25C17.2371 8.25 19.0833 6.47692 19.0833 4.25H17.5833ZM15 6.75C13.8562 6.75 12.8977 6.03311 12.5539 5.05668L11.1391 5.55485C11.6943 7.13176 13.22 8.25 15 8.25V6.75Z" fill="#6E757D"/>
</svg>
