<svg width="24" height="24" viewBox="0 0 24 24" fill="none" xmlns="http://www.w3.org/2000/svg">
<g clip-path="url(#clip0_499_49972)">
<path d="M16.7953 0.43125C16.5656 0.670312 15.9797 1.28437 15.5016 1.8C14.7328 2.61562 14.625 2.74687 14.625 2.88281C14.625 2.96719 14.6672 3.08437 14.7141 3.14531C14.7938 3.24375 14.85 3.25781 15.2297 3.27187L15.6516 3.29062L15.6656 5.27812C15.6797 7.48125 15.6656 7.38281 15.9938 7.43906C16.1344 7.45781 16.1859 7.44375 16.2844 7.34531L16.4063 7.22344V4.97812V2.73281L16.3031 2.63437C16.2422 2.58281 16.125 2.53125 16.0453 2.52187L15.8906 2.50781L16.6172 1.73438C17.0109 1.30781 17.3625 0.960938 17.3906 0.960938C17.4188 0.960938 17.7656 1.30781 18.1641 1.73438C18.8859 2.50781 18.8859 2.50781 18.7359 2.52187C18.6516 2.53125 18.5391 2.58281 18.4828 2.63437L18.375 2.73281V7.43906V12.1406H17.3906H16.4063V10.2281V8.31094L16.2984 8.2125C16.1484 8.07187 15.9188 8.07656 15.7734 8.22656L15.6562 8.33906V10.4906C15.6562 12.6 15.6562 12.6469 15.7547 12.7687L15.8484 12.8906H17.3906H18.9328L19.0266 12.7687C19.125 12.6422 19.125 12.6281 19.125 7.96875V3.29062L19.5516 3.27187C19.9313 3.25781 19.9875 3.24375 20.0672 3.14531C20.1141 3.08437 20.1562 2.97656 20.1562 2.90156C20.1562 2.7375 19.9734 2.52187 18.6 1.07812C17.6391 0.0656242 17.5922 0.0234365 17.4047 0.00937462C17.2172 -0.00468826 17.2031 0.00468731 16.7953 0.43125Z" fill="white"/>
<path d="M11.8316 2.68594C11.7754 2.71875 11.1707 3.3375 10.4816 4.06875C9.19724 5.44219 9.16443 5.47969 9.26287 5.74219C9.31912 5.87813 9.54412 5.95313 9.91443 5.95313H10.266V9.3C10.266 12.6094 10.266 12.6469 10.3644 12.7688L10.4582 12.8906H12.0004H13.5426L13.6363 12.7688C13.7347 12.6469 13.7347 12.6094 13.7347 9.3V5.95313H14.0863C14.4566 5.95313 14.6816 5.87813 14.7379 5.74219C14.8363 5.47969 14.8035 5.44219 13.5191 4.06875C12.3051 2.775 12.1457 2.62969 12.0004 2.62969C11.9629 2.62969 11.8832 2.65313 11.8316 2.68594ZM12.7691 4.39219L13.5051 5.17969L13.3082 5.20781C13.1957 5.22188 13.0832 5.27344 13.0504 5.32031C12.9941 5.39063 12.9847 6.01406 12.9847 8.775V12.1406H12.0004H11.016V8.775C11.016 6.01406 11.0066 5.39063 10.9504 5.32031C10.9176 5.27344 10.8051 5.22188 10.6926 5.20781L10.4957 5.17969L11.2316 4.39219C11.6347 3.96094 11.9816 3.60938 12.0004 3.60938C12.0191 3.60938 12.366 3.96094 12.7691 4.39219Z" fill="white"/>
<path d="M6.26241 5.25937C6.14991 5.37187 5.7046 5.84062 5.26866 6.30469C4.83741 6.76875 4.33585 7.29844 4.16241 7.48125C3.81085 7.85625 3.76397 7.99687 3.9421 8.22187C4.03116 8.33906 4.05928 8.34375 4.45772 8.34375H4.87491V10.4953C4.87491 12.6 4.87491 12.6469 4.97335 12.7687L5.0671 12.8906H6.60928H8.15147L8.24522 12.7687C8.34366 12.6469 8.34366 12.6 8.34366 10.4953V8.34375H8.75616C9.13116 8.34375 9.18272 8.33437 9.27178 8.23594C9.45928 8.03437 9.41241 7.86094 9.0796 7.50937C8.91553 7.33594 8.42803 6.81562 7.99678 6.35156C6.84366 5.11875 6.78272 5.0625 6.60928 5.0625C6.50147 5.0625 6.41241 5.11406 6.26241 5.25937ZM7.92647 7.60781C7.5796 7.67812 7.59366 7.58437 7.59366 9.98906V12.1406H6.60928H5.62491V9.99375C5.62491 7.6125 5.63428 7.67344 5.32022 7.6125C5.23116 7.59844 5.15616 7.575 5.15616 7.56094C5.15616 7.54688 5.48428 7.19062 5.88272 6.77344L6.61397 6.00937L7.3546 6.7875L8.09991 7.57031L7.92647 7.60781Z" fill="white"/>
<path d="M15.4452 13.932C15.3702 13.9602 14.2874 14.518 13.0405 15.1742L10.7765 16.3648L10.4108 16.2477C9.66083 16.0086 9.04208 15.9195 8.15614 15.9195C7.03583 15.9148 6.72645 15.957 6.54833 16.1305C6.43583 16.2477 6.41708 16.2945 6.44051 16.4211C6.48739 16.6695 6.6327 16.7492 6.96083 16.7164C7.64989 16.6461 8.3577 16.632 8.79364 16.6836C9.30926 16.7445 10.1202 16.932 10.4671 17.068C10.678 17.1523 10.8515 17.157 13.139 17.157C15.3749 17.157 15.5999 17.1664 15.7499 17.2414C16.1577 17.443 16.1624 18.0477 15.7593 18.2539C15.6843 18.2914 14.3811 18.4742 12.5858 18.7039C10.6218 18.9523 9.50145 19.1117 9.43583 19.1539C9.31395 19.2289 9.2577 19.4023 9.29989 19.5711C9.31864 19.6367 9.37489 19.7164 9.43583 19.7539C9.49676 19.7961 10.0827 19.8898 10.9452 19.9977C12.253 20.1664 12.4358 20.1758 13.5702 20.1758C14.9108 20.1758 15.3936 20.1195 16.514 19.8336C17.6999 19.5242 18.4405 19.1867 20.8124 17.8602C22.5843 16.8711 22.6874 16.8336 22.9686 17.0258C23.1702 17.1617 23.2499 17.3117 23.2499 17.5648C23.2499 17.7055 23.2171 17.7992 23.128 17.9023C23.053 17.9914 22.4624 18.343 21.4874 18.868C20.653 19.3227 19.9358 19.7398 19.8983 19.7961C19.7343 20.0305 19.9171 20.3633 20.2077 20.3633C20.4093 20.3586 23.3296 18.7742 23.5968 18.5211C23.8733 18.2586 23.9999 17.9539 23.9999 17.5273C23.9999 17.0914 23.8639 16.782 23.5452 16.5055C23.264 16.2523 22.9593 16.1586 22.514 16.1773L22.1577 16.1961L22.0968 15.9805C22.0077 15.6852 21.7171 15.3664 21.4171 15.2352C21.2202 15.1555 21.1077 15.1367 20.8546 15.1508C20.5827 15.1648 20.4702 15.2023 20.0624 15.418C19.5796 15.6664 19.5046 15.6758 19.4999 15.4789C19.4999 15.3617 19.3124 15.0523 19.1436 14.8883C18.9374 14.6867 18.6327 14.5789 18.2765 14.5789C18.0421 14.5789 17.9389 14.6117 17.5593 14.8039L17.1186 15.0336L17.0952 14.8508C17.0436 14.4758 16.7108 14.082 16.3265 13.9414C16.1155 13.8664 15.6421 13.8617 15.4452 13.932ZM16.0921 14.6773C16.3639 14.818 16.4483 15.2023 16.2655 15.4367C16.214 15.5023 15.8155 15.7461 15.3796 15.9805L14.5827 16.407L13.4811 16.3977L12.3796 16.3836L14.053 15.507C15.0608 14.9773 15.778 14.6258 15.8577 14.6258C15.9327 14.6258 16.0358 14.6492 16.0921 14.6773ZM18.6093 15.4555C18.6983 15.5398 18.764 15.6477 18.778 15.7555C18.8249 16.0273 18.6702 16.1492 17.6577 16.6836C17.1561 16.9414 16.7343 17.157 16.7249 17.157C16.7108 17.157 16.6452 17.0727 16.5749 16.9648C16.5046 16.8617 16.3546 16.7164 16.2374 16.6414C16.0874 16.5477 16.0452 16.4961 16.0874 16.4727C16.1202 16.4492 16.603 16.1867 17.1561 15.882C18.2671 15.2773 18.3749 15.2445 18.6093 15.4555ZM21.1968 15.9852C21.3796 16.1258 21.4405 16.318 21.3749 16.5195C21.3139 16.7117 21.3046 16.7211 19.6171 17.6539C18.3702 18.343 17.728 18.6477 17.0202 18.8867C15.8671 19.2711 15.0843 19.407 13.8046 19.4305L12.8202 19.4492L14.3577 19.2477C16.064 19.018 16.1811 18.9805 16.4905 18.6336C16.589 18.5164 16.7061 18.3289 16.7436 18.207L16.814 17.9914L18.8014 16.9414C20.1515 16.2289 20.8358 15.8914 20.9343 15.8914C21.0139 15.8914 21.1358 15.9336 21.1968 15.9852Z" fill="white"/>
<path d="M4.86562 16.6125C4.30312 16.8656 3.76406 17.175 3.20156 17.5594L2.77031 17.8547L1.48594 17.8688C0.295312 17.8828 0.1875 17.8875 0.0984375 17.9719C0 18.0609 0 18.0797 0 20.5828V23.1047L0.121875 23.1984C0.24375 23.2922 0.3 23.2969 1.63594 23.2969C2.98125 23.2969 3.14062 23.3063 6.9375 23.6484C9.39844 23.8688 11.0812 24 11.4703 24C12.8437 24 14.175 23.6109 16.0781 22.6641C16.8141 22.2938 19.1344 21.0375 19.2516 20.9484C19.3359 20.8734 19.3687 20.6672 19.3125 20.5313C19.2609 20.4 19.0969 20.2969 18.9469 20.2969C18.9047 20.2969 18.4266 20.5406 17.8828 20.8406C14.5125 22.6969 13.2609 23.1797 11.6484 23.2313C11.0297 23.2547 10.4859 23.2172 7.00781 22.9031C3.38437 22.575 2.97656 22.5469 1.90781 22.5469H0.75V20.5781V18.6094H1.90312H3.06094L3.37031 18.3844C4.04062 17.8922 4.60781 17.5594 5.27344 17.2641C5.47969 17.175 5.68594 17.0672 5.73281 17.0297C5.84531 16.9219 5.84062 16.6219 5.71875 16.5C5.57812 16.3594 5.36719 16.3828 4.86562 16.6125Z" fill="white"/>
</g>
<defs>
<clipPath id="clip0_499_49972">
<rect width="24" height="24" fill="white"/>
</clipPath>
</defs>
</svg>
