<svg width="20" height="21" viewBox="0 0 20 21" fill="none" xmlns="http://www.w3.org/2000/svg">
<g clip-path="url(#clip0_500_51728)">
<path d="M0.507812 0.785156C0.433594 0.832031 0.332031 0.933594 0.285156 1.00781L0.195312 1.14062L0.203125 3.86328C0.214844 6.54297 0.214844 6.58984 0.296875 6.69922C0.394531 6.83594 0.679688 6.98438 0.84375 6.98438C1.04297 6.98438 1.29297 6.82812 1.39453 6.63281L1.48438 6.46484V4.22266V1.98438H3.72266H5.96484L6.13281 1.89453C6.32812 1.79297 6.48438 1.54297 6.48438 1.34375C6.48438 1.17969 6.33594 0.894531 6.19922 0.796875C6.08984 0.714844 6.04297 0.714844 3.36328 0.703125L0.640625 0.695312L0.507812 0.785156Z" fill="#2475FF"/>
<path d="M13.8865 0.75C13.7381 0.816406 13.6521 0.910156 13.574 1.09766C13.492 1.29297 13.4998 1.43359 13.6053 1.63281C13.6678 1.75 13.7498 1.83203 13.867 1.89453L14.0349 1.98438H16.2771H18.5154V4.22266V6.46484L18.6053 6.63281C18.7068 6.82812 18.9568 6.98438 19.156 6.98438C19.3201 6.98438 19.6053 6.83594 19.7029 6.69922C19.7849 6.58984 19.7849 6.54297 19.7967 3.86328L19.8045 1.14062L19.7146 1.00781C19.6678 0.933594 19.5662 0.832031 19.4959 0.785156L19.3631 0.695312H16.6834C14.5467 0.699219 13.9803 0.707031 13.8865 0.75Z" fill="#2475FF"/>
<path d="M3.86719 4.10156C3.73828 4.16797 3.66797 4.23828 3.60547 4.36719L3.51562 4.53906V6.75391V8.96484L3.60547 9.13281C3.66797 9.25 3.75 9.33203 3.86719 9.39453L4.03516 9.48438H6.25H8.46484L8.63281 9.39453C8.75 9.33203 8.83203 9.25 8.89453 9.13281L8.98438 8.96484V6.75V4.53516L8.89453 4.36719C8.83203 4.25 8.75 4.16797 8.63281 4.10547L8.46484 4.01562H6.25391H4.03906L3.86719 4.10156ZM7.69531 6.75V8.19531H6.25H4.80469V6.75V5.30469H6.25H7.69531V6.75Z" fill="#2475FF"/>
<path d="M11.3672 4.10156C11.2383 4.16797 11.168 4.23828 11.1055 4.36719L11.0156 4.53906V6.75391V8.96484L11.1055 9.13281C11.168 9.25 11.25 9.33203 11.3672 9.39453L11.5352 9.48438H13.75H15.9648L16.1328 9.39453C16.25 9.33203 16.332 9.25 16.3945 9.13281L16.4844 8.96484V6.75V4.53516L16.3945 4.36719C16.332 4.25 16.25 4.16797 16.1328 4.10547L15.9648 4.01562H13.7539H11.5391L11.3672 4.10156ZM15.1953 6.75V8.19531H13.75H12.3047V6.75V5.30469H13.75H15.1953V6.75Z" fill="#2475FF"/>
<path d="M3.86719 11.6016C3.73828 11.668 3.66797 11.7383 3.60547 11.8672L3.51562 12.0391V14.2539V16.4648L3.60547 16.6328C3.66797 16.75 3.75 16.832 3.86719 16.8945L4.03516 16.9844H6.25H8.46484L8.63281 16.8945C8.75 16.832 8.83203 16.75 8.89453 16.6328L8.98438 16.4648V14.25V12.0352L8.89453 11.8672C8.83203 11.75 8.75 11.668 8.63281 11.6055L8.46484 11.5156H6.25391H4.03906L3.86719 11.6016ZM7.69531 14.25V15.6953H6.25H4.80469V14.25V12.8047H6.25H7.69531V14.25Z" fill="#2475FF"/>
<path d="M11.3672 11.6016C11.1719 11.7031 11.0156 11.9492 11.0156 12.1602C11.0156 12.3203 11.1641 12.6055 11.2969 12.7031C11.3672 12.75 11.4883 12.7852 11.6289 12.7969C11.8203 12.8086 11.8789 12.7969 11.9922 12.7188C12.0664 12.668 12.168 12.5664 12.2188 12.4922C12.2969 12.3789 12.3086 12.3203 12.2969 12.1289C12.2852 11.9883 12.25 11.8672 12.2031 11.7969C12.1055 11.6641 11.8203 11.5156 11.6602 11.5156C11.5938 11.5156 11.4609 11.5547 11.3672 11.6016Z" fill="#2475FF"/>
<path d="M15.5465 11.6016C15.2223 11.7695 15.2145 11.793 15.2027 12.7695L15.191 13.625H14.148C13.1051 13.625 13.1051 13.625 12.9645 13.7188C12.6012 13.9648 12.6129 14.5625 12.9801 14.793C13.109 14.8711 13.1676 14.875 14.152 14.875H15.191L15.2027 15.7305C15.2145 16.5234 15.2223 16.5977 15.2965 16.6992C15.3941 16.8359 15.6793 16.9844 15.8434 16.9844C16.0426 16.9844 16.2926 16.8281 16.3941 16.6328L16.484 16.4648V14.25V12.0352L16.3941 11.8672C16.2926 11.6719 16.0426 11.5156 15.8434 11.5156C15.773 11.5156 15.6402 11.5547 15.5465 11.6016Z" fill="#2475FF"/>
<path d="M0.546875 14.1016C0.453125 14.1523 0.339844 14.2422 0.296875 14.3008C0.214844 14.4102 0.214844 14.457 0.203125 17.1367L0.195312 19.8594L0.285156 19.9922C0.332031 20.0664 0.433594 20.168 0.507812 20.2148L0.640625 20.3047L3.36328 20.2969C6.04297 20.2852 6.08984 20.2852 6.19922 20.2031C6.33594 20.1055 6.48438 19.8203 6.48438 19.6562C6.48438 19.457 6.32812 19.207 6.13281 19.1055L5.96484 19.0156H3.72266H1.48438V16.7773V14.5352L1.39453 14.3672C1.29297 14.1719 1.04297 14.0156 0.84375 14.0156C0.773438 14.0156 0.640625 14.0547 0.546875 14.1016Z" fill="#2475FF"/>
<path d="M18.8672 14.1016C18.7383 14.168 18.668 14.2383 18.6055 14.3672L18.5156 14.5391V16.7773V19.0156H16.2773H14.0391L13.8672 19.1055C13.6719 19.2031 13.5156 19.4492 13.5156 19.6602C13.5156 19.8203 13.6641 20.1055 13.8008 20.2031C13.9102 20.2852 13.957 20.2852 16.6367 20.2969L19.3594 20.3047L19.4922 20.2148C19.5664 20.168 19.668 20.0664 19.7148 19.9922L19.8047 19.8594L19.7969 17.1367C19.7852 14.457 19.7852 14.4102 19.7031 14.3008C19.6055 14.1641 19.3203 14.0156 19.1602 14.0156C19.0938 14.0156 18.9609 14.0547 18.8672 14.1016Z" fill="#2475FF"/>
<path d="M11.3669 15.7658C10.9919 15.9533 10.9099 16.4846 11.2145 16.7854C11.6247 17.1955 12.3044 16.9026 12.3044 16.3166C12.3044 15.8557 11.7888 15.551 11.3669 15.7658Z" fill="#2475FF"/>
</g>
<defs>
<clipPath id="clip0_500_51728">
<rect width="20" height="20" fill="white" transform="translate(0 0.5)"/>
</clipPath>
</defs>
</svg>
