<svg width="50" height="56" viewBox="0 0 50 56" fill="none" xmlns="http://www.w3.org/2000/svg">
<path d="M23.9499 0.317699C23.7202 0.492701 22.7249 1.43332 21.7514 2.4177C19.0717 5.15207 19.0717 5.14114 21.9155 8.02864C24.2999 10.4349 24.6827 10.6536 25.7327 10.1724C26.3342 9.90989 26.6405 9.40676 26.6405 8.7177C26.6405 8.09426 26.5311 7.85364 25.9952 7.28489L25.6014 6.85832L26.5858 6.92395C34.4936 7.45989 41.7014 12.7755 44.6764 20.2896C45.5186 22.4224 45.9561 24.4896 46.0983 26.9615C46.1967 28.6896 46.3171 29.0396 46.9296 29.4224C47.2577 29.6193 47.4436 29.663 47.9796 29.6193C48.5592 29.5755 48.6796 29.5208 49.0405 29.1708L49.4452 28.7661L49.4342 26.9833C49.3905 20.0052 45.6499 12.8193 39.7655 8.40051C35.9921 5.5677 31.3655 3.83957 26.7717 3.54426L25.6452 3.4677L25.9624 3.12864C26.5311 2.52707 26.6405 2.27551 26.6405 1.64114C26.6405 0.591137 26.0499 0.000513077 24.9889 0.000513077C24.4858 0.000513077 24.2999 0.0552006 23.9499 0.317699Z" fill="white"/>
<path d="M23.468 14.0664C17.3102 14.843 12.5742 19.207 11.2617 25.2883C10.9883 26.557 10.9883 29.4445 11.2617 30.7133C12.4758 36.368 16.643 40.5352 22.2648 41.7383C23.5445 42.0117 26.432 42.0117 27.7117 41.7383C33.3664 40.5242 37.5227 36.3789 38.7367 30.7133C39.0102 29.4445 39.0102 26.557 38.7367 25.2883C37.5227 19.6336 33.3555 15.4664 27.7336 14.2633C26.9352 14.0992 24.2336 13.968 23.468 14.0664ZM27.4602 17.7086C29.8227 18.2883 31.9992 19.732 33.4867 21.6898C34.1867 22.6086 34.9961 24.3477 35.3023 25.5398C35.6414 26.9289 35.6414 29.0727 35.3023 30.4508C35.0398 31.5117 34.318 33.1414 33.7492 33.9617C33.2352 34.7055 32.0758 35.9086 31.2992 36.4992C30.3914 37.1883 28.6523 38.0086 27.4602 38.3039C26.0711 38.643 23.9273 38.643 22.5383 38.3039C21.3461 38.0086 19.607 37.1883 18.6992 36.4992C17.9227 35.9086 16.7633 34.7055 16.2492 33.9617C15.6805 33.1414 14.9586 31.5117 14.6961 30.4508C14.357 29.0727 14.357 26.9289 14.6961 25.5508C14.9914 24.3914 15.7242 22.7727 16.4023 21.832C16.9492 21.0664 18.2508 19.7758 18.9836 19.2836C20.1977 18.4633 21.707 17.8398 23.2164 17.5555C24.332 17.3477 26.2898 17.4133 27.4602 17.7086Z" fill="white"/>
<path d="M24.2669 19.4688C23.7309 19.7094 23.3591 20.2344 23.3591 20.7484C23.3591 21.0437 23.3153 21.0984 23.0091 21.1641C22.3966 21.2953 21.4122 21.8859 20.9419 22.3891C18.9731 24.5219 19.6841 28.0547 22.32 29.2797C22.9106 29.5531 23.1294 29.5859 24.595 29.6406C26.1591 29.6953 26.2138 29.7063 26.4981 29.9906C26.9138 30.4062 26.8919 30.8984 26.4434 31.3031L26.0934 31.6094H24.4419C22.6919 31.6094 22.4403 31.6641 21.9591 32.1891C21.4013 32.7797 21.445 33.8734 22.0466 34.4641C22.2106 34.6391 22.5825 34.8359 22.8559 34.9125C23.2825 35.0219 23.3591 35.0875 23.3591 35.3281C23.3591 35.9844 24.2341 36.75 24.9997 36.75C25.7981 36.75 26.6403 35.9844 26.6403 35.2625C26.6403 34.9453 26.6841 34.9016 27.1434 34.7812C27.8653 34.5734 28.8716 33.8844 29.3091 33.2828C30.1075 32.2 30.3809 30.7781 30.0419 29.4437C29.7356 28.2188 28.6091 27.0047 27.3622 26.5781C26.8919 26.4031 26.4653 26.3594 25.47 26.3594C24.0153 26.3594 23.5231 26.2063 23.2716 25.6703C23.1513 25.4187 23.1513 25.2984 23.2606 25.0359C23.4794 24.4781 23.8184 24.3906 25.6013 24.3906C27.3075 24.3906 27.5591 24.3359 28.0403 23.8109C28.5981 23.2203 28.5544 22.1266 27.9528 21.5359C27.7888 21.3609 27.4169 21.1641 27.1434 21.0875C26.7169 20.9781 26.6403 20.9125 26.6403 20.6719C26.6403 20.0156 25.7653 19.25 24.9997 19.25C24.8466 19.25 24.5184 19.3484 24.2669 19.4688Z" fill="white"/>
<path d="M1.01368 26.7859L0.554301 27.2234L0.510551 28.2844C0.401176 31.4234 1.3418 35.4594 2.96055 38.7734C6.78868 46.6047 14.6309 51.9094 23.2277 52.4562L24.3543 52.5328L24.0371 52.8719C23.4684 53.4734 23.359 53.725 23.359 54.3594C23.359 55.4094 23.9496 56 25.0106 56C25.809 56 25.9949 55.8578 28.2481 53.5719C29.4512 52.3469 30.0418 51.6688 30.0856 51.45C30.1293 51.275 30.184 51.0672 30.2059 50.9797C30.2277 50.9031 30.1949 50.6297 30.1293 50.3781C30.0309 50.0062 29.6699 49.5906 28.084 47.9719C25.6996 45.5656 25.3168 45.3469 24.2668 45.8281C23.5887 46.1344 23.3371 46.5938 23.3809 47.4469C23.4246 48.0813 23.4574 48.1578 23.9059 48.6281L24.3981 49.1312L23.3699 49.0656C15.4293 48.4969 8.30899 43.225 5.33399 35.7C4.48086 33.5672 4.04336 31.5109 3.90118 29.0391C3.80274 27.3219 3.68243 26.9609 3.0918 26.5891C2.8293 26.425 2.53399 26.3594 2.09649 26.3594C1.52774 26.3594 1.44024 26.3922 1.01368 26.7859Z" fill="white"/>
</svg>
