<svg width="24" height="16" viewBox="0 0 24 16" fill="none" xmlns="http://www.w3.org/2000/svg">
<g clip-path="url(#clip0_10073_655)">
<path d="M0 0H24V16H0V0Z" fill="white"/>
<path d="M0 0H24V1.23041H0V0ZM0 2.46082H24V3.69123H0V2.46082ZM0 4.92164H24V6.15205H0V4.92164ZM0 7.38246H24V8.61287H0V7.38246ZM0 9.84795H24V11.0784H0V9.84795ZM0 12.3088H24V13.5392H0V12.3088ZM0 14.7696H24V16H0V14.7696Z" fill="#D80027"/>
<path d="M0 0H12V8.61287H0V0Z" fill="#2E52B2"/>
<path d="M2.23709 6.49845L2.04995 5.89962L1.84411 6.49845H1.22656L1.72715 6.85869L1.54001 7.45752L2.04995 7.08793L2.54586 7.45752L2.35405 6.85869L2.86399 6.49845H2.23709ZM4.87101 6.49845L4.67919 5.89962L4.4827 6.49845H3.86516L4.36574 6.85869L4.17861 7.45752L4.67919 7.08793L5.18446 7.45752L4.99732 6.85869L5.49791 6.49845H4.87101ZM7.51428 6.49845L7.31311 5.89962L7.12598 6.49845H6.4944L7.00902 6.85869L6.81253 7.45752L7.31311 7.08793L7.82773 7.45752L7.63124 6.85869L8.13183 6.49845H7.51428ZM10.1435 6.49845L9.95639 5.89962L9.7599 6.49845H9.13767L9.64294 6.85869L9.4558 7.45752L9.95639 7.08793L10.4617 7.45752L10.2605 6.85869L10.7751 6.49845H10.1435ZM4.67919 3.52301L4.4827 4.12184H3.86516L4.36574 4.49143L4.17861 5.08091L4.67919 4.716L5.18446 5.08091L4.99732 4.49143L5.49791 4.12184H4.87101L4.67919 3.52301ZM2.04995 3.52301L1.84411 4.12184H1.22656L1.72715 4.49143L1.54001 5.08091L2.04995 4.716L2.54586 5.08091L2.35405 4.49143L2.86399 4.12184H2.23709L2.04995 3.52301ZM7.31311 3.52301L7.12598 4.12184H6.4944L7.00902 4.49143L6.81253 5.08091L7.31311 4.716L7.82773 5.08091L7.63124 4.49143L8.13183 4.12184H7.51428L7.31311 3.52301ZM9.95639 3.52301L9.7599 4.12184H9.13767L9.64294 4.49143L9.4558 5.08091L9.95639 4.716L10.4617 5.08091L10.2605 4.49143L10.7751 4.12184H10.1435L9.95639 3.52301ZM2.04995 1.15576L1.84411 1.74524H1.22656L1.72715 2.11483L1.54001 2.70898L2.04995 2.33939L2.54586 2.70898L2.35405 2.11483L2.86399 1.74524H2.23709L2.04995 1.15576ZM4.67919 1.15576L4.4827 1.74524H3.86516L4.36574 2.11483L4.17861 2.70898L4.67919 2.33939L5.18446 2.70898L4.99732 2.11483L5.49791 1.74524H4.87101L4.67919 1.15576ZM7.31311 1.15576L7.12598 1.74524H6.4944L7.00902 2.11483L6.81253 2.70898L7.31311 2.33939L7.82773 2.70898L7.63124 2.11483L8.13183 1.74524H7.51428L7.31311 1.15576ZM9.95639 1.15576L9.7599 1.74524H9.13767L9.64294 2.11483L9.4558 2.70898L9.95639 2.33939L10.4617 2.70898L10.2605 2.11483L10.7751 1.74524H10.1435L9.95639 1.15576Z" fill="white"/>
</g>
<defs>
<clipPath id="clip0_10073_655">
<rect width="24" height="16" fill="white"/>
</clipPath>
</defs>
</svg>
