<svg width="30" height="29" viewBox="0 0 30 29" fill="none" xmlns="http://www.w3.org/2000/svg">
<path d="M6.12188 0.0687504C5.04063 0.206249 3.85313 0.71875 2.98438 1.425C1.95312 2.25625 1.17188 3.4625 0.809375 4.78125L0.640625 5.40625V14.375V23.3438L0.809375 23.9688C1.43437 26.2188 3.14062 27.925 5.39062 28.55L6.01562 28.7188H14.8906C23.2469 28.7188 23.7969 28.7125 24.2969 28.6062C26.5656 28.1187 28.4281 26.3812 29.0719 24.1625C29.3469 23.225 29.3656 22.6562 29.3469 16.8438L29.3281 11.4062L29.1781 11.1687C28.7906 10.5437 27.9156 10.5312 27.4594 11.15C27.3281 11.3188 27.3281 11.4 27.2969 15.4563L27.2656 19.5875L24.5094 16.4312C22.9906 14.6937 21.6156 13.1562 21.4469 13.0125C21.0969 12.7 20.4156 12.35 19.8906 12.2188C19.4156 12.1 18.5531 12.1 18.0781 12.2188C17.5594 12.35 16.8719 12.7 16.5281 13.0062C16.3656 13.1438 15.3719 14.2437 14.3219 15.4437C13.2719 16.6438 12.4031 17.625 12.3969 17.625C12.3844 17.625 12.0906 17.275 11.7344 16.8438C10.9781 15.9187 10.5719 15.5375 10.0719 15.2688C9.03438 14.7188 7.69688 14.7063 6.64062 15.2312C6.04063 15.5312 5.78438 15.7937 4.28437 17.5938C3.45312 18.5875 2.75312 19.4312 2.72187 19.4688C2.69062 19.5 2.67813 16.575 2.69062 12.5938C2.70938 6.125 2.71563 5.63125 2.82188 5.28125C3.17813 4.1 4.04063 3.0625 5.10938 2.54375C6.12188 2.05 5.91563 2.0625 12.3156 2.0625H17.9656L18.1781 1.91875C18.2906 1.84375 18.4531 1.68125 18.5344 1.5625C18.6594 1.38125 18.6781 1.2875 18.6594 0.981249C18.6281 0.549999 18.4906 0.3375 18.1094 0.137499L17.8344 0L12.1719 0.00625038C9.05937 0.0124989 6.34063 0.0375004 6.12188 0.0687504ZM19.6406 14.3125C19.9906 14.4812 20.0656 14.5625 23.8219 18.8438C26.3969 21.775 27.1719 22.6937 27.1719 22.8187C27.1719 23.1312 26.9219 23.9562 26.6906 24.4C26.3469 25.0375 25.5469 25.8312 24.8906 26.1688C23.8719 26.6937 24.6719 26.6562 14.9531 26.6562C6.77187 26.6562 6.30938 26.65 5.92188 26.5438C4.76562 26.2125 3.68438 25.3312 3.18438 24.3125C2.92188 23.775 2.73438 23.175 2.73438 22.8688C2.73438 22.7438 3.25938 22.0625 4.92812 20.0375C6.19063 18.5 7.21563 17.3062 7.34688 17.225C7.68438 17.0062 8.02187 16.9187 8.39062 16.95C9.03438 17.0062 9.21562 17.15 10.4719 18.6562C11.1031 19.4125 11.7031 20.0813 11.8031 20.15C12.0281 20.2937 12.5156 20.3 12.7719 20.1687C13.0219 20.0375 13.1531 19.8938 15.6656 17.0188C17.8906 14.4625 18.0406 14.3187 18.5781 14.1812C18.8469 14.1125 19.3469 14.175 19.6406 14.3125Z" fill="#6E757D"/>
<path d="M23.8609 0.137437C23.3297 0.412437 23.3297 0.406187 23.3109 2.31869L23.2922 3.99994H21.7172C20.2047 3.99994 20.1234 4.00619 19.8609 4.13744C19.4797 4.33744 19.3422 4.54994 19.3109 4.98119C19.2922 5.28744 19.3109 5.38119 19.4359 5.56244C19.5172 5.68119 19.6797 5.84369 19.7922 5.91869C19.9984 6.05619 20.0422 6.06244 21.6484 6.06244H23.2984V7.71244C23.2984 9.31869 23.3047 9.36244 23.4422 9.56869C23.5172 9.68119 23.6797 9.84369 23.7984 9.92494C23.9797 10.0499 24.0734 10.0687 24.3797 10.0499C24.8109 10.0187 25.0234 9.88119 25.2234 9.49994C25.3547 9.23744 25.3609 9.15619 25.3609 7.64369V6.06869L27.0422 6.04994C28.6297 6.03119 28.7359 6.02494 28.9047 5.89994C29.1234 5.74369 29.3609 5.28744 29.3609 5.02494C29.3609 4.70619 29.1109 4.30619 28.7984 4.14369C28.5359 4.00619 28.4797 3.99994 26.9422 3.99994H25.3609V2.41869C25.3609 0.881187 25.3547 0.824937 25.2172 0.562437C25.0547 0.249937 24.6547 -6.29425e-05 24.3359 -6.29425e-05C24.2234 -6.29425e-05 24.0109 0.0624371 23.8609 0.137437Z" fill="#6E757D"/>
<path d="M7.54815 4.09393C5.17315 4.62518 3.9544 7.18143 5.02315 9.37518C5.4794 10.3064 6.48565 11.0939 7.4919 11.3127C8.06065 11.4377 9.11065 11.3627 9.6294 11.1689C10.6294 10.7814 11.3544 10.0627 11.7669 9.03143C11.9107 8.67518 11.9482 8.46893 11.9732 7.91268C11.9919 7.50018 11.9732 7.10018 11.9232 6.88143C11.6607 5.66268 10.6419 4.56268 9.4294 4.18143C8.88565 4.01893 8.0669 3.97518 7.54815 4.09393ZM8.79815 6.16268C9.2169 6.28768 9.73565 6.78143 9.84815 7.16268C10.2419 8.50018 9.11065 9.63143 7.77315 9.23768C7.3919 9.12518 6.89815 8.60643 6.77315 8.18768C6.64815 7.77518 6.64815 7.66268 6.76065 7.28768C6.9294 6.73143 7.29815 6.35018 7.8419 6.15018C8.16065 6.03768 8.39815 6.04393 8.79815 6.16268Z" fill="#6E757D"/>
</svg>
