<svg width="55" height="16" viewBox="0 0 55 16" fill="none" xmlns="http://www.w3.org/2000/svg">
<path d="M20.1113 15.4899L22.8753 0.499512H27.1941L24.5165 15.4899H20.1113Z" fill="#3C58BF"/>
<path d="M20.1113 15.4899L23.6527 0.499512H27.1941L24.5165 15.4899H20.1113Z" fill="#293688"/>
<path d="M40.151 0.666241C39.2873 0.33312 37.9052 0 36.1777 0C31.859 0 28.7494 2.082 28.7494 5.08008C28.7494 7.32865 30.9088 8.49457 32.6363 9.24409C34.3638 9.99361 34.8821 10.4933 34.8821 11.1595C34.8821 12.1589 33.5001 12.6586 32.2908 12.6586C30.5633 12.6586 29.6132 12.4087 28.1448 11.8258L27.5402 11.5759L26.9355 14.9904C27.9721 15.4068 29.8723 15.8232 31.859 15.8232C36.4369 15.8232 39.46 13.7412 39.46 10.5766C39.46 8.82769 38.3371 7.49521 35.7459 6.41257C34.1911 5.66304 33.241 5.24664 33.241 4.49712C33.241 3.83088 34.0183 3.16464 35.7459 3.16464C37.2142 3.16464 38.2507 3.41448 39.0281 3.7476L39.46 3.91416L40.151 0.666241Z" fill="#3C58BF"/>
<path d="M40.151 0.666241C39.2873 0.33312 37.9052 0 36.1777 0C31.859 0 29.5268 2.082 29.5268 5.08008C29.5268 7.32865 30.9088 8.49457 32.6363 9.24409C34.3638 9.99361 34.8821 10.4933 34.8821 11.1595C34.8821 12.1589 33.5001 12.6586 32.2908 12.6586C30.5633 12.6586 29.6132 12.4087 28.1448 11.8258L27.5402 11.5759L26.9355 14.9904C27.9721 15.4068 29.8723 15.8232 31.859 15.8232C36.4369 15.8232 39.46 13.7412 39.46 10.5766C39.46 8.82769 38.3371 7.49521 35.7459 6.41257C34.1911 5.66304 33.241 5.24664 33.241 4.49712C33.241 3.83088 34.0183 3.16464 35.7459 3.16464C37.2142 3.16464 38.2507 3.41448 39.0281 3.7476L39.46 3.91416L40.151 0.666241Z" fill="#293688"/>
<path fill-rule="evenodd" clip-rule="evenodd" d="M45.3336 1.58215C45.7655 0.582792 46.5429 0.499512 47.5794 0.499512H50.948L54.5758 15.4899H50.4298L49.9115 12.9915H44.3835L43.5197 15.4899H38.8555L45.3336 1.58215ZM47.3201 6.07947C47.3201 6.07947 45.8518 9.74379 45.5926 10.4933V10.5766H49.2204C49.0476 9.74379 48.1839 5.99619 48.1839 5.99619L47.9248 4.58042C47.6656 5.16339 47.3201 6.07947 47.3201 6.07947Z" fill="#3C58BF"/>
<path fill-rule="evenodd" clip-rule="evenodd" d="M46.3701 1.58215C46.802 0.582792 47.5794 0.499512 48.6159 0.499512H50.948L54.5758 15.4899H50.4298L49.9115 12.9915H44.3835L43.5197 15.4899H38.8555L46.3701 1.58215ZM47.3201 6.07947C47.3201 6.07947 45.9381 9.66051 45.5926 10.4933V10.5766H49.2204C49.0476 9.74379 48.1839 5.99619 48.1839 5.99619L47.9248 4.58042C47.6656 5.16339 47.3201 6.07947 47.3201 6.07947Z" fill="#293688"/>
<path d="M12.1637 10.993L11.7318 8.82774C10.9545 6.32933 8.44956 3.58109 5.68555 2.24861L9.57245 15.5734H14.2367L21.2331 0.583008H16.5689L12.1637 10.993Z" fill="#3C58BF"/>
<path d="M12.1637 10.993L11.7318 8.82774C10.9545 6.32933 8.44956 3.58109 5.68555 2.24861L9.57245 15.5734H14.2367L21.2331 0.583008H17.4326L12.1637 10.993Z" fill="#293688"/>
<path d="M0.158203 0.499512L0.935583 0.666072C6.46362 1.91527 10.2641 5.07992 11.7325 8.82752L10.1778 1.74871C9.91864 0.749352 9.14126 0.499512 8.19113 0.499512H0.158203V0.499512Z" fill="#FFBC00"/>
<path d="M0.158203 0.499512C5.68624 1.74871 10.2641 4.99664 11.7325 8.74424L10.2641 2.83135C10.005 1.83199 9.14126 1.24903 8.19113 1.24903L0.158203 0.499512Z" fill="#F7981D"/>
<path d="M0.158203 0.499512C5.68624 1.74871 10.2641 4.99664 11.7325 8.74424L10.696 5.49632C10.4369 4.49695 10.0914 3.49759 8.88214 3.08119L0.158203 0.499512Z" fill="#ED7C00"/>
<path d="M16.484 10.4935L13.5472 7.66201L12.1652 10.8267L11.8197 8.74465C11.0423 6.24625 8.53746 3.49801 5.77344 2.16553L9.66034 15.4903H14.3246L16.484 10.4935Z" fill="#051244"/>
<path d="M24.5165 15.4905L20.8023 11.8262L20.1113 15.4905H24.5165Z" fill="#051244"/>
<path d="M34.4502 10.3271C34.7957 10.6603 34.9685 10.9101 34.8821 11.2432C34.8821 12.2426 33.5001 12.7423 32.2908 12.7423C30.5633 12.7423 29.6132 12.4924 28.1448 11.9095L27.5402 11.6596L26.9355 15.0741C27.9721 15.4905 29.8723 15.9069 31.859 15.9069C34.623 15.9069 36.8687 15.1574 38.1644 13.8249L34.4502 10.3271Z" fill="#051244"/>
<path d="M39.459 15.4903H43.5186L44.3824 12.9919H49.9104L50.4287 15.4903H54.5747L53.1063 9.41081L47.9238 4.58057L48.1829 5.91305C48.1829 5.91305 49.0467 9.66065 49.2194 10.4935H45.5917C45.9372 9.66065 47.3192 6.07961 47.3192 6.07961C47.3192 6.07961 47.6647 5.16353 47.9238 4.58057" fill="#051244"/>
</svg>
