<svg width="28" height="28" viewBox="0 0 28 28" fill="none" xmlns="http://www.w3.org/2000/svg">
<path d="M12.3316 0.0611115C9.87506 0.334671 7.28173 1.41249 5.28475 2.98818C4.72122 3.43135 3.55587 4.59123 3.08535 5.17118C1.8051 6.75234 0.858584 8.66178 0.377122 10.6205C0.0652657 11.8898 0.0214964 12.311 0.0214964 13.9743C0.0214964 15.1943 0.0433811 15.6266 0.119977 16.108C0.355237 17.5469 0.771046 18.8819 1.3674 20.1184C1.54248 20.485 1.6902 20.8078 1.6902 20.8406C1.6902 20.8679 1.30722 22.2576 0.842171 23.9263C0.278641 25.9452 -0.00585938 27.0449 -0.00585938 27.22C-0.00585938 27.6905 0.311468 28.0078 0.781988 28.0078C0.957065 28.0078 2.06771 27.7233 4.10298 27.1543L7.16683 26.2953L7.86167 26.6236C9.15287 27.2364 10.3456 27.6139 11.7243 27.8491C12.6763 28.0133 14.6842 28.0516 15.6964 27.9312C18.9408 27.5373 21.7694 26.1257 24.0673 23.7622C26.2174 21.5464 27.5469 18.7834 27.9244 15.7524C28.0338 14.8606 28.0338 13.1427 27.9244 12.2509C27.6235 9.83261 26.7208 7.58943 25.2326 5.58152C24.7238 4.89762 23.3724 3.50247 22.7159 2.98818C20.7134 1.41249 18.2569 0.389381 15.7511 0.0775261C15.0015 -0.0154839 13.0757 -0.0264263 12.3316 0.0611115ZM15.587 1.77906C17.8137 2.0745 19.9311 2.97177 21.6818 4.36692C23.7718 6.04109 25.2983 8.40464 25.9603 11.0034C26.4363 12.8855 26.4363 15.1178 25.9603 16.9998C24.5706 22.471 19.652 26.3118 14.0277 26.3172C11.9267 26.3172 10.2471 25.9124 8.31031 24.933C7.84526 24.6978 7.41304 24.5063 7.35285 24.5063C7.25984 24.5063 2.63671 25.7756 2.17713 25.9233C2.04036 25.9671 2.0513 25.9342 2.76802 23.3683C3.16741 21.9348 3.49568 20.7148 3.49568 20.6546C3.49568 20.5944 3.28778 20.1239 3.03064 19.615C2.40692 18.3512 2.08412 17.3828 1.81604 15.9713C1.73944 15.55 1.71756 15.1725 1.72303 13.9743C1.72303 12.5955 1.73397 12.4478 1.87075 11.742C3.14006 5.27513 9.12551 0.925556 15.587 1.77906Z" fill="black"/>
<path d="M9.53638 6.49886C9.05492 6.63564 8.73759 6.84355 8.18501 7.37425C7.33698 8.19492 6.88834 8.91165 6.62573 9.89098C6.50536 10.356 6.48895 10.5256 6.48895 11.3463C6.48348 12.0959 6.51083 12.3804 6.60384 12.829C7.02512 14.7767 8.1303 16.7299 9.70599 18.2947C12.9449 21.5117 17.2836 22.4801 19.8331 20.5488C20.331 20.1658 21.1188 19.3233 21.2939 18.9676C21.7042 18.1524 21.7097 17.288 21.3158 16.4619C21.179 16.1828 20.993 15.953 20.4568 15.4169C19.8714 14.826 19.7127 14.7001 19.3626 14.5305C19.1383 14.4266 18.8538 14.3226 18.7334 14.3007C18.3285 14.2296 17.7048 14.2624 17.3383 14.3773C16.8951 14.5141 16.5942 14.7056 16.1018 15.1652C15.4835 15.7397 15.6148 15.7998 13.9078 14.0928C12.1954 12.3804 12.261 12.5226 12.8574 11.877C13.5084 11.1658 13.7382 10.6296 13.7328 9.82533C13.7328 9.26727 13.585 8.76392 13.2896 8.32623C13.0051 7.89948 12.0258 6.95297 11.6428 6.73412C11.0628 6.40585 10.2039 6.30737 9.53638 6.49886ZM10.647 8.15115C10.8276 8.21681 11.8397 9.20162 11.9601 9.42594C12.0695 9.63384 12.0695 10.0496 11.9601 10.2576C11.9163 10.3451 11.7631 10.5256 11.6209 10.6624C11.2489 11.018 11.0245 11.3573 10.8823 11.7402C10.7783 12.0247 10.7619 12.1615 10.7838 12.5609C10.8221 13.398 10.8604 13.4527 12.6768 15.2746C14.5699 17.1731 14.6082 17.2005 15.5328 17.2005C16.0635 17.2005 16.1346 17.1895 16.4683 17.0309C16.7036 16.9214 16.9826 16.719 17.2343 16.4783C17.4586 16.2649 17.6994 16.0625 17.7705 16.0242C17.951 15.9311 18.3778 15.9366 18.5747 16.0406C18.7991 16.1609 19.7839 17.1731 19.8495 17.3537C20.0246 17.8132 19.8769 18.1634 19.2477 18.7707C18.8702 19.1372 18.6459 19.3014 18.3067 19.471C16.4027 20.4175 13.4647 19.5148 11.1176 17.2606C9.53091 15.7397 8.53516 14.0162 8.23425 12.2545C7.98257 10.7828 8.28349 9.73232 9.23 8.75298C9.49262 8.4849 9.79353 8.22228 9.89748 8.17851C10.1218 8.08003 10.4337 8.06909 10.647 8.15115Z" fill="black"/>
</svg>
